<svg xmlns="http://www.w3.org/2000/svg" xmlns:xlink="http://www.w3.org/1999/xlink" width="450" height="300" viewBox="-0.75 -0.5 1.5 1.0"><style>svg {color-scheme: light dark;} {.canvas g, .title g, .axisbar g, .ticktext g, .tickglyph g, .ticklines g, .legendContent g text {fill: rgb(5%, 5%, 5%);} .ticklines g, .tickglyph g, .legendBorder g {stroke: rgb(5%, 5%, 5%);} .legendBorder g {fill: rgb(94%, 94%, 94%);}} @media (prefers-color-scheme:dark) {.canvas g, .title g, .axisbar g, .ticktext g, .tickglyph g, .ticklines g, .legendContent g text {fill: rgb(94%, 94%, 94%);} .ticklines g, .tickglyph g, .legendBorder g {stroke: rgb(94%, 94%, 94%);} .legendBorder g {fill: rgb(5%, 5%, 5%);}}
svg { font-family: system-ui,-apple-system,"Segoe UI",Roboto,"Helvetica Neue",Arial,"Noto Sans","Liberation Sans",sans-serif,"Apple Color Emoji","Segoe UI Emoji","Segoe UI Symbol","Noto Color Emoji";
}

ticktext { font-family: SFMono-Regular,Menlo,Monaco,Consolas,"Liberation Mono","Courier New",monospace;}</style><g class="chart"><g class="day"><g stroke-width="0.0030" stroke="rgb(2%, 73%, 80%)" stroke-opacity="1.0" fill="none"><polyline points="-0.5919,0.2530 -0.5910,0.1079 -0.5901,0.2589 -0.5893,0.2049 -0.5884,0.0689 -0.5876,0.2478 -0.5867,0.1332 -0.5858,0.2628 -0.5850,0.2094 -0.5841,0.1982 -0.5833,0.2570 -0.5824,0.2439 -0.5815,0.1695 -0.5807,0.2620 -0.5798,0.1910 -0.5790,0.2062 -0.5781,0.2380 -0.5772,0.2477 -0.5764,0.1420 -0.5755,0.2121 -0.5747,0.0877 -0.5738,0.2287 -0.5729,0.2027 -0.5721,0.2056 -0.5712,0.2588 -0.5704,0.1909 -0.5695,0.0971 -0.5686,0.1879 -0.5678,0.1744 -0.5669,0.2488 -0.5661,0.2234 -0.5652,0.1651 -0.5643,0.2623 -0.5635,0.2567 -0.5626,0.2593 -0.5618,0.2394 -0.5609,0.1285 -0.5600,0.2628 -0.5592,0.1542 -0.5583,0.2413 -0.5575,0.2551 -0.5566,0.2195 -0.5557,0.2525 -0.5549,0.1818 -0.5540,0.1248 -0.5532,0.2527 -0.5523,0.2483 -0.5514,0.1752 -0.5506,0.0414 -0.5497,0.2233 -0.5488,0.1943 -0.5480,0.2157 -0.5471,0.2477 -0.5463,0.1963 -0.5454,0.2404 -0.5445,0.1476 -0.5437,0.2240 -0.5428,0.1675 -0.5420,0.1980 -0.5411,-0.0241 -0.5402,0.2452 -0.5394,0.1924 -0.5385,0.2199 -0.5377,0.2224 -0.5368,0.1927 -0.5359,0.1536 -0.5351,0.2116 -0.5342,0.1528 -0.5334,0.1989 -0.5325,0.2535 -0.5316,0.1390 -0.5308,0.1266 -0.5299,0.1673 -0.5291,0.0989 -0.5282,0.0687 -0.5273,0.2541 -0.5265,0.1995 -0.5256,0.0801 -0.5248,0.2179 -0.5239,0.2243 -0.5230,0.2457 -0.5222,0.0984 -0.5213,0.1095 -0.5205,0.0951 -0.5196,0.1925 -0.5187,0.2233 -0.5179,0.2148 -0.5170,0.1128 -0.5162,0.1895 -0.5153,0.1610 -0.5144,0.2185 -0.5136,0.2272 -0.5127,0.1070 -0.5119,0.2181 -0.5110,0.2404 -0.5101,0.1004 -0.5093,0.1973 -0.5084,0.1782 -0.5076,0.2043 -0.5067,0.2306 -0.5058,0.1290 -0.5050,-0.0884 -0.5041,0.2068 -0.5033,0.2083 -0.5024,0.2102 -0.5015,0.2128 -0.5007,0.2471 -0.4998,0.2361 -0.4990,0.2418 -0.4981,0.1785 -0.4972,0.2286 -0.4964,0.2656 -0.4955,0.1648 -0.4947,0.2570 -0.4938,0.0664 -0.4929,0.2617 -0.4921,0.2596 -0.4912,0.1484 -0.4903,0.1718 -0.4895,0.2552 -0.4886,0.2180 -0.4878,0.2188 -0.4869,0.1739 -0.4860,0.2195 -0.4852,0.2274 -0.4843,0.1010 -0.4835,0.1936 -0.4826,0.2078 -0.4817,0.2606 -0.4809,0.1701 -0.4800,0.1714 -0.4792,0.2289 -0.4783,0.2407 -0.4774,0.1877 -0.4766,0.1533 -0.4757,0.2507 -0.4749,0.2410 -0.4740,0.2179 -0.4731,0.1902 -0.4723,0.1185 -0.4714,0.2624 -0.4706,0.2216 -0.4697,0.1832 -0.4688,0.2450 -0.4680,0.2411 -0.4671,0.2541 -0.4663,0.1640 -0.4654,0.2169 -0.4645,0.1438 -0.4637,0.1895 -0.4628,0.2628 -0.4620,0.2663 -0.4611,0.1952 -0.4602,0.2510 -0.4594,0.1814 -0.4585,0.1716 -0.4577,0.1989 -0.4568,0.1712 -0.4559,0.1988 -0.4551,0.2268 -0.4542,0.1831 -0.4534,0.1940 -0.4525,0.2090 -0.4516,0.2530 -0.4508,0.1924 -0.4499,0.2656 -0.4491,0.2492 -0.4482,0.1759 -0.4473,0.2492 -0.4465,0.1339 -0.4456,0.2571 -0.4448,0.2324 -0.4439,0.1976 -0.4430,0.2472 -0.4422,0.2474 -0.4413,0.2362 -0.4405,0.2176 -0.4396,0.1618 -0.4387,0.2629 -0.4379,0.1656 -0.4370,0.2581 -0.4362,0.1446 -0.4353,0.1713 -0.4344,0.2575 -0.4336,0.1597 -0.4327,0.2213 -0.4318,0.1526 -0.4310,0.1944 -0.4301,0.2089 -0.4293,0.1824 -0.4284,0.1580 -0.4275,0.2478 -0.4267,0.2304 -0.4258,0.2566 -0.4250,0.2571 -0.4241,0.1742 -0.4232,0.2299 -0.4224,0.1729 -0.4215,0.2431 -0.4207,0.2291 -0.4198,0.2510 -0.4189,0.2439 -0.4181,0.2609 -0.4172,0.2672 -0.4164,0.2401 -0.4155,0.1805 -0.4146,0.2538 -0.4138,0.2457 -0.4129,0.2618 -0.4121,0.2669 -0.4112,0.2281 -0.4103,0.2615 -0.4095,0.2618 -0.4086,0.1623 -0.4078,0.2421 -0.4069,0.1396 -0.4060,0.2132 -0.4052,0.2649 -0.4043,0.1906 -0.4035,0.2211 -0.4026,0.2197 -0.4017,0.1467 -0.4009,0.2645 -0.4000,0.2372 -0.3992,0.2380 -0.3983,0.2563 -0.3974,0.2570 -0.3966,0.2480 -0.3957,0.2253 -0.3949,0.1895 -0.3940,0.2054 -0.3931,0.2579 -0.3923,0.2664 -0.3914,0.1930 -0.3906,0.2190 -0.3897,0.2099 -0.3888,0.1819 -0.3880,0.2674 -0.3871,0.2270 -0.3863,0.2028 -0.3854,0.1723 -0.3845,0.2542 -0.3837,0.2520 -0.3828,0.2423 -0.3820,0.2268 -0.3811,0.2599 -0.3802,0.2063 -0.3794,0.2219 -0.3785,0.2621 -0.3777,0.1876 -0.3768,0.2432 -0.3759,0.2362 -0.3751,0.2328 -0.3742,0.2430 -0.3733,0.2167 -0.3725,0.2378 -0.3716,0.1923 -0.3708,0.2651 -0.3699,0.2380 -0.3690,0.1870 -0.3682,0.2597 -0.3673,0.2545 -0.3665,0.2150 -0.3656,0.2485 -0.3647,0.2516 -0.3639,0.2231 -0.3630,0.2188 -0.3622,0.2118 -0.3613,0.2607 -0.3604,0.2421 -0.3596,0.2207 -0.3587,0.2519 -0.3579,0.2227 -0.3570,0.2653 -0.3561,0.2409 -0.3553,0.2489 -0.3544,0.2664 -0.3536,0.2249 -0.3527,0.2026 -0.3518,0.2578 -0.3510,0.2499 -0.3501,0.1755 -0.3493,0.2506 -0.3484,0.2324 -0.3475,0.2082 -0.3467,0.2396 -0.3458,0.2209 -0.3450,0.2658 -0.3441,0.2604 -0.3432,0.2296 -0.3424,0.1908 -0.3415,0.2174 -0.3407,0.2164 -0.3398,0.2665 -0.3389,0.2222 -0.3381,0.2491 -0.3372,0.1950 -0.3364,0.1781 -0.3355,0.2233 -0.3346,0.2263 -0.3338,0.1724 -0.3329,0.2422 -0.3321,0.2569 -0.3312,0.2556 -0.3303,0.2397 -0.3295,0.2213 -0.3286,0.2462 -0.3278,0.2581 -0.3269,0.2233 -0.3260,0.2298 -0.3252,0.2593 -0.3243,0.2121 -0.3235,0.1868 -0.3226,0.2627 -0.3217,0.2533 -0.3209,0.2052 -0.3200,0.1584 -0.3192,0.2523 -0.3183,0.2410 -0.3174,0.1695 -0.3166,0.2660 -0.3157,0.2287 -0.3148,0.2496 -0.3140,0.2669 -0.3131,0.1762 -0.3123,0.2142 -0.3114,0.2589 -0.3105,0.1900 -0.3097,0.2260 -0.3088,0.2332 -0.3080,0.2392 -0.3071,0.2261 -0.3062,0.2343 -0.3054,0.1979 -0.3045,0.2668 -0.3037,0.1785 -0.3028,0.2113 -0.3019,0.1839 -0.3011,0.2563 -0.3002,0.2197 -0.2994,0.1722 -0.2985,0.1889 -0.2976,0.2357 -0.2968,0.1887 -0.2959,0.2249 -0.2951,0.1985 -0.2942,0.1442 -0.2933,0.2058 -0.2925,0.2559 -0.2916,0.2488 -0.2908,0.2608 -0.2899,0.2139 -0.2890,0.1652 -0.2882,0.2619 -0.2873,0.1428 -0.2865,0.2569 -0.2856,0.2596 -0.2847,0.2590 -0.2839,0.2189 -0.2830,0.2541 -0.2822,0.2407 -0.2813,0.2635 -0.2804,0.2546 -0.2796,0.2610 -0.2787,0.2612 -0.2779,0.2425 -0.2770,0.2288 -0.2761,0.2317 -0.2753,0.2637 -0.2744,0.2416 -0.2736,0.2151 -0.2727,0.2405 -0.2718,0.2416 -0.2710,0.2372 -0.2701,0.1780 -0.2693,0.2500 -0.2684,0.2670 -0.2675,0.2377 -0.2667,0.2289 -0.2658,0.1699 -0.2650,0.1999 -0.2641,0.2565 -0.2632,0.2396 -0.2624,0.2580 -0.2615,0.2650 -0.2607,0.2488 -0.2598,0.2300 -0.2589,0.2144 -0.2581,0.2448 -0.2572,0.2554 -0.2563,0.1750 -0.2555,0.2577 -0.2546,0.2302 -0.2538,0.2630 -0.2529,0.2625 -0.2520,0.2428 -0.2512,0.2303 -0.2503,0.2096 -0.2495,0.1867 -0.2486,0.2530 -0.2477,0.2482 -0.2469,0.2621 -0.2460,0.2329 -0.2452,0.2632 -0.2443,0.2178 -0.2434,0.2635 -0.2426,0.1604 -0.2417,0.1856 -0.2409,0.1974 -0.2400,0.2464 -0.2391,0.2522 -0.2383,0.2133 -0.2374,0.2637 -0.2366,0.2297 -0.2357,0.2612 -0.2348,0.1766 -0.2340,0.2046 -0.2331,0.2292 -0.2323,0.2357 -0.2314,0.2277 -0.2305,0.2591 -0.2297,0.1296 -0.2288,0.2652 -0.2280,0.2424 -0.2271,0.2562 -0.2262,0.2565 -0.2254,0.2331 -0.2245,0.2148 -0.2237,0.2596 -0.2228,0.1999 -0.2219,0.2336 -0.2211,0.1998 -0.2202,0.2243 -0.2194,0.2601 -0.2185,0.1940 -0.2176,0.2548 -0.2168,0.2485 -0.2159,0.2246 -0.2151,0.2259 -0.2142,0.2303 -0.2133,0.2090 -0.2125,0.2461 -0.2116,0.2582 -0.2108,0.2473 -0.2099,0.2490 -0.2090,0.2108 -0.2082,0.2601 -0.2073,0.2542 -0.2065,0.2195 -0.2056,0.2603 -0.2047,0.1856 -0.2039,0.1946 -0.2030,0.2650 -0.2022,0.2579 -0.2013,0.2048 -0.2004,0.2185 -0.1996,0.1708 -0.1987,0.1877 -0.1978,0.2539 -0.1970,0.2292 -0.1961,0.2529 -0.1953,0.2094 -0.1944,0.2101 -0.1935,0.1890 -0.1927,0.2661 -0.1918,0.2372 -0.1910,0.2005 -0.1901,0.2465 -0.1892,0.1629 -0.1884,0.2448 -0.1875,0.2075 -0.1867,0.1851 -0.1858,0.1997 -0.1849,0.2586 -0.1841,0.2674 -0.1832,0.2340 -0.1824,0.2566 -0.1815,0.2659 -0.1806,0.2356 -0.1798,0.1906 -0.1789,0.2537 -0.1781,0.2598 -0.1772,0.2614 -0.1763,0.2510 -0.1755,0.2496 -0.1746,0.2186 -0.1738,0.2214 -0.1729,0.2658 -0.1720,0.2187 -0.1712,0.2279 -0.1703,0.2147 -0.1695,0.2601 -0.1686,0.2576 -0.1677,0.1898 -0.1669,0.2661 -0.1660,0.2601 -0.1652,0.2505 -0.1643,0.2496 -0.1634,0.2116 -0.1626,0.2520 -0.1617,0.2649 -0.1609,0.2171 -0.1600,0.2509 -0.1591,0.2508 -0.1583,0.2571 -0.1574,0.2472 -0.1566,0.2416 -0.1557,0.2571 -0.1548,0.2615 -0.1540,0.2405 -0.1531,0.2498 -0.1523,0.2267 -0.1514,0.2340 -0.1505,0.2316 -0.1497,0.2608 -0.1488,0.2626 -0.1480,0.2005 -0.1471,0.2094 -0.1462,0.2312 -0.1454,0.2488 -0.1445,0.2254 -0.1437,0.1749 -0.1428,0.2157 -0.1419,0.2202 -0.1411,0.1967 -0.1402,0.2572 -0.1393,0.1130 -0.1385,0.2335 -0.1376,0.1947 -0.1368,0.2621 -0.1359,0.2347 -0.1350,0.1641 -0.1342,0.1765 -0.1333,0.1451 -0.1325,0.0667 -0.1316,0.1995 -0.1307,0.2162 -0.1299,0.1172 -0.1290,0.2367 -0.1282,0.2672 -0.1273,0.1573 -0.1264,0.2423 -0.1256,0.1619 -0.1247,0.2543 -0.1239,0.2036 -0.1230,0.2544 -0.1221,0.2396 -0.1213,0.2083 -0.1204,0.1921 -0.1196,0.2466 -0.1187,0.2569 -0.1178,0.2279 -0.1170,0.2672 -0.1161,0.2012 -0.1153,0.1264 -0.1144,0.2569 -0.1135,0.2475 -0.1127,0.1526 -0.1118,0.1915 -0.1110,0.2380 -0.1101,0.1975 -0.1092,0.2182 -0.1084,0.2319 -0.1075,0.2592 -0.1067,0.2657 -0.1058,0.2483 -0.1049,0.1564 -0.1041,0.2546 -0.1032,0.2490 -0.1024,0.2509 -0.1015,0.2552 -0.1006,0.2409 -0.0998,0.2592 -0.0989,0.2396 -0.0981,0.2057 -0.0972,0.2666 -0.0963,0.2564 -0.0955,0.2086 -0.0946,0.2039 -0.0938,0.2039 -0.0929,0.2207 -0.0920,0.2538 -0.0912,0.2277 -0.0903,0.2168 -0.0895,0.2171 -0.0886,0.2367 -0.0877,0.2663 -0.0869,0.2413 -0.0860,0.2554 -0.0852,0.2643 -0.0843,0.2066 -0.0834,0.2533 -0.0826,0.2655 -0.0817,0.2500 -0.0808,0.2568 -0.0800,0.2457 -0.0791,0.1435 -0.0783,0.2405 -0.0774,0.2489 -0.0765,0.1870 -0.0757,0.1027 -0.0748,0.2186 -0.0740,0.2427 -0.0731,0.2611 -0.0722,0.2484 -0.0714,0.2659 -0.0705,0.2274 -0.0697,0.1798 -0.0688,0.2417 -0.0679,0.2414 -0.0671,0.2673 -0.0662,0.2323 -0.0654,0.2446 -0.0645,0.2476 -0.0636,0.2298 -0.0628,0.2423 -0.0619,0.2306 -0.0611,0.2513 -0.0602,0.2645 -0.0593,0.2277 -0.0585,0.2551 -0.0576,0.2510 -0.0568,0.2268 -0.0559,0.2479 -0.0550,0.2138 -0.0542,0.2317 -0.0533,0.2673 -0.0525,0.2424 -0.0516,0.2419 -0.0507,0.0700 -0.0499,0.2618 -0.0490,0.1961 -0.0482,0.2196 -0.0473,0.1950 -0.0464,0.2648 -0.0456,0.1941 -0.0447,0.1965 -0.0439,0.2391 -0.0430,0.2528 -0.0421,0.1849 -0.0413,0.2310 -0.0404,0.1938 -0.0396,0.2572 -0.0387,0.1650 -0.0378,0.2571 -0.0370,0.2599 -0.0361,0.1478 -0.0353,0.2535 -0.0344,0.2019 -0.0335,0.2099 -0.0327,0.2271 -0.0318,0.2325 -0.0310,0.2486 -0.0301,0.1706 -0.0292,0.2069 -0.0284,0.2365 -0.0275,0.2328 -0.0267,0.2341 -0.0258,0.2171 -0.0249,0.2200 -0.0241,0.2417 -0.0232,0.2435 -0.0223,0.2047 -0.0215,0.2233 -0.0206,0.2652 -0.0198,0.2495 -0.0189,0.1990 -0.0180,0.2670 -0.0172,0.2514 -0.0163,0.2518 -0.0155,0.2388 -0.0146,0.1539 -0.0137,0.2346 -0.0129,0.2365 -0.0120,0.2666 -0.0112,0.1620 -0.0103,0.1637 -0.0094,0.1503 -0.0086,0.1863 -0.0077,0.1943 -0.0069,0.1489 -0.0060,0.2311 -0.0051,0.0871 -0.0043,0.2174 -0.0034,0.2353 -0.0026,0.1752 -0.0017,0.1286 -0.0008,0.2253 0.0000,0.1968 0.0009,0.1966 0.0017,0.2530 0.0026,0.2620 0.0035,0.1521 0.0043,0.2571 0.0052,0.1935 0.0060,0.2456 0.0069,0.1360 0.0078,0.2310 0.0086,0.2426 0.0095,0.2232 0.0103,-0.0598 0.0112,-0.1390 0.0121,0.2521 0.0129,0.1631 0.0138,-0.3321 0.0146,0.0351 0.0155,0.1492 0.0164,0.2153 0.0172,0.2561 0.0181,0.1180 0.0189,0.2587 0.0198,0.1101 0.0207,0.1038 0.0215,0.1585 0.0224,0.1352 0.0232,0.2190 0.0241,0.2632 0.0250,0.2293 0.0258,0.2577 0.0267,0.2260 0.0275,0.1710 0.0284,0.2252 0.0293,0.2165 0.0301,0.2389 0.0310,0.2293 0.0318,0.2628 0.0327,0.0561 0.0336,0.2198 0.0344,0.2607 0.0353,0.2403 0.0362,0.2214 0.0370,0.2617 0.0379,0.2418 0.0387,0.1602 0.0396,0.2645 0.0405,0.2231 0.0413,0.1339 0.0422,0.2306 0.0430,0.2411 0.0439,0.2669 0.0448,0.2405 0.0456,0.2293 0.0465,0.2670 0.0473,0.2326 0.0482,0.2000 0.0491,0.2614 0.0499,0.2314 0.0508,0.2493 0.0516,0.2423 0.0525,0.1925 0.0534,0.2058 0.0542,0.2121 0.0551,0.2654 0.0559,0.2531 0.0568,0.2044 0.0577,0.1945 0.0585,0.2674 0.0594,0.2148 0.0602,0.2331 0.0611,0.2335 0.0620,0.2601 0.0628,0.2362 0.0637,0.2127 0.0645,0.2154 0.0654,0.2627 0.0663,0.2276 0.0671,0.2494 0.0680,0.2457 0.0688,0.2582 0.0697,0.2413 0.0706,0.2464 0.0714,0.2321 0.0723,0.2669 0.0731,0.2582 0.0740,0.2633 0.0749,0.2161 0.0757,0.2629 0.0766,0.2413 0.0774,0.2663 0.0783,0.2479 0.0792,0.2592 0.0800,0.2430 0.0809,0.1611 0.0817,0.1710 0.0826,0.2353 0.0835,0.2196 0.0843,0.2622 0.0852,0.2162 0.0860,0.2509 0.0869,0.1930 0.0878,0.2462 0.0886,0.2655 0.0895,0.2483 0.0903,0.2668 0.0912,0.2287 0.0921,0.2514 0.0929,0.2410 0.0938,0.1680 0.0947,0.2393 0.0955,0.2402 0.0964,0.2517 0.0972,0.2467 0.0981,0.2251 0.0990,0.2216 0.0998,0.2339 0.1007,0.2126 0.1015,0.2466 0.1024,0.2536 0.1033,0.2498 0.1041,0.2478 0.1050,0.2117 0.1058,0.2643 0.1067,0.2365 0.1076,0.2590 0.1084,0.2611 0.1093,0.2359 0.1101,0.2353 0.1110,0.2384 0.1119,0.2311 0.1127,0.2487 0.1136,0.2343 0.1144,0.2286 0.1153,0.2501 0.1162,0.2405 0.1170,0.2451 0.1179,0.2634 0.1187,0.2670 0.1196,0.2435 0.1205,0.2423 0.1213,0.2291 0.1222,0.2493 0.1230,0.0861 0.1239,0.1654 0.1248,0.2571 0.1256,0.2410 0.1265,0.2258 0.1273,0.2328 0.1282,0.1974 0.1291,0.2672 0.1299,0.2322 0.1308,0.2291 0.1316,0.2155 0.1325,0.1869 0.1334,0.2524 0.1342,0.2672 0.1351,0.2018 0.1359,0.2502 0.1368,0.2561 0.1377,0.1896 0.1385,0.2434 0.1394,0.1933 0.1402,0.2591 0.1411,0.1666 0.1420,0.2538 0.1428,0.2633 0.1437,0.1573 0.1445,0.2642 0.1454,0.2067 0.1463,0.2128 0.1471,0.2427 0.1480,0.1640 0.1488,0.2030 0.1497,0.1662 0.1506,0.2080 0.1514,0.2221 0.1523,0.2322 0.1532,0.2323 0.1540,0.2513 0.1549,0.2478 0.1557,0.2603 0.1566,0.2547 0.1575,0.2445 0.1583,0.2617 0.1592,0.2231 0.1600,0.2538 0.1609,0.1967 0.1618,0.2569 0.1626,0.2517 0.1635,0.1905 0.1643,0.2153 0.1652,0.2095 0.1661,0.2251 0.1669,0.2375 0.1678,0.2462 0.1686,0.2655 0.1695,0.2444 0.1704,0.2584 0.1712,0.2187 0.1721,0.2550 0.1729,0.2257 0.1738,0.2267 0.1747,0.2447 0.1755,0.2670 0.1764,0.2249 0.1772,0.2571 0.1781,0.2547 0.1790,0.2322 0.1798,0.2505 0.1807,0.2632 0.1815,0.1300 0.1824,0.1915 0.1833,0.2314 0.1841,0.2653 0.1850,0.2345 0.1858,0.2406 0.1867,0.2669 0.1876,0.2589 0.1884,0.2390 0.1893,0.2320 0.1901,0.2118 0.1910,0.2339 0.1919,0.1861 0.1927,0.1388 0.1936,0.2366 0.1944,0.2456 0.1953,0.2671 0.1962,0.1633 0.1970,0.2642 0.1979,0.2607 0.1987,0.2308 0.1996,0.2488 0.2005,0.2218 0.2013,0.1986 0.2022,0.2172 0.2030,0.2140 0.2039,0.2320 0.2048,0.2388 0.2056,0.2648 0.2065,0.2049 0.2073,0.2165 0.2082,0.2301 0.2091,0.1793 0.2099,0.2129 0.2108,0.2534 0.2117,0.2619 0.2125,0.1662 0.2134,0.2274 0.2142,0.2010 0.2151,0.2510 0.2160,0.1771 0.2168,0.2493 0.2177,0.1668 0.2185,0.1923 0.2194,0.2427 0.2203,0.2318 0.2211,0.1516 0.2220,0.1562 0.2228,0.2414 0.2237,0.0780 0.2246,0.2203 0.2254,0.2601 0.2263,0.2383 0.2271,0.2625 0.2280,0.1040 0.2289,0.2269 0.2297,0.2599 0.2306,0.2007 0.2314,0.1902 0.2323,0.2151 0.2332,0.2503 0.2340,0.1885 0.2349,0.2518 0.2357,0.2255 0.2366,0.1988 0.2375,0.2401 0.2383,0.2151 0.2392,0.2593 0.2400,0.2351 0.2409,0.2648 0.2418,0.2003 0.2426,0.2482 0.2435,0.2406 0.2443,0.2141 0.2452,0.1719 0.2461,0.2423 0.2469,0.2121 0.2478,0.2551 0.2486,0.2569 0.2495,0.2290 0.2504,0.2172 0.2512,0.1854 0.2521,0.2626 0.2529,0.2233 0.2538,0.1967 0.2547,0.2562 0.2555,0.2429 0.2564,0.2273 0.2572,0.2664 0.2581,0.2296 0.2590,0.2531 0.2598,0.2502 0.2607,0.2589 0.2615,0.2187 0.2624,0.2408 0.2633,0.0907 0.2641,0.2478 0.2650,0.2504 0.2658,0.1597 0.2667,0.1529 0.2676,0.2344"/></g><g stroke-width="0.0030" stroke="rgb(2%, 29%, 48%)" stroke-opacity="1.0" fill="none"><polyline points="-0.5919,0.1641 -0.5910,0.1824 -0.5901,0.2009 -0.5893,0.1968 -0.5884,0.2184 -0.5876,0.2037 -0.5867,0.1856 -0.5858,0.2078 -0.5850,0.2055 -0.5841,0.2224 -0.5833,0.2059 -0.5824,0.2212 -0.5815,0.2314 -0.5807,0.2177 -0.5798,0.2113 -0.5790,0.2181 -0.5781,0.2308 -0.5772,0.2273 -0.5764,0.2321 -0.5755,0.2018 -0.5747,0.1940 -0.5738,0.1818 -0.5729,0.2028 -0.5721,0.2281 -0.5712,0.2061 -0.5704,0.2187 -0.5695,0.2154 -0.5686,0.1791 -0.5678,0.2139 -0.5669,0.2310 -0.5661,0.2094 -0.5652,0.2280 -0.5643,0.2016 -0.5635,0.2104 -0.5626,0.2317 -0.5618,0.2339 -0.5609,0.2300 -0.5600,0.1969 -0.5592,0.2023 -0.5583,0.2081 -0.5575,0.2150 -0.5566,0.2307 -0.5557,0.2209 -0.5549,0.2204 -0.5540,0.2120 -0.5532,0.2212 -0.5523,0.2058 -0.5514,0.2261 -0.5506,0.2179 -0.5497,0.1630 -0.5488,0.1936 -0.5480,0.2271 -0.5471,0.2297 -0.5463,0.2183 -0.5454,0.2141 -0.5445,0.2246 -0.5437,0.2013 -0.5428,0.2173 -0.5420,0.2218 -0.5411,0.2276 -0.5402,0.1532 -0.5394,0.1642 -0.5385,0.2121 -0.5377,0.2281 -0.5368,0.2136 -0.5359,0.2076 -0.5351,0.2250 -0.5342,0.2215 -0.5334,0.2213 -0.5325,0.2242 -0.5316,0.2221 -0.5308,0.2023 -0.5299,0.1741 -0.5291,0.2240 -0.5282,0.1739 -0.5273,0.2249 -0.5265,0.1868 -0.5256,0.2209 -0.5248,0.2075 -0.5239,0.2036 -0.5230,0.2309 -0.5222,0.2296 -0.5213,0.1915 -0.5205,0.1612 -0.5196,0.1605 -0.5187,0.2120 -0.5179,0.2074 -0.5170,0.2310 -0.5162,0.1879 -0.5153,0.2171 -0.5144,0.2280 -0.5136,0.1996 -0.5127,0.2307 -0.5119,0.1893 -0.5110,0.1875 -0.5101,0.2280 -0.5093,0.2030 -0.5084,0.2128 -0.5076,0.1983 -0.5067,0.2279 -0.5058,0.2285 -0.5050,0.1950 -0.5041,0.1236 -0.5033,0.1682 -0.5024,0.2061 -0.5015,0.2084 -0.5007,0.2094 -0.4998,0.2266 -0.4990,0.2228 -0.4981,0.2217 -0.4972,0.2088 -0.4964,0.2232 -0.4955,0.2251 -0.4947,0.2117 -0.4938,0.2139 -0.4929,0.1866 -0.4921,0.1882 -0.4912,0.2298 -0.4903,0.2095 -0.4895,0.2289 -0.4886,0.2157 -0.4878,0.2203 -0.4869,0.2125 -0.4860,0.2026 -0.4852,0.2240 -0.4843,0.2146 -0.4835,0.2058 -0.4826,0.2137 -0.4817,0.2305 -0.4809,0.2195 -0.4800,0.2139 -0.4792,0.1911 -0.4783,0.2043 -0.4774,0.2198 -0.4766,0.2223 -0.4757,0.1909 -0.4749,0.2051 -0.4740,0.2307 -0.4731,0.2174 -0.4723,0.2061 -0.4714,0.1838 -0.4706,0.2000 -0.4697,0.2228 -0.4688,0.2257 -0.4680,0.2207 -0.4671,0.2329 -0.4663,0.2256 -0.4654,0.2141 -0.4645,0.2226 -0.4637,0.1952 -0.4628,0.2238 -0.4620,0.2158 -0.4611,0.2325 -0.4602,0.2180 -0.4594,0.2220 -0.4585,0.2113 -0.4577,0.1937 -0.4568,0.2275 -0.4559,0.2283 -0.4551,0.1974 -0.4542,0.2275 -0.4534,0.2063 -0.4525,0.1991 -0.4516,0.2298 -0.4508,0.2180 -0.4499,0.2206 -0.4491,0.2173 -0.4482,0.2298 -0.4473,0.2098 -0.4465,0.2181 -0.4456,0.2087 -0.4448,0.2069 -0.4439,0.2236 -0.4430,0.2110 -0.4422,0.2143 -0.4413,0.2254 -0.4405,0.2317 -0.4396,0.2163 -0.4387,0.2216 -0.4379,0.2118 -0.4370,0.2102 -0.4362,0.2096 -0.4353,0.2049 -0.4344,0.2281 -0.4336,0.2150 -0.4327,0.2077 -0.4318,0.2000 -0.4310,0.1984 -0.4301,0.1924 -0.4293,0.2050 -0.4284,0.2276 -0.4275,0.1908 -0.4267,0.2055 -0.4258,0.2294 -0.4250,0.2286 -0.4241,0.2296 -0.4232,0.2112 -0.4224,0.2220 -0.4215,0.2217 -0.4207,0.2188 -0.4198,0.2201 -0.4189,0.2295 -0.4181,0.2254 -0.4172,0.2307 -0.4164,0.2329 -0.4155,0.2284 -0.4146,0.2088 -0.4138,0.2120 -0.4129,0.2264 -0.4121,0.2309 -0.4112,0.2330 -0.4103,0.2257 -0.4095,0.2243 -0.4086,0.2335 -0.4078,0.2096 -0.4069,0.2166 -0.4060,0.1998 -0.4052,0.2179 -0.4043,0.2215 -0.4035,0.2176 -0.4026,0.2276 -0.4017,0.2338 -0.4009,0.1966 -0.4000,0.2081 -0.3992,0.2263 -0.3983,0.2211 -0.3974,0.2254 -0.3966,0.2336 -0.3957,0.2278 -0.3949,0.2207 -0.3940,0.2076 -0.3931,0.2302 -0.3923,0.2184 -0.3914,0.2318 -0.3906,0.2175 -0.3897,0.2286 -0.3888,0.2106 -0.3880,0.2275 -0.3871,0.2153 -0.3863,0.2250 -0.3854,0.2109 -0.3845,0.2270 -0.3837,0.2102 -0.3828,0.2278 -0.3820,0.2254 -0.3811,0.2197 -0.3802,0.2270 -0.3794,0.2225 -0.3785,0.2309 -0.3777,0.2254 -0.3768,0.2178 -0.3759,0.2112 -0.3751,0.2315 -0.3742,0.2337 -0.3733,0.2212 -0.3725,0.2177 -0.3716,0.2296 -0.3708,0.2109 -0.3699,0.2171 -0.3690,0.2273 -0.3682,0.2229 -0.3673,0.2182 -0.3665,0.2294 -0.3656,0.2255 -0.3647,0.2270 -0.3639,0.2266 -0.3630,0.2280 -0.3622,0.2333 -0.3613,0.2329 -0.3604,0.2205 -0.3596,0.2273 -0.3587,0.2296 -0.3579,0.2275 -0.3570,0.2208 -0.3561,0.2240 -0.3553,0.2288 -0.3544,0.2327 -0.3536,0.2301 -0.3527,0.2251 -0.3518,0.2104 -0.3510,0.2221 -0.3501,0.2281 -0.3493,0.2177 -0.3484,0.2177 -0.3475,0.2302 -0.3467,0.2133 -0.3458,0.2150 -0.3450,0.2297 -0.3441,0.2237 -0.3432,0.2323 -0.3424,0.2244 -0.3415,0.2088 -0.3407,0.2282 -0.3398,0.2338 -0.3389,0.2232 -0.3381,0.2239 -0.3372,0.2203 -0.3364,0.2142 -0.3355,0.1982 -0.3346,0.2046 -0.3338,0.2315 -0.3329,0.2224 -0.3321,0.2189 -0.3312,0.2261 -0.3303,0.2295 -0.3295,0.2256 -0.3286,0.2302 -0.3278,0.2289 -0.3269,0.2275 -0.3260,0.2266 -0.3252,0.2161 -0.3243,0.2242 -0.3235,0.2237 -0.3226,0.2040 -0.3217,0.2153 -0.3209,0.2300 -0.3200,0.2236 -0.3192,0.2238 -0.3183,0.2134 -0.3174,0.2247 -0.3166,0.2066 -0.3157,0.2122 -0.3148,0.2256 -0.3140,0.2218 -0.3131,0.2303 -0.3123,0.2139 -0.3114,0.2021 -0.3105,0.2205 -0.3097,0.2152 -0.3088,0.2263 -0.3080,0.2326 -0.3071,0.2331 -0.3062,0.2188 -0.3054,0.2322 -0.3045,0.2114 -0.3037,0.2188 -0.3028,0.2144 -0.3019,0.2270 -0.3011,0.2284 -0.3002,0.2182 -0.2994,0.2210 -0.2985,0.2024 -0.2976,0.2298 -0.2968,0.2239 -0.2959,0.2095 -0.2951,0.2262 -0.2942,0.2286 -0.2933,0.2222 -0.2925,0.2207 -0.2916,0.2230 -0.2908,0.2326 -0.2899,0.2318 -0.2890,0.2209 -0.2882,0.1996 -0.2873,0.2103 -0.2865,0.2053 -0.2856,0.2089 -0.2847,0.2318 -0.2839,0.2342 -0.2830,0.2255 -0.2822,0.2206 -0.2813,0.2255 -0.2804,0.2294 -0.2796,0.2306 -0.2787,0.2302 -0.2779,0.2316 -0.2770,0.2275 -0.2761,0.2313 -0.2753,0.2178 -0.2744,0.2273 -0.2736,0.2295 -0.2727,0.2169 -0.2718,0.2287 -0.2710,0.2338 -0.2701,0.2335 -0.2693,0.2212 -0.2684,0.2184 -0.2675,0.2300 -0.2667,0.2277 -0.2658,0.2323 -0.2650,0.2039 -0.2641,0.1975 -0.2632,0.2216 -0.2624,0.2306 -0.2615,0.2304 -0.2607,0.2328 -0.2598,0.2297 -0.2589,0.2302 -0.2581,0.2309 -0.2572,0.2277 -0.2563,0.2266 -0.2555,0.2163 -0.2546,0.2116 -0.2538,0.2239 -0.2529,0.2252 -0.2520,0.2323 -0.2512,0.2278 -0.2503,0.2315 -0.2495,0.2131 -0.2486,0.2287 -0.2477,0.2196 -0.2469,0.2327 -0.2460,0.2314 -0.2452,0.2279 -0.2443,0.2258 -0.2434,0.2224 -0.2426,0.2225 -0.2417,0.2111 -0.2409,0.1921 -0.2400,0.2297 -0.2391,0.2140 -0.2383,0.2263 -0.2374,0.2256 -0.2366,0.2232 -0.2357,0.2269 -0.2348,0.2246 -0.2340,0.2153 -0.2331,0.2000 -0.2323,0.2283 -0.2314,0.2187 -0.2305,0.2320 -0.2297,0.2237 -0.2288,0.2052 -0.2280,0.2041 -0.2271,0.2274 -0.2262,0.2264 -0.2254,0.2295 -0.2245,0.2243 -0.2237,0.2302 -0.2228,0.2209 -0.2219,0.2209 -0.2211,0.2118 -0.2202,0.2263 -0.2194,0.2096 -0.2185,0.2263 -0.2176,0.2162 -0.2168,0.2152 -0.2159,0.2320 -0.2151,0.2291 -0.2142,0.2155 -0.2133,0.2324 -0.2125,0.2297 -0.2116,0.2262 -0.2108,0.2275 -0.2099,0.2319 -0.2090,0.2341 -0.2082,0.2176 -0.2073,0.2234 -0.2065,0.2296 -0.2056,0.2266 -0.2047,0.2221 -0.2039,0.2145 -0.2030,0.1998 -0.2022,0.2175 -0.2013,0.2314 -0.2004,0.2183 -0.1996,0.2095 -0.1987,0.2019 -0.1978,0.2297 -0.1970,0.2196 -0.1961,0.2289 -0.1953,0.2292 -0.1944,0.2248 -0.1935,0.2086 -0.1927,0.2289 -0.1918,0.2172 -0.1910,0.2270 -0.1901,0.2127 -0.1892,0.2241 -0.1884,0.2061 -0.1875,0.2161 -0.1867,0.2156 -0.1858,0.2289 -0.1849,0.2312 -0.1841,0.2212 -0.1832,0.2320 -0.1824,0.2270 -0.1815,0.2294 -0.1806,0.2316 -0.1798,0.2270 -0.1789,0.2243 -0.1781,0.2142 -0.1772,0.2294 -0.1763,0.2339 -0.1755,0.2321 -0.1746,0.2268 -0.1738,0.2274 -0.1729,0.2132 -0.1720,0.2245 -0.1712,0.2230 -0.1703,0.2322 -0.1695,0.2137 -0.1686,0.2243 -0.1677,0.2334 -0.1669,0.2192 -0.1660,0.2168 -0.1652,0.2322 -0.1643,0.2290 -0.1634,0.2339 -0.1626,0.2259 -0.1617,0.2254 -0.1609,0.2302 -0.1600,0.2226 -0.1591,0.2269 -0.1583,0.2269 -0.1574,0.2329 -0.1566,0.2323 -0.1557,0.2241 -0.1548,0.2309 -0.1540,0.2334 -0.1531,0.2271 -0.1523,0.2245 -0.1514,0.2291 -0.1505,0.2328 -0.1497,0.2339 -0.1488,0.2279 -0.1480,0.2337 -0.1471,0.2205 -0.1462,0.2065 -0.1454,0.2134 -0.1445,0.2302 -0.1437,0.2292 -0.1428,0.2043 -0.1419,0.2251 -0.1411,0.2330 -0.1402,0.2079 -0.1393,0.2163 -0.1385,0.2018 -0.1376,0.2075 -0.1368,0.2101 -0.1359,0.2194 -0.1350,0.2256 -0.1342,0.2039 -0.1333,0.1910 -0.1325,0.2258 -0.1316,0.2168 -0.1307,0.1742 -0.1299,0.2076 -0.1290,0.1893 -0.1282,0.2077 -0.1273,0.2269 -0.1264,0.2098 -0.1256,0.2154 -0.1247,0.2165 -0.1239,0.2138 -0.1230,0.2231 -0.1221,0.2173 -0.1213,0.2253 -0.1204,0.2150 -0.1196,0.2044 -0.1187,0.2129 -0.1178,0.2273 -0.1170,0.2233 -0.1161,0.2257 -0.1153,0.2194 -0.1144,0.1880 -0.1135,0.2052 -0.1127,0.2311 -0.1118,0.2131 -0.1110,0.1917 -0.1101,0.2236 -0.1092,0.2254 -0.1084,0.2298 -0.1075,0.2313 -0.1067,0.2283 -0.1058,0.2328 -0.1049,0.2298 -0.1041,0.2052 -0.1032,0.2068 -0.1024,0.2272 -0.1015,0.2337 -0.1006,0.2280 -0.0998,0.2258 -0.0989,0.2267 -0.0981,0.2264 -0.0972,0.2144 -0.0963,0.2204 -0.0955,0.2316 -0.0946,0.2188 -0.0938,0.2071 -0.0929,0.2060 -0.0920,0.2300 -0.0912,0.2209 -0.0903,0.2225 -0.0895,0.2317 -0.0886,0.2118 -0.0877,0.2163 -0.0869,0.2273 -0.0860,0.2284 -0.0852,0.2259 -0.0843,0.2324 -0.0834,0.2215 -0.0826,0.2177 -0.0817,0.2306 -0.0808,0.2301 -0.0800,0.2329 -0.0791,0.2272 -0.0783,0.2114 -0.0774,0.2007 -0.0765,0.2240 -0.0757,0.2123 -0.0748,0.2152 -0.0740,0.2085 -0.0731,0.2282 -0.0722,0.2303 -0.0714,0.2287 -0.0705,0.2299 -0.0697,0.2252 -0.0688,0.2236 -0.0679,0.2090 -0.0671,0.2319 -0.0662,0.2287 -0.0654,0.2267 -0.0645,0.2317 -0.0636,0.2338 -0.0628,0.2305 -0.0619,0.2204 -0.0611,0.2206 -0.0602,0.2298 -0.0593,0.2315 -0.0585,0.2262 -0.0576,0.2228 -0.0568,0.2280 -0.0559,0.2217 -0.0550,0.2297 -0.0542,0.2180 -0.0533,0.2145 -0.0525,0.2264 -0.0516,0.2287 -0.0507,0.2232 -0.0499,0.1957 -0.0490,0.1916 -0.0482,0.2162 -0.0473,0.2291 -0.0464,0.2290 -0.0456,0.2176 -0.0447,0.2183 -0.0439,0.2328 -0.0430,0.2249 -0.0421,0.2312 -0.0413,0.2126 -0.0404,0.2241 -0.0396,0.2096 -0.0387,0.2157 -0.0378,0.2092 -0.0370,0.2092 -0.0361,0.2319 -0.0353,0.2093 -0.0344,0.2046 -0.0335,0.2166 -0.0327,0.2321 -0.0318,0.2306 -0.0310,0.2332 -0.0301,0.2224 -0.0292,0.2168 -0.0284,0.1992 -0.0275,0.2140 -0.0267,0.2198 -0.0258,0.2192 -0.0249,0.2302 -0.0241,0.2125 -0.0232,0.2293 -0.0223,0.2338 -0.0215,0.2150 -0.0206,0.2106 -0.0198,0.2250 -0.0189,0.2298 -0.0180,0.2151 -0.0172,0.2191 -0.0163,0.2306 -0.0155,0.2341 -0.0146,0.2245 -0.0137,0.2153 -0.0129,0.2164 -0.0120,0.2326 -0.0112,0.2273 -0.0103,0.2106 -0.0094,0.1876 -0.0086,0.1850 -0.0077,0.2254 -0.0069,0.1997 -0.0060,0.1915 -0.0051,0.1998 -0.0043,0.1860 -0.0034,0.2053 -0.0026,0.2155 -0.0017,0.2066 -0.0008,0.1827 0.0000,0.2126 0.0009,0.2088 0.0017,0.2028 0.0026,0.2154 0.0035,0.2298 0.0043,0.2097 0.0052,0.2110 0.0060,0.2151 0.0069,0.2228 0.0078,0.2099 0.0086,0.1969 0.0095,0.2301 0.0103,0.2301 0.0112,0.1509 0.0121,0.2141 0.0129,0.1467 0.0138,0.2134 0.0146,0.0762 0.0155,0.0482 0.0164,0.1552 0.0172,0.2183 0.0181,0.2199 0.0189,0.2032 0.0198,0.1991 0.0207,0.1973 0.0215,0.1625 0.0224,0.2209 0.0232,0.2292 0.0241,0.2157 0.0250,0.2242 0.0258,0.2269 0.0267,0.2281 0.0275,0.2274 0.0284,0.2220 0.0293,0.2034 0.0301,0.2306 0.0310,0.2166 0.0318,0.2316 0.0327,0.2249 0.0336,0.1860 0.0344,0.1978 0.0353,0.2243 0.0362,0.2299 0.0370,0.2302 0.0379,0.2255 0.0387,0.2273 0.0396,0.2160 0.0405,0.2111 0.0413,0.2251 0.0422,0.1945 0.0430,0.1963 0.0439,0.2201 0.0448,0.2284 0.0456,0.2283 0.0465,0.2319 0.0473,0.2260 0.0482,0.2264 0.0491,0.2115 0.0499,0.2207 0.0508,0.2277 0.0516,0.2223 0.0525,0.2248 0.0534,0.2120 0.0542,0.2039 0.0551,0.2083 0.0559,0.2225 0.0568,0.2316 0.0577,0.2171 0.0585,0.2315 0.0594,0.2181 0.0602,0.2227 0.0611,0.2303 0.0620,0.2341 0.0628,0.2252 0.0637,0.2258 0.0645,0.2290 0.0654,0.2105 0.0663,0.2238 0.0671,0.2243 0.0680,0.2296 0.0688,0.2255 0.0697,0.2275 0.0706,0.2266 0.0714,0.2239 0.0723,0.2310 0.0731,0.2264 0.0740,0.2322 0.0749,0.2334 0.0757,0.2239 0.0766,0.2240 0.0774,0.2296 0.0783,0.2289 0.0792,0.2297 0.0800,0.2320 0.0809,0.2309 0.0817,0.2160 0.0826,0.1890 0.0835,0.2056 0.0843,0.2165 0.0852,0.2226 0.0860,0.2218 0.0869,0.2193 0.0878,0.2141 0.0886,0.2226 0.0895,0.2299 0.0903,0.2297 0.0912,0.2304 0.0921,0.2260 0.0929,0.2294 0.0938,0.2321 0.0947,0.2062 0.0955,0.2059 0.0964,0.2220 0.0972,0.2317 0.0981,0.2334 0.0990,0.2203 0.0998,0.2328 0.1007,0.2166 0.1015,0.2292 0.1024,0.2175 0.1033,0.2266 0.1041,0.2333 0.1050,0.2340 0.1058,0.2264 0.1067,0.2213 0.1076,0.2268 0.1084,0.2257 0.1093,0.2335 0.1101,0.2260 0.1110,0.2336 0.1119,0.2338 0.1127,0.2198 0.1136,0.2304 0.1144,0.2313 0.1153,0.2183 0.1162,0.2296 0.1170,0.2323 0.1179,0.2335 0.1187,0.2304 0.1196,0.2335 0.1205,0.2292 0.1213,0.2235 0.1222,0.2203 0.1230,0.2218 0.1239,0.1976 0.1248,0.1710 0.1256,0.2090 0.1265,0.2261 0.1273,0.2192 0.1282,0.2174 0.1291,0.2262 0.1299,0.2188 0.1308,0.2262 0.1316,0.2180 0.1325,0.2309 0.1334,0.2280 0.1342,0.2198 0.1351,0.2306 0.1359,0.2197 0.1368,0.2159 0.1377,0.2323 0.1385,0.2144 0.1394,0.2117 0.1402,0.2125 0.1411,0.2160 0.1420,0.2134 0.1428,0.2150 0.1437,0.2314 0.1445,0.2088 0.1454,0.2106 0.1463,0.2216 0.1471,0.2327 0.1480,0.2166 0.1488,0.2058 0.1497,0.1969 0.1506,0.2251 0.1514,0.2251 0.1523,0.2311 0.1532,0.2321 0.1540,0.2186 0.1549,0.2230 0.1557,0.2330 0.1566,0.2317 0.1575,0.2332 0.1583,0.2265 0.1592,0.2306 0.1600,0.2232 0.1609,0.2276 0.1618,0.2154 0.1626,0.2210 0.1635,0.2328 0.1643,0.2207 0.1652,0.2056 0.1661,0.2312 0.1669,0.2310 0.1678,0.2317 0.1686,0.2325 0.1695,0.2292 0.1704,0.2297 0.1712,0.2314 0.1721,0.2256 0.1729,0.2208 0.1738,0.2276 0.1747,0.2338 0.1755,0.2202 0.1764,0.2292 0.1772,0.2250 0.1781,0.2273 0.1790,0.2292 0.1798,0.2294 0.1807,0.2228 0.1815,0.2297 0.1824,0.2045 0.1833,0.1867 0.1841,0.2247 0.1850,0.2267 0.1858,0.2276 0.1867,0.2330 0.1876,0.2283 0.1884,0.2325 0.1893,0.2300 0.1901,0.2202 0.1910,0.2141 0.1919,0.2293 0.1927,0.2238 0.1936,0.1873 0.1944,0.2124 0.1953,0.2222 0.1962,0.2296 0.1970,0.2112 0.1979,0.2104 0.1987,0.2319 0.1996,0.2278 0.2005,0.2221 0.2013,0.2201 0.2022,0.2088 0.2030,0.2078 0.2039,0.2317 0.2048,0.2145 0.2056,0.2321 0.2065,0.2274 0.2073,0.2199 0.2082,0.2090 0.2091,0.2147 0.2099,0.2227 0.2108,0.2025 0.2117,0.2190 0.2125,0.2321 0.2134,0.2130 0.2142,0.2208 0.2151,0.2103 0.2160,0.2232 0.2168,0.2103 0.2177,0.2183 0.2185,0.2160 0.2194,0.1951 0.2203,0.2121 0.2211,0.2209 0.2220,0.2005 0.2228,0.2310 0.2237,0.2153 0.2246,0.1858 0.2254,0.2026 0.2263,0.2247 0.2271,0.2296 0.2280,0.2291 0.2289,0.1989 0.2297,0.2070 0.2306,0.2231 0.2314,0.2178 0.2323,0.2315 0.2332,0.2289 0.2340,0.2265 0.2349,0.2207 0.2357,0.2133 0.2366,0.2280 0.2375,0.2096 0.2383,0.2130 0.2392,0.2166 0.2400,0.2245 0.2409,0.2252 0.2418,0.2278 0.2426,0.2187 0.2435,0.2238 0.2443,0.2240 0.2452,0.2165 0.2461,0.2247 0.2469,0.2074 0.2478,0.2164 0.2486,0.2248 0.2495,0.2291 0.2504,0.2235 0.2512,0.2315 0.2521,0.2047 0.2529,0.2172 0.2538,0.2256 0.2547,0.2087 0.2555,0.2211 0.2564,0.2313 0.2572,0.2309 0.2581,0.2257 0.2590,0.2263 0.2598,0.2292 0.2607,0.2337 0.2615,0.2325 0.2624,0.2216 0.2633,0.2176 0.2641,0.1888 0.2650,0.1905 0.2658,0.2255 0.2667,0.2140 0.2676,0.1846"/></g></g><g class="datapadding"></g></g><g class="hud"><g class="frame"><g stroke-width="0" stroke="rgb(0%, 0%, 0%)" stroke-opacity="0" fill="rgb(100%, 100%, 100%)" fill-opacity="0.02"><rect width="0.8612" height="0.6606" x="-0.5927" y="-0.3922"/></g></g><g class="axis"><g class="axisbar"><g stroke-width="0" stroke="rgb(0%, 0%, 0%)" stroke-opacity="0" fill="rgb(5%, 5%, 5%)" fill-opacity="0.4"><rect width="0.8617" height="0.0027" x="-0.5930" y="0.2742"/></g></g><g class="ticks"><g class="ticklines"><g stroke-width="0.0050" stroke="rgb(5%, 5%, 5%)" stroke-opacity="0.05" fill="none"><polyline points="-0.5842,0.2675 -0.5842,-0.3922"/><polyline points="-0.4756,0.2675 -0.4756,-0.3922"/><polyline points="-0.3687,0.2675 -0.3687,-0.3922"/><polyline points="-0.2601,0.2675 -0.2601,-0.3922"/><polyline points="-0.1527,0.2675 -0.1527,-0.3922"/><polyline points="-0.0441,0.2675 -0.0441,-0.3922"/><polyline points="0.0627,0.2675 0.0627,-0.3922"/><polyline points="0.1714,0.2675 0.1714,-0.3922"/></g></g><g class="tickglyph"><g stroke-width="0.0027" stroke="rgb(5%, 5%, 5%)" stroke-opacity="0.4" fill="rgb(5%, 5%, 5%)" fill-opacity="0.4"><polyline points="-0.5842,0.2956
-0.5842,0.2755"/><polyline points="-0.4756,0.2956
-0.4756,0.2755"/><polyline points="-0.3687,0.2956
-0.3687,0.2755"/><polyline points="-0.2601,0.2956
-0.2601,0.2755"/><polyline points="-0.1527,0.2956
-0.1527,0.2755"/><polyline points="-0.0441,0.2956
-0.0441,0.2755"/><polyline points="0.0627,0.2956
0.0627,0.2755"/><polyline points="0.1714,0.2956
0.1714,0.2755"/></g></g><g class="ticktext"><g stroke-width="0.0" stroke="none" fill="rgb(5%, 5%, 5%)" fill-opacity="1.0" font-size="0.0400" text-anchor="end"><text x="-0.5842" y="0.3324" transform="rotate(-45.0, -0.5842, 0.3324)">Jun 22</text><text x="-0.4756" y="0.3324" transform="rotate(-45.0, -0.4756, 0.3324)">Dec 22</text><text x="-0.3687" y="0.3324" transform="rotate(-45.0, -0.3687, 0.3324)">Jun 23</text><text x="-0.2601" y="0.3324" transform="rotate(-45.0, -0.2601, 0.3324)">Dec 23</text><text x="-0.1527" y="0.3324" transform="rotate(-45.0, -0.1527, 0.3324)">Jun 24</text><text x="-0.0441" y="0.3324" transform="rotate(-45.0, -0.0441, 0.3324)">Dec 24</text><text x="0.0627" y="0.3324" transform="rotate(-45.0, 0.0627, 0.3324)">Jun 25</text><text x="0.1714" y="0.3324" transform="rotate(-45.0, 0.1714, 0.3324)">Dec 25</text></g></g></g></g><g class="axis"><g class="axisbar"><g stroke-width="0" stroke="rgb(0%, 0%, 0%)" stroke-opacity="0" fill="rgb(5%, 5%, 5%)" fill-opacity="0.4"><rect width="0.0023" height="0.6623" x="-0.5999" y="-0.3935"/></g></g><g class="ticks"><g class="ticklines"><g stroke-width="0.0050" stroke="rgb(5%, 5%, 5%)" stroke-opacity="0.05" fill="none"><polyline points="-0.5919,0.2675 0.2676,0.2675"/><polyline points="-0.5919,0.1355 0.2676,0.1355"/><polyline points="-0.5919,0.0036 0.2676,0.0036"/><polyline points="-0.5919,-0.1283 0.2676,-0.1283"/><polyline points="-0.5919,-0.2603 0.2676,-0.2603"/><polyline points="-0.5919,-0.3922 0.2676,-0.3922"/></g></g><g class="tickglyph"><g stroke-width="0.0023" stroke="rgb(5%, 5%, 5%)" stroke-opacity="0.4" fill="rgb(5%, 5%, 5%)" fill-opacity="0.4"><polyline points="-0.6159,0.2675
-0.5987,0.2675"/><polyline points="-0.6159,0.1355
-0.5987,0.1355"/><polyline points="-0.6159,0.0036
-0.5987,0.0036"/><polyline points="-0.6159,-0.1283
-0.5987,-0.1283"/><polyline points="-0.6159,-0.2603
-0.5987,-0.2603"/><polyline points="-0.6159,-0.3922
-0.5987,-0.3922"/></g></g><g class="ticktext"><g stroke-width="0.0" stroke="none" fill="rgb(5%, 5%, 5%)" fill-opacity="1.0" font-size="0.0400" text-anchor="end"><text x="-0.6285" y="0.2748"> 0%</text><text x="-0.6285" y="0.1429"> 2%</text><text x="-0.6285" y="0.0110"> 4%</text><text x="-0.6285" y="-0.1210"> 6%</text><text x="-0.6285" y="-0.2529"> 8%</text><text x="-0.6285" y="-0.3848">10%</text></g></g></g></g><g class="legend"><g class="padding"></g><g class="padding"></g><g class="frame"><g stroke-width="0.0007" stroke="rgb(5%, 5%, 5%)" stroke-opacity="1.0" fill="rgb(99%, 99%, 99%)" fill-opacity="1.0"><rect width="0.3383" height="0.1055" x="0.3286" y="-0.1146"/></g></g><g class="legendContent"><g stroke-width="0.0017" stroke="rgb(2%, 29%, 48%)" stroke-opacity="1.0" fill="none"><polyline points="0.5658,-0.0397 0.6517,-0.0397"/></g><g stroke-width="0.0" stroke="none" fill="rgb(5%, 5%, 5%)" fill-opacity="1.0" font-size="0.0215" text-anchor="start"><text x="0.3429" y="-0.0334">predicted |r_t|</text></g><g stroke-width="0.0017" stroke="rgb(2%, 73%, 80%)" stroke-opacity="1.0" fill="none"><polyline points="0.5658,-0.0841 0.6517,-0.0841"/></g><g stroke-width="0.0" stroke="none" fill="rgb(5%, 5%, 5%)" fill-opacity="1.0" font-size="0.0215" text-anchor="start"><text x="0.3429" y="-0.0778">|r_t|</text></g></g></g><g class="frame"><g stroke-width="0" stroke="rgb(0%, 0%, 0%)" stroke-opacity="0" fill="rgb(0%, 0%, 0%)" fill-opacity="0"><rect width="1.3854" height="0.8661" x="-0.6927" y="-0.4330"/></g></g><g class="frame"><g stroke-width="0" stroke="rgb(0%, 0%, 0%)" stroke-opacity="0" fill="rgb(100%, 100%, 100%)" fill-opacity="0.02"><rect width="1.5" height="1.0" x="-0.75" y="-0.5"/></g></g></g></svg>