<svg xmlns="http://www.w3.org/2000/svg" xmlns:xlink="http://www.w3.org/1999/xlink" width="450" height="300" viewBox="-0.75 -0.5 1.5 1.0"><style>svg {
  color-scheme: light dark;
}
{
  .canvas g, .title g, .axisbar g, .ticktext g, .tickglyph g, .ticklines g, .legendContent g text {
    fill: rgb(5%, 5%, 5%);
  }
  .ticklines g, .tickglyph g, .legendBorder g {
    stroke: rgb(5%, 5%, 5%);
  }
  .legendBorder g {
    fill: rgb(94%, 94%, 94%);
  }
}
@media (prefers-color-scheme:dark) {
  .canvas g, .title g, .axisbar g, .ticktext g, .tickglyph g, .ticklines g, .legendContent g text {
    fill: rgb(94%, 94%, 94%);
  }
  .ticklines g, .tickglyph g, .legendBorder g {
    stroke: rgb(94%, 94%, 94%);
  }
  .legendBorder g {
    fill: rgb(5%, 5%, 5%);
  }
}
svg { font-family: system-ui,-apple-system,"Segoe UI",Roboto,"Helvetica Neue",Arial,"Noto Sans","Liberation Sans",sans-serif,"Apple Color Emoji","Segoe UI Emoji","Segoe UI Symbol","Noto Color Emoji";
}

ticktext { font-family: SFMono-Regular,Menlo,Monaco,Consolas,"Liberation Mono","Courier New",monospace;
}

</style><g class="chart"><g class="day"><g stroke-width="0.0030" stroke="rgb(2%, 73%, 80%)" stroke-opacity="1.0" fill="none"><polyline points="-0.5624,-0.0832 -0.5615,-0.0370 -0.5607,-0.0295 -0.5598,-0.0574 -0.5589,-0.0640 -0.5580,-0.0707 -0.5572,-0.0701 -0.5563,-0.0758 -0.5554,-0.0871 -0.5546,-0.0690 -0.5537,-0.0928 -0.5528,-0.0651 -0.5520,-0.0679 -0.5511,-0.0706 -0.5502,-0.0711 -0.5493,-0.0875 -0.5485,-0.0828 -0.5476,-0.0843 -0.5467,-0.0803 -0.5459,-0.0821 -0.5450,-0.0834 -0.5441,-0.0873 -0.5433,-0.0983 -0.5424,-0.0817 -0.5415,-0.0935 -0.5407,-0.0788 -0.5398,-0.0884 -0.5389,-0.0830 -0.5380,-0.0804 -0.5372,-0.0834 -0.5363,-0.0976 -0.5354,-0.0968 -0.5346,-0.0981 -0.5337,-0.1084 -0.5328,-0.0962 -0.5320,-0.0960 -0.5311,-0.0983 -0.5302,-0.0920 -0.5294,-0.0988 -0.5285,-0.1060 -0.5276,-0.1064 -0.5267,-0.1052 -0.5259,-0.1111 -0.5250,-0.1147 -0.5241,-0.1096 -0.5233,-0.1006 -0.5224,-0.1023 -0.5215,-0.1060 -0.5207,-0.1063 -0.5198,-0.1058 -0.5189,-0.1040 -0.5181,-0.0992 -0.5172,-0.1027 -0.5163,-0.0923 -0.5154,-0.0958 -0.5146,-0.1007 -0.5137,-0.1054 -0.5128,-0.0991 -0.5120,-0.0966 -0.5111,-0.0916 -0.5102,-0.0931 -0.5094,-0.0873 -0.5085,-0.0849 -0.5076,-0.0871 -0.5067,-0.0901 -0.5059,-0.0980 -0.5050,-0.0927 -0.5041,-0.0918 -0.5033,-0.0764 -0.5024,-0.0854 -0.5015,-0.0920 -0.5007,-0.0938 -0.4998,-0.0920 -0.4989,-0.0908 -0.4981,-0.0922 -0.4972,-0.1007 -0.4963,-0.0999 -0.4954,-0.1024 -0.4946,-0.1023 -0.4937,-0.0988 -0.4928,-0.0979 -0.4920,-0.1003 -0.4911,-0.0968 -0.4902,-0.0980 -0.4894,-0.0976 -0.4885,-0.1051 -0.4876,-0.1090 -0.4868,-0.1059 -0.4859,-0.1217 -0.4850,-0.1201 -0.4841,-0.1108 -0.4833,-0.1032 -0.4824,-0.1017 -0.4815,-0.1036 -0.4807,-0.0993 -0.4798,-0.1159 -0.4789,-0.1211 -0.4781,-0.1195 -0.4772,-0.1235 -0.4763,-0.1202 -0.4754,-0.1240 -0.4746,-0.1205 -0.4737,-0.1285 -0.4728,-0.1354 -0.4720,-0.1149 -0.4711,-0.1250 -0.4702,-0.1235 -0.4694,-0.1139 -0.4685,-0.1067 -0.4676,-0.1239 -0.4668,-0.1164 -0.4659,-0.1077 -0.4650,-0.0991 -0.4641,-0.0834 -0.4633,-0.0927 -0.4624,-0.0909 -0.4615,-0.0745 -0.4607,-0.0672 -0.4598,-0.0767 -0.4589,-0.0657 -0.4581,-0.0800 -0.4572,-0.0808 -0.4563,-0.0681 -0.4555,-0.0679 -0.4546,-0.0609 -0.4537,-0.0615 -0.4528,-0.0585 -0.4520,-0.0508 -0.4511,-0.0609 -0.4502,-0.0649 -0.4494,-0.0679 -0.4485,-0.0626 -0.4476,-0.0577 -0.4468,-0.0604 -0.4459,-0.0592 -0.4450,-0.0504 -0.4441,-0.0583 -0.4433,-0.0489 -0.4424,-0.0483 -0.4415,-0.0358 -0.4407,-0.0404 -0.4398,-0.0375 -0.4389,-0.0317 -0.4381,-0.0892 -0.4372,-0.0645 -0.4363,-0.0703 -0.4355,-0.0953 -0.4346,-0.0938 -0.4337,-0.0562 -0.4328,-0.0432 -0.4320,-0.0621 -0.4311,-0.0415 -0.4302,-0.0766 -0.4294,-0.0413 -0.4285,-0.0711 -0.4276,-0.0696 -0.4268,-0.0668 -0.4259,-0.0684 -0.4250,-0.0680 -0.4242,-0.0725 -0.4233,-0.0778 -0.4224,-0.0764 -0.4215,-0.0754 -0.4207,-0.0726 -0.4198,-0.0722 -0.4189,-0.0703 -0.4181,-0.0697 -0.4172,-0.0701 -0.4163,-0.0752 -0.4155,-0.0759 -0.4146,-0.0769 -0.4137,-0.0740 -0.4128,-0.0812 -0.4120,-0.0726 -0.4111,-0.0718 -0.4102,-0.0889 -0.4094,-0.0680 -0.4085,-0.0819 -0.4076,-0.0839 -0.4068,-0.0770 -0.4059,-0.0718 -0.4050,-0.0719 -0.4042,-0.0582 -0.4033,-0.0581 -0.4024,-0.0558 -0.4015,-0.0576 -0.4007,-0.0704 -0.3998,-0.0684 -0.3989,-0.0555 -0.3981,-0.0642 -0.3972,-0.0675 -0.3963,-0.0670 -0.3955,-0.0475 -0.3946,-0.0530 -0.3937,-0.0650 -0.3929,-0.0533 -0.3920,-0.0678 -0.3911,-0.0654 -0.3902,-0.0634 -0.3894,-0.0621 -0.3885,-0.0640 -0.3876,-0.0704 -0.3868,-0.0696 -0.3859,-0.0753 -0.3850,-0.0716 -0.3842,-0.0422 -0.3833,-0.0599 -0.3824,-0.0637 -0.3816,-0.0782 -0.3807,-0.0736 -0.3798,-0.0727 -0.3789,-0.0673 -0.3781,-0.0785 -0.3772,-0.0879 -0.3763,-0.0828 -0.3755,-0.0684 -0.3746,-0.0694 -0.3737,-0.0713 -0.3729,-0.0681 -0.3720,-0.0715 -0.3711,-0.0699 -0.3702,-0.0709 -0.3694,-0.0718 -0.3685,-0.0721 -0.3676,-0.0715 -0.3668,-0.0726 -0.3659,-0.0791 -0.3650,-0.1124 -0.3642,-0.1315 -0.3633,-0.1250 -0.3624,-0.1516 -0.3616,-0.1679 -0.3607,-0.1284 -0.3598,-0.1408 -0.3589,-0.1130 -0.3581,-0.1148 -0.3572,-0.1138 -0.3563,-0.1745 -0.3555,-0.1920 -0.3546,-0.1737 -0.3537,-0.2658 -0.3529,-0.2028 -0.3520,-0.3017 -0.3511,-0.2750 -0.3503,-0.3114 -0.3494,-0.3146 -0.3485,-0.3368 -0.3476,-0.3450 -0.3468,-0.2910 -0.3459,-0.2872 -0.3450,-0.2137 -0.3442,-0.2715 -0.3433,-0.2032 -0.3424,-0.2543 -0.3416,-0.2652 -0.3407,-0.2626 -0.3398,-0.2605 -0.3389,-0.2314 -0.3381,-0.1716 -0.3372,-0.1464 -0.3363,-0.1354 -0.3355,-0.1415 -0.3346,-0.1194 -0.3337,-0.1346 -0.3329,-0.1523 -0.3320,-0.1401 -0.3311,-0.1480 -0.3303,-0.1531 -0.3294,-0.1542 -0.3285,-0.0964 -0.3276,-0.0865 -0.3268,-0.0979 -0.3259,-0.0904 -0.3250,-0.0814 -0.3242,-0.0837 -0.3233,-0.1301 -0.3224,-0.1365 -0.3216,-0.1785 -0.3207,-0.1169 -0.3198,-0.1377 -0.3190,-0.1388 -0.3181,-0.1036 -0.3172,-0.0989 -0.3163,-0.1083 -0.3155,-0.1301 -0.3146,-0.1538 -0.3137,-0.1328 -0.3129,-0.1263 -0.3120,-0.1182 -0.3111,-0.0894 -0.3103,-0.1098 -0.3094,-0.1010 -0.3085,-0.1422 -0.3076,-0.1153 -0.3068,-0.1037 -0.3059,-0.1517 -0.3050,-0.1662 -0.3042,-0.1709 -0.3033,-0.1282 -0.3024,-0.1479 -0.3016,-0.1641 -0.3007,-0.1724 -0.2998,-0.0784 -0.2990,-0.1672 -0.2981,-0.0532 -0.2972,-0.0506 -0.2963,-0.0399 -0.2955,-0.1308 -0.2946,-0.1324 -0.2937,-0.0803 -0.2929,-0.1910 -0.2920,-0.1570 -0.2911,-0.1192 -0.2903,-0.1605 -0.2894,-0.2207 -0.2885,-0.1523 -0.2877,-0.1750 -0.2868,-0.2417 -0.2859,-0.2474 -0.2850,-0.2538 -0.2842,-0.2246 -0.2833,-0.2511 -0.2824,-0.2008 -0.2816,-0.2151 -0.2807,-0.2084 -0.2798,-0.1974 -0.2790,-0.2146 -0.2781,-0.1723 -0.2772,-0.2165 -0.2763,-0.2222 -0.2755,-0.2178 -0.2746,-0.2112 -0.2737,-0.2222 -0.2729,-0.2204 -0.2720,-0.2188 -0.2711,-0.2233 -0.2703,-0.2168 -0.2694,-0.2177 -0.2685,-0.2161 -0.2677,-0.2155 -0.2668,-0.2366 -0.2659,-0.2209 -0.2650,-0.2423 -0.2642,-0.2028 -0.2633,-0.1972 -0.2624,-0.2009 -0.2616,-0.1922 -0.2607,-0.1910 -0.2598,-0.1992 -0.2590,-0.1944 -0.2581,-0.1914 -0.2572,-0.1937 -0.2564,-0.1946 -0.2555,-0.1931 -0.2546,-0.1881 -0.2537,-0.1899 -0.2529,-0.1843 -0.2520,-0.1816 -0.2511,-0.1799 -0.2503,-0.1808 -0.2494,-0.1777 -0.2485,-0.1680 -0.2477,-0.1956 -0.2468,-0.2022 -0.2459,-0.2218 -0.2451,-0.2093 -0.2442,-0.2241 -0.2433,-0.2227 -0.2424,-0.2141 -0.2416,-0.2124 -0.2407,-0.2149 -0.2398,-0.2213 -0.2390,-0.1753 -0.2381,-0.2379 -0.2372,-0.1833 -0.2364,-0.1821 -0.2355,-0.2455 -0.2346,-0.2292 -0.2337,-0.2306 -0.2329,-0.2337 -0.2320,-0.2298 -0.2311,-0.2277 -0.2303,-0.2342 -0.2294,-0.2224 -0.2285,-0.2328 -0.2277,-0.2212 -0.2268,-0.2222 -0.2259,-0.2289 -0.2251,-0.2143 -0.2242,-0.2036 -0.2233,-0.2079 -0.2224,-0.2207 -0.2216,-0.2142 -0.2207,-0.2218 -0.2198,-0.2212 -0.2190,-0.2189 -0.2181,-0.2172 -0.2172,-0.1965 -0.2164,-0.2156 -0.2155,-0.2363 -0.2146,-0.2602 -0.2138,-0.2469 -0.2129,-0.2603 -0.2120,-0.2518 -0.2111,-0.2401 -0.2103,-0.2248 -0.2094,-0.2158 -0.2085,-0.2141 -0.2077,-0.2040 -0.2068,-0.2073 -0.2059,-0.2046 -0.2051,-0.2197 -0.2042,-0.2152 -0.2033,-0.2110 -0.2024,-0.1958 -0.2016,-0.2184 -0.2007,-0.2193 -0.1998,-0.2119 -0.1990,-0.2242 -0.1981,-0.2171 -0.1972,-0.1991 -0.1964,-0.1833 -0.1955,-0.1831 -0.1946,-0.1741 -0.1938,-0.1678 -0.1929,-0.1711 -0.1920,-0.1681 -0.1911,-0.1676 -0.1903,-0.1834 -0.1894,-0.1902 -0.1885,-0.1907 -0.1877,-0.1913 -0.1868,-0.1874 -0.1859,-0.1873 -0.1851,-0.1790 -0.1842,-0.1757 -0.1833,-0.1583 -0.1825,-0.1442 -0.1816,-0.1295 -0.1807,-0.1281 -0.1798,-0.1271 -0.1790,-0.1174 -0.1781,-0.1177 -0.1772,-0.1147 -0.1764,-0.1120 -0.1755,-0.1224 -0.1746,-0.1270 -0.1738,-0.1484 -0.1729,-0.1605 -0.1720,-0.1740 -0.1711,-0.1689 -0.1703,-0.1178 -0.1694,-0.1662 -0.1685,-0.1244 -0.1677,-0.1258 -0.1668,-0.1576 -0.1659,-0.1717 -0.1651,-0.1510 -0.1642,-0.1155 -0.1633,-0.1104 -0.1625,-0.0472 -0.1616,-0.0559 -0.1607,-0.0857 -0.1598,-0.0600 -0.1590,-0.0825 -0.1581,-0.0664 -0.1572,-0.0493 -0.1564,-0.0773 -0.1555,-0.1015 -0.1546,-0.1141 -0.1538,-0.1765 -0.1529,-0.1764 -0.1520,-0.0956 -0.1512,-0.1369 -0.1503,-0.1113 -0.1494,-0.1029 -0.1485,-0.0971 -0.1477,-0.0892 -0.1468,-0.0852 -0.1459,-0.0823 -0.1451,-0.0783 -0.1442,-0.0944 -0.1433,-0.0947 -0.1425,-0.0804 -0.1416,-0.0832 -0.1407,-0.0907 -0.1398,-0.0870 -0.1390,-0.0869 -0.1381,-0.0785 -0.1372,-0.0816 -0.1364,-0.0815 -0.1355,-0.0787 -0.1346,-0.0647 -0.1338,-0.0721 -0.1329,-0.0747 -0.1320,-0.0816 -0.1312,-0.0918 -0.1303,-0.0772 -0.1294,-0.0761 -0.1285,-0.0775 -0.1277,-0.0772 -0.1268,-0.0775 -0.1259,-0.0703 -0.1251,-0.0672 -0.1242,-0.0633 -0.1233,-0.0584 -0.1225,-0.0524 -0.1216,-0.0429 -0.1207,-0.0481 -0.1199,-0.0511 -0.1190,-0.0485 -0.1181,-0.0473 -0.1172,-0.0439 -0.1164,-0.0518 -0.1155,-0.0488 -0.1146,-0.0457 -0.1138,-0.0421 -0.1129,-0.0471 -0.1120,-0.0491 -0.1112,-0.0392 -0.1103,-0.0397 -0.1094,-0.0357 -0.1086,-0.0908 -0.1077,-0.0897 -0.1068,-0.0867 -0.1059,-0.0881 -0.1051,-0.0905 -0.1042,-0.0567 -0.1033,-0.0186 -0.1025,-0.0377 -0.1016,0.0144 -0.1007,-0.0866 -0.0999,-0.0796 -0.0990,-0.0665 -0.0981,-0.0617 -0.0972,-0.0691 -0.0964,-0.1157 -0.0955,-0.1169 -0.0946,-0.1214 -0.0938,-0.1213 -0.0929,-0.1179 -0.0920,-0.0535 -0.0912,-0.0504 -0.0903,-0.0337 -0.0894,-0.0356 -0.0886,-0.0436 -0.0877,-0.0674 -0.0868,-0.0614 -0.0859,-0.0521 -0.0851,-0.0533 -0.0842,-0.0502 -0.0833,-0.0499 -0.0825,-0.0482 -0.0816,-0.0475 -0.0807,-0.0344 -0.0799,-0.0853 -0.0790,-0.0877 -0.0781,-0.0875 -0.0773,-0.0881 -0.0764,-0.0872 -0.0755,-0.0890 -0.0746,-0.0900 -0.0738,-0.0890 -0.0729,-0.0874 -0.0720,-0.0873 -0.0712,-0.0891 -0.0703,-0.0921 -0.0694,-0.0670 -0.0686,-0.0619 -0.0677,-0.0783 -0.0668,-0.0762 -0.0659,-0.0834 -0.0651,-0.0774 -0.0642,-0.0814 -0.0633,-0.0746 -0.0625,-0.0758 -0.0616,-0.0765 -0.0607,-0.0702 -0.0599,-0.0711 -0.0590,-0.0756 -0.0581,-0.0866 -0.0573,-0.0787 -0.0564,-0.0766 -0.0555,-0.0786 -0.0546,-0.0849 -0.0538,-0.0982 -0.0529,-0.0939 -0.0520,-0.0810 -0.0512,-0.1057 -0.0503,-0.0928 -0.0494,-0.0890 -0.0486,-0.0952 -0.0477,-0.0892 -0.0468,-0.0956 -0.0460,-0.0957 -0.0451,-0.0941 -0.0442,-0.0554 -0.0433,-0.0614 -0.0425,-0.0878 -0.0416,-0.0835 -0.0407,-0.0926 -0.0399,-0.0910 -0.0390,-0.0917 -0.0381,-0.0914 -0.0373,-0.0867 -0.0364,-0.0831 -0.0355,-0.0861 -0.0346,-0.0877 -0.0338,-0.0901 -0.0329,-0.0865 -0.0320,-0.0854 -0.0312,-0.0851 -0.0303,-0.0866 -0.0294,-0.0869 -0.0286,-0.0857 -0.0277,-0.0879 -0.0268,-0.0907 -0.0260,-0.0918 -0.0251,-0.0871 -0.0242,-0.0902 -0.0233,-0.0930 -0.0225,-0.0913 -0.0216,-0.0913 -0.0207,-0.0964 -0.0199,-0.1076 -0.0190,-0.1046 -0.0181,-0.1009 -0.0173,-0.0990 -0.0164,-0.0993 -0.0155,-0.0987 -0.0147,-0.1130 -0.0138,-0.1163 -0.0129,-0.1233 -0.0120,-0.1180 -0.0112,-0.1255 -0.0103,-0.1212 -0.0094,-0.1214 -0.0086,-0.1191 -0.0077,-0.1214 -0.0068,-0.1191 -0.0060,-0.1184 -0.0051,-0.1198 -0.0042,-0.1104 -0.0033,-0.1099 -0.0025,-0.1079 -0.0016,-0.1065 -0.0007,-0.1050 0.0001,-0.1052 0.0010,-0.1046 0.0019,-0.1035 0.0027,-0.1046 0.0036,-0.1079 0.0045,-0.1025 0.0053,-0.1035 0.0062,-0.1044 0.0071,-0.1117 0.0080,-0.1099 0.0088,-0.1068 0.0097,-0.1070 0.0106,-0.1051 0.0114,-0.1064 0.0123,-0.1079 0.0132,-0.1055 0.0140,-0.1033 0.0149,-0.1013 0.0158,-0.1016 0.0166,-0.1056 0.0175,-0.1046 0.0184,-0.1044 0.0193,-0.1059 0.0201,-0.1120 0.0210,-0.1127 0.0219,-0.1313 0.0227,-0.1212 0.0236,-0.1350 0.0245,-0.1474 0.0253,-0.1364 0.0262,-0.1440 0.0271,-0.1324 0.0279,-0.1165 0.0288,-0.1165 0.0297,-0.1257 0.0306,-0.1207 0.0314,-0.1269 0.0323,-0.1318 0.0332,-0.1213 0.0340,-0.1273 0.0349,-0.1379 0.0358,-0.1467 0.0366,-0.1342 0.0375,-0.1246 0.0384,-0.1225 0.0393,-0.1141 0.0401,-0.1138 0.0410,-0.1135 0.0419,-0.1130 0.0427,-0.1136 0.0436,-0.1127 0.0445,-0.1113 0.0453,-0.1248 0.0462,-0.1232 0.0471,-0.1249 0.0479,-0.1243 0.0488,-0.1216 0.0497,-0.1300 0.0506,-0.1393 0.0514,-0.1443 0.0523,-0.1588 0.0532,-0.1491 0.0540,-0.1557 0.0549,-0.1685 0.0558,-0.1446 0.0566,-0.1712 0.0575,-0.1708 0.0584,-0.1729 0.0592,-0.1187 0.0601,-0.1296 0.0610,-0.1399 0.0619,-0.1569 0.0627,-0.1760 0.0636,-0.1533 0.0645,-0.1598 0.0653,-0.1525 0.0662,-0.1284 0.0671,-0.1283 0.0679,-0.1466 0.0688,-0.1683 0.0697,-0.1625 0.0706,-0.1211 0.0714,-0.1290 0.0723,-0.1418 0.0732,-0.1482 0.0740,-0.1498 0.0749,-0.1507 0.0758,-0.1346 0.0766,-0.1348 0.0775,-0.1332 0.0784,-0.1324 0.0792,-0.1217 0.0801,-0.1108 0.0810,-0.1218 0.0819,-0.1073 0.0827,-0.1041 0.0836,-0.0902 0.0845,-0.0831 0.0853,-0.0623 0.0862,-0.0711 0.0871,-0.0781 0.0879,-0.0903 0.0888,-0.1166 0.0897,-0.1203 0.0905,-0.1132 0.0914,-0.1218 0.0923,-0.1130 0.0932,-0.1108 0.0940,-0.1055 0.0949,-0.0973 0.0958,-0.1015 0.0966,-0.0989 0.0975,-0.1100 0.0984,-0.1054 0.0992,-0.1143 0.1001,-0.1239 0.1010,-0.1226 0.1019,-0.1509 0.1027,-0.1597 0.1036,-0.1582 0.1045,-0.1554 0.1053,-0.1605 0.1062,-0.0583 0.1071,-0.0475 0.1079,-0.0226 0.1088,-0.0252 0.1097,-0.0419 0.1105,-0.0403 0.1114,-0.0590 0.1123,-0.0591 0.1132,-0.0555 0.1140,-0.0672 0.1149,-0.0674 0.1158,-0.0697 0.1166,-0.0544 0.1175,-0.0693 0.1184,-0.0664 0.1192,-0.0902 0.1201,-0.0887 0.1210,-0.0993 0.1218,-0.1009 0.1227,-0.0819 0.1236,-0.0681 0.1245,-0.0845 0.1253,-0.0955 0.1262,-0.1012 0.1271,-0.0943 0.1279,-0.1365 0.1288,-0.0843 0.1297,-0.0846 0.1305,-0.1839 0.1314,-0.1658 0.1323,-0.1688 0.1332,-0.0562 0.1340,-0.0422 0.1349,-0.0531 0.1358,-0.0514 0.1366,-0.0913 0.1375,-0.0542 0.1384,-0.0663 0.1392,-0.0712 0.1401,-0.1447 0.1410,-0.1663 0.1418,0.0323 0.1427,-0.1789 0.1436,-0.1556 0.1445,-0.0970 0.1453,-0.0699 0.1462,-0.0971 0.1471,-0.1071 0.1479,-0.0744 0.1488,-0.0615 0.1497,-0.0812 0.1505,-0.0628 0.1514,-0.0665 0.1523,-0.0709 0.1531,-0.0892 0.1540,-0.0977 0.1549,-0.0679 0.1558,-0.0777 0.1566,-0.0880 0.1575,-0.0872 0.1584,-0.0851 0.1592,-0.0464 0.1601,-0.0714 0.1610,-0.0547 0.1618,-0.0387 0.1627,-0.0318 0.1636,-0.0381 0.1644,-0.0369 0.1653,-0.0594 0.1662,-0.0220 0.1671,-0.0323 0.1679,-0.0319 0.1688,-0.0222 0.1697,-0.0266 0.1705,-0.0158 0.1714,-0.0065 0.1723,-0.0063 0.1731,-0.0025 0.1740,0.0006 0.1749,0.0105 0.1758,0.0024 0.1766,0.0147 0.1775,0.0161 0.1784,0.0159 0.1792,0.0106 0.1801,0.0108 0.1810,0.0016 0.1818,-0.0125 0.1827,-0.0122 0.1836,-0.0356 0.1844,-0.0042 0.1853,-0.0320 0.1862,-0.0394 0.1871,-0.0389 0.1879,-0.0427 0.1888,-0.0414 0.1897,-0.0454 0.1905,-0.0447 0.1914,-0.0328 0.1923,-0.0306 0.1931,-0.0206 0.1940,-0.0271 0.1949,-0.0471 0.1957,-0.0966 0.1966,-0.0625 0.1975,-0.0650 0.1984,-0.0829 0.1992,-0.0575 0.2001,-0.1566 0.2010,-0.1404 0.2018,-0.1601 0.2027,-0.1415 0.2036,-0.0590 0.2044,-0.0433 0.2053,-0.0528 0.2062,-0.0581 0.2071,-0.0645 0.2079,-0.0687 0.2088,-0.0817 0.2097,-0.0256 0.2105,-0.0079 0.2114,-0.0637 0.2123,-0.0087 0.2131,-0.0761 0.2140,-0.0785 0.2149,-0.0377 0.2157,-0.0723 0.2166,-0.0644 0.2175,0.0934 0.2184,0.0182 0.2192,0.0517 0.2201,-0.0354 0.2210,0.0661 0.2218,0.0493 0.2227,0.0498 0.2236,0.1261 0.2244,-0.0125 0.2253,0.0667 0.2262,0.0731 0.2270,0.1102 0.2279,0.0150 0.2288,-0.0211 0.2297,-0.0351 0.2305,-0.0381 0.2314,-0.0088 0.2323,0.0178 0.2331,-0.0090 0.2340,-0.0061 0.2349,-0.0097 0.2357,-0.0103 0.2366,-0.0078 0.2375,0.0853 0.2384,0.0979 0.2392,0.0966 0.2401,0.0515 0.2410,-0.0018 0.2418,0.0520 0.2427,0.0782 0.2436,0.0731 0.2444,0.0417 0.2453,0.0609 0.2462,0.1660 0.2470,0.0178 0.2479,0.0222 0.2488,0.0680 0.2497,0.0785 0.2505,0.0162 0.2514,0.0251 0.2523,0.0046 0.2531,0.1111 0.2540,-0.0252 0.2549,0.1162 0.2557,0.0051 0.2566,0.0485 0.2575,0.0378 0.2583,0.0205 0.2592,0.0167 0.2601,0.0256 0.2610,0.0792 0.2618,0.0152 0.2627,0.0031 0.2636,-0.0240 0.2644,0.0022 0.2653,0.0077 0.2662,0.0035 0.2670,0.0016 0.2679,0.0031 0.2688,0.0086 0.2697,0.0057 0.2705,-0.0025 0.2714,-0.0033 0.2723,0.0068 0.2731,0.0114 0.2740,0.0064 0.2749,0.0048 0.2757,0.0137 0.2766,0.0121 0.2775,0.0038 0.2783,0.0124 0.2792,0.0169 0.2801,0.0347 0.2810,0.0181 0.2818,0.0126 0.2827,0.0235 0.2836,0.0154 0.2844,0.0107 0.2853,0.0085 0.2862,0.0154 0.2870,0.0051 0.2879,0.0035 0.2888,-0.0037 0.2896,0.0158 0.2905,0.0014 0.2914,0.0422 0.2923,-0.0249 0.2931,0.0434 0.2940,0.0427 0.2949,0.0446 0.2957,0.0443 0.2966,0.0495 0.2975,0.0592 0.2983,0.0407 0.2992,0.0474 0.3001,0.0313 0.3009,0.0335 0.3018,-0.0239 0.3027,0.0066 0.3036,0.0032 0.3044,0.0157 0.3053,0.0121 0.3062,0.0204"/></g></g></g><g class="hud"><g class="frame"><g stroke-width="0" stroke="rgb(0%, 0%, 0%)" stroke-opacity="0" fill="rgb(100%, 100%, 100%)" fill-opacity="0.02"><rect width="0.8703" height="0.5132" x="-0.5633" y="-0.3461"/></g></g><g class="axis"><g class="axisbar"><g stroke-width="0" stroke="rgb(0%, 0%, 0%)" stroke-opacity="0" fill="rgb(5%, 5%, 5%)" fill-opacity="0.4"><rect width="0.0023" height="0.5140" x="-0.5705" y="-0.3465"/></g></g><g class="ticks"><g class="ticklines"><g stroke-width="0.0050" stroke="rgb(5%, 5%, 5%)" stroke-opacity="0.05" fill="none"><polyline points="-0.5624,0.1743 0.3062,0.1743"/><polyline points="-0.5624,0.0952 0.3062,0.0952"/><polyline points="-0.5624,0.0161 0.3062,0.0161"/><polyline points="-0.5624,-0.0630 0.3062,-0.0630"/><polyline points="-0.5624,-0.1422 0.3062,-0.1422"/><polyline points="-0.5624,-0.2213 0.3062,-0.2213"/><polyline points="-0.5624,-0.3004 0.3062,-0.3004"/><polyline points="-0.5624,-0.3795 0.3062,-0.3795"/></g></g><g class="tickglyph"><g stroke-width="0.0023" stroke="rgb(5%, 5%, 5%)" stroke-opacity="0.4" fill="rgb(5%, 5%, 5%)" fill-opacity="0.4"><polyline points="-0.5867,0.1743
-0.5693,0.1743"/><polyline points="-0.5867,0.0952
-0.5693,0.0952"/><polyline points="-0.5867,0.0161
-0.5693,0.0161"/><polyline points="-0.5867,-0.0630
-0.5693,-0.0630"/><polyline points="-0.5867,-0.1422
-0.5693,-0.1422"/><polyline points="-0.5867,-0.2213
-0.5693,-0.2213"/><polyline points="-0.5867,-0.3004
-0.5693,-0.3004"/><polyline points="-0.5867,-0.3795
-0.5693,-0.3795"/></g></g><g class="ticktext"><g stroke-width="0.0" stroke="none" fill="rgb(5%, 5%, 5%)" fill-opacity="1.0" font-size="0.0400" text-anchor="end"><text x="-0.5994" y="0.1826">-0.3%</text><text x="-0.5994" y="0.1034">-0.2%</text><text x="-0.5994" y="0.0243">-0.1%</text><text x="-0.5994" y="-0.0548"> 0.0%</text><text x="-0.5994" y="-0.1339"> 0.1%</text><text x="-0.5994" y="-0.2130"> 0.2%</text><text x="-0.5994" y="-0.2922"> 0.3%</text><text x="-0.5994" y="-0.3713"> 0.4%</text></g></g></g></g><g class="axis"><g class="axisbar"><g stroke-width="0" stroke="rgb(0%, 0%, 0%)" stroke-opacity="0" fill="rgb(5%, 5%, 5%)" fill-opacity="0.4"><rect width="0.8709" height="0.0030" x="-0.5635" y="0.1735"/></g></g><g class="ticks"><g class="ticklines"><g stroke-width="0.0050" stroke="rgb(5%, 5%, 5%)" stroke-opacity="0.05" fill="none"><polyline points="-0.5066,0.1660 -0.5066,-0.3450"/><polyline points="-0.3962,0.1660 -0.3962,-0.3450"/><polyline points="-0.2870,0.1660 -0.2870,-0.3450"/><polyline points="-0.1766,0.1660 -0.1766,-0.3450"/><polyline points="-0.0680,0.1660 -0.0680,-0.3450"/><polyline points="0.0424,0.1660 0.0424,-0.3450"/><polyline points="0.1510,0.1660 0.1510,-0.3450"/><polyline points="0.2614,0.1660 0.2614,-0.3450"/></g></g><g class="tickglyph"><g stroke-width="0.0030" stroke="rgb(5%, 5%, 5%)" stroke-opacity="0.4" fill="rgb(5%, 5%, 5%)" fill-opacity="0.4"><polyline points="-0.5066,0.1974
-0.5066,0.1750"/><polyline points="-0.3962,0.1974
-0.3962,0.1750"/><polyline points="-0.2870,0.1974
-0.2870,0.1750"/><polyline points="-0.1766,0.1974
-0.1766,0.1750"/><polyline points="-0.0680,0.1974
-0.0680,0.1750"/><polyline points="0.0424,0.1974
0.0424,0.1750"/><polyline points="0.1510,0.1974
0.1510,0.1750"/><polyline points="0.2614,0.1974
0.2614,0.1750"/></g></g><g class="ticktext"><g stroke-width="0.0" stroke="none" fill="rgb(5%, 5%, 5%)" fill-opacity="1.0" font-size="0.0400" text-anchor="end"><text x="-0.5066" y="0.2386" transform="rotate(-45.0, -0.5066, 0.2386)">30 Jun 2019</text><text x="-0.3962" y="0.2386" transform="rotate(-45.0, -0.3962, 0.2386)">31 Dec 2019</text><text x="-0.2870" y="0.2386" transform="rotate(-45.0, -0.2870, 0.2386)">30 Jun 2020</text><text x="-0.1766" y="0.2386" transform="rotate(-45.0, -0.1766, 0.2386)">31 Dec 2020</text><text x="-0.0680" y="0.2386" transform="rotate(-45.0, -0.0680, 0.2386)">30 Jun 2021</text><text x="0.0424" y="0.2386" transform="rotate(-45.0, 0.0424, 0.2386)">31 Dec 2021</text><text x="0.1510" y="0.2386" transform="rotate(-45.0, 0.1510, 0.2386)">30 Jun 2022</text><text x="0.2614" y="0.2386" transform="rotate(-45.0, 0.2614, 0.2386)">31 Dec 2022</text></g></g></g></g><g class="legend"><g class="padding"></g><g class="padding"></g><g class="frame"><g stroke-width="0.0007" stroke="rgb(5%, 5%, 5%)" stroke-opacity="1.0" fill="rgb(99%, 99%, 99%)" fill-opacity="1.0"><rect width="0.3150" height="0.0823" x="0.3510" y="-0.0412"/></g></g><g class="legendContent"><g stroke-width="0.0" stroke="none" fill="rgb(5%, 5%, 5%)" fill-opacity="1.0" font-size="0.0217" text-anchor="start"><text x="0.3655" y="0">median - mean</text></g><g stroke-width="0.0017" stroke="rgb(2%, 73%, 80%)" stroke-opacity="1.0" fill="none"><polyline points="0.5638,0 0.6507,0"/></g></g></g><g class="frame"><g stroke-width="0" stroke="rgb(0%, 0%, 0%)" stroke-opacity="0" fill="rgb(0%, 0%, 0%)" fill-opacity="0"><rect width="1.3842" height="0.8503" x="-0.6921" y="-0.4252"/></g></g><g class="frame"><g stroke-width="0" stroke="rgb(0%, 0%, 0%)" stroke-opacity="0" fill="rgb(100%, 100%, 100%)" fill-opacity="0.02"><rect width="1.5" height="1.0" x="-0.75" y="-0.5"/></g></g></g></svg>