<svg height="300" viewBox="-0.75 -0.5000 1.5 1.0000" width="450" xmlns="http://www.w3.org/2000/svg" xmlns:xlink="http://www.w3.org/1999/xlink"><style>svg {
  color-scheme: light dark;
}
{
  .canvas g, .title g, .axisbar g, .ticktext g, .tickglyph g, .ticklines g, .legendContent g text {
    fill: rgb(5%, 5%, 5%);
  }
  .ticklines g, .tickglyph g, .legendBorder g {
    stroke: rgb(5%, 5%, 5%);
  }
  .legendBorder g {
    fill: rgb(94%, 94%, 94%);
  }
}
@media (prefers-color-scheme:dark) {
  .canvas g, .title g, .axisbar g, .ticktext g, .tickglyph g, .ticklines g, .legendContent g text {
    fill: rgb(94%, 94%, 94%);
  }
  .ticklines g, .tickglyph g, .legendBorder g {
    stroke: rgb(94%, 94%, 94%);
  }
  .legendBorder g {
    fill: rgb(5%, 5%, 5%);
  }
}</style><g class="chart"><g class="day"><g fill="none" stroke="rgb(2%, 73%, 80%)" stroke-opacity="1.0" stroke-width="0.0030"><polyline points="-0.5590,-0.0577 -0.5581,-0.0050 -0.5572,0.0035 -0.5563,-0.0283 -0.5554,-0.0357 -0.5545,-0.0434 -0.5536,-0.0427 -0.5527,-0.0493 -0.5519,-0.0622 -0.5510,-0.0415 -0.5501,-0.0686 -0.5492,-0.0371 -0.5483,-0.0402 -0.5474,-0.0433 -0.5465,-0.0439 -0.5456,-0.0626 -0.5447,-0.0572 -0.5438,-0.0589 -0.5429,-0.0544 -0.5420,-0.0564 -0.5411,-0.0579 -0.5402,-0.0623 -0.5393,-0.0748 -0.5384,-0.0559 -0.5375,-0.0693 -0.5366,-0.0527 -0.5357,-0.0635 -0.5348,-0.0575 -0.5339,-0.0545 -0.5330,-0.0578 -0.5321,-0.0741 -0.5312,-0.0732 -0.5303,-0.0746 -0.5295,-0.0863 -0.5286,-0.0725 -0.5277,-0.0722 -0.5268,-0.0748 -0.5259,-0.0677 -0.5250,-0.0754 -0.5241,-0.0836 -0.5232,-0.0841 -0.5223,-0.0827 -0.5214,-0.0894 -0.5205,-0.0935 -0.5196,-0.0878 -0.5187,-0.0775 -0.5178,-0.0795 -0.5169,-0.0836 -0.5160,-0.0840 -0.5151,-0.0835 -0.5142,-0.0813 -0.5133,-0.0759 -0.5124,-0.0799 -0.5115,-0.0680 -0.5106,-0.0720 -0.5097,-0.0775 -0.5088,-0.0829 -0.5079,-0.0757 -0.5070,-0.0729 -0.5062,-0.0672 -0.5053,-0.0690 -0.5044,-0.0624 -0.5035,-0.0596 -0.5026,-0.0622 -0.5017,-0.0655 -0.5008,-0.0745 -0.4999,-0.0684 -0.4990,-0.0675 -0.4981,-0.0499 -0.4972,-0.0602 -0.4963,-0.0676 -0.4954,-0.0698 -0.4945,-0.0677 -0.4936,-0.0664 -0.4927,-0.0679 -0.4918,-0.0776 -0.4909,-0.0767 -0.4900,-0.0795 -0.4891,-0.0794 -0.4882,-0.0754 -0.4873,-0.0744 -0.4864,-0.0772 -0.4855,-0.0731 -0.4846,-0.0745 -0.4837,-0.0741 -0.4829,-0.0826 -0.4820,-0.0870 -0.4811,-0.0835 -0.4802,-0.1015 -0.4793,-0.0996 -0.4784,-0.0891 -0.4775,-0.0804 -0.4766,-0.0788 -0.4757,-0.0810 -0.4748,-0.0760 -0.4739,-0.0949 -0.4730,-0.1008 -0.4721,-0.0990 -0.4712,-0.1036 -0.4703,-0.0999 -0.4694,-0.1041 -0.4685,-0.1001 -0.4676,-0.1093 -0.4667,-0.1171 -0.4658,-0.0937 -0.4649,-0.1053 -0.4640,-0.1036 -0.4631,-0.0926 -0.4622,-0.0844 -0.4613,-0.1040 -0.4604,-0.0955 -0.4596,-0.0856 -0.4587,-0.0758 -0.4578,-0.0579 -0.4569,-0.0684 -0.4560,-0.0664 -0.4551,-0.0478 -0.4542,-0.0394 -0.4533,-0.0503 -0.4524,-0.0377 -0.4515,-0.0540 -0.4506,-0.0550 -0.4497,-0.0404 -0.4488,-0.0403 -0.4479,-0.0323 -0.4470,-0.0330 -0.4461,-0.0295 -0.4452,-0.0208 -0.4443,-0.0323 -0.4434,-0.0368 -0.4425,-0.0402 -0.4416,-0.0342 -0.4407,-0.0286 -0.4398,-0.0317 -0.4389,-0.0304 -0.4380,-0.0203 -0.4372,-0.0293 -0.4363,-0.0186 -0.4354,-0.0179 -0.4345,-0.0036 -0.4336,-0.0090 -0.4327,-0.0056 -0.4318,0.0010 -0.4309,-0.0646 -0.4300,-0.0364 -0.4291,-0.0429 -0.4282,-0.0714 -0.4273,-0.0697 -0.4264,-0.0269 -0.4255,-0.0121 -0.4246,-0.0336 -0.4237,-0.0102 -0.4228,-0.0502 -0.4219,-0.0100 -0.4210,-0.0439 -0.4201,-0.0421 -0.4192,-0.0390 -0.4183,-0.0409 -0.4174,-0.0403 -0.4165,-0.0455 -0.4156,-0.0515 -0.4147,-0.0499 -0.4139,-0.0488 -0.4130,-0.0456 -0.4121,-0.0452 -0.4112,-0.0430 -0.4103,-0.0423 -0.4094,-0.0427 -0.4085,-0.0485 -0.4076,-0.0494 -0.4067,-0.0504 -0.4058,-0.0471 -0.4049,-0.0554 -0.4040,-0.0456 -0.4031,-0.0447 -0.4022,-0.0642 -0.4013,-0.0403 -0.4004,-0.0562 -0.3995,-0.0585 -0.3986,-0.0506 -0.3977,-0.0447 -0.3968,-0.0447 -0.3959,-0.0291 -0.3950,-0.0290 -0.3941,-0.0265 -0.3932,-0.0285 -0.3923,-0.0431 -0.3914,-0.0408 -0.3906,-0.0261 -0.3897,-0.0361 -0.3888,-0.0397 -0.3879,-0.0392 -0.3870,-0.0170 -0.3861,-0.0233 -0.3852,-0.0369 -0.3843,-0.0236 -0.3834,-0.0401 -0.3825,-0.0374 -0.3816,-0.0351 -0.3807,-0.0337 -0.3798,-0.0358 -0.3789,-0.0431 -0.3780,-0.0422 -0.3771,-0.0487 -0.3762,-0.0445 -0.3753,-0.0110 -0.3744,-0.0311 -0.3735,-0.0354 -0.3726,-0.0520 -0.3717,-0.0468 -0.3708,-0.0457 -0.3699,-0.0395 -0.3690,-0.0524 -0.3682,-0.0630 -0.3673,-0.0572 -0.3664,-0.0408 -0.3655,-0.0420 -0.3646,-0.0441 -0.3637,-0.0405 -0.3628,-0.0443 -0.3619,-0.0425 -0.3610,-0.0436 -0.3601,-0.0447 -0.3592,-0.0450 -0.3583,-0.0444 -0.3574,-0.0456 -0.3565,-0.0530 -0.3556,-0.0909 -0.3547,-0.1127 -0.3538,-0.1053 -0.3529,-0.1356 -0.3520,-0.1542 -0.3511,-0.1091 -0.3502,-0.1232 -0.3493,-0.0916 -0.3484,-0.0937 -0.3475,-0.0925 -0.3466,-0.1616 -0.3457,-0.1815 -0.3449,-0.1607 -0.3440,-0.2656 -0.3431,-0.1939 -0.3422,-0.3065 -0.3413,-0.2761 -0.3404,-0.3176 -0.3395,-0.3212 -0.3386,-0.3464 -0.3377,-0.3558 -0.3368,-0.2944 -0.3359,-0.2899 -0.3350,-0.2063 -0.3341,-0.2721 -0.3332,-0.1944 -0.3323,-0.2525 -0.3314,-0.2649 -0.3305,-0.2619 -0.3296,-0.2595 -0.3287,-0.2265 -0.3278,-0.1584 -0.3269,-0.1297 -0.3260,-0.1171 -0.3251,-0.1240 -0.3242,-0.0988 -0.3233,-0.1162 -0.3224,-0.1364 -0.3216,-0.1225 -0.3207,-0.1315 -0.3198,-0.1373 -0.3189,-0.1385 -0.3180,-0.0727 -0.3171,-0.0614 -0.3162,-0.0744 -0.3153,-0.0659 -0.3144,-0.0556 -0.3135,-0.0582 -0.3126,-0.1111 -0.3117,-0.1184 -0.3108,-0.1663 -0.3099,-0.0961 -0.3090,-0.1198 -0.3081,-0.1210 -0.3072,-0.0809 -0.3063,-0.0755 -0.3054,-0.0862 -0.3045,-0.1111 -0.3036,-0.1381 -0.3027,-0.1142 -0.3018,-0.1068 -0.3009,-0.0975 -0.3000,-0.0647 -0.2992,-0.0880 -0.2983,-0.0779 -0.2974,-0.1249 -0.2965,-0.0942 -0.2956,-0.0810 -0.2947,-0.1356 -0.2938,-0.1522 -0.2929,-0.1575 -0.2920,-0.1089 -0.2911,-0.1313 -0.2902,-0.1498 -0.2893,-0.1592 -0.2884,-0.0522 -0.2875,-0.1534 -0.2866,-0.0235 -0.2857,-0.0205 -0.2848,-0.0084 -0.2839,-0.1118 -0.2830,-0.1137 -0.2821,-0.0543 -0.2812,-0.1804 -0.2803,-0.1418 -0.2794,-0.0986 -0.2785,-0.1457 -0.2776,-0.2142 -0.2767,-0.1364 -0.2759,-0.1623 -0.2750,-0.2382 -0.2741,-0.2447 -0.2732,-0.2519 -0.2723,-0.2187 -0.2714,-0.2489 -0.2705,-0.1916 -0.2696,-0.2079 -0.2687,-0.2003 -0.2678,-0.1877 -0.2669,-0.2073 -0.2660,-0.1592 -0.2651,-0.2095 -0.2642,-0.2160 -0.2633,-0.2109 -0.2624,-0.2035 -0.2615,-0.2159 -0.2606,-0.2139 -0.2597,-0.2121 -0.2588,-0.2173 -0.2579,-0.2099 -0.2570,-0.2108 -0.2561,-0.2090 -0.2552,-0.2083 -0.2543,-0.2324 -0.2534,-0.2145 -0.2526,-0.2388 -0.2517,-0.1938 -0.2508,-0.1875 -0.2499,-0.1917 -0.2490,-0.1818 -0.2481,-0.1805 -0.2472,-0.1898 -0.2463,-0.1843 -0.2454,-0.1809 -0.2445,-0.1835 -0.2436,-0.1845 -0.2427,-0.1828 -0.2418,-0.1771 -0.2409,-0.1791 -0.2400,-0.1728 -0.2391,-0.1698 -0.2382,-0.1678 -0.2373,-0.1688 -0.2364,-0.1653 -0.2355,-0.1542 -0.2346,-0.1857 -0.2337,-0.1932 -0.2328,-0.2155 -0.2319,-0.2013 -0.2310,-0.2181 -0.2302,-0.2166 -0.2293,-0.2067 -0.2284,-0.2048 -0.2275,-0.2076 -0.2266,-0.2149 -0.2257,-0.1625 -0.2248,-0.2338 -0.2239,-0.1717 -0.2230,-0.1704 -0.2221,-0.2425 -0.2212,-0.2240 -0.2203,-0.2255 -0.2194,-0.2290 -0.2185,-0.2246 -0.2176,-0.2223 -0.2167,-0.2296 -0.2158,-0.2162 -0.2149,-0.2280 -0.2140,-0.2148 -0.2131,-0.2159 -0.2122,-0.2236 -0.2113,-0.2070 -0.2104,-0.1947 -0.2095,-0.1996 -0.2086,-0.2143 -0.2077,-0.2069 -0.2069,-0.2155 -0.2060,-0.2148 -0.2051,-0.2122 -0.2042,-0.2103 -0.2033,-0.1867 -0.2024,-0.2084 -0.2015,-0.2320 -0.2006,-0.2592 -0.1997,-0.2441 -0.1988,-0.2593 -0.1979,-0.2497 -0.1970,-0.2364 -0.1961,-0.2189 -0.1952,-0.2087 -0.1943,-0.2067 -0.1934,-0.1953 -0.1925,-0.1990 -0.1916,-0.1959 -0.1907,-0.2131 -0.1898,-0.2080 -0.1889,-0.2033 -0.1880,-0.1859 -0.1871,-0.2116 -0.1862,-0.2127 -0.1853,-0.2043 -0.1844,-0.2182 -0.1836,-0.2102 -0.1827,-0.1896 -0.1818,-0.1716 -0.1809,-0.1714 -0.1800,-0.1612 -0.1791,-0.1540 -0.1782,-0.1578 -0.1773,-0.1544 -0.1764,-0.1538 -0.1755,-0.1718 -0.1746,-0.1795 -0.1737,-0.1801 -0.1728,-0.1807 -0.1719,-0.1763 -0.1710,-0.1762 -0.1701,-0.1668 -0.1692,-0.1631 -0.1683,-0.1432 -0.1674,-0.1271 -0.1665,-0.1104 -0.1656,-0.1088 -0.1647,-0.1076 -0.1638,-0.0966 -0.1629,-0.0970 -0.1620,-0.0936 -0.1612,-0.0905 -0.1603,-0.1023 -0.1594,-0.1075 -0.1585,-0.1320 -0.1576,-0.1457 -0.1567,-0.1611 -0.1558,-0.1553 -0.1549,-0.0970 -0.1540,-0.1522 -0.1531,-0.1045 -0.1522,-0.1062 -0.1513,-0.1424 -0.1504,-0.1585 -0.1495,-0.1349 -0.1486,-0.0944 -0.1477,-0.0886 -0.1468,-0.0167 -0.1459,-0.0266 -0.1450,-0.0605 -0.1441,-0.0313 -0.1432,-0.0569 -0.1423,-0.0385 -0.1414,-0.0191 -0.1405,-0.0509 -0.1396,-0.0785 -0.1387,-0.0929 -0.1379,-0.1639 -0.1370,-0.1638 -0.1361,-0.0718 -0.1352,-0.1189 -0.1343,-0.0896 -0.1334,-0.0801 -0.1325,-0.0734 -0.1316,-0.0645 -0.1307,-0.0600 -0.1298,-0.0567 -0.1289,-0.0521 -0.1280,-0.0704 -0.1271,-0.0707 -0.1262,-0.0545 -0.1253,-0.0577 -0.1244,-0.0662 -0.1235,-0.0619 -0.1226,-0.0618 -0.1217,-0.0523 -0.1208,-0.0558 -0.1199,-0.0557 -0.1190,-0.0525 -0.1181,-0.0366 -0.1172,-0.0450 -0.1163,-0.0480 -0.1154,-0.0559 -0.1146,-0.0674 -0.1137,-0.0508 -0.1128,-0.0496 -0.1119,-0.0512 -0.1110,-0.0508 -0.1101,-0.0512 -0.1092,-0.0430 -0.1083,-0.0395 -0.1074,-0.0350 -0.1065,-0.0294 -0.1056,-0.0225 -0.1047,-0.0118 -0.1038,-0.0177 -0.1029,-0.0212 -0.1020,-0.0181 -0.1011,-0.0168 -0.1002,-0.0129 -0.0993,-0.0219 -0.0984,-0.0185 -0.0975,-0.0150 -0.0966,-0.0108 -0.0957,-0.0166 -0.0948,-0.0188 -0.0939,-0.0075 -0.0930,-0.0082 -0.0922,-0.0035 -0.0913,-0.0663 -0.0904,-0.0651 -0.0895,-0.0616 -0.0886,-0.0633 -0.0877,-0.0659 -0.0868,-0.0275 -0.0859,0.0159 -0.0850,-0.0058 -0.0841,0.0535 -0.0832,-0.0615 -0.0823,-0.0536 -0.0814,-0.0386 -0.0805,-0.0332 -0.0796,-0.0416 -0.0787,-0.0946 -0.0778,-0.0961 -0.0769,-0.1011 -0.0760,-0.1010 -0.0751,-0.0971 -0.0742,-0.0238 -0.0733,-0.0203 -0.0724,-0.0013 -0.0715,-0.0034 -0.0706,-0.0126 -0.0697,-0.0396 -0.0689,-0.0328 -0.0680,-0.0222 -0.0671,-0.0236 -0.0662,-0.0201 -0.0653,-0.0198 -0.0644,-0.0178 -0.0635,-0.0170 -0.0626,-0.0021 -0.0617,-0.0601 -0.0608,-0.0628 -0.0599,-0.0625 -0.0590,-0.0633 -0.0581,-0.0622 -0.0572,-0.0642 -0.0563,-0.0654 -0.0554,-0.0642 -0.0545,-0.0625 -0.0536,-0.0623 -0.0527,-0.0644 -0.0518,-0.0679 -0.0509,-0.0392 -0.0500,-0.0334 -0.0491,-0.0521 -0.0482,-0.0497 -0.0473,-0.0579 -0.0464,-0.0511 -0.0456,-0.0557 -0.0447,-0.0479 -0.0438,-0.0493 -0.0429,-0.0500 -0.0420,-0.0429 -0.0411,-0.0439 -0.0402,-0.0490 -0.0393,-0.0615 -0.0384,-0.0526 -0.0375,-0.0502 -0.0366,-0.0524 -0.0357,-0.0595 -0.0348,-0.0748 -0.0339,-0.0698 -0.0330,-0.0552 -0.0321,-0.0833 -0.0312,-0.0686 -0.0303,-0.0642 -0.0294,-0.0714 -0.0285,-0.0645 -0.0276,-0.0718 -0.0267,-0.0719 -0.0258,-0.0701 -0.0249,-0.0260 -0.0240,-0.0329 -0.0231,-0.0629 -0.0223,-0.0580 -0.0214,-0.0683 -0.0205,-0.0665 -0.0196,-0.0673 -0.0187,-0.0670 -0.0178,-0.0616 -0.0169,-0.0575 -0.0160,-0.0610 -0.0151,-0.0627 -0.0142,-0.0655 -0.0133,-0.0614 -0.0124,-0.0602 -0.0115,-0.0598 -0.0106,-0.0615 -0.0097,-0.0619 -0.0088,-0.0605 -0.0079,-0.0630 -0.0070,-0.0662 -0.0061,-0.0675 -0.0052,-0.0621 -0.0043,-0.0656 -0.0034,-0.0688 -0.0025,-0.0669 -0.0016,-0.0669 -0.0007,-0.0727 0.0001,-0.0855 0.0010,-0.0820 0.0019,-0.0779 0.0028,-0.0757 0.0037,-0.0760 0.0046,-0.0753 0.0055,-0.0915 0.0064,-0.0954 0.0073,-0.1033 0.0082,-0.0973 0.0091,-0.1058 0.0100,-0.1009 0.0109,-0.1012 0.0118,-0.0986 0.0127,-0.1011 0.0136,-0.0985 0.0145,-0.0977 0.0154,-0.0993 0.0163,-0.0887 0.0172,-0.0881 0.0181,-0.0858 0.0190,-0.0842 0.0199,-0.0825 0.0208,-0.0827 0.0217,-0.0821 0.0226,-0.0808 0.0234,-0.0820 0.0243,-0.0858 0.0252,-0.0797 0.0261,-0.0808 0.0270,-0.0818 0.0279,-0.0901 0.0288,-0.0881 0.0297,-0.0845 0.0306,-0.0848 0.0315,-0.0826 0.0324,-0.0841 0.0333,-0.0857 0.0342,-0.0830 0.0351,-0.0805 0.0360,-0.0782 0.0369,-0.0786 0.0378,-0.0832 0.0387,-0.0820 0.0396,-0.0818 0.0405,-0.0836 0.0414,-0.0905 0.0423,-0.0913 0.0432,-0.1124 0.0441,-0.1010 0.0450,-0.1167 0.0459,-0.1307 0.0467,-0.1183 0.0476,-0.1269 0.0485,-0.1137 0.0494,-0.0956 0.0503,-0.0956 0.0512,-0.1061 0.0521,-0.1003 0.0530,-0.1074 0.0539,-0.1130 0.0548,-0.1010 0.0557,-0.1079 0.0566,-0.1199 0.0575,-0.1300 0.0584,-0.1157 0.0593,-0.1049 0.0602,-0.1024 0.0611,-0.0929 0.0620,-0.0925 0.0629,-0.0922 0.0638,-0.0916 0.0647,-0.0923 0.0656,-0.0913 0.0665,-0.0896 0.0674,-0.1051 0.0683,-0.1032 0.0691,-0.1051 0.0700,-0.1045 0.0709,-0.1014 0.0718,-0.1110 0.0727,-0.1216 0.0736,-0.1273 0.0745,-0.1437 0.0754,-0.1328 0.0763,-0.1402 0.0772,-0.1548 0.0781,-0.1276 0.0790,-0.1579 0.0799,-0.1574 0.0808,-0.1598 0.0817,-0.0981 0.0826,-0.1105 0.0835,-0.1222 0.0844,-0.1416 0.0853,-0.1633 0.0862,-0.1375 0.0871,-0.1450 0.0880,-0.1366 0.0889,-0.1091 0.0898,-0.1091 0.0907,-0.1298 0.0916,-0.1546 0.0924,-0.1479 0.0933,-0.1008 0.0942,-0.1098 0.0951,-0.1244 0.0960,-0.1317 0.0969,-0.1335 0.0978,-0.1346 0.0987,-0.1162 0.0996,-0.1164 0.1005,-0.1147 0.1014,-0.1137 0.1023,-0.1015 0.1032,-0.0890 0.1041,-0.1016 0.1050,-0.0851 0.1059,-0.0815 0.1068,-0.0656 0.1077,-0.0576 0.1086,-0.0339 0.1095,-0.0439 0.1104,-0.0518 0.1113,-0.0658 0.1122,-0.0957 0.1131,-0.0999 0.1140,-0.0918 0.1149,-0.1016 0.1157,-0.0916 0.1166,-0.0891 0.1175,-0.0831 0.1184,-0.0737 0.1193,-0.0785 0.1202,-0.0756 0.1211,-0.0882 0.1220,-0.0829 0.1229,-0.0930 0.1238,-0.1040 0.1247,-0.1026 0.1256,-0.1348 0.1265,-0.1448 0.1274,-0.1431 0.1283,-0.1399 0.1292,-0.1457 0.1301,-0.0293 0.1310,-0.0170 0.1319,0.0113 0.1328,0.0084 0.1337,-0.0106 0.1346,-0.0088 0.1355,-0.0301 0.1364,-0.0303 0.1373,-0.0261 0.1381,-0.0395 0.1390,-0.0397 0.1399,-0.0423 0.1408,-0.0248 0.1417,-0.0418 0.1426,-0.0386 0.1435,-0.0656 0.1444,-0.0640 0.1453,-0.0760 0.1462,-0.0778 0.1471,-0.0561 0.1480,-0.0405 0.1489,-0.0591 0.1498,-0.0717 0.1507,-0.0782 0.1516,-0.0703 0.1525,-0.1184 0.1534,-0.0589 0.1543,-0.0593 0.1552,-0.1724 0.1561,-0.1517 0.1570,-0.1551 0.1579,-0.0269 0.1588,-0.0110 0.1597,-0.0234 0.1606,-0.0215 0.1614,-0.0669 0.1623,-0.0247 0.1632,-0.0385 0.1641,-0.0440 0.1650,-0.1277 0.1659,-0.1523 0.1668,0.0738 0.1677,-0.1667 0.1686,-0.1402 0.1695,-0.0734 0.1704,-0.0425 0.1713,-0.0735 0.1722,-0.0849 0.1731,-0.0477 0.1740,-0.0330 0.1749,-0.0553 0.1758,-0.0345 0.1767,-0.0387 0.1776,-0.0436 0.1785,-0.0645 0.1794,-0.0742 0.1803,-0.0402 0.1812,-0.0514 0.1821,-0.0631 0.1830,-0.0622 0.1839,-0.0598 0.1847,-0.0158 0.1856,-0.0443 0.1865,-0.0252 0.1874,-0.0070 0.1883,0.0008 0.1892,-0.0063 0.1901,-0.0049 0.1910,-0.0306 0.1919,0.0120 0.1928,0.0003 0.1937,0.0008 0.1946,0.0118 0.1955,0.0068 0.1964,0.0191 0.1973,0.0297 0.1982,0.0300 0.1991,0.0342 0.2000,0.0378 0.2009,0.0490 0.2018,0.0399 0.2027,0.0538 0.2036,0.0554 0.2045,0.0552 0.2054,0.0492 0.2063,0.0494 0.2071,0.0389 0.2080,0.0229 0.2089,0.0232 0.2098,-0.0035 0.2107,0.0324 0.2116,0.0006 0.2125,-0.0078 0.2134,-0.0073 0.2143,-0.0115 0.2152,-0.0100 0.2161,-0.0146 0.2170,-0.0138 0.2179,-0.0003 0.2188,0.0023 0.2197,0.0136 0.2206,0.0062 0.2215,-0.0166 0.2224,-0.0729 0.2233,-0.0341 0.2242,-0.0369 0.2251,-0.0573 0.2260,-0.0284 0.2269,-0.1413 0.2278,-0.1228 0.2287,-0.1452 0.2296,-0.1241 0.2304,-0.0301 0.2313,-0.0123 0.2322,-0.0230 0.2331,-0.0290 0.2340,-0.0364 0.2349,-0.0411 0.2358,-0.0559 0.2367,0.0080 0.2376,0.0281 0.2385,-0.0355 0.2394,0.0272 0.2403,-0.0495 0.2412,-0.0523 0.2421,-0.0058 0.2430,-0.0453 0.2439,-0.0362 0.2448,0.1434 0.2457,0.0578 0.2466,0.0960 0.2475,-0.0033 0.2484,0.1124 0.2493,0.0932 0.2502,0.0938 0.2511,0.1807 0.2520,0.0228 0.2529,0.1130 0.2537,0.1203 0.2546,0.1626 0.2555,0.0542 0.2564,0.0131 0.2573,-0.0028 0.2582,-0.0062 0.2591,0.0270 0.2600,0.0573 0.2609,0.0268 0.2618,0.0302 0.2627,0.0261 0.2636,0.0254 0.2645,0.0282 0.2654,0.1342 0.2663,0.1486 0.2672,0.1471 0.2681,0.0958 0.2690,0.0351 0.2699,0.0963 0.2708,0.1262 0.2717,0.1203 0.2726,0.0845 0.2735,0.1064 0.2744,0.2262 0.2753,0.0573 0.2761,0.0623 0.2770,0.1145 0.2779,0.1265 0.2788,0.0555 0.2797,0.0657 0.2806,0.0423 0.2815,0.1636 0.2824,0.0083 0.2833,0.1694 0.2842,0.0429 0.2851,0.0924 0.2860,0.0802 0.2869,0.0604 0.2878,0.0561 0.2887,0.0663 0.2896,0.1272 0.2905,0.0544 0.2914,0.0406 0.2923,0.0098 0.2932,0.0396 0.2941,0.0459 0.2950,0.0411 0.2959,0.0389 0.2968,0.0406 0.2977,0.0469 0.2986,0.0436 0.2994,0.0343 0.3003,0.0333 0.3012,0.0449 0.3021,0.0501 0.3030,0.0443 0.3039,0.0426 0.3048,0.0527 0.3057,0.0508 0.3066,0.0414 0.3075,0.0512 0.3084,0.0563 0.3093,0.0767 0.3102,0.0577 0.3111,0.0515 0.3120,0.0638 0.3129,0.0547 0.3138,0.0492 0.3147,0.0468 0.3156,0.0546 0.3165,0.0428 0.3174,0.0411 0.3183,0.0328 0.3192,0.0550 0.3201,0.0386 0.3210,0.0851 0.3219,0.0088 0.3227,0.0865 0.3236,0.0857 0.3245,0.0879 0.3254,0.0875 0.3263,0.0935 0.3272,0.1045 0.3281,0.0834 0.3290,0.0911 0.3299,0.0727 0.3308,0.0752 0.3317,0.0099 0.3326,0.0446 0.3335,0.0407 0.3344,0.0550 0.3353,0.0509 0.3362,0.0603"/></g></g></g><g class="hud"><g class="frame"><g fill="rgb(100%, 100%, 100%)" fill-opacity="0.02" stroke="rgb(0%, 0%, 0%)" stroke-opacity="0" stroke-width="0"><rect height="0.6308" width="0.8970" x="-0.5599" y="-0.3951"/></g></g><g class="axis"><g class="ticks"><g class="tickglyph"><g fill="rgb(5%, 5%, 5%)" fill-opacity="0.4" stroke="rgb(5%, 5%, 5%)" stroke-opacity="0.4" stroke-width="0.0040"><g transform="rotate(-90.0, -0.5778, 0.2356)"><polyline points="-0.5778,0.2506
-0.5778,0.2206"/></g><g transform="rotate(-90.0, -0.5778, 0.1455)"><polyline points="-0.5778,0.1605
-0.5778,0.1305"/></g><g transform="rotate(-90.0, -0.5778, 0.0554)"><polyline points="-0.5778,0.0704
-0.5778,0.0404"/></g><g transform="rotate(-90.0, -0.5778, -0.0347)"><polyline points="-0.5778,-0.0197
-0.5778,-0.0497"/></g><g transform="rotate(-90.0, -0.5778, -0.1248)"><polyline points="-0.5778,-0.1098
-0.5778,-0.1398"/></g><g transform="rotate(-90.0, -0.5778, -0.2149)"><polyline points="-0.5778,-0.1999
-0.5778,-0.2299"/></g><g transform="rotate(-90.0, -0.5778, -0.3050)"><polyline points="-0.5778,-0.2900
-0.5778,-0.3200"/></g><g transform="rotate(-90.0, -0.5778, -0.3951)"><polyline points="-0.5778,-0.3801
-0.5778,-0.4101"/></g></g></g><g class="ticktext"><g fill="rgb(5%, 5%, 5%)" fill-opacity="1.0" font-size="0.0298" stroke="none" stroke-width="0.0" text-anchor="end"><text x="-0.5993" y="0.2443">-0.3%</text><text x="-0.5993" y="0.1542">-0.2%</text><text x="-0.5993" y="0.0641">-0.1%</text><text x="-0.5993" y="-0.0260"> 0.0%</text><text x="-0.5993" y="-0.1161"> 0.1%</text><text x="-0.5993" y="-0.2062"> 0.2%</text><text x="-0.5993" y="-0.2964"> 0.3%</text><text x="-0.5993" y="-0.3865"> 0.4%</text></g></g><g class="ticklines"><g fill="none" stroke="rgb(5%, 5%, 5%)" stroke-opacity="0.05" stroke-width="0.0050"><polyline points="-0.5590,0.2356 0.3362,0.2356"/><polyline points="-0.5590,0.1455 0.3362,0.1455"/><polyline points="-0.5590,0.0554 0.3362,0.0554"/><polyline points="-0.5590,-0.0347 0.3362,-0.0347"/><polyline points="-0.5590,-0.1248 0.3362,-0.1248"/><polyline points="-0.5590,-0.2149 0.3362,-0.2149"/><polyline points="-0.5590,-0.3050 0.3362,-0.3050"/><polyline points="-0.5590,-0.3951 0.3362,-0.3951"/></g></g></g><g class="axisbar"><g fill="rgb(5%, 5%, 5%)" fill-opacity="0.4" stroke="rgb(0%, 0%, 0%)" stroke-opacity="0" stroke-width="0"><rect height="0.6333" width="0.0024" x="-0.5683" y="-0.3964"/></g></g></g><g class="axis"><g class="ticks"><g class="tickglyph"><g fill="rgb(5%, 5%, 5%)" fill-opacity="0.4" stroke="rgb(5%, 5%, 5%)" stroke-opacity="0.4" stroke-width="0.0040"><polyline points="-0.5015,0.2696
-0.5015,0.2396"/><polyline points="-0.3877,0.2696
-0.3877,0.2396"/><polyline points="-0.2752,0.2696
-0.2752,0.2396"/><polyline points="-0.1614,0.2696
-0.1614,0.2396"/><polyline points="-0.0494,0.2696
-0.0494,0.2396"/><polyline points="0.0644,0.2696
0.0644,0.2396"/><polyline points="0.1763,0.2696
0.1763,0.2396"/><polyline points="0.2901,0.2696
0.2901,0.2396"/></g></g><g class="ticktext"><g fill="rgb(5%, 5%, 5%)" fill-opacity="1.0" font-size="0.0298" stroke="none" stroke-width="0.0" text-anchor="end"><text transform="rotate(-45.0, -0.5015, 0.2946)" x="-0.5015" y="0.2946">30 Jun 2019</text><text transform="rotate(-45.0, -0.3877, 0.2946)" x="-0.3877" y="0.2946">31 Dec 2019</text><text transform="rotate(-45.0, -0.2752, 0.2946)" x="-0.2752" y="0.2946">30 Jun 2020</text><text transform="rotate(-45.0, -0.1614, 0.2946)" x="-0.1614" y="0.2946">31 Dec 2020</text><text transform="rotate(-45.0, -0.0494, 0.2946)" x="-0.0494" y="0.2946">30 Jun 2021</text><text transform="rotate(-45.0, 0.0644, 0.2946)" x="0.0644" y="0.2946">31 Dec 2021</text><text transform="rotate(-45.0, 0.1763, 0.2946)" x="0.1763" y="0.2946">30 Jun 2022</text><text transform="rotate(-45.0, 0.2901, 0.2946)" x="0.2901" y="0.2946">31 Dec 2022</text></g></g><g class="ticklines"><g fill="none" stroke="rgb(5%, 5%, 5%)" stroke-opacity="0.05" stroke-width="0.0050"><polyline points="-0.5015,0.2356 -0.5015,-0.3951"/><polyline points="-0.3877,0.2356 -0.3877,-0.3951"/><polyline points="-0.2752,0.2356 -0.2752,-0.3951"/><polyline points="-0.1614,0.2356 -0.1614,-0.3951"/><polyline points="-0.0494,0.2356 -0.0494,-0.3951"/><polyline points="0.0644,0.2356 0.0644,-0.3951"/><polyline points="0.1763,0.2356 0.1763,-0.3951"/><polyline points="0.2901,0.2356 0.2901,-0.3951"/></g></g></g><g class="axisbar"><g fill="rgb(5%, 5%, 5%)" fill-opacity="0.4" stroke="rgb(0%, 0%, 0%)" stroke-opacity="0" stroke-width="0"><rect height="0.0025" width="0.8976" x="-0.5602" y="0.2419"/></g></g></g><g class="legend"><g class="legendBorder"><g fill="rgb(99%, 99%, 99%)" fill-opacity="1.0" stroke="rgb(5%, 5%, 5%)" stroke-opacity="1.0" stroke-width="0.0025"><rect height="0.0576" width="0.2810" x="0.3824" y="-0.0288"/></g></g><g class="legendContent"><g fill="rgb(5%, 5%, 5%)" fill-opacity="1.0" font-size="0.0224" stroke="none" stroke-width="0.0" text-anchor="start"><text x="0.3974" y="0.0059">median - mean</text></g><g fill="none" stroke="rgb(2%, 73%, 80%)" stroke-opacity="1.0" stroke-width="0.0030"><polyline points="0.5581,0 0.6476,0"/></g></g></g><g class="frame"><g fill="rgb(100%, 100%, 100%)" fill-opacity="0.02" stroke="rgb(0%, 0%, 0%)" stroke-opacity="0" stroke-width="0"><rect height="0.8738" width="1.3806" x="-0.6903" y="-0.4369"/></g></g><g class="frame"><g fill="rgb(100%, 100%, 100%)" fill-opacity="0.02" stroke="rgb(0%, 0%, 0%)" stroke-opacity="0" stroke-width="0"><rect height="1.0000" width="1.5" x="-0.75" y="-0.5000"/></g></g></g></svg>