<svg xmlns="http://www.w3.org/2000/svg" xmlns:xlink="http://www.w3.org/1999/xlink" width="450" height="300" viewBox="-0.75 -0.5 1.5 1.0"><style>svg {
  color-scheme: light dark;
}
{
  .canvas g, .title g, .axisbar g, .ticktext g, .tickglyph g, .ticklines g, .legendContent g text {
    fill: rgb(5%, 5%, 5%);
  }
  .ticklines g, .tickglyph g, .legendBorder g {
    stroke: rgb(5%, 5%, 5%);
  }
  .legendBorder g {
    fill: rgb(94%, 94%, 94%);
  }
}
@media (prefers-color-scheme:dark) {
  .canvas g, .title g, .axisbar g, .ticktext g, .tickglyph g, .ticklines g, .legendContent g text {
    fill: rgb(94%, 94%, 94%);
  }
  .ticklines g, .tickglyph g, .legendBorder g {
    stroke: rgb(94%, 94%, 94%);
  }
  .legendBorder g {
    fill: rgb(5%, 5%, 5%);
  }
}
svg { font-family: system-ui,-apple-system,"Segoe UI",Roboto,"Helvetica Neue",Arial,"Noto Sans","Liberation Sans",sans-serif,"Apple Color Emoji","Segoe UI Emoji","Segoe UI Symbol","Noto Color Emoji";
}

ticktext { font-family: SFMono-Regular,Menlo,Monaco,Consolas,"Liberation Mono","Courier New",monospace;
}

</style><g class="chart"><g class="day"><g stroke-width="0.0030" stroke="rgb(2%, 73%, 80%)" stroke-opacity="1.0" fill="none"><polyline points="-0.5029,-0.1433 -0.5017,-0.1038 -0.5006,-0.0973 -0.4994,-0.1212 -0.4983,-0.1268 -0.4971,-0.1326 -0.4960,-0.1321 -0.4948,-0.1370 -0.4937,-0.1467 -0.4926,-0.1312 -0.4914,-0.1515 -0.4903,-0.1278 -0.4891,-0.1302 -0.4880,-0.1325 -0.4868,-0.1329 -0.4857,-0.1470 -0.4845,-0.1429 -0.4834,-0.1442 -0.4822,-0.1408 -0.4811,-0.1423 -0.4800,-0.1434 -0.4788,-0.1468 -0.4777,-0.1562 -0.4765,-0.1420 -0.4754,-0.1521 -0.4742,-0.1395 -0.4731,-0.1477 -0.4719,-0.1432 -0.4708,-0.1409 -0.4696,-0.1434 -0.4685,-0.1556 -0.4674,-0.1550 -0.4662,-0.1560 -0.4651,-0.1648 -0.4639,-0.1544 -0.4628,-0.1542 -0.4616,-0.1562 -0.4605,-0.1509 -0.4593,-0.1567 -0.4582,-0.1628 -0.4570,-0.1632 -0.4559,-0.1621 -0.4548,-0.1672 -0.4536,-0.1702 -0.4525,-0.1659 -0.4513,-0.1582 -0.4502,-0.1597 -0.4490,-0.1628 -0.4479,-0.1631 -0.4467,-0.1627 -0.4456,-0.1611 -0.4444,-0.1570 -0.4433,-0.1600 -0.4422,-0.1511 -0.4410,-0.1541 -0.4399,-0.1582 -0.4387,-0.1623 -0.4376,-0.1569 -0.4364,-0.1547 -0.4353,-0.1505 -0.4341,-0.1518 -0.4330,-0.1468 -0.4319,-0.1448 -0.4307,-0.1467 -0.4296,-0.1492 -0.4284,-0.1560 -0.4273,-0.1514 -0.4261,-0.1507 -0.4250,-0.1375 -0.4238,-0.1452 -0.4227,-0.1508 -0.4215,-0.1524 -0.4204,-0.1508 -0.4193,-0.1498 -0.4181,-0.1510 -0.4170,-0.1583 -0.4158,-0.1576 -0.4147,-0.1597 -0.4135,-0.1596 -0.4124,-0.1566 -0.4112,-0.1559 -0.4101,-0.1580 -0.4089,-0.1549 -0.4078,-0.1560 -0.4067,-0.1556 -0.4055,-0.1620 -0.4044,-0.1654 -0.4032,-0.1627 -0.4021,-0.1762 -0.4009,-0.1748 -0.3998,-0.1669 -0.3986,-0.1604 -0.3975,-0.1592 -0.3963,-0.1608 -0.3952,-0.1571 -0.3941,-0.1713 -0.3929,-0.1757 -0.3918,-0.1744 -0.3906,-0.1778 -0.3895,-0.1750 -0.3883,-0.1782 -0.3872,-0.1752 -0.3860,-0.1821 -0.3849,-0.1879 -0.3837,-0.1704 -0.3826,-0.1791 -0.3815,-0.1778 -0.3803,-0.1695 -0.3792,-0.1634 -0.3780,-0.1781 -0.3769,-0.1717 -0.3757,-0.1643 -0.3746,-0.1569 -0.3734,-0.1434 -0.3723,-0.1514 -0.3711,-0.1498 -0.3700,-0.1359 -0.3689,-0.1296 -0.3677,-0.1377 -0.3666,-0.1283 -0.3654,-0.1406 -0.3643,-0.1413 -0.3631,-0.1304 -0.3620,-0.1302 -0.3608,-0.1242 -0.3597,-0.1247 -0.3586,-0.1221 -0.3574,-0.1156 -0.3563,-0.1242 -0.3551,-0.1276 -0.3540,-0.1302 -0.3528,-0.1257 -0.3517,-0.1215 -0.3505,-0.1238 -0.3494,-0.1228 -0.3482,-0.1152 -0.3471,-0.1220 -0.3460,-0.1140 -0.3448,-0.1134 -0.3437,-0.1027 -0.3425,-0.1067 -0.3414,-0.1042 -0.3402,-0.0992 -0.3391,-0.1485 -0.3379,-0.1273 -0.3368,-0.1322 -0.3356,-0.1536 -0.3345,-0.1524 -0.3334,-0.1202 -0.3322,-0.1090 -0.3311,-0.1252 -0.3299,-0.1076 -0.3288,-0.1377 -0.3276,-0.1075 -0.3265,-0.1330 -0.3253,-0.1316 -0.3242,-0.1293 -0.3230,-0.1307 -0.3219,-0.1303 -0.3208,-0.1341 -0.3196,-0.1387 -0.3185,-0.1374 -0.3173,-0.1367 -0.3162,-0.1342 -0.3150,-0.1339 -0.3139,-0.1323 -0.3127,-0.1318 -0.3116,-0.1321 -0.3104,-0.1364 -0.3093,-0.1371 -0.3082,-0.1379 -0.3070,-0.1354 -0.3059,-0.1416 -0.3047,-0.1343 -0.3036,-0.1336 -0.3024,-0.1482 -0.3013,-0.1303 -0.3001,-0.1422 -0.2990,-0.1439 -0.2978,-0.1380 -0.2967,-0.1335 -0.2956,-0.1336 -0.2944,-0.1219 -0.2933,-0.1218 -0.2921,-0.1199 -0.2910,-0.1214 -0.2898,-0.1323 -0.2887,-0.1306 -0.2875,-0.1196 -0.2864,-0.1271 -0.2853,-0.1298 -0.2841,-0.1295 -0.2830,-0.1127 -0.2818,-0.1175 -0.2807,-0.1277 -0.2795,-0.1177 -0.2784,-0.1301 -0.2772,-0.1280 -0.2761,-0.1263 -0.2749,-0.1253 -0.2738,-0.1268 -0.2727,-0.1324 -0.2715,-0.1317 -0.2704,-0.1365 -0.2692,-0.1334 -0.2681,-0.1082 -0.2669,-0.1233 -0.2658,-0.1266 -0.2646,-0.1390 -0.2635,-0.1351 -0.2623,-0.1343 -0.2612,-0.1296 -0.2601,-0.1393 -0.2589,-0.1473 -0.2578,-0.1430 -0.2566,-0.1306 -0.2555,-0.1315 -0.2543,-0.1331 -0.2532,-0.1304 -0.2520,-0.1333 -0.2509,-0.1319 -0.2497,-0.1327 -0.2486,-0.1335 -0.2475,-0.1338 -0.2463,-0.1333 -0.2452,-0.1343 -0.2440,-0.1398 -0.2429,-0.1683 -0.2417,-0.1847 -0.2406,-0.1791 -0.2394,-0.2019 -0.2383,-0.2158 -0.2371,-0.1820 -0.2360,-0.1926 -0.2349,-0.1688 -0.2337,-0.1703 -0.2326,-0.1695 -0.2314,-0.2214 -0.2303,-0.2364 -0.2291,-0.2207 -0.2280,-0.2996 -0.2268,-0.2456 -0.2257,-0.3303 -0.2245,-0.3074 -0.2234,-0.3386 -0.2223,-0.3414 -0.2211,-0.3603 -0.2200,-0.3673 -0.2188,-0.3212 -0.2177,-0.3178 -0.2165,-0.2550 -0.2154,-0.3044 -0.2142,-0.2460 -0.2131,-0.2897 -0.2120,-0.2990 -0.2108,-0.2968 -0.2097,-0.2950 -0.2085,-0.2701 -0.2074,-0.2190 -0.2062,-0.1974 -0.2051,-0.1880 -0.2039,-0.1932 -0.2028,-0.1742 -0.2016,-0.1873 -0.2005,-0.2025 -0.1994,-0.1920 -0.1982,-0.1988 -0.1971,-0.2031 -0.1959,-0.2041 -0.1948,-0.1546 -0.1936,-0.1461 -0.1925,-0.1559 -0.1913,-0.1495 -0.1902,-0.1418 -0.1890,-0.1437 -0.1879,-0.1834 -0.1868,-0.1889 -0.1856,-0.2249 -0.1845,-0.1722 -0.1833,-0.1900 -0.1822,-0.1909 -0.1810,-0.1608 -0.1799,-0.1567 -0.1787,-0.1648 -0.1776,-0.1835 -0.1764,-0.2037 -0.1753,-0.1857 -0.1742,-0.1802 -0.1730,-0.1732 -0.1719,-0.1486 -0.1707,-0.1661 -0.1696,-0.1585 -0.1684,-0.1938 -0.1673,-0.1708 -0.1661,-0.1608 -0.1650,-0.2019 -0.1638,-0.2144 -0.1627,-0.2183 -0.1616,-0.1818 -0.1604,-0.1987 -0.1593,-0.2126 -0.1581,-0.2196 -0.1570,-0.1392 -0.1558,-0.2152 -0.1547,-0.1176 -0.1535,-0.1154 -0.1524,-0.1063 -0.1512,-0.1840 -0.1501,-0.1854 -0.1490,-0.1408 -0.1478,-0.2356 -0.1467,-0.2065 -0.1455,-0.1741 -0.1444,-0.2094 -0.1432,-0.2610 -0.1421,-0.2024 -0.1409,-0.2219 -0.1398,-0.2790 -0.1387,-0.2839 -0.1375,-0.2893 -0.1364,-0.2643 -0.1352,-0.2870 -0.1341,-0.2439 -0.1329,-0.2562 -0.1318,-0.2505 -0.1306,-0.2410 -0.1295,-0.2558 -0.1283,-0.2196 -0.1272,-0.2574 -0.1261,-0.2622 -0.1249,-0.2585 -0.1238,-0.2529 -0.1226,-0.2622 -0.1215,-0.2607 -0.1203,-0.2593 -0.1192,-0.2632 -0.1180,-0.2577 -0.1169,-0.2584 -0.1157,-0.2570 -0.1146,-0.2565 -0.1135,-0.2746 -0.1123,-0.2611 -0.1112,-0.2794 -0.1100,-0.2456 -0.1089,-0.2409 -0.1077,-0.2440 -0.1066,-0.2366 -0.1054,-0.2356 -0.1043,-0.2426 -0.1031,-0.2385 -0.1020,-0.2359 -0.1009,-0.2379 -0.0997,-0.2386 -0.0986,-0.2374 -0.0974,-0.2331 -0.0963,-0.2346 -0.0951,-0.2298 -0.0940,-0.2276 -0.0928,-0.2260 -0.0917,-0.2268 -0.0905,-0.2242 -0.0894,-0.2158 -0.0883,-0.2395 -0.0871,-0.2452 -0.0860,-0.2619 -0.0848,-0.2512 -0.0837,-0.2639 -0.0825,-0.2627 -0.0814,-0.2553 -0.0802,-0.2538 -0.0791,-0.2560 -0.0780,-0.2615 -0.0768,-0.2221 -0.0757,-0.2757 -0.0745,-0.2290 -0.0734,-0.2280 -0.0722,-0.2822 -0.0711,-0.2683 -0.0699,-0.2695 -0.0688,-0.2721 -0.0676,-0.2687 -0.0665,-0.2670 -0.0654,-0.2725 -0.0642,-0.2624 -0.0631,-0.2713 -0.0619,-0.2614 -0.0608,-0.2622 -0.0596,-0.2680 -0.0585,-0.2555 -0.0573,-0.2463 -0.0562,-0.2500 -0.0550,-0.2610 -0.0539,-0.2554 -0.0528,-0.2619 -0.0516,-0.2614 -0.0505,-0.2594 -0.0493,-0.2580 -0.0482,-0.2403 -0.0470,-0.2566 -0.0459,-0.2743 -0.0447,-0.2948 -0.0436,-0.2834 -0.0424,-0.2948 -0.0413,-0.2876 -0.0402,-0.2776 -0.0390,-0.2645 -0.0379,-0.2568 -0.0367,-0.2553 -0.0356,-0.2467 -0.0344,-0.2495 -0.0333,-0.2472 -0.0321,-0.2601 -0.0310,-0.2563 -0.0298,-0.2527 -0.0287,-0.2397 -0.0276,-0.2590 -0.0264,-0.2598 -0.0253,-0.2535 -0.0241,-0.2639 -0.0230,-0.2579 -0.0218,-0.2425 -0.0207,-0.2289 -0.0195,-0.2288 -0.0184,-0.2211 -0.0172,-0.2157 -0.0161,-0.2185 -0.0150,-0.2160 -0.0138,-0.2156 -0.0127,-0.2291 -0.0115,-0.2349 -0.0104,-0.2353 -0.0092,-0.2358 -0.0081,-0.2325 -0.0069,-0.2324 -0.0058,-0.2253 -0.0047,-0.2225 -0.0035,-0.2076 -0.0024,-0.1955 -0.0012,-0.1829 -0.0001,-0.1817 0.0011,-0.1808 0.0022,-0.1726 0.0034,-0.1728 0.0045,-0.1703 0.0057,-0.1680 0.0068,-0.1769 0.0079,-0.1808 0.0091,-0.1991 0.0102,-0.2094 0.0114,-0.2210 0.0125,-0.2167 0.0137,-0.1729 0.0148,-0.2143 0.0160,-0.1785 0.0171,-0.1798 0.0183,-0.2070 0.0194,-0.2191 0.0205,-0.2014 0.0217,-0.1709 0.0228,-0.1665 0.0240,-0.1125 0.0251,-0.1199 0.0263,-0.1454 0.0274,-0.1235 0.0286,-0.1427 0.0297,-0.1289 0.0309,-0.1143 0.0320,-0.1382 0.0331,-0.1590 0.0343,-0.1698 0.0354,-0.2231 0.0366,-0.2231 0.0377,-0.1539 0.0389,-0.1893 0.0400,-0.1673 0.0412,-0.1601 0.0423,-0.1552 0.0435,-0.1485 0.0446,-0.1450 0.0457,-0.1426 0.0469,-0.1391 0.0480,-0.1529 0.0492,-0.1531 0.0503,-0.1409 0.0515,-0.1433 0.0526,-0.1497 0.0538,-0.1465 0.0549,-0.1464 0.0561,-0.1393 0.0572,-0.1419 0.0583,-0.1418 0.0595,-0.1394 0.0606,-0.1275 0.0618,-0.1338 0.0629,-0.1360 0.0641,-0.1419 0.0652,-0.1506 0.0664,-0.1381 0.0675,-0.1372 0.0686,-0.1384 0.0698,-0.1382 0.0709,-0.1385 0.0721,-0.1323 0.0732,-0.1296 0.0744,-0.1262 0.0755,-0.1221 0.0767,-0.1169 0.0778,-0.1088 0.0790,-0.1132 0.0801,-0.1159 0.0812,-0.1136 0.0824,-0.1126 0.0835,-0.1096 0.0847,-0.1165 0.0858,-0.1139 0.0870,-0.1112 0.0881,-0.1081 0.0893,-0.1124 0.0904,-0.1141 0.0916,-0.1056 0.0927,-0.1061 0.0938,-0.1026 0.0950,-0.1498 0.0961,-0.1489 0.0973,-0.1463 0.0984,-0.1475 0.0996,-0.1495 0.1007,-0.1207 0.1019,-0.0880 0.1030,-0.1043 0.1042,-0.0598 0.1053,-0.1462 0.1064,-0.1402 0.1076,-0.1290 0.1087,-0.1249 0.1099,-0.1313 0.1110,-0.1711 0.1122,-0.1722 0.1133,-0.1760 0.1145,-0.1759 0.1156,-0.1730 0.1168,-0.1179 0.1179,-0.1152 0.1190,-0.1009 0.1202,-0.1025 0.1213,-0.1094 0.1225,-0.1298 0.1236,-0.1246 0.1248,-0.1167 0.1259,-0.1177 0.1271,-0.1151 0.1282,-0.1148 0.1294,-0.1134 0.1305,-0.1128 0.1316,-0.1016 0.1328,-0.1451 0.1339,-0.1472 0.1351,-0.1469 0.1362,-0.1475 0.1374,-0.1467 0.1385,-0.1482 0.1397,-0.1491 0.1408,-0.1482 0.1419,-0.1469 0.1431,-0.1468 0.1442,-0.1484 0.1454,-0.1510 0.1465,-0.1294 0.1477,-0.1250 0.1488,-0.1391 0.1500,-0.1373 0.1511,-0.1434 0.1523,-0.1384 0.1534,-0.1418 0.1545,-0.1359 0.1557,-0.1370 0.1568,-0.1375 0.1580,-0.1322 0.1591,-0.1329 0.1603,-0.1368 0.1614,-0.1462 0.1626,-0.1395 0.1637,-0.1377 0.1649,-0.1394 0.1660,-0.1447 0.1671,-0.1562 0.1683,-0.1524 0.1694,-0.1414 0.1706,-0.1626 0.1717,-0.1515 0.1729,-0.1482 0.1740,-0.1536 0.1752,-0.1485 0.1763,-0.1539 0.1775,-0.1540 0.1786,-0.1526 0.1797,-0.1195 0.1809,-0.1247 0.1820,-0.1472 0.1832,-0.1435 0.1843,-0.1513 0.1855,-0.1500 0.1866,-0.1506 0.1878,-0.1503 0.1889,-0.1463 0.1901,-0.1432 0.1912,-0.1458 0.1923,-0.1471 0.1935,-0.1492 0.1946,-0.1461 0.1958,-0.1452 0.1969,-0.1449 0.1981,-0.1462 0.1992,-0.1465 0.2004,-0.1454 0.2015,-0.1473 0.2027,-0.1497 0.2038,-0.1507 0.2049,-0.1466 0.2061,-0.1493 0.2072,-0.1517 0.2084,-0.1502 0.2095,-0.1502 0.2107,-0.1546 0.2118,-0.1642 0.2130,-0.1616 0.2141,-0.1585 0.2152,-0.1568 0.2164,-0.1571 0.2175,-0.1566 0.2187,-0.1688 0.2198,-0.1716 0.2210,-0.1776 0.2221,-0.1730 0.2233,-0.1795 0.2244,-0.1758 0.2256,-0.1760 0.2267,-0.1741 0.2278,-0.1760 0.2290,-0.1740 0.2301,-0.1734 0.2313,-0.1746 0.2324,-0.1666 0.2336,-0.1662 0.2347,-0.1645 0.2359,-0.1632 0.2370,-0.1619 0.2382,-0.1621 0.2393,-0.1616 0.2404,-0.1607 0.2416,-0.1616 0.2427,-0.1645 0.2439,-0.1599 0.2450,-0.1607 0.2462,-0.1615 0.2473,-0.1677 0.2485,-0.1662 0.2496,-0.1635 0.2508,-0.1637 0.2519,-0.1621 0.2530,-0.1631 0.2542,-0.1644 0.2553,-0.1624 0.2565,-0.1605 0.2576,-0.1588 0.2588,-0.1590 0.2599,-0.1625 0.2611,-0.1616 0.2622,-0.1615 0.2634,-0.1628 0.2645,-0.1680 0.2656,-0.1685 0.2668,-0.1844 0.2679,-0.1758 0.2691,-0.1876 0.2702,-0.1982 0.2714,-0.1888 0.2725,-0.1953 0.2737,-0.1854 0.2748,-0.1718 0.2760,-0.1718 0.2771,-0.1797 0.2782,-0.1754 0.2794,-0.1807 0.2805,-0.1849 0.2817,-0.1759 0.2828,-0.1810 0.2840,-0.1901 0.2851,-0.1977 0.2863,-0.1869 0.2874,-0.1788 0.2885,-0.1769 0.2897,-0.1698 0.2908,-0.1695 0.2920,-0.1692 0.2931,-0.1688 0.2943,-0.1693 0.2954,-0.1685 0.2966,-0.1673 0.2977,-0.1789 0.2989,-0.1775 0.3000,-0.1790 0.3011,-0.1785 0.3023,-0.1761 0.3034,-0.1834 0.3046,-0.1913 0.3057,-0.1956 0.3069,-0.2080 0.3080,-0.1997 0.3092,-0.2053 0.3103,-0.2163 0.3115,-0.1959 0.3126,-0.2186 0.3137,-0.2182 0.3149,-0.2201 0.3160,-0.1737 0.3172,-0.1830 0.3183,-0.1918 0.3195,-0.2064 0.3206,-0.2227 0.3218,-0.2033 0.3229,-0.2089 0.3241,-0.2026 0.3252,-0.1820 0.3263,-0.1819 0.3275,-0.1975 0.3286,-0.2161 0.3298,-0.2111 0.3309,-0.1757 0.3321,-0.1825 0.3332,-0.1935 0.3344,-0.1989 0.3355,-0.2003 0.3367,-0.2011 0.3378,-0.1873 0.3389,-0.1874 0.3401,-0.1861 0.3412,-0.1854 0.3424,-0.1762 0.3435,-0.1669 0.3447,-0.1763 0.3458,-0.1639 0.3470,-0.1612 0.3481,-0.1493 0.3493,-0.1432 0.3504,-0.1254 0.3515,-0.1330 0.3527,-0.1389 0.3538,-0.1494 0.3550,-0.1719 0.3561,-0.1750 0.3573,-0.1690 0.3584,-0.1763 0.3596,-0.1688 0.3607,-0.1669 0.3618,-0.1624 0.3630,-0.1554 0.3641,-0.1590 0.3653,-0.1567 0.3664,-0.1662 0.3676,-0.1623 0.3687,-0.1699 0.3699,-0.1781 0.3710,-0.1771 0.3722,-0.2013 0.3733,-0.2088 0.3744,-0.2075 0.3756,-0.2051 0.3767,-0.2095 0.3779,-0.1220 0.3790,-0.1128 0.3802,-0.0914 0.3813,-0.0937 0.3825,-0.1079 0.3836,-0.1066 0.3848,-0.1226 0.3859,-0.1227 0.3870,-0.1196 0.3882,-0.1296 0.3893,-0.1298 0.3905,-0.1318 0.3916,-0.1186 0.3928,-0.1314 0.3939,-0.1289 0.3951,-0.1493 0.3962,-0.1480 0.3974,-0.1571 0.3985,-0.1584 0.3996,-0.1421 0.4008,-0.1304 0.4019,-0.1444 0.4031,-0.1538 0.4042,-0.1587 0.4054,-0.1528 0.4065,-0.1889 0.4077,-0.1442 0.4088,-0.1445 0.4100,-0.2295 0.4111,-0.2140 0.4122,-0.2165 0.4134,-0.1202 0.4145,-0.1082 0.4157,-0.1175 0.4168,-0.1161 0.4180,-0.1503 0.4191,-0.1185 0.4203,-0.1289 0.4214,-0.1330 0.4226,-0.1959 0.4237,-0.2144 0.4248,-0.0445 0.4260,-0.2252 0.4271,-0.2053 0.4283,-0.1551 0.4294,-0.1319 0.4306,-0.1552 0.4317,-0.1638 0.4329,-0.1358 0.4340,-0.1248 0.4351,-0.1416 0.4363,-0.1259 0.4374,-0.1290 0.4386,-0.1328 0.4397,-0.1484 0.4409,-0.1557 0.4420,-0.1302 0.4432,-0.1386 0.4443,-0.1474 0.4455,-0.1467 0.4466,-0.1449 0.4477,-0.1118 0.4489,-0.1332 0.4500,-0.1189 0.4512,-0.1052 0.4523,-0.0993 0.4535,-0.1047 0.4546,-0.1037 0.4558,-0.1230 0.4569,-0.0909 0.4581,-0.0998 0.4592,-0.0994 0.4603,-0.0911 0.4615,-0.0949 0.4626,-0.0856 0.4638,-0.0777 0.4649,-0.0775 0.4661,-0.0743 0.4672,-0.0716 0.4684,-0.0631 0.4695,-0.0700 0.4707,-0.0595 0.4718,-0.0583 0.4729,-0.0585 0.4741,-0.0630 0.4752,-0.0629 0.4764,-0.0708 0.4775,-0.0828 0.4787,-0.0825 0.4798,-0.1026 0.4810,-0.0757 0.4821,-0.0995 0.4833,-0.1058 0.4844,-0.1054 0.4855,-0.1086 0.4867,-0.1075 0.4878,-0.1110 0.4890,-0.1104 0.4901,-0.1002 0.4913,-0.0983 0.4924,-0.0898 0.4936,-0.0953 0.4947,-0.1124 0.4958,-0.1548 0.4970,-0.1256 0.4981,-0.1277 0.4993,-0.1430 0.5004,-0.1213 0.5016,-0.2061 0.5027,-0.1922 0.5039,-0.2091 0.5050,-0.1932 0.5062,-0.1226 0.5073,-0.1092 0.5084,-0.1173 0.5096,-0.1218 0.5107,-0.1273 0.5119,-0.1309 0.5130,-0.1420 0.5142,-0.0940 0.5153,-0.0789 0.5165,-0.1267 0.5176,-0.0795 0.5188,-0.1372 0.5199,-0.1393 0.5210,-0.1043 0.5222,-0.1340 0.5233,-0.1272 0.5245,0.0078 0.5256,-0.0565 0.5268,-0.0278 0.5279,-0.1024 0.5291,-0.0155 0.5302,-0.0299 0.5314,-0.0295 0.5325,0.0358 0.5336,-0.0828 0.5348,-0.0150 0.5359,-0.0095 0.5371,0.0223 0.5382,-0.0592 0.5394,-0.0902 0.5405,-0.1021 0.5417,-0.1047 0.5428,-0.0796 0.5440,-0.0569 0.5451,-0.0798 0.5462,-0.0773 0.5474,-0.0804 0.5485,-0.0809 0.5497,-0.0788 0.5508,0.0009 0.5520,0.0117 0.5531,0.0106 0.5543,-0.0280 0.5554,-0.0736 0.5566,-0.0276 0.5577,-0.0052 0.5588,-0.0096 0.5600,-0.0364 0.5611,-0.0200 0.5623,0.0700 0.5634,-0.0569 0.5646,-0.0531 0.5657,-0.0139 0.5669,-0.0049 0.5680,-0.0583 0.5691,-0.0506 0.5703,-0.0682 0.5714,0.0230 0.5726,-0.0937 0.5737,0.0273 0.5749,-0.0678 0.5760,-0.0306 0.5772,-0.0397 0.5783,-0.0546 0.5795,-0.0578 0.5806,-0.0502 0.5817,-0.0044 0.5829,-0.0591 0.5840,-0.0695 0.5852,-0.0926 0.5863,-0.0702 0.5875,-0.0655 0.5886,-0.0691 0.5898,-0.0707 0.5909,-0.0695 0.5921,-0.0648 0.5932,-0.0672 0.5943,-0.0742 0.5955,-0.0749 0.5966,-0.0662 0.5978,-0.0623 0.5989,-0.0667 0.6001,-0.0680 0.6012,-0.0604 0.6024,-0.0618 0.6035,-0.0689 0.6047,-0.0615 0.6058,-0.0576 0.6069,-0.0424 0.6081,-0.0566 0.6092,-0.0613 0.6104,-0.0520 0.6115,-0.0589 0.6127,-0.0630 0.6138,-0.0648 0.6150,-0.0589 0.6161,-0.0678 0.6173,-0.0691 0.6184,-0.0753 0.6195,-0.0586 0.6207,-0.0709 0.6218,-0.0360 0.6230,-0.0934 0.6241,-0.0349 0.6253,-0.0356 0.6264,-0.0340 0.6276,-0.0342 0.6287,-0.0297 0.6299,-0.0214 0.6310,-0.0373 0.6321,-0.0315 0.6333,-0.0453 0.6344,-0.0435 0.6356,-0.0925 0.6367,-0.0665 0.6379,-0.0694 0.6390,-0.0586 0.6402,-0.0617 0.6413,-0.0546"/></g></g></g><g class="hud"><g class="frame"><g stroke-width="0" stroke="rgb(0%, 0%, 0%)" stroke-opacity="0" fill="rgb(100%, 100%, 100%)" fill-opacity="0.02"><rect width="1.1465" height="0.4392" x="-0.5040" y="-0.3683"/></g></g><g class="axis"><g class="axisbar"><g stroke-width="0" stroke="rgb(0%, 0%, 0%)" stroke-opacity="0" fill="rgb(5%, 5%, 5%)" fill-opacity="0.4"><rect width="0.0031" height="0.4399" x="-0.5135" y="-0.3686"/></g></g><g class="ticks"><g class="ticklines"><g stroke-width="0.0050" stroke="rgb(5%, 5%, 5%)" stroke-opacity="0.05" fill="none"><polyline points="-0.5029,0.0771 0.6413,0.0771"/><polyline points="-0.5029,0.0094 0.6413,0.0094"/><polyline points="-0.5029,-0.0583 0.6413,-0.0583"/><polyline points="-0.5029,-0.1260 0.6413,-0.1260"/><polyline points="-0.5029,-0.1938 0.6413,-0.1938"/><polyline points="-0.5029,-0.2615 0.6413,-0.2615"/><polyline points="-0.5029,-0.3292 0.6413,-0.3292"/><polyline points="-0.5029,-0.3969 0.6413,-0.3969"/></g></g><g class="tickglyph"><g stroke-width="0.0031" stroke="rgb(5%, 5%, 5%)" stroke-opacity="0.4" fill="rgb(5%, 5%, 5%)" fill-opacity="0.4"><polyline points="-0.5349,0.0771
-0.5120,0.0771"/><polyline points="-0.5349,0.0094
-0.5120,0.0094"/><polyline points="-0.5349,-0.0583
-0.5120,-0.0583"/><polyline points="-0.5349,-0.1260
-0.5120,-0.1260"/><polyline points="-0.5349,-0.1938
-0.5120,-0.1938"/><polyline points="-0.5349,-0.2615
-0.5120,-0.2615"/><polyline points="-0.5349,-0.3292
-0.5120,-0.3292"/><polyline points="-0.5349,-0.3969
-0.5120,-0.3969"/></g></g><g class="ticktext"><g stroke-width="0.0" stroke="none" fill="rgb(5%, 5%, 5%)" fill-opacity="1.0" font-size="0.0400" text-anchor="end"><text x="-0.5517" y="0.0841">-0.3%</text><text x="-0.5517" y="0.0164">-0.2%</text><text x="-0.5517" y="-0.0513">-0.1%</text><text x="-0.5517" y="-0.1190"> 0.0%</text><text x="-0.5517" y="-0.1867"> 0.1%</text><text x="-0.5517" y="-0.2544"> 0.2%</text><text x="-0.5517" y="-0.3221"> 0.3%</text><text x="-0.5517" y="-0.3898"> 0.4%</text></g></g></g></g><g class="axis"><g class="axisbar"><g stroke-width="0" stroke="rgb(0%, 0%, 0%)" stroke-opacity="0" fill="rgb(5%, 5%, 5%)" fill-opacity="0.4"><rect width="1.1472" height="0.0026" x="-0.5044" y="0.0764"/></g></g><g class="ticks"><g class="ticklines"><g stroke-width="0.0050" stroke="rgb(5%, 5%, 5%)" stroke-opacity="0.05" fill="none"><polyline points="-0.4294,0.0700 -0.4294,-0.3673"/><polyline points="-0.2839,0.0700 -0.2839,-0.3673"/><polyline points="-0.1401,0.0700 -0.1401,-0.3673"/><polyline points="0.0054,0.0700 0.0054,-0.3673"/><polyline points="0.1484,0.0700 0.1484,-0.3673"/><polyline points="0.2939,0.0700 0.2939,-0.3673"/><polyline points="0.4369,0.0700 0.4369,-0.3673"/><polyline points="0.5824,0.0700 0.5824,-0.3673"/></g></g><g class="tickglyph"><g stroke-width="0.0026" stroke="rgb(5%, 5%, 5%)" stroke-opacity="0.4" fill="rgb(5%, 5%, 5%)" fill-opacity="0.4"><polyline points="-0.4294,0.0969
-0.4294,0.0777"/><polyline points="-0.2839,0.0969
-0.2839,0.0777"/><polyline points="-0.1401,0.0969
-0.1401,0.0777"/><polyline points="0.0054,0.0969
0.0054,0.0777"/><polyline points="0.1484,0.0969
0.1484,0.0777"/><polyline points="0.2939,0.0969
0.2939,0.0777"/><polyline points="0.4369,0.0969
0.4369,0.0777"/><polyline points="0.5824,0.0969
0.5824,0.0777"/></g></g><g class="ticktext"><g stroke-width="0.0" stroke="none" fill="rgb(5%, 5%, 5%)" fill-opacity="1.0" font-size="0.0400" text-anchor="end"><text x="-0.4294" y="0.1321" transform="rotate(-45.0, -0.4294, 0.1321)">Jun 19</text><text x="-0.2839" y="0.1321" transform="rotate(-45.0, -0.2839, 0.1321)">Dec 19</text><text x="-0.1401" y="0.1321" transform="rotate(-45.0, -0.1401, 0.1321)">Jun 20</text><text x="0.0054" y="0.1321" transform="rotate(-45.0, 0.0054, 0.1321)">Dec 20</text><text x="0.1484" y="0.1321" transform="rotate(-45.0, 0.1484, 0.1321)">Jun 21</text><text x="0.2939" y="0.1321" transform="rotate(-45.0, 0.2939, 0.1321)">Dec 21</text><text x="0.4369" y="0.1321" transform="rotate(-45.0, 0.4369, 0.1321)">Jun 22</text><text x="0.5824" y="0.1321" transform="rotate(-45.0, 0.5824, 0.1321)">Dec 22</text></g></g></g></g><g class="legend"><g class="padding"></g><g class="padding"></g><g class="frame"><g stroke-width="0.0019" stroke="rgb(94%, 94%, 94%)" stroke-opacity="1.0" fill="rgb(0%, 0%, 0%)" fill-opacity="0"><rect width="0.4893" height="0.0833" x="-0.0191" y="0.3239"/></g></g><g class="legendContent"><g stroke-width="0.0" stroke="none" fill="rgb(5%, 5%, 5%)" fill-opacity="1.0" font-size="0.0381" text-anchor="start"><text x="0" y="0.3655">median - mean</text></g><g stroke-width="0.0023" stroke="rgb(2%, 73%, 80%)" stroke-opacity="1.0" fill="none"><polyline points="0.3356,0.3655 0.4500,0.3655"/></g></g></g><g class="frame"><g stroke-width="0" stroke="rgb(0%, 0%, 0%)" stroke-opacity="0" fill="rgb(0%, 0%, 0%)" fill-opacity="0"><rect width="1.3474" height="0.8719" x="-0.6737" y="-0.4360"/></g></g><g class="frame"><g stroke-width="0" stroke="rgb(0%, 0%, 0%)" stroke-opacity="0" fill="rgb(100%, 100%, 100%)" fill-opacity="0.02"><rect width="1.5" height="1.0" x="-0.75" y="-0.5"/></g></g></g></svg>