<svg xmlns="http://www.w3.org/2000/svg" xmlns:xlink="http://www.w3.org/1999/xlink" width="436" height="300" viewBox="-0.75 -0.5000 1.5 1.0299"><style>svg {
  color-scheme: light dark;
}
{
  .canvas g, .title g, .axisbar g, .ticktext g, .tickglyph g, .ticklines g, .legendContent g text {
    fill: rgb(5%, 5%, 5%);
  }
  .ticklines g, .tickglyph g, .legendBorder g {
    stroke: rgb(5%, 5%, 5%);
  }
  .legendBorder g {
    fill: rgb(94%, 94%, 94%);
  }
}
@media (prefers-color-scheme:dark) {
  .canvas g, .title g, .axisbar g, .ticktext g, .tickglyph g, .ticklines g, .legendContent g text {
    fill: rgb(94%, 94%, 94%);
  }
  .ticklines g, .tickglyph g, .legendBorder g {
    stroke: rgb(94%, 94%, 94%);
  }
  .legendBorder g {
    fill: rgb(5%, 5%, 5%);
  }
}
svg { font-family: system-ui,-apple-system,"Segoe UI",Roboto,"Helvetica Neue",Arial,"Noto Sans","Liberation Sans",sans-serif,"Apple Color Emoji","Segoe UI Emoji","Segoe UI Symbol","Noto Color Emoji";
}

ticktext { font-family: SFMono-Regular,Menlo,Monaco,Consolas,"Liberation Mono","Courier New",monospace;
}

</style><g class="chart"><g stroke-width="0.0030" stroke="rgb(2%, 29%, 48%)" stroke-opacity="1.0" fill="rgb(0%, 0%, 100%)" fill-opacity="1.0"><circle cx="-0.6110" cy="-0.1079" r="0.0050"/><circle cx="-0.6096" cy="0.2508" r="0.0050"/><circle cx="-0.6083" cy="0.2508" r="0.0050"/><circle cx="-0.6070" cy="0.0715" r="0.0050"/><circle cx="-0.6057" cy="0.0715" r="0.0050"/><circle cx="-0.6043" cy="0.0715" r="0.0050"/><circle cx="-0.6030" cy="0.0715" r="0.0050"/><circle cx="-0.6017" cy="-0.1079" r="0.0050"/><circle cx="-0.6004" cy="-0.1079" r="0.0050"/><circle cx="-0.5991" cy="0.0715" r="0.0050"/><circle cx="-0.5977" cy="-0.2872" r="0.0050"/><circle cx="-0.5964" cy="0.0715" r="0.0050"/><circle cx="-0.5951" cy="0.0715" r="0.0050"/><circle cx="-0.5938" cy="0.0715" r="0.0050"/><circle cx="-0.5925" cy="0.0715" r="0.0050"/><circle cx="-0.5911" cy="-0.1079" r="0.0050"/><circle cx="-0.5898" cy="-0.1079" r="0.0050"/><circle cx="-0.5885" cy="-0.1079" r="0.0050"/><circle cx="-0.5872" cy="-0.1079" r="0.0050"/><circle cx="-0.5858" cy="-0.1079" r="0.0050"/><circle cx="-0.5845" cy="-0.1079" r="0.0050"/><circle cx="-0.5832" cy="-0.1079" r="0.0050"/><circle cx="-0.5819" cy="-0.2872" r="0.0050"/><circle cx="-0.5806" cy="-0.1079" r="0.0050"/><circle cx="-0.5792" cy="-0.2872" r="0.0050"/><circle cx="-0.5779" cy="-0.1079" r="0.0050"/><circle cx="-0.5766" cy="-0.1079" r="0.0050"/><circle cx="-0.5753" cy="-0.1079" r="0.0050"/><circle cx="-0.5740" cy="-0.1079" r="0.0050"/><circle cx="-0.5726" cy="-0.1079" r="0.0050"/><circle cx="-0.5713" cy="-0.2872" r="0.0050"/><circle cx="-0.5700" cy="-0.2872" r="0.0050"/><circle cx="-0.5687" cy="-0.2872" r="0.0050"/><circle cx="-0.5674" cy="-0.4665" r="0.0050"/><circle cx="-0.5660" cy="-0.2872" r="0.0050"/><circle cx="-0.5647" cy="-0.2872" r="0.0050"/><circle cx="-0.5634" cy="-0.2872" r="0.0050"/><circle cx="-0.5621" cy="-0.2872" r="0.0050"/><circle cx="-0.5607" cy="-0.2872" r="0.0050"/><circle cx="-0.5594" cy="-0.4665" r="0.0050"/><circle cx="-0.5581" cy="-0.4665" r="0.0050"/><circle cx="-0.5568" cy="-0.4665" r="0.0050"/><circle cx="-0.5555" cy="-0.4665" r="0.0050"/><circle cx="-0.5541" cy="-0.4665" r="0.0050"/><circle cx="-0.5528" cy="-0.4665" r="0.0050"/><circle cx="-0.5515" cy="-0.4665" r="0.0050"/><circle cx="-0.5502" cy="-0.4665" r="0.0050"/><circle cx="-0.5489" cy="-0.4665" r="0.0050"/><circle cx="-0.5475" cy="-0.4665" r="0.0050"/><circle cx="-0.5462" cy="-0.4665" r="0.0050"/><circle cx="-0.5449" cy="-0.4665" r="0.0050"/><circle cx="-0.5436" cy="-0.2872" r="0.0050"/><circle cx="-0.5422" cy="-0.4665" r="0.0050"/><circle cx="-0.5409" cy="-0.1079" r="0.0050"/><circle cx="-0.5396" cy="-0.2872" r="0.0050"/><circle cx="-0.5383" cy="-0.2872" r="0.0050"/><circle cx="-0.5370" cy="-0.4665" r="0.0050"/><circle cx="-0.5356" cy="-0.2872" r="0.0050"/><circle cx="-0.5343" cy="-0.2872" r="0.0050"/><circle cx="-0.5330" cy="-0.1079" r="0.0050"/><circle cx="-0.5317" cy="-0.1079" r="0.0050"/><circle cx="-0.5304" cy="-0.1079" r="0.0050"/><circle cx="-0.5290" cy="-0.1079" r="0.0050"/><circle cx="-0.5277" cy="-0.1079" r="0.0050"/><circle cx="-0.5264" cy="-0.1079" r="0.0050"/><circle cx="-0.5251" cy="-0.2872" r="0.0050"/><circle cx="-0.5237" cy="-0.1079" r="0.0050"/><circle cx="-0.5224" cy="-0.1079" r="0.0050"/><circle cx="-0.5211" cy="0.0715" r="0.0050"/><circle cx="-0.5198" cy="-0.1079" r="0.0050"/><circle cx="-0.5185" cy="-0.1079" r="0.0050"/><circle cx="-0.5171" cy="-0.2872" r="0.0050"/><circle cx="-0.5158" cy="-0.1079" r="0.0050"/><circle cx="-0.5145" cy="-0.1079" r="0.0050"/><circle cx="-0.5132" cy="-0.1079" r="0.0050"/><circle cx="-0.5119" cy="-0.4665" r="0.0050"/><circle cx="-0.5105" cy="-0.2872" r="0.0050"/><circle cx="-0.5092" cy="-0.4665" r="0.0050"/><circle cx="-0.5079" cy="-0.4665" r="0.0050"/><circle cx="-0.5066" cy="-0.2872" r="0.0050"/><circle cx="-0.5052" cy="-0.2872" r="0.0050"/><circle cx="-0.5039" cy="-0.2872" r="0.0050"/><circle cx="-0.5026" cy="-0.2872" r="0.0050"/><circle cx="-0.5013" cy="-0.2872" r="0.0050"/><circle cx="-0.5000" cy="-0.2872" r="0.0050"/><circle cx="-0.4986" cy="-0.4665" r="0.0050"/><circle cx="-0.4973" cy="-0.4665" r="0.0050"/><circle cx="-0.4960" cy="-0.4665" r="0.0050"/><circle cx="-0.4947" cy="-0.4665" r="0.0050"/><circle cx="-0.4934" cy="-0.4665" r="0.0050"/><circle cx="-0.4920" cy="-0.4665" r="0.0050"/><circle cx="-0.4907" cy="-0.4665" r="0.0050"/><circle cx="-0.4894" cy="-0.2872" r="0.0050"/><circle cx="-0.4881" cy="-0.4665" r="0.0050"/><circle cx="-0.4867" cy="-0.2872" r="0.0050"/><circle cx="-0.4854" cy="-0.4665" r="0.0050"/><circle cx="-0.4841" cy="-0.4665" r="0.0050"/><circle cx="-0.4828" cy="-0.4665" r="0.0050"/><circle cx="-0.4815" cy="-0.4665" r="0.0050"/><circle cx="-0.4801" cy="-0.4665" r="0.0050"/><circle cx="-0.4788" cy="-0.4665" r="0.0050"/><circle cx="-0.4775" cy="-0.4665" r="0.0050"/><circle cx="-0.4762" cy="-0.4665" r="0.0050"/><circle cx="-0.4749" cy="-0.4665" r="0.0050"/><circle cx="-0.4735" cy="-0.4665" r="0.0050"/><circle cx="-0.4722" cy="-0.4665" r="0.0050"/><circle cx="-0.4709" cy="-0.4665" r="0.0050"/><circle cx="-0.4696" cy="-0.4665" r="0.0050"/><circle cx="-0.4682" cy="-0.4665" r="0.0050"/><circle cx="-0.4669" cy="-0.4665" r="0.0050"/><circle cx="-0.4656" cy="-0.4665" r="0.0050"/><circle cx="-0.4643" cy="-0.4665" r="0.0050"/><circle cx="-0.4630" cy="-0.2872" r="0.0050"/><circle cx="-0.4616" cy="0.0715" r="0.0050"/><circle cx="-0.4603" cy="-0.1079" r="0.0050"/><circle cx="-0.4590" cy="-0.1079" r="0.0050"/><circle cx="-0.4577" cy="0.0715" r="0.0050"/><circle cx="-0.4564" cy="0.0715" r="0.0050"/><circle cx="-0.4550" cy="0.0715" r="0.0050"/><circle cx="-0.4537" cy="0.0715" r="0.0050"/><circle cx="-0.4524" cy="0.0715" r="0.0050"/><circle cx="-0.4511" cy="0.0715" r="0.0050"/><circle cx="-0.4497" cy="0.0715" r="0.0050"/><circle cx="-0.4484" cy="0.0715" r="0.0050"/><circle cx="-0.4471" cy="0.0715" r="0.0050"/><circle cx="-0.4458" cy="0.0715" r="0.0050"/><circle cx="-0.4445" cy="0.2508" r="0.0050"/><circle cx="-0.4431" cy="0.2508" r="0.0050"/><circle cx="-0.4418" cy="0.0715" r="0.0050"/><circle cx="-0.4405" cy="0.0715" r="0.0050"/><circle cx="-0.4392" cy="0.0715" r="0.0050"/><circle cx="-0.4379" cy="0.0715" r="0.0050"/><circle cx="-0.4365" cy="0.2508" r="0.0050"/><circle cx="-0.4352" cy="0.2508" r="0.0050"/><circle cx="-0.4339" cy="0.2508" r="0.0050"/><circle cx="-0.4326" cy="0.2508" r="0.0050"/><circle cx="-0.4313" cy="0.2508" r="0.0050"/><circle cx="-0.4299" cy="0.2508" r="0.0050"/><circle cx="-0.4286" cy="0.2508" r="0.0050"/><circle cx="-0.4273" cy="0.2508" r="0.0050"/><circle cx="-0.4260" cy="0.2508" r="0.0050"/><circle cx="-0.4246" cy="0.2508" r="0.0050"/><circle cx="-0.4233" cy="0.2508" r="0.0050"/><circle cx="-0.4220" cy="-0.1079" r="0.0050"/><circle cx="-0.4207" cy="0.0715" r="0.0050"/><circle cx="-0.4194" cy="0.0715" r="0.0050"/><circle cx="-0.4180" cy="-0.2872" r="0.0050"/><circle cx="-0.4167" cy="-0.1079" r="0.0050"/><circle cx="-0.4154" cy="0.2508" r="0.0050"/><circle cx="-0.4141" cy="0.2508" r="0.0050"/><circle cx="-0.4128" cy="0.0715" r="0.0050"/><circle cx="-0.4114" cy="0.2508" r="0.0050"/><circle cx="-0.4101" cy="0.0715" r="0.0050"/><circle cx="-0.4088" cy="0.2508" r="0.0050"/><circle cx="-0.4075" cy="0.0715" r="0.0050"/><circle cx="-0.4061" cy="0.0715" r="0.0050"/><circle cx="-0.4048" cy="0.0715" r="0.0050"/><circle cx="-0.4035" cy="0.0715" r="0.0050"/><circle cx="-0.4022" cy="0.0715" r="0.0050"/><circle cx="-0.4009" cy="0.0715" r="0.0050"/><circle cx="-0.3995" cy="-0.1079" r="0.0050"/><circle cx="-0.3982" cy="0.0715" r="0.0050"/><circle cx="-0.3969" cy="0.0715" r="0.0050"/><circle cx="-0.3956" cy="0.0715" r="0.0050"/><circle cx="-0.3943" cy="0.0715" r="0.0050"/><circle cx="-0.3929" cy="0.0715" r="0.0050"/><circle cx="-0.3916" cy="0.0715" r="0.0050"/><circle cx="-0.3903" cy="0.0715" r="0.0050"/><circle cx="-0.3890" cy="0.0715" r="0.0050"/><circle cx="-0.3876" cy="0.0715" r="0.0050"/><circle cx="-0.3863" cy="-0.1079" r="0.0050"/><circle cx="-0.3850" cy="0.0715" r="0.0050"/><circle cx="-0.3837" cy="-0.1079" r="0.0050"/><circle cx="-0.3824" cy="0.0715" r="0.0050"/><circle cx="-0.3810" cy="0.0715" r="0.0050"/><circle cx="-0.3797" cy="-0.1079" r="0.0050"/><circle cx="-0.3784" cy="0.0715" r="0.0050"/><circle cx="-0.3771" cy="-0.1079" r="0.0050"/><circle cx="-0.3758" cy="-0.1079" r="0.0050"/><circle cx="-0.3744" cy="-0.1079" r="0.0050"/><circle cx="-0.3731" cy="0.0715" r="0.0050"/><circle cx="-0.3718" cy="0.0715" r="0.0050"/><circle cx="-0.3705" cy="0.2508" r="0.0050"/><circle cx="-0.3691" cy="0.2508" r="0.0050"/><circle cx="-0.3678" cy="0.2508" r="0.0050"/><circle cx="-0.3665" cy="0.2508" r="0.0050"/><circle cx="-0.3652" cy="0.0715" r="0.0050"/><circle cx="-0.3639" cy="0.0715" r="0.0050"/><circle cx="-0.3625" cy="0.2508" r="0.0050"/><circle cx="-0.3612" cy="0.0715" r="0.0050"/><circle cx="-0.3599" cy="0.0715" r="0.0050"/><circle cx="-0.3586" cy="0.0715" r="0.0050"/><circle cx="-0.3573" cy="0.2508" r="0.0050"/><circle cx="-0.3559" cy="0.2508" r="0.0050"/><circle cx="-0.3546" cy="0.0715" r="0.0050"/><circle cx="-0.3533" cy="0.2508" r="0.0050"/><circle cx="-0.3520" cy="0.0715" r="0.0050"/><circle cx="-0.3506" cy="0.0715" r="0.0050"/><circle cx="-0.3493" cy="0.0715" r="0.0050"/><circle cx="-0.3480" cy="0.0715" r="0.0050"/><circle cx="-0.3467" cy="0.0715" r="0.0050"/><circle cx="-0.3454" cy="0.0715" r="0.0050"/><circle cx="-0.3440" cy="0.0715" r="0.0050"/><circle cx="-0.3427" cy="-0.1079" r="0.0050"/><circle cx="-0.3414" cy="0.0715" r="0.0050"/><circle cx="-0.3401" cy="0.2508" r="0.0050"/><circle cx="-0.3388" cy="0.0715" r="0.0050"/><circle cx="-0.3374" cy="0.0715" r="0.0050"/><circle cx="-0.3361" cy="-0.1079" r="0.0050"/><circle cx="-0.3348" cy="-0.1079" r="0.0050"/><circle cx="-0.3335" cy="-0.1079" r="0.0050"/><circle cx="-0.3321" cy="0.0715" r="0.0050"/><circle cx="-0.3308" cy="-0.1079" r="0.0050"/><circle cx="-0.3295" cy="-0.1079" r="0.0050"/><circle cx="-0.3282" cy="-0.1079" r="0.0050"/><circle cx="-0.3269" cy="0.0715" r="0.0050"/><circle cx="-0.3255" cy="0.0715" r="0.0050"/><circle cx="-0.3242" cy="0.0715" r="0.0050"/><circle cx="-0.3229" cy="0.0715" r="0.0050"/><circle cx="-0.3216" cy="0.0715" r="0.0050"/><circle cx="-0.3203" cy="0.0715" r="0.0050"/><circle cx="-0.3189" cy="0.0715" r="0.0050"/><circle cx="-0.3176" cy="-0.1079" r="0.0050"/><circle cx="-0.3163" cy="-0.1079" r="0.0050"/><circle cx="-0.3150" cy="-0.1079" r="0.0050"/><circle cx="-0.3136" cy="-0.1079" r="0.0050"/><circle cx="-0.3123" cy="-0.1079" r="0.0050"/><circle cx="-0.3110" cy="-0.4665" r="0.0050"/><circle cx="-0.3097" cy="-0.4665" r="0.0050"/><circle cx="-0.3084" cy="-0.4665" r="0.0050"/><circle cx="-0.3070" cy="-0.4665" r="0.0050"/><circle cx="-0.3057" cy="-0.4665" r="0.0050"/><circle cx="-0.3044" cy="-0.4665" r="0.0050"/><circle cx="-0.3031" cy="-0.4665" r="0.0050"/><circle cx="-0.3018" cy="-0.4665" r="0.0050"/><circle cx="-0.3004" cy="-0.4665" r="0.0050"/><circle cx="-0.2991" cy="-0.4665" r="0.0050"/><circle cx="-0.2978" cy="-0.4665" r="0.0050"/><circle cx="-0.2965" cy="-0.4665" r="0.0050"/><circle cx="-0.2952" cy="-0.4665" r="0.0050"/><circle cx="-0.2938" cy="-0.4665" r="0.0050"/><circle cx="-0.2925" cy="-0.4665" r="0.0050"/><circle cx="-0.2912" cy="-0.4665" r="0.0050"/><circle cx="-0.2899" cy="-0.4665" r="0.0050"/><circle cx="-0.2885" cy="-0.4665" r="0.0050"/><circle cx="-0.2872" cy="-0.4665" r="0.0050"/><circle cx="-0.2859" cy="-0.4665" r="0.0050"/><circle cx="-0.2846" cy="-0.4665" r="0.0050"/><circle cx="-0.2833" cy="-0.4665" r="0.0050"/><circle cx="-0.2819" cy="-0.4665" r="0.0050"/><circle cx="-0.2806" cy="-0.4665" r="0.0050"/><circle cx="-0.2793" cy="-0.4665" r="0.0050"/><circle cx="-0.2780" cy="-0.4665" r="0.0050"/><circle cx="-0.2767" cy="-0.4665" r="0.0050"/><circle cx="-0.2753" cy="-0.4665" r="0.0050"/><circle cx="-0.2740" cy="-0.4665" r="0.0050"/><circle cx="-0.2727" cy="-0.4665" r="0.0050"/><circle cx="-0.2714" cy="-0.4665" r="0.0050"/><circle cx="-0.2700" cy="-0.4665" r="0.0050"/><circle cx="-0.2687" cy="-0.4665" r="0.0050"/><circle cx="-0.2674" cy="-0.4665" r="0.0050"/><circle cx="-0.2661" cy="-0.4665" r="0.0050"/><circle cx="-0.2648" cy="-0.4665" r="0.0050"/><circle cx="-0.2634" cy="-0.4665" r="0.0050"/><circle cx="-0.2621" cy="-0.4665" r="0.0050"/><circle cx="-0.2608" cy="-0.4665" r="0.0050"/><circle cx="-0.2595" cy="-0.4665" r="0.0050"/><circle cx="-0.2582" cy="-0.4665" r="0.0050"/><circle cx="-0.2568" cy="-0.4665" r="0.0050"/><circle cx="-0.2555" cy="-0.2872" r="0.0050"/><circle cx="-0.2542" cy="-0.1079" r="0.0050"/><circle cx="-0.2529" cy="-0.2872" r="0.0050"/><circle cx="-0.2515" cy="-0.1079" r="0.0050"/><circle cx="-0.2502" cy="-0.1079" r="0.0050"/><circle cx="-0.2489" cy="-0.1079" r="0.0050"/><circle cx="-0.2476" cy="-0.4665" r="0.0050"/><circle cx="-0.2463" cy="-0.4665" r="0.0050"/><circle cx="-0.2449" cy="-0.4665" r="0.0050"/><circle cx="-0.2436" cy="-0.2872" r="0.0050"/><circle cx="-0.2423" cy="-0.4665" r="0.0050"/><circle cx="-0.2410" cy="-0.4665" r="0.0050"/><circle cx="-0.2397" cy="-0.2872" r="0.0050"/><circle cx="-0.2383" cy="-0.2872" r="0.0050"/><circle cx="-0.2370" cy="-0.2872" r="0.0050"/><circle cx="-0.2357" cy="-0.4665" r="0.0050"/><circle cx="-0.2344" cy="-0.4665" r="0.0050"/><circle cx="-0.2330" cy="-0.4665" r="0.0050"/><circle cx="-0.2317" cy="-0.4665" r="0.0050"/><circle cx="-0.2304" cy="-0.2872" r="0.0050"/><circle cx="-0.2291" cy="-0.1079" r="0.0050"/><circle cx="-0.2278" cy="-0.2872" r="0.0050"/><circle cx="-0.2264" cy="-0.2872" r="0.0050"/><circle cx="-0.2251" cy="-0.4665" r="0.0050"/><circle cx="-0.2238" cy="-0.2872" r="0.0050"/><circle cx="-0.2225" cy="-0.2872" r="0.0050"/><circle cx="-0.2212" cy="-0.4665" r="0.0050"/><circle cx="-0.2198" cy="-0.4665" r="0.0050"/><circle cx="-0.2185" cy="-0.4665" r="0.0050"/><circle cx="-0.2172" cy="-0.4665" r="0.0050"/><circle cx="-0.2159" cy="-0.4665" r="0.0050"/><circle cx="-0.2145" cy="-0.4665" r="0.0050"/><circle cx="-0.2132" cy="-0.4665" r="0.0050"/><circle cx="-0.2119" cy="0.0715" r="0.0050"/><circle cx="-0.2106" cy="-0.4665" r="0.0050"/><circle cx="-0.2093" cy="0.2508" r="0.0050"/><circle cx="-0.2079" cy="0.2508" r="0.0050"/><circle cx="-0.2066" cy="0.2508" r="0.0050"/><circle cx="-0.2053" cy="-0.4665" r="0.0050"/><circle cx="-0.2040" cy="-0.4665" r="0.0050"/><circle cx="-0.2027" cy="0.0715" r="0.0050"/><circle cx="-0.2013" cy="-0.4665" r="0.0050"/><circle cx="-0.2000" cy="-0.4665" r="0.0050"/><circle cx="-0.1987" cy="-0.2872" r="0.0050"/><circle cx="-0.1974" cy="-0.4665" r="0.0050"/><circle cx="-0.1960" cy="-0.4665" r="0.0050"/><circle cx="-0.1947" cy="-0.4665" r="0.0050"/><circle cx="-0.1934" cy="-0.4665" r="0.0050"/><circle cx="-0.1921" cy="-0.4665" r="0.0050"/><circle cx="-0.1908" cy="-0.4665" r="0.0050"/><circle cx="-0.1894" cy="-0.4665" r="0.0050"/><circle cx="-0.1881" cy="-0.4665" r="0.0050"/><circle cx="-0.1868" cy="-0.4665" r="0.0050"/><circle cx="-0.1855" cy="-0.4665" r="0.0050"/><circle cx="-0.1842" cy="-0.4665" r="0.0050"/><circle cx="-0.1828" cy="-0.4665" r="0.0050"/><circle cx="-0.1815" cy="-0.4665" r="0.0050"/><circle cx="-0.1802" cy="-0.4665" r="0.0050"/><circle cx="-0.1789" cy="-0.4665" r="0.0050"/><circle cx="-0.1776" cy="-0.4665" r="0.0050"/><circle cx="-0.1762" cy="-0.4665" r="0.0050"/><circle cx="-0.1749" cy="-0.4665" r="0.0050"/><circle cx="-0.1736" cy="-0.4665" r="0.0050"/><circle cx="-0.1723" cy="-0.4665" r="0.0050"/><circle cx="-0.1709" cy="-0.4665" r="0.0050"/><circle cx="-0.1696" cy="-0.4665" r="0.0050"/><circle cx="-0.1683" cy="-0.4665" r="0.0050"/><circle cx="-0.1670" cy="-0.4665" r="0.0050"/><circle cx="-0.1657" cy="-0.4665" r="0.0050"/><circle cx="-0.1643" cy="-0.4665" r="0.0050"/><circle cx="-0.1630" cy="-0.4665" r="0.0050"/><circle cx="-0.1617" cy="-0.4665" r="0.0050"/><circle cx="-0.1604" cy="-0.4665" r="0.0050"/><circle cx="-0.1591" cy="-0.4665" r="0.0050"/><circle cx="-0.1577" cy="-0.4665" r="0.0050"/><circle cx="-0.1564" cy="-0.4665" r="0.0050"/><circle cx="-0.1551" cy="-0.4665" r="0.0050"/><circle cx="-0.1538" cy="-0.4665" r="0.0050"/><circle cx="-0.1524" cy="-0.4665" r="0.0050"/><circle cx="-0.1511" cy="-0.4665" r="0.0050"/><circle cx="-0.1498" cy="-0.4665" r="0.0050"/><circle cx="-0.1485" cy="-0.4665" r="0.0050"/><circle cx="-0.1472" cy="-0.4665" r="0.0050"/><circle cx="-0.1458" cy="-0.4665" r="0.0050"/><circle cx="-0.1445" cy="-0.4665" r="0.0050"/><circle cx="-0.1432" cy="-0.4665" r="0.0050"/><circle cx="-0.1419" cy="-0.4665" r="0.0050"/><circle cx="-0.1406" cy="-0.4665" r="0.0050"/><circle cx="-0.1392" cy="-0.4665" r="0.0050"/><circle cx="-0.1379" cy="-0.2872" r="0.0050"/><circle cx="-0.1366" cy="-0.2872" r="0.0050"/><circle cx="-0.1353" cy="-0.2872" r="0.0050"/><circle cx="-0.1339" cy="-0.2872" r="0.0050"/><circle cx="-0.1326" cy="-0.4665" r="0.0050"/><circle cx="-0.1313" cy="-0.4665" r="0.0050"/><circle cx="-0.1300" cy="-0.4665" r="0.0050"/><circle cx="-0.1287" cy="-0.4665" r="0.0050"/><circle cx="-0.1273" cy="-0.4665" r="0.0050"/><circle cx="-0.1260" cy="-0.4665" r="0.0050"/><circle cx="-0.1247" cy="-0.4665" r="0.0050"/><circle cx="-0.1234" cy="-0.4665" r="0.0050"/><circle cx="-0.1221" cy="-0.4665" r="0.0050"/><circle cx="-0.1207" cy="-0.4665" r="0.0050"/><circle cx="-0.1194" cy="-0.2872" r="0.0050"/><circle cx="-0.1181" cy="-0.4665" r="0.0050"/><circle cx="-0.1168" cy="-0.2872" r="0.0050"/><circle cx="-0.1154" cy="-0.2872" r="0.0050"/><circle cx="-0.1141" cy="-0.4665" r="0.0050"/><circle cx="-0.1128" cy="-0.4665" r="0.0050"/><circle cx="-0.1115" cy="-0.4665" r="0.0050"/><circle cx="-0.1102" cy="-0.4665" r="0.0050"/><circle cx="-0.1088" cy="-0.4665" r="0.0050"/><circle cx="-0.1075" cy="-0.4665" r="0.0050"/><circle cx="-0.1062" cy="-0.4665" r="0.0050"/><circle cx="-0.1049" cy="-0.4665" r="0.0050"/><circle cx="-0.1036" cy="-0.4665" r="0.0050"/><circle cx="-0.1022" cy="-0.4665" r="0.0050"/><circle cx="-0.1009" cy="-0.4665" r="0.0050"/><circle cx="-0.0996" cy="-0.4665" r="0.0050"/><circle cx="-0.0983" cy="-0.4665" r="0.0050"/><circle cx="-0.0969" cy="-0.2872" r="0.0050"/><circle cx="-0.0956" cy="-0.4665" r="0.0050"/><circle cx="-0.0943" cy="-0.4665" r="0.0050"/><circle cx="-0.0930" cy="-0.4665" r="0.0050"/><circle cx="-0.0917" cy="-0.4665" r="0.0050"/><circle cx="-0.0903" cy="-0.4665" r="0.0050"/><circle cx="-0.0890" cy="-0.4665" r="0.0050"/><circle cx="-0.0877" cy="-0.4665" r="0.0050"/><circle cx="-0.0864" cy="-0.2872" r="0.0050"/><circle cx="-0.0851" cy="-0.4665" r="0.0050"/><circle cx="-0.0837" cy="-0.4665" r="0.0050"/><circle cx="-0.0824" cy="-0.4665" r="0.0050"/><circle cx="-0.0811" cy="-0.4665" r="0.0050"/><circle cx="-0.0798" cy="-0.4665" r="0.0050"/><circle cx="-0.0784" cy="-0.4665" r="0.0050"/><circle cx="-0.0771" cy="-0.4665" r="0.0050"/><circle cx="-0.0758" cy="-0.4665" r="0.0050"/><circle cx="-0.0745" cy="-0.4665" r="0.0050"/><circle cx="-0.0732" cy="-0.2872" r="0.0050"/><circle cx="-0.0718" cy="-0.2872" r="0.0050"/><circle cx="-0.0705" cy="-0.2872" r="0.0050"/><circle cx="-0.0692" cy="-0.2872" r="0.0050"/><circle cx="-0.0679" cy="-0.4665" r="0.0050"/><circle cx="-0.0666" cy="-0.2872" r="0.0050"/><circle cx="-0.0652" cy="-0.2872" r="0.0050"/><circle cx="-0.0639" cy="-0.2872" r="0.0050"/><circle cx="-0.0626" cy="-0.4665" r="0.0050"/><circle cx="-0.0613" cy="-0.4665" r="0.0050"/><circle cx="-0.0599" cy="-0.2872" r="0.0050"/><circle cx="-0.0586" cy="-0.4665" r="0.0050"/><circle cx="-0.0573" cy="-0.4665" r="0.0050"/><circle cx="-0.0560" cy="-0.2872" r="0.0050"/><circle cx="-0.0547" cy="-0.2872" r="0.0050"/><circle cx="-0.0533" cy="-0.2872" r="0.0050"/><circle cx="-0.0520" cy="-0.1079" r="0.0050"/><circle cx="-0.0507" cy="-0.1079" r="0.0050"/><circle cx="-0.0494" cy="-0.1079" r="0.0050"/><circle cx="-0.0481" cy="-0.1079" r="0.0050"/><circle cx="-0.0467" cy="-0.1079" r="0.0050"/><circle cx="-0.0454" cy="-0.2872" r="0.0050"/><circle cx="-0.0441" cy="-0.2872" r="0.0050"/><circle cx="-0.0428" cy="-0.2872" r="0.0050"/><circle cx="-0.0415" cy="-0.2872" r="0.0050"/><circle cx="-0.0401" cy="-0.2872" r="0.0050"/><circle cx="-0.0388" cy="-0.2872" r="0.0050"/><circle cx="-0.0375" cy="-0.2872" r="0.0050"/><circle cx="-0.0362" cy="-0.2872" r="0.0050"/><circle cx="-0.0348" cy="-0.1079" r="0.0050"/><circle cx="-0.0335" cy="-0.1079" r="0.0050"/><circle cx="-0.0322" cy="-0.1079" r="0.0050"/><circle cx="-0.0309" cy="-0.1079" r="0.0050"/><circle cx="-0.0296" cy="-0.1079" r="0.0050"/><circle cx="-0.0282" cy="-0.1079" r="0.0050"/><circle cx="-0.0269" cy="-0.1079" r="0.0050"/><circle cx="-0.0256" cy="-0.1079" r="0.0050"/><circle cx="-0.0243" cy="-0.1079" r="0.0050"/><circle cx="-0.0230" cy="-0.1079" r="0.0050"/><circle cx="-0.0216" cy="-0.1079" r="0.0050"/><circle cx="-0.0203" cy="-0.1079" r="0.0050"/><circle cx="-0.0190" cy="-0.1079" r="0.0050"/><circle cx="-0.0177" cy="-0.2872" r="0.0050"/><circle cx="-0.0163" cy="-0.2872" r="0.0050"/><circle cx="-0.0150" cy="-0.1079" r="0.0050"/><circle cx="-0.0137" cy="-0.1079" r="0.0050"/><circle cx="-0.0124" cy="-0.1079" r="0.0050"/><circle cx="-0.0111" cy="-0.1079" r="0.0050"/><circle cx="-0.0097" cy="-0.1079" r="0.0050"/><circle cx="-0.0084" cy="-0.2872" r="0.0050"/><circle cx="-0.0071" cy="-0.1079" r="0.0050"/><circle cx="-0.0058" cy="-0.1079" r="0.0050"/><circle cx="-0.0045" cy="-0.1079" r="0.0050"/><circle cx="-0.0031" cy="0.2508" r="0.0050"/><circle cx="-0.0018" cy="0.2508" r="0.0050"/><circle cx="-0.0005" cy="0.0715" r="0.0050"/><circle cx="0.0008" cy="0.2508" r="0.0050"/><circle cx="0.0022" cy="0.0715" r="0.0050"/><circle cx="0.0035" cy="0.2508" r="0.0050"/><circle cx="0.0048" cy="0.2508" r="0.0050"/><circle cx="0.0061" cy="0.0715" r="0.0050"/><circle cx="0.0074" cy="-0.1079" r="0.0050"/><circle cx="0.0088" cy="-0.1079" r="0.0050"/><circle cx="0.0101" cy="-0.2872" r="0.0050"/><circle cx="0.0114" cy="-0.2872" r="0.0050"/><circle cx="0.0127" cy="0.0715" r="0.0050"/><circle cx="0.0140" cy="-0.1079" r="0.0050"/><circle cx="0.0154" cy="-0.1079" r="0.0050"/><circle cx="0.0167" cy="-0.1079" r="0.0050"/><circle cx="0.0180" cy="0.0715" r="0.0050"/><circle cx="0.0193" cy="0.0715" r="0.0050"/><circle cx="0.0207" cy="0.0715" r="0.0050"/><circle cx="0.0220" cy="0.0715" r="0.0050"/><circle cx="0.0233" cy="0.0715" r="0.0050"/><circle cx="0.0246" cy="0.0715" r="0.0050"/><circle cx="0.0259" cy="0.0715" r="0.0050"/><circle cx="0.0273" cy="0.0715" r="0.0050"/><circle cx="0.0286" cy="0.0715" r="0.0050"/><circle cx="0.0299" cy="0.0715" r="0.0050"/><circle cx="0.0312" cy="0.0715" r="0.0050"/><circle cx="0.0325" cy="0.0715" r="0.0050"/><circle cx="0.0339" cy="0.0715" r="0.0050"/><circle cx="0.0352" cy="0.0715" r="0.0050"/><circle cx="0.0365" cy="0.0715" r="0.0050"/><circle cx="0.0378" cy="0.0715" r="0.0050"/><circle cx="0.0392" cy="0.2508" r="0.0050"/><circle cx="0.0405" cy="0.2508" r="0.0050"/><circle cx="0.0418" cy="0.2508" r="0.0050"/><circle cx="0.0431" cy="0.0715" r="0.0050"/><circle cx="0.0444" cy="0.0715" r="0.0050"/><circle cx="0.0458" cy="0.0715" r="0.0050"/><circle cx="0.0471" cy="0.0715" r="0.0050"/><circle cx="0.0484" cy="0.0715" r="0.0050"/><circle cx="0.0497" cy="0.0715" r="0.0050"/><circle cx="0.0510" cy="0.0715" r="0.0050"/><circle cx="0.0524" cy="0.2508" r="0.0050"/><circle cx="0.0537" cy="0.2508" r="0.0050"/><circle cx="0.0550" cy="0.2508" r="0.0050"/><circle cx="0.0563" cy="0.2508" r="0.0050"/><circle cx="0.0577" cy="0.2508" r="0.0050"/><circle cx="0.0590" cy="0.2508" r="0.0050"/><circle cx="0.0603" cy="0.2508" r="0.0050"/><circle cx="0.0616" cy="0.2508" r="0.0050"/><circle cx="0.0629" cy="0.2508" r="0.0050"/><circle cx="0.0643" cy="0.2508" r="0.0050"/><circle cx="0.0656" cy="0.2508" r="0.0050"/><circle cx="0.0669" cy="0.2508" r="0.0050"/><circle cx="0.0682" cy="0.2508" r="0.0050"/><circle cx="0.0695" cy="0.2508" r="0.0050"/><circle cx="0.0709" cy="0.2508" r="0.0050"/><circle cx="0.0722" cy="0.2508" r="0.0050"/><circle cx="0.0735" cy="0.2508" r="0.0050"/><circle cx="0.0748" cy="0.2508" r="0.0050"/><circle cx="0.0761" cy="0.2508" r="0.0050"/><circle cx="0.0775" cy="0.2508" r="0.0050"/><circle cx="0.0788" cy="-0.1079" r="0.0050"/><circle cx="0.0801" cy="-0.1079" r="0.0050"/><circle cx="0.0814" cy="0.0715" r="0.0050"/><circle cx="0.0828" cy="0.0715" r="0.0050"/><circle cx="0.0841" cy="-0.1079" r="0.0050"/><circle cx="0.0854" cy="0.2508" r="0.0050"/><circle cx="0.0867" cy="0.2508" r="0.0050"/><circle cx="0.0880" cy="0.2508" r="0.0050"/><circle cx="0.0894" cy="0.2508" r="0.0050"/><circle cx="0.0907" cy="0.0715" r="0.0050"/><circle cx="0.0920" cy="0.0715" r="0.0050"/><circle cx="0.0933" cy="0.2508" r="0.0050"/><circle cx="0.0946" cy="0.2508" r="0.0050"/><circle cx="0.0960" cy="0.0715" r="0.0050"/><circle cx="0.0973" cy="-0.1079" r="0.0050"/><circle cx="0.0986" cy="-0.2872" r="0.0050"/><circle cx="0.0999" cy="-0.2872" r="0.0050"/><circle cx="0.1013" cy="-0.1079" r="0.0050"/><circle cx="0.1026" cy="-0.2872" r="0.0050"/><circle cx="0.1039" cy="0.2508" r="0.0050"/><circle cx="0.1052" cy="0.2508" r="0.0050"/><circle cx="0.1065" cy="0.2508" r="0.0050"/><circle cx="0.1079" cy="0.2508" r="0.0050"/><circle cx="0.1092" cy="0.2508" r="0.0050"/><circle cx="0.1105" cy="0.0715" r="0.0050"/><circle cx="0.1118" cy="0.2508" r="0.0050"/><circle cx="0.1131" cy="0.2508" r="0.0050"/><circle cx="0.1145" cy="0.2508" r="0.0050"/><circle cx="0.1158" cy="0.2508" r="0.0050"/><circle cx="0.1171" cy="0.2508" r="0.0050"/><circle cx="0.1184" cy="0.2508" r="0.0050"/><circle cx="0.1198" cy="0.2508" r="0.0050"/><circle cx="0.1211" cy="0.2508" r="0.0050"/><circle cx="0.1224" cy="0.0715" r="0.0050"/><circle cx="0.1237" cy="-0.1079" r="0.0050"/><circle cx="0.1250" cy="-0.1079" r="0.0050"/><circle cx="0.1264" cy="-0.1079" r="0.0050"/><circle cx="0.1277" cy="-0.1079" r="0.0050"/><circle cx="0.1290" cy="-0.1079" r="0.0050"/><circle cx="0.1303" cy="-0.1079" r="0.0050"/><circle cx="0.1316" cy="-0.1079" r="0.0050"/><circle cx="0.1330" cy="-0.1079" r="0.0050"/><circle cx="0.1343" cy="-0.1079" r="0.0050"/><circle cx="0.1356" cy="-0.1079" r="0.0050"/><circle cx="0.1369" cy="-0.1079" r="0.0050"/><circle cx="0.1383" cy="0.0715" r="0.0050"/><circle cx="0.1396" cy="0.2508" r="0.0050"/><circle cx="0.1409" cy="0.0715" r="0.0050"/><circle cx="0.1422" cy="0.0715" r="0.0050"/><circle cx="0.1435" cy="0.0715" r="0.0050"/><circle cx="0.1449" cy="0.0715" r="0.0050"/><circle cx="0.1462" cy="0.0715" r="0.0050"/><circle cx="0.1475" cy="0.0715" r="0.0050"/><circle cx="0.1488" cy="0.0715" r="0.0050"/><circle cx="0.1501" cy="0.0715" r="0.0050"/><circle cx="0.1515" cy="0.0715" r="0.0050"/><circle cx="0.1528" cy="0.0715" r="0.0050"/><circle cx="0.1541" cy="0.0715" r="0.0050"/><circle cx="0.1554" cy="-0.1079" r="0.0050"/><circle cx="0.1568" cy="0.0715" r="0.0050"/><circle cx="0.1581" cy="0.0715" r="0.0050"/><circle cx="0.1594" cy="0.0715" r="0.0050"/><circle cx="0.1607" cy="-0.1079" r="0.0050"/><circle cx="0.1620" cy="-0.1079" r="0.0050"/><circle cx="0.1634" cy="-0.1079" r="0.0050"/><circle cx="0.1647" cy="0.0715" r="0.0050"/><circle cx="0.1660" cy="-0.1079" r="0.0050"/><circle cx="0.1673" cy="-0.1079" r="0.0050"/><circle cx="0.1686" cy="-0.1079" r="0.0050"/><circle cx="0.1700" cy="-0.1079" r="0.0050"/><circle cx="0.1713" cy="-0.1079" r="0.0050"/><circle cx="0.1726" cy="-0.1079" r="0.0050"/><circle cx="0.1739" cy="-0.1079" r="0.0050"/><circle cx="0.1753" cy="-0.1079" r="0.0050"/><circle cx="0.1766" cy="0.2508" r="0.0050"/><circle cx="0.1779" cy="0.2508" r="0.0050"/><circle cx="0.1792" cy="-0.1079" r="0.0050"/><circle cx="0.1805" cy="0.0715" r="0.0050"/><circle cx="0.1819" cy="-0.1079" r="0.0050"/><circle cx="0.1832" cy="-0.1079" r="0.0050"/><circle cx="0.1845" cy="-0.1079" r="0.0050"/><circle cx="0.1858" cy="-0.1079" r="0.0050"/><circle cx="0.1871" cy="-0.1079" r="0.0050"/><circle cx="0.1885" cy="0.0715" r="0.0050"/><circle cx="0.1898" cy="-0.1079" r="0.0050"/><circle cx="0.1911" cy="-0.1079" r="0.0050"/><circle cx="0.1924" cy="-0.1079" r="0.0050"/><circle cx="0.1938" cy="-0.1079" r="0.0050"/><circle cx="0.1951" cy="-0.1079" r="0.0050"/><circle cx="0.1964" cy="0.0715" r="0.0050"/><circle cx="0.1977" cy="-0.1079" r="0.0050"/><circle cx="0.1990" cy="-0.1079" r="0.0050"/><circle cx="0.2004" cy="-0.1079" r="0.0050"/><circle cx="0.2017" cy="-0.1079" r="0.0050"/><circle cx="0.2030" cy="-0.1079" r="0.0050"/><circle cx="0.2043" cy="-0.1079" r="0.0050"/><circle cx="0.2056" cy="-0.1079" r="0.0050"/><circle cx="0.2070" cy="-0.1079" r="0.0050"/><circle cx="0.2083" cy="-0.1079" r="0.0050"/><circle cx="0.2096" cy="-0.1079" r="0.0050"/><circle cx="0.2109" cy="-0.1079" r="0.0050"/><circle cx="0.2122" cy="-0.2872" r="0.0050"/><circle cx="0.2136" cy="-0.2872" r="0.0050"/><circle cx="0.2149" cy="-0.2872" r="0.0050"/><circle cx="0.2162" cy="-0.2872" r="0.0050"/><circle cx="0.2175" cy="-0.2872" r="0.0050"/><circle cx="0.2189" cy="-0.2872" r="0.0050"/><circle cx="0.2202" cy="-0.2872" r="0.0050"/><circle cx="0.2215" cy="-0.2872" r="0.0050"/><circle cx="0.2228" cy="-0.2872" r="0.0050"/><circle cx="0.2241" cy="-0.2872" r="0.0050"/><circle cx="0.2255" cy="-0.2872" r="0.0050"/><circle cx="0.2268" cy="-0.2872" r="0.0050"/><circle cx="0.2281" cy="-0.2872" r="0.0050"/><circle cx="0.2294" cy="-0.2872" r="0.0050"/><circle cx="0.2307" cy="-0.2872" r="0.0050"/><circle cx="0.2321" cy="-0.2872" r="0.0050"/><circle cx="0.2334" cy="-0.2872" r="0.0050"/><circle cx="0.2347" cy="-0.2872" r="0.0050"/><circle cx="0.2360" cy="-0.2872" r="0.0050"/><circle cx="0.2374" cy="-0.2872" r="0.0050"/><circle cx="0.2387" cy="-0.2872" r="0.0050"/><circle cx="0.2400" cy="-0.2872" r="0.0050"/><circle cx="0.2413" cy="-0.2872" r="0.0050"/><circle cx="0.2426" cy="-0.2872" r="0.0050"/><circle cx="0.2440" cy="-0.2872" r="0.0050"/><circle cx="0.2453" cy="-0.2872" r="0.0050"/><circle cx="0.2466" cy="-0.2872" r="0.0050"/><circle cx="0.2479" cy="-0.1079" r="0.0050"/><circle cx="0.2492" cy="-0.2872" r="0.0050"/><circle cx="0.2506" cy="-0.1079" r="0.0050"/><circle cx="0.2519" cy="-0.1079" r="0.0050"/><circle cx="0.2532" cy="-0.1079" r="0.0050"/><circle cx="0.2545" cy="-0.2872" r="0.0050"/><circle cx="0.2559" cy="-0.2872" r="0.0050"/><circle cx="0.2572" cy="-0.1079" r="0.0050"/><circle cx="0.2585" cy="-0.1079" r="0.0050"/><circle cx="0.2598" cy="-0.1079" r="0.0050"/><circle cx="0.2611" cy="-0.1079" r="0.0050"/><circle cx="0.2625" cy="-0.2872" r="0.0050"/><circle cx="0.2638" cy="-0.1079" r="0.0050"/><circle cx="0.2651" cy="-0.1079" r="0.0050"/><circle cx="0.2664" cy="-0.1079" r="0.0050"/><circle cx="0.2677" cy="-0.1079" r="0.0050"/><circle cx="0.2691" cy="-0.2872" r="0.0050"/><circle cx="0.2704" cy="-0.1079" r="0.0050"/><circle cx="0.2717" cy="-0.1079" r="0.0050"/><circle cx="0.2730" cy="-0.2872" r="0.0050"/><circle cx="0.2744" cy="-0.2872" r="0.0050"/><circle cx="0.2757" cy="-0.2872" r="0.0050"/><circle cx="0.2770" cy="-0.2872" r="0.0050"/><circle cx="0.2783" cy="-0.2872" r="0.0050"/><circle cx="0.2796" cy="-0.2872" r="0.0050"/><circle cx="0.2810" cy="-0.2872" r="0.0050"/><circle cx="0.2823" cy="-0.2872" r="0.0050"/><circle cx="0.2836" cy="-0.2872" r="0.0050"/><circle cx="0.2849" cy="-0.2872" r="0.0050"/><circle cx="0.2862" cy="-0.2872" r="0.0050"/><circle cx="0.2876" cy="-0.2872" r="0.0050"/><circle cx="0.2889" cy="-0.2872" r="0.0050"/><circle cx="0.2902" cy="-0.2872" r="0.0050"/><circle cx="0.2915" cy="-0.2872" r="0.0050"/><circle cx="0.2929" cy="-0.2872" r="0.0050"/><circle cx="0.2942" cy="-0.2872" r="0.0050"/><circle cx="0.2955" cy="-0.2872" r="0.0050"/><circle cx="0.2968" cy="-0.2872" r="0.0050"/><circle cx="0.2981" cy="-0.2872" r="0.0050"/><circle cx="0.2995" cy="-0.2872" r="0.0050"/><circle cx="0.3008" cy="-0.2872" r="0.0050"/><circle cx="0.3021" cy="-0.2872" r="0.0050"/><circle cx="0.3034" cy="-0.2872" r="0.0050"/><circle cx="0.3047" cy="-0.2872" r="0.0050"/><circle cx="0.3061" cy="-0.2872" r="0.0050"/><circle cx="0.3074" cy="-0.2872" r="0.0050"/><circle cx="0.3087" cy="-0.1079" r="0.0050"/><circle cx="0.3100" cy="-0.1079" r="0.0050"/><circle cx="0.3114" cy="-0.2872" r="0.0050"/><circle cx="0.3127" cy="-0.2872" r="0.0050"/><circle cx="0.3140" cy="-0.2872" r="0.0050"/><circle cx="0.3153" cy="-0.2872" r="0.0050"/><circle cx="0.3166" cy="-0.2872" r="0.0050"/><circle cx="0.3180" cy="-0.2872" r="0.0050"/><circle cx="0.3193" cy="-0.2872" r="0.0050"/><circle cx="0.3206" cy="-0.4665" r="0.0050"/><circle cx="0.3219" cy="-0.4665" r="0.0050"/><circle cx="0.3232" cy="-0.4665" r="0.0050"/><circle cx="0.3246" cy="-0.4665" r="0.0050"/><circle cx="0.3259" cy="-0.4665" r="0.0050"/><circle cx="0.3272" cy="-0.4665" r="0.0050"/><circle cx="0.3285" cy="-0.2872" r="0.0050"/><circle cx="0.3298" cy="-0.4665" r="0.0050"/><circle cx="0.3312" cy="-0.4665" r="0.0050"/><circle cx="0.3325" cy="-0.4665" r="0.0050"/><circle cx="0.3338" cy="-0.2872" r="0.0050"/><circle cx="0.3351" cy="-0.2872" r="0.0050"/><circle cx="0.3365" cy="-0.2872" r="0.0050"/><circle cx="0.3378" cy="-0.4665" r="0.0050"/><circle cx="0.3391" cy="-0.4665" r="0.0050"/><circle cx="0.3404" cy="-0.4665" r="0.0050"/><circle cx="0.3417" cy="-0.4665" r="0.0050"/><circle cx="0.3431" cy="-0.2872" r="0.0050"/><circle cx="0.3444" cy="-0.2872" r="0.0050"/><circle cx="0.3457" cy="-0.2872" r="0.0050"/><circle cx="0.3470" cy="-0.2872" r="0.0050"/><circle cx="0.3483" cy="-0.4665" r="0.0050"/><circle cx="0.3497" cy="-0.4665" r="0.0050"/><circle cx="0.3510" cy="-0.2872" r="0.0050"/><circle cx="0.3523" cy="-0.2872" r="0.0050"/><circle cx="0.3536" cy="-0.2872" r="0.0050"/><circle cx="0.3550" cy="-0.2872" r="0.0050"/><circle cx="0.3563" cy="-0.2872" r="0.0050"/><circle cx="0.3576" cy="-0.2872" r="0.0050"/><circle cx="0.3589" cy="-0.2872" r="0.0050"/><circle cx="0.3602" cy="-0.2872" r="0.0050"/><circle cx="0.3616" cy="-0.2872" r="0.0050"/><circle cx="0.3629" cy="-0.2872" r="0.0050"/><circle cx="0.3642" cy="-0.2872" r="0.0050"/><circle cx="0.3655" cy="-0.1079" r="0.0050"/><circle cx="0.3668" cy="-0.2872" r="0.0050"/><circle cx="0.3682" cy="-0.1079" r="0.0050"/><circle cx="0.3695" cy="-0.1079" r="0.0050"/><circle cx="0.3708" cy="0.0715" r="0.0050"/><circle cx="0.3721" cy="0.0715" r="0.0050"/><circle cx="0.3735" cy="0.2508" r="0.0050"/><circle cx="0.3748" cy="0.2508" r="0.0050"/><circle cx="0.3761" cy="0.2508" r="0.0050"/><circle cx="0.3774" cy="0.0715" r="0.0050"/><circle cx="0.3787" cy="-0.1079" r="0.0050"/><circle cx="0.3801" cy="-0.2872" r="0.0050"/><circle cx="0.3814" cy="-0.1079" r="0.0050"/><circle cx="0.3827" cy="-0.2872" r="0.0050"/><circle cx="0.3840" cy="-0.1079" r="0.0050"/><circle cx="0.3853" cy="-0.1079" r="0.0050"/><circle cx="0.3867" cy="-0.1079" r="0.0050"/><circle cx="0.3880" cy="0.0715" r="0.0050"/><circle cx="0.3893" cy="-0.1079" r="0.0050"/><circle cx="0.3906" cy="-0.1079" r="0.0050"/><circle cx="0.3920" cy="-0.1079" r="0.0050"/><circle cx="0.3933" cy="-0.1079" r="0.0050"/><circle cx="0.3946" cy="-0.1079" r="0.0050"/><circle cx="0.3959" cy="-0.2872" r="0.0050"/><circle cx="0.3972" cy="-0.2872" r="0.0050"/><circle cx="0.3986" cy="-0.4665" r="0.0050"/><circle cx="0.3999" cy="-0.4665" r="0.0050"/><circle cx="0.4012" cy="-0.4665" r="0.0050"/><circle cx="0.4025" cy="-0.4665" r="0.0050"/><circle cx="0.4038" cy="-0.4665" r="0.0050"/><circle cx="0.4052" cy="0.2508" r="0.0050"/><circle cx="0.4065" cy="0.2508" r="0.0050"/><circle cx="0.4078" cy="0.2508" r="0.0050"/><circle cx="0.4091" cy="0.2508" r="0.0050"/><circle cx="0.4105" cy="0.2508" r="0.0050"/><circle cx="0.4118" cy="0.2508" r="0.0050"/><circle cx="0.4131" cy="0.2508" r="0.0050"/><circle cx="0.4144" cy="0.2508" r="0.0050"/><circle cx="0.4157" cy="0.2508" r="0.0050"/><circle cx="0.4171" cy="0.2508" r="0.0050"/><circle cx="0.4184" cy="0.2508" r="0.0050"/><circle cx="0.4197" cy="0.2508" r="0.0050"/><circle cx="0.4210" cy="0.2508" r="0.0050"/><circle cx="0.4223" cy="0.2508" r="0.0050"/><circle cx="0.4237" cy="0.2508" r="0.0050"/><circle cx="0.4250" cy="0.0715" r="0.0050"/><circle cx="0.4263" cy="0.0715" r="0.0050"/><circle cx="0.4276" cy="-0.1079" r="0.0050"/><circle cx="0.4290" cy="-0.1079" r="0.0050"/><circle cx="0.4303" cy="0.0715" r="0.0050"/><circle cx="0.4316" cy="0.2508" r="0.0050"/><circle cx="0.4329" cy="0.0715" r="0.0050"/><circle cx="0.4342" cy="-0.1079" r="0.0050"/><circle cx="0.4356" cy="-0.1079" r="0.0050"/><circle cx="0.4369" cy="0.0715" r="0.0050"/><circle cx="0.4382" cy="-0.2872" r="0.0050"/><circle cx="0.4395" cy="0.0715" r="0.0050"/><circle cx="0.4408" cy="0.0715" r="0.0050"/><circle cx="0.4422" cy="-0.4665" r="0.0050"/><circle cx="0.4435" cy="-0.4665" r="0.0050"/><circle cx="0.4448" cy="-0.4665" r="0.0050"/><circle cx="0.4461" cy="0.2508" r="0.0050"/><circle cx="0.4475" cy="0.2508" r="0.0050"/><circle cx="0.4488" cy="0.2508" r="0.0050"/><circle cx="0.4501" cy="0.2508" r="0.0050"/><circle cx="0.4514" cy="0.0715" r="0.0050"/><circle cx="0.4527" cy="0.2508" r="0.0050"/><circle cx="0.4541" cy="0.2508" r="0.0050"/><circle cx="0.4554" cy="0.0715" r="0.0050"/><circle cx="0.4567" cy="-0.4665" r="0.0050"/><circle cx="0.4580" cy="-0.4665" r="0.0050"/><circle cx="0.4593" cy="0.2508" r="0.0050"/><circle cx="0.4607" cy="-0.4665" r="0.0050"/><circle cx="0.4620" cy="-0.4665" r="0.0050"/><circle cx="0.4633" cy="-0.1079" r="0.0050"/><circle cx="0.4646" cy="0.2508" r="0.0050"/><circle cx="0.4659" cy="-0.1079" r="0.0050"/><circle cx="0.4673" cy="-0.1079" r="0.0050"/><circle cx="0.4686" cy="0.0715" r="0.0050"/><circle cx="0.4699" cy="0.2508" r="0.0050"/><circle cx="0.4712" cy="0.0715" r="0.0050"/><circle cx="0.4726" cy="0.2508" r="0.0050"/><circle cx="0.4739" cy="0.2508" r="0.0050"/><circle cx="0.4752" cy="0.0715" r="0.0050"/><circle cx="0.4765" cy="0.0715" r="0.0050"/><circle cx="0.4778" cy="-0.1079" r="0.0050"/><circle cx="0.4792" cy="0.2508" r="0.0050"/><circle cx="0.4805" cy="0.0715" r="0.0050"/><circle cx="0.4818" cy="0.0715" r="0.0050"/><circle cx="0.4831" cy="0.0715" r="0.0050"/><circle cx="0.4844" cy="0.0715" r="0.0050"/><circle cx="0.4858" cy="0.2508" r="0.0050"/><circle cx="0.4871" cy="0.0715" r="0.0050"/><circle cx="0.4884" cy="0.2508" r="0.0050"/><circle cx="0.4897" cy="0.2508" r="0.0050"/><circle cx="0.4911" cy="0.2508" r="0.0050"/><circle cx="0.4924" cy="0.2508" r="0.0050"/><circle cx="0.4937" cy="0.2508" r="0.0050"/><circle cx="0.4950" cy="0.2508" r="0.0050"/><circle cx="0.4963" cy="0.2508" r="0.0050"/><circle cx="0.4977" cy="0.2508" r="0.0050"/><circle cx="0.4990" cy="0.2508" r="0.0050"/><circle cx="0.5003" cy="0.2508" r="0.0050"/><circle cx="0.5016" cy="0.2508" r="0.0050"/><circle cx="0.5029" cy="0.2508" r="0.0050"/><circle cx="0.5043" cy="0.2508" r="0.0050"/><circle cx="0.5056" cy="0.2508" r="0.0050"/><circle cx="0.5069" cy="0.2508" r="0.0050"/><circle cx="0.5082" cy="0.2508" r="0.0050"/><circle cx="0.5096" cy="0.2508" r="0.0050"/><circle cx="0.5109" cy="0.2508" r="0.0050"/><circle cx="0.5122" cy="0.2508" r="0.0050"/><circle cx="0.5135" cy="0.2508" r="0.0050"/><circle cx="0.5148" cy="0.2508" r="0.0050"/><circle cx="0.5162" cy="0.2508" r="0.0050"/><circle cx="0.5175" cy="0.2508" r="0.0050"/><circle cx="0.5188" cy="0.2508" r="0.0050"/><circle cx="0.5201" cy="0.2508" r="0.0050"/><circle cx="0.5214" cy="0.2508" r="0.0050"/><circle cx="0.5228" cy="0.2508" r="0.0050"/><circle cx="0.5241" cy="0.2508" r="0.0050"/><circle cx="0.5254" cy="0.2508" r="0.0050"/><circle cx="0.5267" cy="0.2508" r="0.0050"/><circle cx="0.5281" cy="0.2508" r="0.0050"/><circle cx="0.5294" cy="0.2508" r="0.0050"/><circle cx="0.5307" cy="0.2508" r="0.0050"/><circle cx="0.5320" cy="0.2508" r="0.0050"/><circle cx="0.5333" cy="0.2508" r="0.0050"/><circle cx="0.5347" cy="0.2508" r="0.0050"/><circle cx="0.5360" cy="0.2508" r="0.0050"/><circle cx="0.5373" cy="0.2508" r="0.0050"/><circle cx="0.5386" cy="0.2508" r="0.0050"/><circle cx="0.5399" cy="0.2508" r="0.0050"/><circle cx="0.5413" cy="-0.1079" r="0.0050"/><circle cx="0.5426" cy="0.0715" r="0.0050"/><circle cx="0.5439" cy="0.0715" r="0.0050"/><circle cx="0.5452" cy="0.0715" r="0.0050"/><circle cx="0.5466" cy="0.0715" r="0.0050"/><circle cx="0.5479" cy="-0.4665" r="0.0050"/><circle cx="0.5492" cy="-0.4665" r="0.0050"/><circle cx="0.5505" cy="-0.4665" r="0.0050"/><circle cx="0.5518" cy="-0.4665" r="0.0050"/><circle cx="0.5532" cy="0.0715" r="0.0050"/><circle cx="0.5545" cy="0.2508" r="0.0050"/><circle cx="0.5558" cy="0.0715" r="0.0050"/><circle cx="0.5571" cy="0.0715" r="0.0050"/><circle cx="0.5584" cy="0.0715" r="0.0050"/><circle cx="0.5598" cy="0.0715" r="0.0050"/><circle cx="0.5611" cy="-0.1079" r="0.0050"/><circle cx="0.5624" cy="0.2508" r="0.0050"/><circle cx="0.5637" cy="0.2508" r="0.0050"/><circle cx="0.5651" cy="0.0715" r="0.0050"/><circle cx="0.5664" cy="0.2508" r="0.0050"/><circle cx="0.5677" cy="0.0715" r="0.0050"/><circle cx="0.5690" cy="0.0715" r="0.0050"/><circle cx="0.5703" cy="0.2508" r="0.0050"/><circle cx="0.5717" cy="0.0715" r="0.0050"/><circle cx="0.5730" cy="0.0715" r="0.0050"/><circle cx="0.5743" cy="0.2508" r="0.0050"/><circle cx="0.5756" cy="0.2508" r="0.0050"/><circle cx="0.5769" cy="0.2508" r="0.0050"/><circle cx="0.5783" cy="0.2508" r="0.0050"/><circle cx="0.5796" cy="0.2508" r="0.0050"/><circle cx="0.5809" cy="0.2508" r="0.0050"/><circle cx="0.5822" cy="0.2508" r="0.0050"/><circle cx="0.5835" cy="0.2508" r="0.0050"/><circle cx="0.5849" cy="0.2508" r="0.0050"/><circle cx="0.5862" cy="0.2508" r="0.0050"/><circle cx="0.5875" cy="0.2508" r="0.0050"/><circle cx="0.5888" cy="0.2508" r="0.0050"/><circle cx="0.5902" cy="0.2508" r="0.0050"/><circle cx="0.5915" cy="0.2508" r="0.0050"/><circle cx="0.5928" cy="0.2508" r="0.0050"/><circle cx="0.5941" cy="0.2508" r="0.0050"/><circle cx="0.5954" cy="0.2508" r="0.0050"/><circle cx="0.5968" cy="0.2508" r="0.0050"/><circle cx="0.5981" cy="0.2508" r="0.0050"/><circle cx="0.5994" cy="0.2508" r="0.0050"/><circle cx="0.6007" cy="0.2508" r="0.0050"/><circle cx="0.6020" cy="0.2508" r="0.0050"/><circle cx="0.6034" cy="0.2508" r="0.0050"/><circle cx="0.6047" cy="0.2508" r="0.0050"/><circle cx="0.6060" cy="0.2508" r="0.0050"/><circle cx="0.6073" cy="0.2508" r="0.0050"/><circle cx="0.6087" cy="0.2508" r="0.0050"/><circle cx="0.6100" cy="0.2508" r="0.0050"/><circle cx="0.6113" cy="0.2508" r="0.0050"/><circle cx="0.6126" cy="0.2508" r="0.0050"/><circle cx="0.6139" cy="0.2508" r="0.0050"/><circle cx="0.6153" cy="0.2508" r="0.0050"/><circle cx="0.6166" cy="0.2508" r="0.0050"/><circle cx="0.6179" cy="0.2508" r="0.0050"/><circle cx="0.6192" cy="0.2508" r="0.0050"/><circle cx="0.6205" cy="0.2508" r="0.0050"/><circle cx="0.6219" cy="0.2508" r="0.0050"/><circle cx="0.6232" cy="0.2508" r="0.0050"/><circle cx="0.6245" cy="0.2508" r="0.0050"/><circle cx="0.6258" cy="0.2508" r="0.0050"/><circle cx="0.6272" cy="0.2508" r="0.0050"/><circle cx="0.6285" cy="0.2508" r="0.0050"/><circle cx="0.6298" cy="0.0715" r="0.0050"/><circle cx="0.6311" cy="0.2508" r="0.0050"/><circle cx="0.6324" cy="0.2508" r="0.0050"/><circle cx="0.6338" cy="0.2508" r="0.0050"/><circle cx="0.6351" cy="0.2508" r="0.0050"/><circle cx="0.6364" cy="0.2508" r="0.0050"/><circle cx="0.6377" cy="0.2508" r="0.0050"/><circle cx="0.6390" cy="0.2508" r="0.0050"/><circle cx="0.6404" cy="0.2508" r="0.0050"/><circle cx="0.6417" cy="0.2508" r="0.0050"/><circle cx="0.6430" cy="0.2508" r="0.0050"/><circle cx="0.6443" cy="0.0715" r="0.0050"/><circle cx="0.6457" cy="0.2508" r="0.0050"/><circle cx="0.6470" cy="0.2508" r="0.0050"/><circle cx="0.6483" cy="0.2508" r="0.0050"/><circle cx="0.6496" cy="0.2508" r="0.0050"/><circle cx="0.6509" cy="0.2508" r="0.0050"/><circle cx="0.6523" cy="0.2508" r="0.0050"/><circle cx="0.6536" cy="0.2508" r="0.0050"/><circle cx="0.6549" cy="0.0715" r="0.0050"/><circle cx="0.6562" cy="0.0715" r="0.0050"/><circle cx="0.6575" cy="0.2508" r="0.0050"/><circle cx="0.6589" cy="0.2508" r="0.0050"/><circle cx="0.6602" cy="0.2508" r="0.0050"/><circle cx="0.6615" cy="0.2508" r="0.0050"/><circle cx="0.6628" cy="0.2508" r="0.0050"/><circle cx="0.6642" cy="0.2508" r="0.0050"/><circle cx="0.6655" cy="0.2508" r="0.0050"/><circle cx="0.6668" cy="0.2508" r="0.0050"/><circle cx="0.6681" cy="0.2508" r="0.0050"/><circle cx="0.6694" cy="0.2508" r="0.0050"/><circle cx="0.6708" cy="0.2508" r="0.0050"/><circle cx="0.6721" cy="0.2508" r="0.0050"/><circle cx="0.6734" cy="0.2508" r="0.0050"/><circle cx="0.6747" cy="0.2508" r="0.0050"/><circle cx="0.6760" cy="0.2508" r="0.0050"/><circle cx="0.6774" cy="0.2508" r="0.0050"/><circle cx="0.6787" cy="0.2508" r="0.0050"/><circle cx="0.6800" cy="0.2508" r="0.0050"/><circle cx="0.6813" cy="0.0715" r="0.0050"/><circle cx="0.6827" cy="0.0715" r="0.0050"/><circle cx="0.6840" cy="0.2508" r="0.0050"/><circle cx="0.6853" cy="0.0715" r="0.0050"/><circle cx="0.6866" cy="0.2508" r="0.0050"/><circle cx="0.6879" cy="0.0715" r="0.0050"/><circle cx="0.6893" cy="0.2508" r="0.0050"/><circle cx="0.6906" cy="0.2508" r="0.0050"/><circle cx="0.6919" cy="0.2508" r="0.0050"/><circle cx="0.6932" cy="0.2508" r="0.0050"/><circle cx="0.6945" cy="0.2508" r="0.0050"/><circle cx="0.6959" cy="0.2508" r="0.0050"/><circle cx="0.6972" cy="0.2508" r="0.0050"/><circle cx="0.6985" cy="0.2508" r="0.0050"/><circle cx="0.6998" cy="0.2508" r="0.0050"/><circle cx="0.7012" cy="0.2508" r="0.0050"/><circle cx="0.7025" cy="0.0715" r="0.0050"/><circle cx="0.7038" cy="0.0715" r="0.0050"/><circle cx="0.7051" cy="0.0715" r="0.0050"/><circle cx="0.7064" cy="0.2508" r="0.0050"/><circle cx="0.7078" cy="0.0715" r="0.0050"/><circle cx="0.7091" cy="0.2508" r="0.0050"/></g></g><g class="hud"><g class="frame"><g stroke-width="0" stroke="rgb(0%, 0%, 0%)" stroke-opacity="0" fill="rgb(100%, 100%, 100%)" fill-opacity="0.02"><rect width="1.3315" height="0.7267" x="-0.6167" y="-0.4712"/></g></g><g class="axis"><g class="axisbar"><g stroke-width="0" stroke="rgb(0%, 0%, 0%)" stroke-opacity="0" fill="rgb(5%, 5%, 5%)" fill-opacity="0.4"><rect width="0.0035" height="0.7202" x="-0.6233" y="-0.4680"/></g></g><g class="ticks"><g class="tickglyph"><g stroke-width="0.0035" stroke="rgb(5%, 5%, 5%)" stroke-opacity="0.4" fill="rgb(5%, 5%, 5%)" fill-opacity="0.4"><polyline points="-0.6479,0.1611
-0.6215,0.1611"/><polyline points="-0.6479,-0.0182
-0.6215,-0.0182"/><polyline points="-0.6479,-0.1975
-0.6215,-0.1975"/><polyline points="-0.6479,-0.3769
-0.6215,-0.3769"/></g></g><g class="ticktext"><g stroke-width="0.0" stroke="none" fill="rgb(5%, 5%, 5%)" fill-opacity="1.0" font-size="0.0300" text-anchor="end"><text x="-0.6673" y="0.1671">20%</text><text x="-0.6673" y="-0.0123">40%</text><text x="-0.6673" y="-0.1916">60%</text><text x="-0.6673" y="-0.3709">80%</text></g></g></g></g><g class="axis"><g class="axisbar"><g stroke-width="0" stroke="rgb(0%, 0%, 0%)" stroke-opacity="0" fill="rgb(5%, 5%, 5%)" fill-opacity="0.4"><rect width="1.3236" height="0.0029" x="-0.6127" y="0.2580"/></g></g><g class="ticks"><g class="ticklines"><g stroke-width="0.0050" stroke="rgb(5%, 5%, 5%)" stroke-opacity="0.05" fill="none"><polyline points="-0.5261,0.2508 -0.5261,-0.4665"/><polyline points="-0.3584,0.2508 -0.3584,-0.4665"/><polyline points="-0.1924,0.2508 -0.1924,-0.4665"/><polyline points="-0.0246,0.2508 -0.0246,-0.4665"/><polyline points="0.1405,0.2508 0.1405,-0.4665"/><polyline points="0.3082,0.2508 0.3082,-0.4665"/><polyline points="0.4733,0.2508 0.4733,-0.4665"/><polyline points="0.6411,0.2508 0.6411,-0.4665"/></g></g><g class="tickglyph"><g stroke-width="0.0029" stroke="rgb(5%, 5%, 5%)" stroke-opacity="0.4" fill="rgb(5%, 5%, 5%)" fill-opacity="0.4"><polyline points="-0.5261,0.2810
-0.5261,0.2594"/><polyline points="-0.3584,0.2810
-0.3584,0.2594"/><polyline points="-0.1924,0.2810
-0.1924,0.2594"/><polyline points="-0.0246,0.2810
-0.0246,0.2594"/><polyline points="0.1405,0.2810
0.1405,0.2594"/><polyline points="0.3082,0.2810
0.3082,0.2594"/><polyline points="0.4733,0.2810
0.4733,0.2594"/><polyline points="0.6411,0.2810
0.6411,0.2594"/></g></g><g class="ticktext"><g stroke-width="0.0" stroke="none" fill="rgb(5%, 5%, 5%)" fill-opacity="1.0" font-size="0.0400" text-anchor="end"><text x="-0.5261" y="0.3206" transform="rotate(-45.0, -0.5261, 0.3206)">30 Jun 2019</text><text x="-0.3584" y="0.3206" transform="rotate(-45.0, -0.3584, 0.3206)">31 Dec 2019</text><text x="-0.1924" y="0.3206" transform="rotate(-45.0, -0.1924, 0.3206)">30 Jun 2020</text><text x="-0.0246" y="0.3206" transform="rotate(-45.0, -0.0246, 0.3206)">31 Dec 2020</text><text x="0.1405" y="0.3206" transform="rotate(-45.0, 0.1405, 0.3206)">30 Jun 2021</text><text x="0.3082" y="0.3206" transform="rotate(-45.0, 0.3082, 0.3206)">31 Dec 2021</text><text x="0.4733" y="0.3206" transform="rotate(-45.0, 0.4733, 0.3206)">30 Jun 2022</text><text x="0.6411" y="0.3206" transform="rotate(-45.0, 0.6411, 0.3206)">31 Dec 2022</text></g></g></g></g><g class="frame"><g stroke-width="0" stroke="rgb(0%, 0%, 0%)" stroke-opacity="0" fill="rgb(0%, 0%, 0%)" fill-opacity="0"><rect width="1.5" height="1.0000" x="-0.75" y="-0.5000"/></g></g></g></svg>