<svg xmlns="http://www.w3.org/2000/svg" xmlns:xlink="http://www.w3.org/1999/xlink" width="449" height="300" viewBox="-0.75 -0.5 1.5000 1.0"><style>svg {color-scheme: light dark;} {.canvas g, .title g, .axisbar g, .ticktext g, .tickglyph g, .ticklines g, .legendContent g text {fill: rgb(5%, 5%, 5%);} .ticklines g, .tickglyph g, .legendBorder g {stroke: rgb(5%, 5%, 5%);} .legendBorder g {fill: rgb(94%, 94%, 94%);}} @media (prefers-color-scheme:dark) {.canvas g, .title g, .axisbar g, .ticktext g, .tickglyph g, .ticklines g, .legendContent g text {fill: rgb(94%, 94%, 94%);} .ticklines g, .tickglyph g, .legendBorder g {stroke: rgb(94%, 94%, 94%);} .legendBorder g {fill: rgb(5%, 5%, 5%);}}
svg { font-family: system-ui,-apple-system,"Segoe UI",Roboto,"Helvetica Neue",Arial,"Noto Sans","Liberation Sans",sans-serif,"Apple Color Emoji","Segoe UI Emoji","Segoe UI Symbol","Noto Color Emoji";
}

ticktext { font-family: SFMono-Regular,Menlo,Monaco,Consolas,"Liberation Mono","Courier New",monospace;}</style><g class="chart"><g stroke-width="0.0030" stroke="rgb(2%, 29%, 48%)" stroke-opacity="1.0" fill="rgb(2%, 73%, 80%)" fill-opacity="0.2"><rect width="0.0100" height="0.0100" x="-0.6215" y="-0.4690"/><rect width="0.0100" height="0.0100" x="-0.6202" y="-0.4690"/><rect width="0.0100" height="0.0100" x="-0.6189" y="-0.0828"/><rect width="0.0100" height="0.0100" x="-0.6175" y="0.1103"/><rect width="0.0100" height="0.0100" x="-0.6162" y="0.3034"/><rect width="0.0100" height="0.0100" x="-0.6149" y="0.3034"/><rect width="0.0100" height="0.0100" x="-0.6136" y="0.1103"/><rect width="0.0100" height="0.0100" x="-0.6122" y="0.1103"/><rect width="0.0100" height="0.0100" x="-0.6109" y="-0.0828"/><rect width="0.0100" height="0.0100" x="-0.6096" y="0.1103"/><rect width="0.0100" height="0.0100" x="-0.6083" y="0.1103"/><rect width="0.0100" height="0.0100" x="-0.6069" y="0.1103"/><rect width="0.0100" height="0.0100" x="-0.6056" y="0.3034"/><rect width="0.0100" height="0.0100" x="-0.6043" y="0.1103"/><rect width="0.0100" height="0.0100" x="-0.6029" y="0.1103"/><rect width="0.0100" height="0.0100" x="-0.6016" y="0.1103"/><rect width="0.0100" height="0.0100" x="-0.6003" y="0.1103"/><rect width="0.0100" height="0.0100" x="-0.5990" y="0.1103"/><rect width="0.0100" height="0.0100" x="-0.5976" y="0.3034"/><rect width="0.0100" height="0.0100" x="-0.5963" y="0.3034"/><rect width="0.0100" height="0.0100" x="-0.5950" y="0.3034"/><rect width="0.0100" height="0.0100" x="-0.5937" y="0.3034"/><rect width="0.0100" height="0.0100" x="-0.5923" y="0.3034"/><rect width="0.0100" height="0.0100" x="-0.5910" y="0.3034"/><rect width="0.0100" height="0.0100" x="-0.5897" y="0.3034"/><rect width="0.0100" height="0.0100" x="-0.5884" y="0.3034"/><rect width="0.0100" height="0.0100" x="-0.5870" y="0.3034"/><rect width="0.0100" height="0.0100" x="-0.5857" y="0.3034"/><rect width="0.0100" height="0.0100" x="-0.5844" y="0.3034"/><rect width="0.0100" height="0.0100" x="-0.5830" y="0.3034"/><rect width="0.0100" height="0.0100" x="-0.5817" y="0.3034"/><rect width="0.0100" height="0.0100" x="-0.5804" y="0.3034"/><rect width="0.0100" height="0.0100" x="-0.5791" y="0.3034"/><rect width="0.0100" height="0.0100" x="-0.5777" y="0.3034"/><rect width="0.0100" height="0.0100" x="-0.5764" y="0.3034"/><rect width="0.0100" height="0.0100" x="-0.5751" y="0.3034"/><rect width="0.0100" height="0.0100" x="-0.5738" y="0.3034"/><rect width="0.0100" height="0.0100" x="-0.5724" y="0.3034"/><rect width="0.0100" height="0.0100" x="-0.5711" y="0.3034"/><rect width="0.0100" height="0.0100" x="-0.5698" y="0.3034"/><rect width="0.0100" height="0.0100" x="-0.5684" y="0.3034"/><rect width="0.0100" height="0.0100" x="-0.5671" y="0.3034"/><rect width="0.0100" height="0.0100" x="-0.5658" y="0.3034"/><rect width="0.0100" height="0.0100" x="-0.5645" y="0.3034"/><rect width="0.0100" height="0.0100" x="-0.5631" y="0.3034"/><rect width="0.0100" height="0.0100" x="-0.5618" y="0.3034"/><rect width="0.0100" height="0.0100" x="-0.5605" y="0.3034"/><rect width="0.0100" height="0.0100" x="-0.5592" y="0.3034"/><rect width="0.0100" height="0.0100" x="-0.5578" y="0.3034"/><rect width="0.0100" height="0.0100" x="-0.5565" y="0.3034"/><rect width="0.0100" height="0.0100" x="-0.5552" y="0.3034"/><rect width="0.0100" height="0.0100" x="-0.5539" y="0.3034"/><rect width="0.0100" height="0.0100" x="-0.5525" y="0.3034"/><rect width="0.0100" height="0.0100" x="-0.5512" y="0.3034"/><rect width="0.0100" height="0.0100" x="-0.5499" y="0.3034"/><rect width="0.0100" height="0.0100" x="-0.5485" y="0.3034"/><rect width="0.0100" height="0.0100" x="-0.5472" y="0.3034"/><rect width="0.0100" height="0.0100" x="-0.5459" y="0.3034"/><rect width="0.0100" height="0.0100" x="-0.5446" y="0.3034"/><rect width="0.0100" height="0.0100" x="-0.5432" y="0.3034"/><rect width="0.0100" height="0.0100" x="-0.5419" y="0.3034"/><rect width="0.0100" height="0.0100" x="-0.5406" y="0.3034"/><rect width="0.0100" height="0.0100" x="-0.5393" y="0.3034"/><rect width="0.0100" height="0.0100" x="-0.5379" y="0.3034"/><rect width="0.0100" height="0.0100" x="-0.5366" y="0.1103"/><rect width="0.0100" height="0.0100" x="-0.5353" y="0.1103"/><rect width="0.0100" height="0.0100" x="-0.5340" y="0.1103"/><rect width="0.0100" height="0.0100" x="-0.5326" y="-0.0828"/><rect width="0.0100" height="0.0100" x="-0.5313" y="-0.0828"/><rect width="0.0100" height="0.0100" x="-0.5300" y="0.1103"/><rect width="0.0100" height="0.0100" x="-0.5286" y="0.1103"/><rect width="0.0100" height="0.0100" x="-0.5273" y="-0.0828"/><rect width="0.0100" height="0.0100" x="-0.5260" y="-0.0828"/><rect width="0.0100" height="0.0100" x="-0.5247" y="0.1103"/><rect width="0.0100" height="0.0100" x="-0.5233" y="0.1103"/><rect width="0.0100" height="0.0100" x="-0.5220" y="0.1103"/><rect width="0.0100" height="0.0100" x="-0.5207" y="0.3034"/><rect width="0.0100" height="0.0100" x="-0.5194" y="0.1103"/><rect width="0.0100" height="0.0100" x="-0.5180" y="0.1103"/><rect width="0.0100" height="0.0100" x="-0.5167" y="0.1103"/><rect width="0.0100" height="0.0100" x="-0.5154" y="0.1103"/><rect width="0.0100" height="0.0100" x="-0.5141" y="0.3034"/><rect width="0.0100" height="0.0100" x="-0.5127" y="0.1103"/><rect width="0.0100" height="0.0100" x="-0.5114" y="0.3034"/><rect width="0.0100" height="0.0100" x="-0.5101" y="0.3034"/><rect width="0.0100" height="0.0100" x="-0.5087" y="0.3034"/><rect width="0.0100" height="0.0100" x="-0.5074" y="0.3034"/><rect width="0.0100" height="0.0100" x="-0.5061" y="0.3034"/><rect width="0.0100" height="0.0100" x="-0.5048" y="0.3034"/><rect width="0.0100" height="0.0100" x="-0.5034" y="0.3034"/><rect width="0.0100" height="0.0100" x="-0.5021" y="0.3034"/><rect width="0.0100" height="0.0100" x="-0.5008" y="0.3034"/><rect width="0.0100" height="0.0100" x="-0.4995" y="0.3034"/><rect width="0.0100" height="0.0100" x="-0.4981" y="0.3034"/><rect width="0.0100" height="0.0100" x="-0.4968" y="0.3034"/><rect width="0.0100" height="0.0100" x="-0.4955" y="0.3034"/><rect width="0.0100" height="0.0100" x="-0.4942" y="0.3034"/><rect width="0.0100" height="0.0100" x="-0.4928" y="0.3034"/><rect width="0.0100" height="0.0100" x="-0.4915" y="0.3034"/><rect width="0.0100" height="0.0100" x="-0.4902" y="0.3034"/><rect width="0.0100" height="0.0100" x="-0.4888" y="0.3034"/><rect width="0.0100" height="0.0100" x="-0.4875" y="0.3034"/><rect width="0.0100" height="0.0100" x="-0.4862" y="0.3034"/><rect width="0.0100" height="0.0100" x="-0.4849" y="0.3034"/><rect width="0.0100" height="0.0100" x="-0.4835" y="0.3034"/><rect width="0.0100" height="0.0100" x="-0.4822" y="0.3034"/><rect width="0.0100" height="0.0100" x="-0.4809" y="0.3034"/><rect width="0.0100" height="0.0100" x="-0.4796" y="0.3034"/><rect width="0.0100" height="0.0100" x="-0.4782" y="0.3034"/><rect width="0.0100" height="0.0100" x="-0.4769" y="0.3034"/><rect width="0.0100" height="0.0100" x="-0.4756" y="0.3034"/><rect width="0.0100" height="0.0100" x="-0.4743" y="0.3034"/><rect width="0.0100" height="0.0100" x="-0.4729" y="0.3034"/><rect width="0.0100" height="0.0100" x="-0.4716" y="0.3034"/><rect width="0.0100" height="0.0100" x="-0.4703" y="0.3034"/><rect width="0.0100" height="0.0100" x="-0.4689" y="0.3034"/><rect width="0.0100" height="0.0100" x="-0.4676" y="0.3034"/><rect width="0.0100" height="0.0100" x="-0.4663" y="0.3034"/><rect width="0.0100" height="0.0100" x="-0.4650" y="0.3034"/><rect width="0.0100" height="0.0100" x="-0.4636" y="0.3034"/><rect width="0.0100" height="0.0100" x="-0.4623" y="0.3034"/><rect width="0.0100" height="0.0100" x="-0.4610" y="0.3034"/><rect width="0.0100" height="0.0100" x="-0.4597" y="0.3034"/><rect width="0.0100" height="0.0100" x="-0.4583" y="0.3034"/><rect width="0.0100" height="0.0100" x="-0.4570" y="0.3034"/><rect width="0.0100" height="0.0100" x="-0.4557" y="0.3034"/><rect width="0.0100" height="0.0100" x="-0.4543" y="0.3034"/><rect width="0.0100" height="0.0100" x="-0.4530" y="0.3034"/><rect width="0.0100" height="0.0100" x="-0.4517" y="0.3034"/><rect width="0.0100" height="0.0100" x="-0.4504" y="0.3034"/><rect width="0.0100" height="0.0100" x="-0.4490" y="0.3034"/><rect width="0.0100" height="0.0100" x="-0.4477" y="0.3034"/><rect width="0.0100" height="0.0100" x="-0.4464" y="0.3034"/><rect width="0.0100" height="0.0100" x="-0.4451" y="0.3034"/><rect width="0.0100" height="0.0100" x="-0.4437" y="0.3034"/><rect width="0.0100" height="0.0100" x="-0.4424" y="0.3034"/><rect width="0.0100" height="0.0100" x="-0.4411" y="0.3034"/><rect width="0.0100" height="0.0100" x="-0.4398" y="0.3034"/><rect width="0.0100" height="0.0100" x="-0.4384" y="0.3034"/><rect width="0.0100" height="0.0100" x="-0.4371" y="0.3034"/><rect width="0.0100" height="0.0100" x="-0.4358" y="0.3034"/><rect width="0.0100" height="0.0100" x="-0.4344" y="0.3034"/><rect width="0.0100" height="0.0100" x="-0.4331" y="0.3034"/><rect width="0.0100" height="0.0100" x="-0.4318" y="0.3034"/><rect width="0.0100" height="0.0100" x="-0.4305" y="0.3034"/><rect width="0.0100" height="0.0100" x="-0.4291" y="0.3034"/><rect width="0.0100" height="0.0100" x="-0.4278" y="0.3034"/><rect width="0.0100" height="0.0100" x="-0.4265" y="0.3034"/><rect width="0.0100" height="0.0100" x="-0.4252" y="0.3034"/><rect width="0.0100" height="0.0100" x="-0.4238" y="0.3034"/><rect width="0.0100" height="0.0100" x="-0.4225" y="0.3034"/><rect width="0.0100" height="0.0100" x="-0.4212" y="0.3034"/><rect width="0.0100" height="0.0100" x="-0.4199" y="0.3034"/><rect width="0.0100" height="0.0100" x="-0.4185" y="0.3034"/><rect width="0.0100" height="0.0100" x="-0.4172" y="0.3034"/><rect width="0.0100" height="0.0100" x="-0.4159" y="0.3034"/><rect width="0.0100" height="0.0100" x="-0.4145" y="0.3034"/><rect width="0.0100" height="0.0100" x="-0.4132" y="0.3034"/><rect width="0.0100" height="0.0100" x="-0.4119" y="0.3034"/><rect width="0.0100" height="0.0100" x="-0.4106" y="0.3034"/><rect width="0.0100" height="0.0100" x="-0.4092" y="0.3034"/><rect width="0.0100" height="0.0100" x="-0.4079" y="0.3034"/><rect width="0.0100" height="0.0100" x="-0.4066" y="0.3034"/><rect width="0.0100" height="0.0100" x="-0.4053" y="0.3034"/><rect width="0.0100" height="0.0100" x="-0.4039" y="0.3034"/><rect width="0.0100" height="0.0100" x="-0.4026" y="0.3034"/><rect width="0.0100" height="0.0100" x="-0.4013" y="0.3034"/><rect width="0.0100" height="0.0100" x="-0.4000" y="0.3034"/><rect width="0.0100" height="0.0100" x="-0.3986" y="0.3034"/><rect width="0.0100" height="0.0100" x="-0.3973" y="0.1103"/><rect width="0.0100" height="0.0100" x="-0.3960" y="0.1103"/><rect width="0.0100" height="0.0100" x="-0.3946" y="0.1103"/><rect width="0.0100" height="0.0100" x="-0.3933" y="0.1103"/><rect width="0.0100" height="0.0100" x="-0.3920" y="0.1103"/><rect width="0.0100" height="0.0100" x="-0.3907" y="0.1103"/><rect width="0.0100" height="0.0100" x="-0.3893" y="0.1103"/><rect width="0.0100" height="0.0100" x="-0.3880" y="0.1103"/><rect width="0.0100" height="0.0100" x="-0.3867" y="0.3034"/><rect width="0.0100" height="0.0100" x="-0.3854" y="0.3034"/><rect width="0.0100" height="0.0100" x="-0.3840" y="0.1103"/><rect width="0.0100" height="0.0100" x="-0.3827" y="0.1103"/><rect width="0.0100" height="0.0100" x="-0.3814" y="0.1103"/><rect width="0.0100" height="0.0100" x="-0.3801" y="0.1103"/><rect width="0.0100" height="0.0100" x="-0.3787" y="0.1103"/><rect width="0.0100" height="0.0100" x="-0.3774" y="0.1103"/><rect width="0.0100" height="0.0100" x="-0.3761" y="0.1103"/><rect width="0.0100" height="0.0100" x="-0.3747" y="0.1103"/><rect width="0.0100" height="0.0100" x="-0.3734" y="0.1103"/><rect width="0.0100" height="0.0100" x="-0.3721" y="0.3034"/><rect width="0.0100" height="0.0100" x="-0.3708" y="0.3034"/><rect width="0.0100" height="0.0100" x="-0.3694" y="0.1103"/><rect width="0.0100" height="0.0100" x="-0.3681" y="0.1103"/><rect width="0.0100" height="0.0100" x="-0.3668" y="0.1103"/><rect width="0.0100" height="0.0100" x="-0.3655" y="0.1103"/><rect width="0.0100" height="0.0100" x="-0.3641" y="0.1103"/><rect width="0.0100" height="0.0100" x="-0.3628" y="0.3034"/><rect width="0.0100" height="0.0100" x="-0.3615" y="0.3034"/><rect width="0.0100" height="0.0100" x="-0.3601" y="0.3034"/><rect width="0.0100" height="0.0100" x="-0.3588" y="0.3034"/><rect width="0.0100" height="0.0100" x="-0.3575" y="0.3034"/><rect width="0.0100" height="0.0100" x="-0.3562" y="0.3034"/><rect width="0.0100" height="0.0100" x="-0.3548" y="0.3034"/><rect width="0.0100" height="0.0100" x="-0.3535" y="0.3034"/><rect width="0.0100" height="0.0100" x="-0.3522" y="0.3034"/><rect width="0.0100" height="0.0100" x="-0.3509" y="0.3034"/><rect width="0.0100" height="0.0100" x="-0.3495" y="0.3034"/><rect width="0.0100" height="0.0100" x="-0.3482" y="0.3034"/><rect width="0.0100" height="0.0100" x="-0.3469" y="0.3034"/><rect width="0.0100" height="0.0100" x="-0.3456" y="0.3034"/><rect width="0.0100" height="0.0100" x="-0.3442" y="-0.0828"/><rect width="0.0100" height="0.0100" x="-0.3429" y="-0.0828"/><rect width="0.0100" height="0.0100" x="-0.3416" y="-0.0828"/><rect width="0.0100" height="0.0100" x="-0.3402" y="-0.0828"/><rect width="0.0100" height="0.0100" x="-0.3389" y="-0.0828"/><rect width="0.0100" height="0.0100" x="-0.3376" y="-0.0828"/><rect width="0.0100" height="0.0100" x="-0.3363" y="-0.0828"/><rect width="0.0100" height="0.0100" x="-0.3349" y="-0.0828"/><rect width="0.0100" height="0.0100" x="-0.3336" y="-0.0828"/><rect width="0.0100" height="0.0100" x="-0.3323" y="-0.0828"/><rect width="0.0100" height="0.0100" x="-0.3310" y="-0.0828"/><rect width="0.0100" height="0.0100" x="-0.3296" y="-0.0828"/><rect width="0.0100" height="0.0100" x="-0.3283" y="0.1103"/><rect width="0.0100" height="0.0100" x="-0.3270" y="-0.0828"/><rect width="0.0100" height="0.0100" x="-0.3257" y="-0.0828"/><rect width="0.0100" height="0.0100" x="-0.3243" y="-0.0828"/><rect width="0.0100" height="0.0100" x="-0.3230" y="0.1103"/><rect width="0.0100" height="0.0100" x="-0.3217" y="-0.0828"/><rect width="0.0100" height="0.0100" x="-0.3203" y="-0.0828"/><rect width="0.0100" height="0.0100" x="-0.3190" y="0.1103"/><rect width="0.0100" height="0.0100" x="-0.3177" y="0.1103"/><rect width="0.0100" height="0.0100" x="-0.3164" y="0.1103"/><rect width="0.0100" height="0.0100" x="-0.3150" y="0.1103"/><rect width="0.0100" height="0.0100" x="-0.3137" y="-0.0828"/><rect width="0.0100" height="0.0100" x="-0.3124" y="-0.0828"/><rect width="0.0100" height="0.0100" x="-0.3111" y="0.1103"/><rect width="0.0100" height="0.0100" x="-0.3097" y="0.1103"/><rect width="0.0100" height="0.0100" x="-0.3084" y="0.1103"/><rect width="0.0100" height="0.0100" x="-0.3071" y="-0.0828"/><rect width="0.0100" height="0.0100" x="-0.3058" y="-0.0828"/><rect width="0.0100" height="0.0100" x="-0.3044" y="-0.0828"/><rect width="0.0100" height="0.0100" x="-0.3031" y="-0.0828"/><rect width="0.0100" height="0.0100" x="-0.3018" y="-0.0828"/><rect width="0.0100" height="0.0100" x="-0.3004" y="-0.0828"/><rect width="0.0100" height="0.0100" x="-0.2991" y="-0.0828"/><rect width="0.0100" height="0.0100" x="-0.2978" y="0.1103"/><rect width="0.0100" height="0.0100" x="-0.2965" y="0.1103"/><rect width="0.0100" height="0.0100" x="-0.2951" y="0.1103"/><rect width="0.0100" height="0.0100" x="-0.2938" y="0.1103"/><rect width="0.0100" height="0.0100" x="-0.2925" y="0.1103"/><rect width="0.0100" height="0.0100" x="-0.2912" y="0.1103"/><rect width="0.0100" height="0.0100" x="-0.2898" y="0.1103"/><rect width="0.0100" height="0.0100" x="-0.2885" y="0.1103"/><rect width="0.0100" height="0.0100" x="-0.2872" y="0.1103"/><rect width="0.0100" height="0.0100" x="-0.2859" y="0.1103"/><rect width="0.0100" height="0.0100" x="-0.2845" y="-0.0828"/><rect width="0.0100" height="0.0100" x="-0.2832" y="-0.0828"/><rect width="0.0100" height="0.0100" x="-0.2819" y="0.1103"/><rect width="0.0100" height="0.0100" x="-0.2805" y="0.1103"/><rect width="0.0100" height="0.0100" x="-0.2792" y="0.1103"/><rect width="0.0100" height="0.0100" x="-0.2779" y="0.1103"/><rect width="0.0100" height="0.0100" x="-0.2766" y="0.1103"/><rect width="0.0100" height="0.0100" x="-0.2752" y="0.1103"/><rect width="0.0100" height="0.0100" x="-0.2739" y="0.1103"/><rect width="0.0100" height="0.0100" x="-0.2726" y="0.1103"/><rect width="0.0100" height="0.0100" x="-0.2713" y="0.1103"/><rect width="0.0100" height="0.0100" x="-0.2699" y="0.1103"/><rect width="0.0100" height="0.0100" x="-0.2686" y="-0.0828"/><rect width="0.0100" height="0.0100" x="-0.2673" y="-0.0828"/><rect width="0.0100" height="0.0100" x="-0.2659" y="-0.0828"/><rect width="0.0100" height="0.0100" x="-0.2646" y="-0.0828"/><rect width="0.0100" height="0.0100" x="-0.2633" y="-0.0828"/><rect width="0.0100" height="0.0100" x="-0.2620" y="-0.0828"/><rect width="0.0100" height="0.0100" x="-0.2606" y="0.1103"/><rect width="0.0100" height="0.0100" x="-0.2593" y="-0.0828"/><rect width="0.0100" height="0.0100" x="-0.2580" y="-0.0828"/><rect width="0.0100" height="0.0100" x="-0.2567" y="-0.0828"/><rect width="0.0100" height="0.0100" x="-0.2553" y="-0.0828"/><rect width="0.0100" height="0.0100" x="-0.2540" y="-0.0828"/><rect width="0.0100" height="0.0100" x="-0.2527" y="-0.0828"/><rect width="0.0100" height="0.0100" x="-0.2514" y="-0.0828"/><rect width="0.0100" height="0.0100" x="-0.2500" y="-0.0828"/><rect width="0.0100" height="0.0100" x="-0.2487" y="-0.0828"/><rect width="0.0100" height="0.0100" x="-0.2474" y="-0.0828"/><rect width="0.0100" height="0.0100" x="-0.2460" y="-0.0828"/><rect width="0.0100" height="0.0100" x="-0.2447" y="-0.0828"/><rect width="0.0100" height="0.0100" x="-0.2434" y="-0.0828"/><rect width="0.0100" height="0.0100" x="-0.2421" y="-0.2759"/><rect width="0.0100" height="0.0100" x="-0.2407" y="-0.0828"/><rect width="0.0100" height="0.0100" x="-0.2394" y="-0.0828"/><rect width="0.0100" height="0.0100" x="-0.2381" y="-0.0828"/><rect width="0.0100" height="0.0100" x="-0.2368" y="-0.2759"/><rect width="0.0100" height="0.0100" x="-0.2354" y="-0.2759"/><rect width="0.0100" height="0.0100" x="-0.2341" y="-0.2759"/><rect width="0.0100" height="0.0100" x="-0.2328" y="0.1103"/><rect width="0.0100" height="0.0100" x="-0.2315" y="0.1103"/><rect width="0.0100" height="0.0100" x="-0.2301" y="0.1103"/><rect width="0.0100" height="0.0100" x="-0.2288" y="0.1103"/><rect width="0.0100" height="0.0100" x="-0.2275" y="0.1103"/><rect width="0.0100" height="0.0100" x="-0.2261" y="0.1103"/><rect width="0.0100" height="0.0100" x="-0.2248" y="0.1103"/><rect width="0.0100" height="0.0100" x="-0.2235" y="0.1103"/><rect width="0.0100" height="0.0100" x="-0.2222" y="0.1103"/><rect width="0.0100" height="0.0100" x="-0.2208" y="0.1103"/><rect width="0.0100" height="0.0100" x="-0.2195" y="0.1103"/><rect width="0.0100" height="0.0100" x="-0.2182" y="0.1103"/><rect width="0.0100" height="0.0100" x="-0.2169" y="0.1103"/><rect width="0.0100" height="0.0100" x="-0.2155" y="0.1103"/><rect width="0.0100" height="0.0100" x="-0.2142" y="-0.2759"/><rect width="0.0100" height="0.0100" x="-0.2129" y="-0.2759"/><rect width="0.0100" height="0.0100" x="-0.2116" y="-0.2759"/><rect width="0.0100" height="0.0100" x="-0.2102" y="0.1103"/><rect width="0.0100" height="0.0100" x="-0.2089" y="0.1103"/><rect width="0.0100" height="0.0100" x="-0.2076" y="0.1103"/><rect width="0.0100" height="0.0100" x="-0.2062" y="-0.2759"/><rect width="0.0100" height="0.0100" x="-0.2049" y="-0.2759"/><rect width="0.0100" height="0.0100" x="-0.2036" y="-0.2759"/><rect width="0.0100" height="0.0100" x="-0.2023" y="-0.2759"/><rect width="0.0100" height="0.0100" x="-0.2009" y="-0.0828"/><rect width="0.0100" height="0.0100" x="-0.1996" y="-0.0828"/><rect width="0.0100" height="0.0100" x="-0.1983" y="-0.2759"/><rect width="0.0100" height="0.0100" x="-0.1970" y="-0.2759"/><rect width="0.0100" height="0.0100" x="-0.1956" y="-0.2759"/><rect width="0.0100" height="0.0100" x="-0.1943" y="-0.2759"/><rect width="0.0100" height="0.0100" x="-0.1930" y="-0.2759"/><rect width="0.0100" height="0.0100" x="-0.1917" y="-0.2759"/><rect width="0.0100" height="0.0100" x="-0.1903" y="-0.2759"/><rect width="0.0100" height="0.0100" x="-0.1890" y="-0.2759"/><rect width="0.0100" height="0.0100" x="-0.1877" y="-0.2759"/><rect width="0.0100" height="0.0100" x="-0.1863" y="-0.2759"/><rect width="0.0100" height="0.0100" x="-0.1850" y="-0.2759"/><rect width="0.0100" height="0.0100" x="-0.1837" y="-0.2759"/><rect width="0.0100" height="0.0100" x="-0.1824" y="-0.2759"/><rect width="0.0100" height="0.0100" x="-0.1810" y="-0.2759"/><rect width="0.0100" height="0.0100" x="-0.1797" y="-0.4690"/><rect width="0.0100" height="0.0100" x="-0.1784" y="-0.4690"/><rect width="0.0100" height="0.0100" x="-0.1771" y="-0.4690"/><rect width="0.0100" height="0.0100" x="-0.1757" y="-0.2759"/><rect width="0.0100" height="0.0100" x="-0.1744" y="-0.2759"/><rect width="0.0100" height="0.0100" x="-0.1731" y="-0.2759"/><rect width="0.0100" height="0.0100" x="-0.1717" y="-0.0828"/><rect width="0.0100" height="0.0100" x="-0.1704" y="-0.2759"/><rect width="0.0100" height="0.0100" x="-0.1691" y="-0.2759"/><rect width="0.0100" height="0.0100" x="-0.1678" y="-0.4690"/><rect width="0.0100" height="0.0100" x="-0.1664" y="-0.2759"/><rect width="0.0100" height="0.0100" x="-0.1651" y="-0.4690"/><rect width="0.0100" height="0.0100" x="-0.1638" y="-0.4690"/><rect width="0.0100" height="0.0100" x="-0.1625" y="0.1103"/><rect width="0.0100" height="0.0100" x="-0.1611" y="0.1103"/><rect width="0.0100" height="0.0100" x="-0.1598" y="-0.0828"/><rect width="0.0100" height="0.0100" x="-0.1585" y="-0.0828"/><rect width="0.0100" height="0.0100" x="-0.1572" y="-0.2759"/><rect width="0.0100" height="0.0100" x="-0.1558" y="-0.2759"/><rect width="0.0100" height="0.0100" x="-0.1545" y="-0.2759"/><rect width="0.0100" height="0.0100" x="-0.1532" y="-0.0828"/><rect width="0.0100" height="0.0100" x="-0.1518" y="-0.2759"/><rect width="0.0100" height="0.0100" x="-0.1505" y="-0.2759"/><rect width="0.0100" height="0.0100" x="-0.1492" y="-0.4690"/><rect width="0.0100" height="0.0100" x="-0.1479" y="-0.2759"/><rect width="0.0100" height="0.0100" x="-0.1465" y="-0.4690"/><rect width="0.0100" height="0.0100" x="-0.1452" y="-0.4690"/><rect width="0.0100" height="0.0100" x="-0.1439" y="-0.4690"/><rect width="0.0100" height="0.0100" x="-0.1426" y="-0.2759"/><rect width="0.0100" height="0.0100" x="-0.1412" y="-0.2759"/><rect width="0.0100" height="0.0100" x="-0.1399" y="-0.2759"/><rect width="0.0100" height="0.0100" x="-0.1386" y="-0.2759"/><rect width="0.0100" height="0.0100" x="-0.1373" y="-0.2759"/><rect width="0.0100" height="0.0100" x="-0.1359" y="-0.2759"/><rect width="0.0100" height="0.0100" x="-0.1346" y="-0.2759"/><rect width="0.0100" height="0.0100" x="-0.1333" y="-0.2759"/><rect width="0.0100" height="0.0100" x="-0.1319" y="-0.2759"/><rect width="0.0100" height="0.0100" x="-0.1306" y="-0.0828"/><rect width="0.0100" height="0.0100" x="-0.1293" y="-0.0828"/><rect width="0.0100" height="0.0100" x="-0.1280" y="-0.0828"/><rect width="0.0100" height="0.0100" x="-0.1266" y="-0.2759"/><rect width="0.0100" height="0.0100" x="-0.1253" y="-0.0828"/><rect width="0.0100" height="0.0100" x="-0.1240" y="-0.0828"/><rect width="0.0100" height="0.0100" x="-0.1227" y="-0.0828"/><rect width="0.0100" height="0.0100" x="-0.1213" y="-0.0828"/><rect width="0.0100" height="0.0100" x="-0.1200" y="-0.0828"/><rect width="0.0100" height="0.0100" x="-0.1187" y="-0.2759"/><rect width="0.0100" height="0.0100" x="-0.1174" y="-0.2759"/><rect width="0.0100" height="0.0100" x="-0.1160" y="-0.2759"/><rect width="0.0100" height="0.0100" x="-0.1147" y="-0.2759"/><rect width="0.0100" height="0.0100" x="-0.1134" y="-0.2759"/><rect width="0.0100" height="0.0100" x="-0.1120" y="-0.2759"/><rect width="0.0100" height="0.0100" x="-0.1107" y="-0.2759"/><rect width="0.0100" height="0.0100" x="-0.1094" y="-0.2759"/><rect width="0.0100" height="0.0100" x="-0.1081" y="-0.2759"/><rect width="0.0100" height="0.0100" x="-0.1067" y="-0.2759"/><rect width="0.0100" height="0.0100" x="-0.1054" y="-0.2759"/><rect width="0.0100" height="0.0100" x="-0.1041" y="-0.2759"/><rect width="0.0100" height="0.0100" x="-0.1028" y="-0.2759"/><rect width="0.0100" height="0.0100" x="-0.1014" y="-0.2759"/><rect width="0.0100" height="0.0100" x="-0.1001" y="-0.2759"/><rect width="0.0100" height="0.0100" x="-0.0988" y="-0.2759"/><rect width="0.0100" height="0.0100" x="-0.0975" y="-0.2759"/><rect width="0.0100" height="0.0100" x="-0.0961" y="-0.2759"/><rect width="0.0100" height="0.0100" x="-0.0948" y="-0.2759"/><rect width="0.0100" height="0.0100" x="-0.0935" y="-0.0828"/><rect width="0.0100" height="0.0100" x="-0.0921" y="-0.0828"/><rect width="0.0100" height="0.0100" x="-0.0908" y="-0.0828"/><rect width="0.0100" height="0.0100" x="-0.0895" y="-0.0828"/><rect width="0.0100" height="0.0100" x="-0.0882" y="-0.0828"/><rect width="0.0100" height="0.0100" x="-0.0868" y="-0.0828"/><rect width="0.0100" height="0.0100" x="-0.0855" y="-0.0828"/><rect width="0.0100" height="0.0100" x="-0.0842" y="-0.0828"/><rect width="0.0100" height="0.0100" x="-0.0829" y="-0.0828"/><rect width="0.0100" height="0.0100" x="-0.0815" y="-0.0828"/><rect width="0.0100" height="0.0100" x="-0.0802" y="-0.0828"/><rect width="0.0100" height="0.0100" x="-0.0789" y="-0.0828"/><rect width="0.0100" height="0.0100" x="-0.0775" y="-0.0828"/><rect width="0.0100" height="0.0100" x="-0.0762" y="-0.0828"/><rect width="0.0100" height="0.0100" x="-0.0749" y="0.1103"/><rect width="0.0100" height="0.0100" x="-0.0736" y="-0.0828"/><rect width="0.0100" height="0.0100" x="-0.0722" y="0.1103"/><rect width="0.0100" height="0.0100" x="-0.0709" y="-0.0828"/><rect width="0.0100" height="0.0100" x="-0.0696" y="-0.0828"/><rect width="0.0100" height="0.0100" x="-0.0683" y="-0.0828"/><rect width="0.0100" height="0.0100" x="-0.0669" y="-0.0828"/><rect width="0.0100" height="0.0100" x="-0.0656" y="-0.0828"/><rect width="0.0100" height="0.0100" x="-0.0643" y="-0.0828"/><rect width="0.0100" height="0.0100" x="-0.0630" y="0.1103"/><rect width="0.0100" height="0.0100" x="-0.0616" y="0.1103"/><rect width="0.0100" height="0.0100" x="-0.0603" y="0.1103"/><rect width="0.0100" height="0.0100" x="-0.0590" y="-0.0828"/><rect width="0.0100" height="0.0100" x="-0.0576" y="0.1103"/><rect width="0.0100" height="0.0100" x="-0.0563" y="-0.0828"/><rect width="0.0100" height="0.0100" x="-0.0550" y="-0.0828"/><rect width="0.0100" height="0.0100" x="-0.0537" y="0.1103"/><rect width="0.0100" height="0.0100" x="-0.0523" y="0.1103"/><rect width="0.0100" height="0.0100" x="-0.0510" y="0.1103"/><rect width="0.0100" height="0.0100" x="-0.0497" y="0.1103"/><rect width="0.0100" height="0.0100" x="-0.0484" y="0.1103"/><rect width="0.0100" height="0.0100" x="-0.0470" y="0.1103"/><rect width="0.0100" height="0.0100" x="-0.0457" y="0.1103"/><rect width="0.0100" height="0.0100" x="-0.0444" y="0.1103"/><rect width="0.0100" height="0.0100" x="-0.0431" y="0.1103"/><rect width="0.0100" height="0.0100" x="-0.0417" y="0.1103"/><rect width="0.0100" height="0.0100" x="-0.0404" y="0.1103"/><rect width="0.0100" height="0.0100" x="-0.0391" y="0.1103"/><rect width="0.0100" height="0.0100" x="-0.0377" y="-0.0828"/><rect width="0.0100" height="0.0100" x="-0.0364" y="-0.0828"/><rect width="0.0100" height="0.0100" x="-0.0351" y="0.1103"/><rect width="0.0100" height="0.0100" x="-0.0338" y="0.1103"/><rect width="0.0100" height="0.0100" x="-0.0324" y="0.1103"/><rect width="0.0100" height="0.0100" x="-0.0311" y="0.1103"/><rect width="0.0100" height="0.0100" x="-0.0298" y="-0.0828"/><rect width="0.0100" height="0.0100" x="-0.0285" y="-0.0828"/><rect width="0.0100" height="0.0100" x="-0.0271" y="-0.2759"/><rect width="0.0100" height="0.0100" x="-0.0258" y="-0.0828"/><rect width="0.0100" height="0.0100" x="-0.0245" y="-0.0828"/><rect width="0.0100" height="0.0100" x="-0.0232" y="-0.0828"/><rect width="0.0100" height="0.0100" x="-0.0218" y="-0.0828"/><rect width="0.0100" height="0.0100" x="-0.0205" y="-0.0828"/><rect width="0.0100" height="0.0100" x="-0.0192" y="-0.2759"/><rect width="0.0100" height="0.0100" x="-0.0178" y="-0.2759"/><rect width="0.0100" height="0.0100" x="-0.0165" y="-0.2759"/><rect width="0.0100" height="0.0100" x="-0.0152" y="-0.2759"/><rect width="0.0100" height="0.0100" x="-0.0139" y="-0.2759"/><rect width="0.0100" height="0.0100" x="-0.0125" y="-0.2759"/><rect width="0.0100" height="0.0100" x="-0.0112" y="-0.2759"/><rect width="0.0100" height="0.0100" x="-0.0099" y="-0.2759"/><rect width="0.0100" height="0.0100" x="-0.0086" y="-0.2759"/><rect width="0.0100" height="0.0100" x="-0.0072" y="-0.2759"/><rect width="0.0100" height="0.0100" x="-0.0059" y="-0.0828"/><rect width="0.0100" height="0.0100" x="-0.0046" y="-0.0828"/><rect width="0.0100" height="0.0100" x="-0.0033" y="-0.0828"/><rect width="0.0100" height="0.0100" x="-0.0019" y="-0.0828"/><rect width="0.0100" height="0.0100" x="-0.0006" y="-0.2759"/><rect width="0.0100" height="0.0100" x="0.0007" y="-0.0828"/><rect width="0.0100" height="0.0100" x="0.0021" y="-0.0828"/><rect width="0.0100" height="0.0100" x="0.0034" y="-0.0828"/><rect width="0.0100" height="0.0100" x="0.0047" y="-0.0828"/><rect width="0.0100" height="0.0100" x="0.0060" y="-0.4690"/><rect width="0.0100" height="0.0100" x="0.0074" y="-0.4690"/><rect width="0.0100" height="0.0100" x="0.0087" y="-0.4690"/><rect width="0.0100" height="0.0100" x="0.0100" y="-0.2759"/><rect width="0.0100" height="0.0100" x="0.0113" y="-0.2759"/><rect width="0.0100" height="0.0100" x="0.0127" y="-0.2759"/><rect width="0.0100" height="0.0100" x="0.0140" y="-0.2759"/><rect width="0.0100" height="0.0100" x="0.0153" y="-0.2759"/><rect width="0.0100" height="0.0100" x="0.0167" y="-0.2759"/><rect width="0.0100" height="0.0100" x="0.0180" y="-0.0828"/><rect width="0.0100" height="0.0100" x="0.0193" y="-0.0828"/><rect width="0.0100" height="0.0100" x="0.0206" y="-0.0828"/><rect width="0.0100" height="0.0100" x="0.0220" y="-0.2759"/><rect width="0.0100" height="0.0100" x="0.0233" y="-0.2759"/><rect width="0.0100" height="0.0100" x="0.0246" y="-0.0828"/><rect width="0.0100" height="0.0100" x="0.0259" y="-0.0828"/><rect width="0.0100" height="0.0100" x="0.0273" y="-0.2759"/><rect width="0.0100" height="0.0100" x="0.0286" y="-0.0828"/><rect width="0.0100" height="0.0100" x="0.0299" y="-0.0828"/><rect width="0.0100" height="0.0100" x="0.0312" y="-0.2759"/><rect width="0.0100" height="0.0100" x="0.0326" y="-0.0828"/><rect width="0.0100" height="0.0100" x="0.0339" y="-0.0828"/><rect width="0.0100" height="0.0100" x="0.0352" y="-0.0828"/><rect width="0.0100" height="0.0100" x="0.0366" y="-0.0828"/><rect width="0.0100" height="0.0100" x="0.0379" y="-0.0828"/><rect width="0.0100" height="0.0100" x="0.0392" y="-0.0828"/><rect width="0.0100" height="0.0100" x="0.0405" y="-0.0828"/><rect width="0.0100" height="0.0100" x="0.0419" y="-0.0828"/><rect width="0.0100" height="0.0100" x="0.0432" y="-0.0828"/><rect width="0.0100" height="0.0100" x="0.0445" y="-0.0828"/><rect width="0.0100" height="0.0100" x="0.0458" y="-0.0828"/><rect width="0.0100" height="0.0100" x="0.0472" y="-0.0828"/><rect width="0.0100" height="0.0100" x="0.0485" y="-0.0828"/><rect width="0.0100" height="0.0100" x="0.0498" y="-0.0828"/><rect width="0.0100" height="0.0100" x="0.0511" y="-0.0828"/><rect width="0.0100" height="0.0100" x="0.0525" y="-0.0828"/><rect width="0.0100" height="0.0100" x="0.0538" y="-0.0828"/><rect width="0.0100" height="0.0100" x="0.0551" y="-0.0828"/><rect width="0.0100" height="0.0100" x="0.0565" y="-0.0828"/><rect width="0.0100" height="0.0100" x="0.0578" y="-0.0828"/><rect width="0.0100" height="0.0100" x="0.0591" y="-0.0828"/><rect width="0.0100" height="0.0100" x="0.0604" y="-0.0828"/><rect width="0.0100" height="0.0100" x="0.0618" y="-0.0828"/><rect width="0.0100" height="0.0100" x="0.0631" y="0.1103"/><rect width="0.0100" height="0.0100" x="0.0644" y="-0.0828"/><rect width="0.0100" height="0.0100" x="0.0657" y="-0.0828"/><rect width="0.0100" height="0.0100" x="0.0671" y="-0.0828"/><rect width="0.0100" height="0.0100" x="0.0684" y="-0.0828"/><rect width="0.0100" height="0.0100" x="0.0697" y="-0.2759"/><rect width="0.0100" height="0.0100" x="0.0710" y="-0.2759"/><rect width="0.0100" height="0.0100" x="0.0724" y="-0.2759"/><rect width="0.0100" height="0.0100" x="0.0737" y="-0.2759"/><rect width="0.0100" height="0.0100" x="0.0750" y="-0.2759"/><rect width="0.0100" height="0.0100" x="0.0764" y="-0.4690"/><rect width="0.0100" height="0.0100" x="0.0777" y="-0.4690"/><rect width="0.0100" height="0.0100" x="0.0790" y="-0.4690"/><rect width="0.0100" height="0.0100" x="0.0803" y="-0.4690"/><rect width="0.0100" height="0.0100" x="0.0817" y="-0.4690"/><rect width="0.0100" height="0.0100" x="0.0830" y="-0.2759"/><rect width="0.0100" height="0.0100" x="0.0843" y="-0.4690"/><rect width="0.0100" height="0.0100" x="0.0856" y="-0.4690"/><rect width="0.0100" height="0.0100" x="0.0870" y="-0.4690"/><rect width="0.0100" height="0.0100" x="0.0883" y="-0.4690"/><rect width="0.0100" height="0.0100" x="0.0896" y="-0.4690"/><rect width="0.0100" height="0.0100" x="0.0909" y="-0.4690"/><rect width="0.0100" height="0.0100" x="0.0923" y="-0.4690"/><rect width="0.0100" height="0.0100" x="0.0936" y="-0.4690"/><rect width="0.0100" height="0.0100" x="0.0949" y="-0.4690"/><rect width="0.0100" height="0.0100" x="0.0963" y="-0.4690"/><rect width="0.0100" height="0.0100" x="0.0976" y="-0.2759"/><rect width="0.0100" height="0.0100" x="0.0989" y="-0.2759"/><rect width="0.0100" height="0.0100" x="0.1002" y="-0.2759"/><rect width="0.0100" height="0.0100" x="0.1016" y="-0.2759"/><rect width="0.0100" height="0.0100" x="0.1029" y="-0.2759"/><rect width="0.0100" height="0.0100" x="0.1042" y="-0.4690"/><rect width="0.0100" height="0.0100" x="0.1055" y="-0.2759"/><rect width="0.0100" height="0.0100" x="0.1069" y="-0.2759"/><rect width="0.0100" height="0.0100" x="0.1082" y="-0.2759"/><rect width="0.0100" height="0.0100" x="0.1095" y="-0.2759"/><rect width="0.0100" height="0.0100" x="0.1109" y="-0.2759"/><rect width="0.0100" height="0.0100" x="0.1122" y="-0.2759"/><rect width="0.0100" height="0.0100" x="0.1135" y="-0.4690"/><rect width="0.0100" height="0.0100" x="0.1148" y="-0.4690"/><rect width="0.0100" height="0.0100" x="0.1162" y="-0.4690"/><rect width="0.0100" height="0.0100" x="0.1175" y="-0.4690"/><rect width="0.0100" height="0.0100" x="0.1188" y="-0.4690"/><rect width="0.0100" height="0.0100" x="0.1201" y="-0.4690"/><rect width="0.0100" height="0.0100" x="0.1215" y="-0.4690"/><rect width="0.0100" height="0.0100" x="0.1228" y="-0.4690"/><rect width="0.0100" height="0.0100" x="0.1241" y="-0.4690"/><rect width="0.0100" height="0.0100" x="0.1254" y="-0.4690"/><rect width="0.0100" height="0.0100" x="0.1268" y="-0.2759"/><rect width="0.0100" height="0.0100" x="0.1281" y="-0.2759"/><rect width="0.0100" height="0.0100" x="0.1294" y="-0.2759"/><rect width="0.0100" height="0.0100" x="0.1308" y="-0.0828"/><rect width="0.0100" height="0.0100" x="0.1321" y="-0.2759"/><rect width="0.0100" height="0.0100" x="0.1334" y="-0.2759"/><rect width="0.0100" height="0.0100" x="0.1347" y="-0.2759"/><rect width="0.0100" height="0.0100" x="0.1361" y="-0.4690"/><rect width="0.0100" height="0.0100" x="0.1374" y="-0.2759"/><rect width="0.0100" height="0.0100" x="0.1387" y="-0.4690"/><rect width="0.0100" height="0.0100" x="0.1400" y="-0.4690"/><rect width="0.0100" height="0.0100" x="0.1414" y="-0.2759"/><rect width="0.0100" height="0.0100" x="0.1427" y="-0.2759"/><rect width="0.0100" height="0.0100" x="0.1440" y="-0.2759"/><rect width="0.0100" height="0.0100" x="0.1453" y="-0.4690"/><rect width="0.0100" height="0.0100" x="0.1467" y="-0.4690"/><rect width="0.0100" height="0.0100" x="0.1480" y="-0.2759"/><rect width="0.0100" height="0.0100" x="0.1493" y="-0.2759"/><rect width="0.0100" height="0.0100" x="0.1507" y="-0.2759"/><rect width="0.0100" height="0.0100" x="0.1520" y="-0.4690"/><rect width="0.0100" height="0.0100" x="0.1533" y="-0.4690"/><rect width="0.0100" height="0.0100" x="0.1546" y="-0.4690"/><rect width="0.0100" height="0.0100" x="0.1560" y="-0.4690"/><rect width="0.0100" height="0.0100" x="0.1573" y="-0.4690"/><rect width="0.0100" height="0.0100" x="0.1586" y="-0.4690"/><rect width="0.0100" height="0.0100" x="0.1599" y="-0.4690"/><rect width="0.0100" height="0.0100" x="0.1613" y="-0.4690"/><rect width="0.0100" height="0.0100" x="0.1626" y="-0.4690"/><rect width="0.0100" height="0.0100" x="0.1639" y="-0.4690"/><rect width="0.0100" height="0.0100" x="0.1652" y="-0.4690"/><rect width="0.0100" height="0.0100" x="0.1666" y="-0.2759"/><rect width="0.0100" height="0.0100" x="0.1679" y="-0.4690"/><rect width="0.0100" height="0.0100" x="0.1692" y="-0.4690"/><rect width="0.0100" height="0.0100" x="0.1706" y="-0.4690"/><rect width="0.0100" height="0.0100" x="0.1719" y="-0.2759"/><rect width="0.0100" height="0.0100" x="0.1732" y="-0.2759"/><rect width="0.0100" height="0.0100" x="0.1745" y="-0.2759"/><rect width="0.0100" height="0.0100" x="0.1759" y="-0.2759"/><rect width="0.0100" height="0.0100" x="0.1772" y="-0.4690"/><rect width="0.0100" height="0.0100" x="0.1785" y="-0.0828"/><rect width="0.0100" height="0.0100" x="0.1798" y="-0.0828"/><rect width="0.0100" height="0.0100" x="0.1812" y="0.1103"/><rect width="0.0100" height="0.0100" x="0.1825" y="0.1103"/><rect width="0.0100" height="0.0100" x="0.1838" y="-0.0828"/><rect width="0.0100" height="0.0100" x="0.1851" y="-0.0828"/><rect width="0.0100" height="0.0100" x="0.1865" y="-0.0828"/><rect width="0.0100" height="0.0100" x="0.1878" y="-0.0828"/><rect width="0.0100" height="0.0100" x="0.1891" y="-0.0828"/><rect width="0.0100" height="0.0100" x="0.1905" y="-0.2759"/><rect width="0.0100" height="0.0100" x="0.1918" y="-0.4690"/><rect width="0.0100" height="0.0100" x="0.1931" y="-0.4690"/><rect width="0.0100" height="0.0100" x="0.1944" y="-0.4690"/><rect width="0.0100" height="0.0100" x="0.1958" y="-0.4690"/><rect width="0.0100" height="0.0100" x="0.1971" y="-0.4690"/><rect width="0.0100" height="0.0100" x="0.1984" y="-0.4690"/><rect width="0.0100" height="0.0100" x="0.1997" y="-0.4690"/><rect width="0.0100" height="0.0100" x="0.2011" y="-0.4690"/><rect width="0.0100" height="0.0100" x="0.2024" y="-0.4690"/><rect width="0.0100" height="0.0100" x="0.2037" y="-0.4690"/><rect width="0.0100" height="0.0100" x="0.2051" y="-0.4690"/><rect width="0.0100" height="0.0100" x="0.2064" y="-0.4690"/><rect width="0.0100" height="0.0100" x="0.2077" y="-0.4690"/><rect width="0.0100" height="0.0100" x="0.2090" y="-0.4690"/><rect width="0.0100" height="0.0100" x="0.2104" y="-0.4690"/><rect width="0.0100" height="0.0100" x="0.2117" y="-0.4690"/><rect width="0.0100" height="0.0100" x="0.2130" y="-0.4690"/><rect width="0.0100" height="0.0100" x="0.2143" y="-0.4690"/><rect width="0.0100" height="0.0100" x="0.2157" y="-0.4690"/><rect width="0.0100" height="0.0100" x="0.2170" y="-0.4690"/><rect width="0.0100" height="0.0100" x="0.2183" y="-0.4690"/><rect width="0.0100" height="0.0100" x="0.2196" y="-0.4690"/><rect width="0.0100" height="0.0100" x="0.2210" y="-0.4690"/><rect width="0.0100" height="0.0100" x="0.2223" y="-0.2759"/><rect width="0.0100" height="0.0100" x="0.2236" y="-0.4690"/><rect width="0.0100" height="0.0100" x="0.2250" y="0.3034"/><rect width="0.0100" height="0.0100" x="0.2263" y="0.3034"/><rect width="0.0100" height="0.0100" x="0.2276" y="0.3034"/><rect width="0.0100" height="0.0100" x="0.2289" y="0.3034"/><rect width="0.0100" height="0.0100" x="0.2303" y="-0.4690"/><rect width="0.0100" height="0.0100" x="0.2316" y="-0.4690"/><rect width="0.0100" height="0.0100" x="0.2329" y="0.1103"/><rect width="0.0100" height="0.0100" x="0.2342" y="-0.4690"/><rect width="0.0100" height="0.0100" x="0.2356" y="-0.4690"/><rect width="0.0100" height="0.0100" x="0.2369" y="-0.4690"/><rect width="0.0100" height="0.0100" x="0.2382" y="-0.4690"/><rect width="0.0100" height="0.0100" x="0.2395" y="-0.2759"/><rect width="0.0100" height="0.0100" x="0.2409" y="-0.2759"/><rect width="0.0100" height="0.0100" x="0.2422" y="-0.4690"/><rect width="0.0100" height="0.0100" x="0.2435" y="-0.2759"/><rect width="0.0100" height="0.0100" x="0.2449" y="-0.4690"/><rect width="0.0100" height="0.0100" x="0.2462" y="-0.4690"/><rect width="0.0100" height="0.0100" x="0.2475" y="-0.4690"/><rect width="0.0100" height="0.0100" x="0.2488" y="-0.4690"/><rect width="0.0100" height="0.0100" x="0.2502" y="-0.4690"/><rect width="0.0100" height="0.0100" x="0.2515" y="-0.4690"/><rect width="0.0100" height="0.0100" x="0.2528" y="-0.2759"/><rect width="0.0100" height="0.0100" x="0.2541" y="-0.4690"/><rect width="0.0100" height="0.0100" x="0.2555" y="-0.4690"/><rect width="0.0100" height="0.0100" x="0.2568" y="-0.4690"/><rect width="0.0100" height="0.0100" x="0.2581" y="-0.4690"/><rect width="0.0100" height="0.0100" x="0.2594" y="-0.4690"/><rect width="0.0100" height="0.0100" x="0.2608" y="-0.4690"/><rect width="0.0100" height="0.0100" x="0.2621" y="-0.4690"/><rect width="0.0100" height="0.0100" x="0.2634" y="-0.2759"/><rect width="0.0100" height="0.0100" x="0.2648" y="-0.4690"/><rect width="0.0100" height="0.0100" x="0.2661" y="-0.4690"/><rect width="0.0100" height="0.0100" x="0.2674" y="-0.4690"/><rect width="0.0100" height="0.0100" x="0.2687" y="-0.4690"/><rect width="0.0100" height="0.0100" x="0.2701" y="-0.4690"/><rect width="0.0100" height="0.0100" x="0.2714" y="-0.4690"/><rect width="0.0100" height="0.0100" x="0.2727" y="-0.4690"/><rect width="0.0100" height="0.0100" x="0.2740" y="-0.4690"/><rect width="0.0100" height="0.0100" x="0.2754" y="-0.4690"/><rect width="0.0100" height="0.0100" x="0.2767" y="-0.4690"/><rect width="0.0100" height="0.0100" x="0.2780" y="-0.4690"/><rect width="0.0100" height="0.0100" x="0.2793" y="-0.4690"/><rect width="0.0100" height="0.0100" x="0.2807" y="-0.4690"/><rect width="0.0100" height="0.0100" x="0.2820" y="-0.4690"/><rect width="0.0100" height="0.0100" x="0.2833" y="-0.4690"/><rect width="0.0100" height="0.0100" x="0.2847" y="-0.4690"/><rect width="0.0100" height="0.0100" x="0.2860" y="-0.4690"/><rect width="0.0100" height="0.0100" x="0.2873" y="-0.4690"/><rect width="0.0100" height="0.0100" x="0.2886" y="-0.4690"/><rect width="0.0100" height="0.0100" x="0.2900" y="-0.4690"/><rect width="0.0100" height="0.0100" x="0.2913" y="-0.4690"/><rect width="0.0100" height="0.0100" x="0.2926" y="-0.4690"/><rect width="0.0100" height="0.0100" x="0.2939" y="-0.4690"/><rect width="0.0100" height="0.0100" x="0.2953" y="-0.4690"/><rect width="0.0100" height="0.0100" x="0.2966" y="-0.4690"/><rect width="0.0100" height="0.0100" x="0.2979" y="-0.4690"/><rect width="0.0100" height="0.0100" x="0.2992" y="-0.4690"/><rect width="0.0100" height="0.0100" x="0.3006" y="-0.2759"/><rect width="0.0100" height="0.0100" x="0.3019" y="-0.4690"/><rect width="0.0100" height="0.0100" x="0.3032" y="-0.4690"/><rect width="0.0100" height="0.0100" x="0.3046" y="-0.4690"/><rect width="0.0100" height="0.0100" x="0.3059" y="-0.4690"/><rect width="0.0100" height="0.0100" x="0.3072" y="-0.4690"/><rect width="0.0100" height="0.0100" x="0.3085" y="-0.4690"/><rect width="0.0100" height="0.0100" x="0.3099" y="-0.4690"/><rect width="0.0100" height="0.0100" x="0.3112" y="-0.4690"/><rect width="0.0100" height="0.0100" x="0.3125" y="-0.4690"/><rect width="0.0100" height="0.0100" x="0.3138" y="-0.4690"/><rect width="0.0100" height="0.0100" x="0.3152" y="-0.4690"/><rect width="0.0100" height="0.0100" x="0.3165" y="-0.4690"/><rect width="0.0100" height="0.0100" x="0.3178" y="-0.4690"/><rect width="0.0100" height="0.0100" x="0.3192" y="-0.4690"/><rect width="0.0100" height="0.0100" x="0.3205" y="-0.4690"/><rect width="0.0100" height="0.0100" x="0.3218" y="-0.4690"/><rect width="0.0100" height="0.0100" x="0.3231" y="-0.4690"/><rect width="0.0100" height="0.0100" x="0.3245" y="-0.4690"/><rect width="0.0100" height="0.0100" x="0.3258" y="-0.4690"/><rect width="0.0100" height="0.0100" x="0.3271" y="-0.4690"/><rect width="0.0100" height="0.0100" x="0.3284" y="-0.4690"/><rect width="0.0100" height="0.0100" x="0.3298" y="-0.4690"/><rect width="0.0100" height="0.0100" x="0.3311" y="-0.4690"/><rect width="0.0100" height="0.0100" x="0.3324" y="-0.4690"/><rect width="0.0100" height="0.0100" x="0.3337" y="-0.4690"/><rect width="0.0100" height="0.0100" x="0.3351" y="-0.4690"/><rect width="0.0100" height="0.0100" x="0.3364" y="-0.4690"/><rect width="0.0100" height="0.0100" x="0.3377" y="-0.4690"/><rect width="0.0100" height="0.0100" x="0.3391" y="-0.4690"/><rect width="0.0100" height="0.0100" x="0.3404" y="-0.4690"/><rect width="0.0100" height="0.0100" x="0.3417" y="-0.4690"/><rect width="0.0100" height="0.0100" x="0.3430" y="-0.2759"/><rect width="0.0100" height="0.0100" x="0.3444" y="-0.4690"/><rect width="0.0100" height="0.0100" x="0.3457" y="-0.4690"/><rect width="0.0100" height="0.0100" x="0.3470" y="-0.4690"/><rect width="0.0100" height="0.0100" x="0.3483" y="-0.4690"/><rect width="0.0100" height="0.0100" x="0.3497" y="-0.4690"/><rect width="0.0100" height="0.0100" x="0.3510" y="-0.4690"/><rect width="0.0100" height="0.0100" x="0.3523" y="-0.4690"/><rect width="0.0100" height="0.0100" x="0.3536" y="-0.2759"/><rect width="0.0100" height="0.0100" x="0.3550" y="-0.2759"/><rect width="0.0100" height="0.0100" x="0.3563" y="-0.2759"/><rect width="0.0100" height="0.0100" x="0.3576" y="-0.2759"/><rect width="0.0100" height="0.0100" x="0.3590" y="-0.2759"/><rect width="0.0100" height="0.0100" x="0.3603" y="-0.0828"/><rect width="0.0100" height="0.0100" x="0.3616" y="-0.2759"/><rect width="0.0100" height="0.0100" x="0.3629" y="-0.2759"/><rect width="0.0100" height="0.0100" x="0.3643" y="-0.2759"/><rect width="0.0100" height="0.0100" x="0.3656" y="-0.0828"/><rect width="0.0100" height="0.0100" x="0.3669" y="-0.0828"/><rect width="0.0100" height="0.0100" x="0.3682" y="-0.0828"/><rect width="0.0100" height="0.0100" x="0.3696" y="-0.0828"/><rect width="0.0100" height="0.0100" x="0.3709" y="-0.0828"/><rect width="0.0100" height="0.0100" x="0.3722" y="-0.2759"/><rect width="0.0100" height="0.0100" x="0.3735" y="-0.0828"/><rect width="0.0100" height="0.0100" x="0.3749" y="-0.2759"/><rect width="0.0100" height="0.0100" x="0.3762" y="-0.2759"/><rect width="0.0100" height="0.0100" x="0.3775" y="-0.2759"/><rect width="0.0100" height="0.0100" x="0.3789" y="-0.0828"/><rect width="0.0100" height="0.0100" x="0.3802" y="-0.0828"/><rect width="0.0100" height="0.0100" x="0.3815" y="-0.0828"/><rect width="0.0100" height="0.0100" x="0.3828" y="-0.0828"/><rect width="0.0100" height="0.0100" x="0.3842" y="-0.0828"/><rect width="0.0100" height="0.0100" x="0.3855" y="-0.0828"/><rect width="0.0100" height="0.0100" x="0.3868" y="-0.0828"/><rect width="0.0100" height="0.0100" x="0.3881" y="-0.0828"/><rect width="0.0100" height="0.0100" x="0.3895" y="-0.2759"/><rect width="0.0100" height="0.0100" x="0.3908" y="-0.0828"/><rect width="0.0100" height="0.0100" x="0.3921" y="-0.0828"/><rect width="0.0100" height="0.0100" x="0.3934" y="-0.2759"/><rect width="0.0100" height="0.0100" x="0.3948" y="-0.2759"/><rect width="0.0100" height="0.0100" x="0.3961" y="-0.2759"/><rect width="0.0100" height="0.0100" x="0.3974" y="-0.2759"/><rect width="0.0100" height="0.0100" x="0.3988" y="-0.0828"/><rect width="0.0100" height="0.0100" x="0.4001" y="-0.2759"/><rect width="0.0100" height="0.0100" x="0.4014" y="-0.2759"/><rect width="0.0100" height="0.0100" x="0.4027" y="-0.2759"/><rect width="0.0100" height="0.0100" x="0.4041" y="-0.0828"/><rect width="0.0100" height="0.0100" x="0.4054" y="-0.0828"/><rect width="0.0100" height="0.0100" x="0.4067" y="-0.0828"/><rect width="0.0100" height="0.0100" x="0.4080" y="-0.0828"/><rect width="0.0100" height="0.0100" x="0.4094" y="-0.0828"/><rect width="0.0100" height="0.0100" x="0.4107" y="-0.0828"/><rect width="0.0100" height="0.0100" x="0.4120" y="-0.0828"/><rect width="0.0100" height="0.0100" x="0.4134" y="0.1103"/><rect width="0.0100" height="0.0100" x="0.4147" y="0.1103"/><rect width="0.0100" height="0.0100" x="0.4160" y="0.1103"/><rect width="0.0100" height="0.0100" x="0.4173" y="0.1103"/><rect width="0.0100" height="0.0100" x="0.4187" y="0.1103"/><rect width="0.0100" height="0.0100" x="0.4200" y="0.1103"/><rect width="0.0100" height="0.0100" x="0.4213" y="0.1103"/><rect width="0.0100" height="0.0100" x="0.4226" y="0.1103"/><rect width="0.0100" height="0.0100" x="0.4240" y="0.3034"/><rect width="0.0100" height="0.0100" x="0.4253" y="0.3034"/><rect width="0.0100" height="0.0100" x="0.4266" y="0.1103"/><rect width="0.0100" height="0.0100" x="0.4279" y="0.3034"/><rect width="0.0100" height="0.0100" x="0.4293" y="0.3034"/><rect width="0.0100" height="0.0100" x="0.4306" y="0.3034"/><rect width="0.0100" height="0.0100" x="0.4319" y="0.3034"/><rect width="0.0100" height="0.0100" x="0.4333" y="0.3034"/><rect width="0.0100" height="0.0100" x="0.4346" y="0.3034"/><rect width="0.0100" height="0.0100" x="0.4359" y="0.3034"/><rect width="0.0100" height="0.0100" x="0.4372" y="0.3034"/><rect width="0.0100" height="0.0100" x="0.4386" y="0.3034"/><rect width="0.0100" height="0.0100" x="0.4399" y="0.3034"/><rect width="0.0100" height="0.0100" x="0.4412" y="-0.0828"/><rect width="0.0100" height="0.0100" x="0.4425" y="-0.0828"/><rect width="0.0100" height="0.0100" x="0.4439" y="0.1103"/><rect width="0.0100" height="0.0100" x="0.4452" y="-0.0828"/><rect width="0.0100" height="0.0100" x="0.4465" y="-0.0828"/><rect width="0.0100" height="0.0100" x="0.4478" y="-0.0828"/><rect width="0.0100" height="0.0100" x="0.4492" y="-0.0828"/><rect width="0.0100" height="0.0100" x="0.4505" y="-0.0828"/><rect width="0.0100" height="0.0100" x="0.4518" y="-0.0828"/><rect width="0.0100" height="0.0100" x="0.4532" y="-0.0828"/><rect width="0.0100" height="0.0100" x="0.4545" y="-0.0828"/><rect width="0.0100" height="0.0100" x="0.4558" y="-0.0828"/><rect width="0.0100" height="0.0100" x="0.4571" y="-0.0828"/><rect width="0.0100" height="0.0100" x="0.4585" y="-0.0828"/><rect width="0.0100" height="0.0100" x="0.4598" y="-0.0828"/><rect width="0.0100" height="0.0100" x="0.4611" y="0.1103"/><rect width="0.0100" height="0.0100" x="0.4624" y="0.1103"/><rect width="0.0100" height="0.0100" x="0.4638" y="-0.0828"/><rect width="0.0100" height="0.0100" x="0.4651" y="0.1103"/><rect width="0.0100" height="0.0100" x="0.4664" y="-0.0828"/><rect width="0.0100" height="0.0100" x="0.4677" y="-0.0828"/><rect width="0.0100" height="0.0100" x="0.4691" y="-0.0828"/><rect width="0.0100" height="0.0100" x="0.4704" y="-0.0828"/><rect width="0.0100" height="0.0100" x="0.4717" y="-0.0828"/><rect width="0.0100" height="0.0100" x="0.4731" y="0.1103"/><rect width="0.0100" height="0.0100" x="0.4744" y="0.3034"/><rect width="0.0100" height="0.0100" x="0.4757" y="0.1103"/><rect width="0.0100" height="0.0100" x="0.4770" y="0.3034"/><rect width="0.0100" height="0.0100" x="0.4784" y="0.1103"/><rect width="0.0100" height="0.0100" x="0.4797" y="0.3034"/><rect width="0.0100" height="0.0100" x="0.4810" y="0.1103"/><rect width="0.0100" height="0.0100" x="0.4823" y="0.1103"/><rect width="0.0100" height="0.0100" x="0.4837" y="0.3034"/><rect width="0.0100" height="0.0100" x="0.4850" y="0.1103"/><rect width="0.0100" height="0.0100" x="0.4863" y="0.3034"/><rect width="0.0100" height="0.0100" x="0.4876" y="0.1103"/><rect width="0.0100" height="0.0100" x="0.4890" y="0.1103"/><rect width="0.0100" height="0.0100" x="0.4903" y="0.3034"/><rect width="0.0100" height="0.0100" x="0.4916" y="0.3034"/><rect width="0.0100" height="0.0100" x="0.4930" y="0.3034"/><rect width="0.0100" height="0.0100" x="0.4943" y="0.1103"/><rect width="0.0100" height="0.0100" x="0.4956" y="0.1103"/><rect width="0.0100" height="0.0100" x="0.4969" y="0.1103"/><rect width="0.0100" height="0.0100" x="0.4983" y="0.1103"/><rect width="0.0100" height="0.0100" x="0.4996" y="0.3034"/><rect width="0.0100" height="0.0100" x="0.5009" y="-0.0828"/><rect width="0.0100" height="0.0100" x="0.5022" y="-0.2759"/><rect width="0.0100" height="0.0100" x="0.5036" y="0.1103"/><rect width="0.0100" height="0.0100" x="0.5049" y="-0.2759"/><rect width="0.0100" height="0.0100" x="0.5062" y="0.1103"/><rect width="0.0100" height="0.0100" x="0.5076" y="-0.2759"/><rect width="0.0100" height="0.0100" x="0.5089" y="-0.2759"/><rect width="0.0100" height="0.0100" x="0.5102" y="-0.2759"/><rect width="0.0100" height="0.0100" x="0.5115" y="-0.2759"/><rect width="0.0100" height="0.0100" x="0.5129" y="-0.4690"/><rect width="0.0100" height="0.0100" x="0.5142" y="-0.2759"/><rect width="0.0100" height="0.0100" x="0.5155" y="-0.2759"/><rect width="0.0100" height="0.0100" x="0.5168" y="-0.2759"/><rect width="0.0100" height="0.0100" x="0.5182" y="-0.2759"/><rect width="0.0100" height="0.0100" x="0.5195" y="-0.2759"/><rect width="0.0100" height="0.0100" x="0.5208" y="-0.4690"/><rect width="0.0100" height="0.0100" x="0.5221" y="-0.4690"/><rect width="0.0100" height="0.0100" x="0.5235" y="-0.4690"/><rect width="0.0100" height="0.0100" x="0.5248" y="-0.4690"/><rect width="0.0100" height="0.0100" x="0.5261" y="-0.4690"/><rect width="0.0100" height="0.0100" x="0.5275" y="-0.4690"/><rect width="0.0100" height="0.0100" x="0.5288" y="-0.4690"/><rect width="0.0100" height="0.0100" x="0.5301" y="-0.4690"/><rect width="0.0100" height="0.0100" x="0.5314" y="-0.2759"/><rect width="0.0100" height="0.0100" x="0.5328" y="-0.2759"/><rect width="0.0100" height="0.0100" x="0.5341" y="-0.2759"/><rect width="0.0100" height="0.0100" x="0.5354" y="-0.2759"/><rect width="0.0100" height="0.0100" x="0.5367" y="-0.2759"/><rect width="0.0100" height="0.0100" x="0.5381" y="-0.4690"/><rect width="0.0100" height="0.0100" x="0.5394" y="-0.4690"/><rect width="0.0100" height="0.0100" x="0.5407" y="-0.4690"/><rect width="0.0100" height="0.0100" x="0.5420" y="-0.4690"/><rect width="0.0100" height="0.0100" x="0.5434" y="-0.4690"/><rect width="0.0100" height="0.0100" x="0.5447" y="-0.4690"/><rect width="0.0100" height="0.0100" x="0.5460" y="-0.4690"/><rect width="0.0100" height="0.0100" x="0.5474" y="-0.4690"/><rect width="0.0100" height="0.0100" x="0.5487" y="-0.4690"/><rect width="0.0100" height="0.0100" x="0.5500" y="-0.4690"/><rect width="0.0100" height="0.0100" x="0.5513" y="-0.4690"/><rect width="0.0100" height="0.0100" x="0.5527" y="-0.4690"/><rect width="0.0100" height="0.0100" x="0.5540" y="-0.2759"/><rect width="0.0100" height="0.0100" x="0.5553" y="-0.0828"/><rect width="0.0100" height="0.0100" x="0.5566" y="-0.4690"/><rect width="0.0100" height="0.0100" x="0.5580" y="-0.4690"/><rect width="0.0100" height="0.0100" x="0.5593" y="-0.4690"/><rect width="0.0100" height="0.0100" x="0.5606" y="-0.2759"/><rect width="0.0100" height="0.0100" x="0.5619" y="-0.4690"/><rect width="0.0100" height="0.0100" x="0.5633" y="-0.4690"/><rect width="0.0100" height="0.0100" x="0.5646" y="-0.4690"/><rect width="0.0100" height="0.0100" x="0.5659" y="-0.4690"/><rect width="0.0100" height="0.0100" x="0.5673" y="-0.4690"/><rect width="0.0100" height="0.0100" x="0.5686" y="-0.2759"/><rect width="0.0100" height="0.0100" x="0.5699" y="-0.2759"/><rect width="0.0100" height="0.0100" x="0.5712" y="-0.4690"/><rect width="0.0100" height="0.0100" x="0.5726" y="-0.4690"/><rect width="0.0100" height="0.0100" x="0.5739" y="-0.4690"/><rect width="0.0100" height="0.0100" x="0.5752" y="-0.4690"/><rect width="0.0100" height="0.0100" x="0.5765" y="-0.4690"/><rect width="0.0100" height="0.0100" x="0.5779" y="-0.4690"/><rect width="0.0100" height="0.0100" x="0.5792" y="-0.4690"/><rect width="0.0100" height="0.0100" x="0.5805" y="-0.2759"/><rect width="0.0100" height="0.0100" x="0.5818" y="-0.2759"/><rect width="0.0100" height="0.0100" x="0.5832" y="-0.2759"/><rect width="0.0100" height="0.0100" x="0.5845" y="-0.2759"/><rect width="0.0100" height="0.0100" x="0.5858" y="-0.2759"/><rect width="0.0100" height="0.0100" x="0.5872" y="-0.2759"/><rect width="0.0100" height="0.0100" x="0.5885" y="-0.2759"/><rect width="0.0100" height="0.0100" x="0.5898" y="-0.2759"/><rect width="0.0100" height="0.0100" x="0.5911" y="-0.0828"/><rect width="0.0100" height="0.0100" x="0.5925" y="-0.0828"/><rect width="0.0100" height="0.0100" x="0.5938" y="-0.0828"/><rect width="0.0100" height="0.0100" x="0.5951" y="-0.0828"/><rect width="0.0100" height="0.0100" x="0.5964" y="0.1103"/><rect width="0.0100" height="0.0100" x="0.5978" y="0.1103"/><rect width="0.0100" height="0.0100" x="0.5991" y="0.1103"/><rect width="0.0100" height="0.0100" x="0.6004" y="-0.0828"/><rect width="0.0100" height="0.0100" x="0.6018" y="0.1103"/><rect width="0.0100" height="0.0100" x="0.6031" y="0.1103"/><rect width="0.0100" height="0.0100" x="0.6044" y="0.1103"/><rect width="0.0100" height="0.0100" x="0.6057" y="0.3034"/><rect width="0.0100" height="0.0100" x="0.6071" y="-0.0828"/><rect width="0.0100" height="0.0100" x="0.6084" y="0.1103"/><rect width="0.0100" height="0.0100" x="0.6097" y="0.1103"/><rect width="0.0100" height="0.0100" x="0.6110" y="-0.0828"/><rect width="0.0100" height="0.0100" x="0.6124" y="0.1103"/><rect width="0.0100" height="0.0100" x="0.6137" y="-0.0828"/><rect width="0.0100" height="0.0100" x="0.6150" y="-0.0828"/><rect width="0.0100" height="0.0100" x="0.6163" y="0.1103"/><rect width="0.0100" height="0.0100" x="0.6177" y="0.1103"/><rect width="0.0100" height="0.0100" x="0.6190" y="-0.0828"/><rect width="0.0100" height="0.0100" x="0.6203" y="-0.0828"/><rect width="0.0100" height="0.0100" x="0.6217" y="-0.0828"/><rect width="0.0100" height="0.0100" x="0.6230" y="0.1103"/><rect width="0.0100" height="0.0100" x="0.6243" y="-0.0828"/><rect width="0.0100" height="0.0100" x="0.6256" y="-0.0828"/><rect width="0.0100" height="0.0100" x="0.6270" y="-0.0828"/><rect width="0.0100" height="0.0100" x="0.6283" y="-0.0828"/><rect width="0.0100" height="0.0100" x="0.6296" y="-0.0828"/><rect width="0.0100" height="0.0100" x="0.6309" y="-0.0828"/><rect width="0.0100" height="0.0100" x="0.6323" y="-0.2759"/><rect width="0.0100" height="0.0100" x="0.6336" y="-0.4690"/><rect width="0.0100" height="0.0100" x="0.6349" y="-0.0828"/><rect width="0.0100" height="0.0100" x="0.6362" y="-0.0828"/><rect width="0.0100" height="0.0100" x="0.6376" y="0.1103"/><rect width="0.0100" height="0.0100" x="0.6389" y="0.1103"/><rect width="0.0100" height="0.0100" x="0.6402" y="0.1103"/><rect width="0.0100" height="0.0100" x="0.6416" y="-0.0828"/><rect width="0.0100" height="0.0100" x="0.6429" y="0.1103"/><rect width="0.0100" height="0.0100" x="0.6442" y="0.1103"/><rect width="0.0100" height="0.0100" x="0.6455" y="0.3034"/><rect width="0.0100" height="0.0100" x="0.6469" y="0.3034"/><rect width="0.0100" height="0.0100" x="0.6482" y="0.3034"/><rect width="0.0100" height="0.0100" x="0.6495" y="0.3034"/><rect width="0.0100" height="0.0100" x="0.6508" y="0.1103"/><rect width="0.0100" height="0.0100" x="0.6522" y="0.1103"/><rect width="0.0100" height="0.0100" x="0.6535" y="0.3034"/><rect width="0.0100" height="0.0100" x="0.6548" y="0.3034"/><rect width="0.0100" height="0.0100" x="0.6561" y="0.3034"/><rect width="0.0100" height="0.0100" x="0.6575" y="0.3034"/><rect width="0.0100" height="0.0100" x="0.6588" y="0.3034"/><rect width="0.0100" height="0.0100" x="0.6601" y="0.3034"/><rect width="0.0100" height="0.0100" x="0.6615" y="0.3034"/><rect width="0.0100" height="0.0100" x="0.6628" y="0.1103"/><rect width="0.0100" height="0.0100" x="0.6641" y="0.3034"/><rect width="0.0100" height="0.0100" x="0.6654" y="0.3034"/><rect width="0.0100" height="0.0100" x="0.6668" y="-0.0828"/><rect width="0.0100" height="0.0100" x="0.6681" y="-0.0828"/><rect width="0.0100" height="0.0100" x="0.6694" y="0.1103"/><rect width="0.0100" height="0.0100" x="0.6707" y="0.3034"/><rect width="0.0100" height="0.0100" x="0.6721" y="0.3034"/><rect width="0.0100" height="0.0100" x="0.6734" y="0.1103"/><rect width="0.0100" height="0.0100" x="0.6747" y="0.3034"/><rect width="0.0100" height="0.0100" x="0.6760" y="-0.4690"/><rect width="0.0100" height="0.0100" x="0.6774" y="-0.4690"/><rect width="0.0100" height="0.0100" x="0.6787" y="-0.4690"/><rect width="0.0100" height="0.0100" x="0.6800" y="-0.4690"/><rect width="0.0100" height="0.0100" x="0.6814" y="0.3034"/><rect width="0.0100" height="0.0100" x="0.6827" y="0.3034"/><rect width="0.0100" height="0.0100" x="0.6840" y="0.3034"/><rect width="0.0100" height="0.0100" x="0.6853" y="0.1103"/><rect width="0.0100" height="0.0100" x="0.6867" y="-0.4690"/><rect width="0.0100" height="0.0100" x="0.6880" y="-0.4690"/><rect width="0.0100" height="0.0100" x="0.6893" y="-0.4690"/><rect width="0.0100" height="0.0100" x="0.6906" y="-0.2759"/><rect width="0.0100" height="0.0100" x="0.6920" y="-0.4690"/><rect width="0.0100" height="0.0100" x="0.6933" y="-0.0828"/><rect width="0.0100" height="0.0100" x="0.6946" y="-0.0828"/><rect width="0.0100" height="0.0100" x="0.6960" y="-0.0828"/><rect width="0.0100" height="0.0100" x="0.6973" y="-0.2759"/><rect width="0.0100" height="0.0100" x="0.6986" y="-0.2759"/><rect width="0.0100" height="0.0100" x="0.6999" y="-0.2759"/><rect width="0.0100" height="0.0100" x="0.7013" y="-0.4690"/><rect width="0.0100" height="0.0100" x="0.7026" y="-0.2759"/><rect width="0.0100" height="0.0100" x="0.7039" y="-0.2759"/></g></g><g class="hud"><g class="frame"><g stroke-width="0" stroke="rgb(0%, 0%, 0%)" stroke-opacity="0" fill="rgb(100%, 100%, 100%)" fill-opacity="0.02"><rect width="1.3369" height="0.7824" x="-0.6223" y="-0.4690"/></g></g><g class="axis"><g class="axisbar"><g stroke-width="0" stroke="rgb(0%, 0%, 0%)" stroke-opacity="0" fill="rgb(5%, 5%, 5%)" fill-opacity="0.4"><rect width="1.3290" height="0.0031" x="-0.6183" y="0.3161"/></g></g><g class="ticks"><g class="ticklines"><g stroke-width="0.0050" stroke="rgb(5%, 5%, 5%)" stroke-opacity="0.05" fill="none"><polyline points="-0.6047,0.3084 -0.6047,-0.4640"/><polyline points="-0.4372,0.3084 -0.4372,-0.4640"/><polyline points="-0.2724,0.3084 -0.2724,-0.4640"/><polyline points="-0.1049,0.3084 -0.1049,-0.4640"/><polyline points="0.0608,0.3084 0.0608,-0.4640"/><polyline points="0.2283,0.3084 0.2283,-0.4640"/><polyline points="0.3930,0.3084 0.3930,-0.4640"/><polyline points="0.5605,0.3084 0.5605,-0.4640"/></g></g><g class="tickglyph"><g stroke-width="0.0031" stroke="rgb(5%, 5%, 5%)" stroke-opacity="0.4" fill="rgb(5%, 5%, 5%)" fill-opacity="0.4"><polyline points="-0.6047,0.3409
-0.6047,0.3177"/><polyline points="-0.4372,0.3409
-0.4372,0.3177"/><polyline points="-0.2724,0.3409
-0.2724,0.3177"/><polyline points="-0.1049,0.3409
-0.1049,0.3177"/><polyline points="0.0608,0.3409
0.0608,0.3177"/><polyline points="0.2283,0.3409
0.2283,0.3177"/><polyline points="0.3930,0.3409
0.3930,0.3177"/><polyline points="0.5605,0.3409
0.5605,0.3177"/></g></g><g class="ticktext"><g stroke-width="0.0" stroke="none" fill="rgb(5%, 5%, 5%)" fill-opacity="1.0" font-size="0.0400" text-anchor="end"><text x="-0.6047" y="0.3835" transform="rotate(-45.0, -0.6047, 0.3835)">Jun 22</text><text x="-0.4372" y="0.3835" transform="rotate(-45.0, -0.4372, 0.3835)">Dec 22</text><text x="-0.2724" y="0.3835" transform="rotate(-45.0, -0.2724, 0.3835)">Jun 23</text><text x="-0.1049" y="0.3835" transform="rotate(-45.0, -0.1049, 0.3835)">Dec 23</text><text x="0.0608" y="0.3835" transform="rotate(-45.0, 0.0608, 0.3835)">Jun 24</text><text x="0.2283" y="0.3835" transform="rotate(-45.0, 0.2283, 0.3835)">Dec 24</text><text x="0.3930" y="0.3835" transform="rotate(-45.0, 0.3930, 0.3835)">Jun 25</text><text x="0.5605" y="0.3835" transform="rotate(-45.0, 0.5605, 0.3835)">Dec 25</text></g></g></g></g><g class="frame"><g stroke-width="0" stroke="rgb(0%, 0%, 0%)" stroke-opacity="0" fill="rgb(0%, 0%, 0%)" fill-opacity="0"><rect width="1.5000" height="1.0" x="-0.75" y="-0.5"/></g></g></g></svg>