<svg height="300" viewBox="-0.75 -0.5 1.5 1.0" width="450" xmlns="http://www.w3.org/2000/svg" xmlns:xlink="http://www.w3.org/1999/xlink"><style>svg {
  color-scheme: light dark;
}
{
  .canvas g, .title g, .axisbar g, .ticktext g, .tickglyph g, .ticklines g, .legendContent g text {
    fill: rgb(5%, 5%, 5%);
  }
  .ticklines g, .tickglyph g, .legendBorder g {
    stroke: rgb(5%, 5%, 5%);
  }
  .legendBorder g {
    fill: rgb(94%, 94%, 94%);
  }
}
@media (prefers-color-scheme:dark) {
  .canvas g, .title g, .axisbar g, .ticktext g, .tickglyph g, .ticklines g, .legendContent g text {
    fill: rgb(94%, 94%, 94%);
  }
  .ticklines g, .tickglyph g, .legendBorder g {
    stroke: rgb(94%, 94%, 94%);
  }
  .legendBorder g {
    fill: rgb(5%, 5%, 5%);
  }
}</style><g class="chart"><g fill="rgb(0%, 0%, 100%)" fill-opacity="1.0" stroke="rgb(2%, 29%, 48%)" stroke-opacity="1.0" stroke-width="0.0030"><circle cx="-0.6150" cy="-0.1017" r="0.0050"/><circle cx="-0.6136" cy="0.2627" r="0.0050"/><circle cx="-0.6123" cy="0.2627" r="0.0050"/><circle cx="-0.6110" cy="0.0805" r="0.0050"/><circle cx="-0.6097" cy="0.0805" r="0.0050"/><circle cx="-0.6083" cy="0.0805" r="0.0050"/><circle cx="-0.6070" cy="0.0805" r="0.0050"/><circle cx="-0.6057" cy="-0.1017" r="0.0050"/><circle cx="-0.6044" cy="-0.1017" r="0.0050"/><circle cx="-0.6030" cy="0.0805" r="0.0050"/><circle cx="-0.6017" cy="-0.2839" r="0.0050"/><circle cx="-0.6004" cy="0.0805" r="0.0050"/><circle cx="-0.5991" cy="0.0805" r="0.0050"/><circle cx="-0.5977" cy="0.0805" r="0.0050"/><circle cx="-0.5964" cy="0.0805" r="0.0050"/><circle cx="-0.5951" cy="-0.1017" r="0.0050"/><circle cx="-0.5938" cy="-0.1017" r="0.0050"/><circle cx="-0.5924" cy="-0.1017" r="0.0050"/><circle cx="-0.5911" cy="-0.1017" r="0.0050"/><circle cx="-0.5898" cy="-0.1017" r="0.0050"/><circle cx="-0.5885" cy="-0.1017" r="0.0050"/><circle cx="-0.5871" cy="-0.1017" r="0.0050"/><circle cx="-0.5858" cy="-0.2839" r="0.0050"/><circle cx="-0.5845" cy="-0.1017" r="0.0050"/><circle cx="-0.5832" cy="-0.2839" r="0.0050"/><circle cx="-0.5818" cy="-0.1017" r="0.0050"/><circle cx="-0.5805" cy="-0.1017" r="0.0050"/><circle cx="-0.5792" cy="-0.1017" r="0.0050"/><circle cx="-0.5779" cy="-0.1017" r="0.0050"/><circle cx="-0.5765" cy="-0.1017" r="0.0050"/><circle cx="-0.5752" cy="-0.2839" r="0.0050"/><circle cx="-0.5739" cy="-0.2839" r="0.0050"/><circle cx="-0.5726" cy="-0.2839" r="0.0050"/><circle cx="-0.5712" cy="-0.4661" r="0.0050"/><circle cx="-0.5699" cy="-0.2839" r="0.0050"/><circle cx="-0.5686" cy="-0.2839" r="0.0050"/><circle cx="-0.5673" cy="-0.2839" r="0.0050"/><circle cx="-0.5659" cy="-0.2839" r="0.0050"/><circle cx="-0.5646" cy="-0.2839" r="0.0050"/><circle cx="-0.5633" cy="-0.4661" r="0.0050"/><circle cx="-0.5620" cy="-0.4661" r="0.0050"/><circle cx="-0.5606" cy="-0.4661" r="0.0050"/><circle cx="-0.5593" cy="-0.4661" r="0.0050"/><circle cx="-0.5580" cy="-0.4661" r="0.0050"/><circle cx="-0.5566" cy="-0.4661" r="0.0050"/><circle cx="-0.5553" cy="-0.4661" r="0.0050"/><circle cx="-0.5540" cy="-0.4661" r="0.0050"/><circle cx="-0.5527" cy="-0.4661" r="0.0050"/><circle cx="-0.5513" cy="-0.4661" r="0.0050"/><circle cx="-0.5500" cy="-0.4661" r="0.0050"/><circle cx="-0.5487" cy="-0.4661" r="0.0050"/><circle cx="-0.5474" cy="-0.2839" r="0.0050"/><circle cx="-0.5460" cy="-0.4661" r="0.0050"/><circle cx="-0.5447" cy="-0.1017" r="0.0050"/><circle cx="-0.5434" cy="-0.2839" r="0.0050"/><circle cx="-0.5421" cy="-0.2839" r="0.0050"/><circle cx="-0.5407" cy="-0.4661" r="0.0050"/><circle cx="-0.5394" cy="-0.2839" r="0.0050"/><circle cx="-0.5381" cy="-0.2839" r="0.0050"/><circle cx="-0.5368" cy="-0.1017" r="0.0050"/><circle cx="-0.5354" cy="-0.1017" r="0.0050"/><circle cx="-0.5341" cy="-0.1017" r="0.0050"/><circle cx="-0.5328" cy="-0.1017" r="0.0050"/><circle cx="-0.5315" cy="-0.1017" r="0.0050"/><circle cx="-0.5301" cy="-0.1017" r="0.0050"/><circle cx="-0.5288" cy="-0.2839" r="0.0050"/><circle cx="-0.5275" cy="-0.1017" r="0.0050"/><circle cx="-0.5262" cy="-0.1017" r="0.0050"/><circle cx="-0.5248" cy="0.0805" r="0.0050"/><circle cx="-0.5235" cy="-0.1017" r="0.0050"/><circle cx="-0.5222" cy="-0.1017" r="0.0050"/><circle cx="-0.5209" cy="-0.2839" r="0.0050"/><circle cx="-0.5195" cy="-0.1017" r="0.0050"/><circle cx="-0.5182" cy="-0.1017" r="0.0050"/><circle cx="-0.5169" cy="-0.1017" r="0.0050"/><circle cx="-0.5156" cy="-0.4661" r="0.0050"/><circle cx="-0.5142" cy="-0.2839" r="0.0050"/><circle cx="-0.5129" cy="-0.4661" r="0.0050"/><circle cx="-0.5116" cy="-0.4661" r="0.0050"/><circle cx="-0.5103" cy="-0.2839" r="0.0050"/><circle cx="-0.5089" cy="-0.2839" r="0.0050"/><circle cx="-0.5076" cy="-0.2839" r="0.0050"/><circle cx="-0.5063" cy="-0.2839" r="0.0050"/><circle cx="-0.5050" cy="-0.2839" r="0.0050"/><circle cx="-0.5036" cy="-0.2839" r="0.0050"/><circle cx="-0.5023" cy="-0.4661" r="0.0050"/><circle cx="-0.5010" cy="-0.4661" r="0.0050"/><circle cx="-0.4997" cy="-0.4661" r="0.0050"/><circle cx="-0.4983" cy="-0.4661" r="0.0050"/><circle cx="-0.4970" cy="-0.4661" r="0.0050"/><circle cx="-0.4957" cy="-0.4661" r="0.0050"/><circle cx="-0.4944" cy="-0.4661" r="0.0050"/><circle cx="-0.4930" cy="-0.2839" r="0.0050"/><circle cx="-0.4917" cy="-0.4661" r="0.0050"/><circle cx="-0.4904" cy="-0.2839" r="0.0050"/><circle cx="-0.4891" cy="-0.4661" r="0.0050"/><circle cx="-0.4877" cy="-0.4661" r="0.0050"/><circle cx="-0.4864" cy="-0.4661" r="0.0050"/><circle cx="-0.4851" cy="-0.4661" r="0.0050"/><circle cx="-0.4838" cy="-0.4661" r="0.0050"/><circle cx="-0.4824" cy="-0.4661" r="0.0050"/><circle cx="-0.4811" cy="-0.4661" r="0.0050"/><circle cx="-0.4798" cy="-0.4661" r="0.0050"/><circle cx="-0.4785" cy="-0.4661" r="0.0050"/><circle cx="-0.4771" cy="-0.4661" r="0.0050"/><circle cx="-0.4758" cy="-0.4661" r="0.0050"/><circle cx="-0.4745" cy="-0.4661" r="0.0050"/><circle cx="-0.4732" cy="-0.4661" r="0.0050"/><circle cx="-0.4718" cy="-0.4661" r="0.0050"/><circle cx="-0.4705" cy="-0.4661" r="0.0050"/><circle cx="-0.4692" cy="-0.4661" r="0.0050"/><circle cx="-0.4679" cy="-0.4661" r="0.0050"/><circle cx="-0.4665" cy="-0.2839" r="0.0050"/><circle cx="-0.4652" cy="0.0805" r="0.0050"/><circle cx="-0.4639" cy="-0.1017" r="0.0050"/><circle cx="-0.4626" cy="-0.1017" r="0.0050"/><circle cx="-0.4612" cy="0.0805" r="0.0050"/><circle cx="-0.4599" cy="0.0805" r="0.0050"/><circle cx="-0.4586" cy="0.0805" r="0.0050"/><circle cx="-0.4573" cy="0.0805" r="0.0050"/><circle cx="-0.4559" cy="0.0805" r="0.0050"/><circle cx="-0.4546" cy="0.0805" r="0.0050"/><circle cx="-0.4533" cy="0.0805" r="0.0050"/><circle cx="-0.4520" cy="0.0805" r="0.0050"/><circle cx="-0.4506" cy="0.0805" r="0.0050"/><circle cx="-0.4493" cy="0.0805" r="0.0050"/><circle cx="-0.4480" cy="0.2627" r="0.0050"/><circle cx="-0.4467" cy="0.2627" r="0.0050"/><circle cx="-0.4453" cy="0.0805" r="0.0050"/><circle cx="-0.4440" cy="0.0805" r="0.0050"/><circle cx="-0.4427" cy="0.0805" r="0.0050"/><circle cx="-0.4414" cy="0.0805" r="0.0050"/><circle cx="-0.4400" cy="0.2627" r="0.0050"/><circle cx="-0.4387" cy="0.2627" r="0.0050"/><circle cx="-0.4374" cy="0.2627" r="0.0050"/><circle cx="-0.4361" cy="0.2627" r="0.0050"/><circle cx="-0.4347" cy="0.2627" r="0.0050"/><circle cx="-0.4334" cy="0.2627" r="0.0050"/><circle cx="-0.4321" cy="0.2627" r="0.0050"/><circle cx="-0.4308" cy="0.2627" r="0.0050"/><circle cx="-0.4294" cy="0.2627" r="0.0050"/><circle cx="-0.4281" cy="0.2627" r="0.0050"/><circle cx="-0.4268" cy="0.2627" r="0.0050"/><circle cx="-0.4255" cy="-0.1017" r="0.0050"/><circle cx="-0.4241" cy="0.0805" r="0.0050"/><circle cx="-0.4228" cy="0.0805" r="0.0050"/><circle cx="-0.4215" cy="-0.2839" r="0.0050"/><circle cx="-0.4201" cy="-0.1017" r="0.0050"/><circle cx="-0.4188" cy="0.2627" r="0.0050"/><circle cx="-0.4175" cy="0.2627" r="0.0050"/><circle cx="-0.4162" cy="0.0805" r="0.0050"/><circle cx="-0.4148" cy="0.2627" r="0.0050"/><circle cx="-0.4135" cy="0.0805" r="0.0050"/><circle cx="-0.4122" cy="0.2627" r="0.0050"/><circle cx="-0.4109" cy="0.0805" r="0.0050"/><circle cx="-0.4095" cy="0.0805" r="0.0050"/><circle cx="-0.4082" cy="0.0805" r="0.0050"/><circle cx="-0.4069" cy="0.0805" r="0.0050"/><circle cx="-0.4056" cy="0.0805" r="0.0050"/><circle cx="-0.4042" cy="0.0805" r="0.0050"/><circle cx="-0.4029" cy="-0.1017" r="0.0050"/><circle cx="-0.4016" cy="0.0805" r="0.0050"/><circle cx="-0.4003" cy="0.0805" r="0.0050"/><circle cx="-0.3989" cy="0.0805" r="0.0050"/><circle cx="-0.3976" cy="0.0805" r="0.0050"/><circle cx="-0.3963" cy="0.0805" r="0.0050"/><circle cx="-0.3950" cy="0.0805" r="0.0050"/><circle cx="-0.3936" cy="0.0805" r="0.0050"/><circle cx="-0.3923" cy="0.0805" r="0.0050"/><circle cx="-0.3910" cy="0.0805" r="0.0050"/><circle cx="-0.3897" cy="-0.1017" r="0.0050"/><circle cx="-0.3883" cy="0.0805" r="0.0050"/><circle cx="-0.3870" cy="-0.1017" r="0.0050"/><circle cx="-0.3857" cy="0.0805" r="0.0050"/><circle cx="-0.3844" cy="0.0805" r="0.0050"/><circle cx="-0.3830" cy="-0.1017" r="0.0050"/><circle cx="-0.3817" cy="0.0805" r="0.0050"/><circle cx="-0.3804" cy="-0.1017" r="0.0050"/><circle cx="-0.3791" cy="-0.1017" r="0.0050"/><circle cx="-0.3777" cy="-0.1017" r="0.0050"/><circle cx="-0.3764" cy="0.0805" r="0.0050"/><circle cx="-0.3751" cy="0.0805" r="0.0050"/><circle cx="-0.3738" cy="0.2627" r="0.0050"/><circle cx="-0.3724" cy="0.2627" r="0.0050"/><circle cx="-0.3711" cy="0.2627" r="0.0050"/><circle cx="-0.3698" cy="0.2627" r="0.0050"/><circle cx="-0.3685" cy="0.0805" r="0.0050"/><circle cx="-0.3671" cy="0.0805" r="0.0050"/><circle cx="-0.3658" cy="0.2627" r="0.0050"/><circle cx="-0.3645" cy="0.0805" r="0.0050"/><circle cx="-0.3632" cy="0.0805" r="0.0050"/><circle cx="-0.3618" cy="0.0805" r="0.0050"/><circle cx="-0.3605" cy="0.2627" r="0.0050"/><circle cx="-0.3592" cy="0.2627" r="0.0050"/><circle cx="-0.3579" cy="0.0805" r="0.0050"/><circle cx="-0.3565" cy="0.2627" r="0.0050"/><circle cx="-0.3552" cy="0.0805" r="0.0050"/><circle cx="-0.3539" cy="0.0805" r="0.0050"/><circle cx="-0.3526" cy="0.0805" r="0.0050"/><circle cx="-0.3512" cy="0.0805" r="0.0050"/><circle cx="-0.3499" cy="0.0805" r="0.0050"/><circle cx="-0.3486" cy="0.0805" r="0.0050"/><circle cx="-0.3473" cy="0.0805" r="0.0050"/><circle cx="-0.3459" cy="-0.1017" r="0.0050"/><circle cx="-0.3446" cy="0.0805" r="0.0050"/><circle cx="-0.3433" cy="0.2627" r="0.0050"/><circle cx="-0.3420" cy="0.0805" r="0.0050"/><circle cx="-0.3406" cy="0.0805" r="0.0050"/><circle cx="-0.3393" cy="-0.1017" r="0.0050"/><circle cx="-0.3380" cy="-0.1017" r="0.0050"/><circle cx="-0.3367" cy="-0.1017" r="0.0050"/><circle cx="-0.3353" cy="0.0805" r="0.0050"/><circle cx="-0.3340" cy="-0.1017" r="0.0050"/><circle cx="-0.3327" cy="-0.1017" r="0.0050"/><circle cx="-0.3314" cy="-0.1017" r="0.0050"/><circle cx="-0.3300" cy="0.0805" r="0.0050"/><circle cx="-0.3287" cy="0.0805" r="0.0050"/><circle cx="-0.3274" cy="0.0805" r="0.0050"/><circle cx="-0.3261" cy="0.0805" r="0.0050"/><circle cx="-0.3247" cy="0.0805" r="0.0050"/><circle cx="-0.3234" cy="0.0805" r="0.0050"/><circle cx="-0.3221" cy="0.0805" r="0.0050"/><circle cx="-0.3208" cy="-0.1017" r="0.0050"/><circle cx="-0.3194" cy="-0.1017" r="0.0050"/><circle cx="-0.3181" cy="-0.1017" r="0.0050"/><circle cx="-0.3168" cy="-0.1017" r="0.0050"/><circle cx="-0.3155" cy="-0.1017" r="0.0050"/><circle cx="-0.3141" cy="-0.4661" r="0.0050"/><circle cx="-0.3128" cy="-0.4661" r="0.0050"/><circle cx="-0.3115" cy="-0.4661" r="0.0050"/><circle cx="-0.3102" cy="-0.4661" r="0.0050"/><circle cx="-0.3088" cy="-0.4661" r="0.0050"/><circle cx="-0.3075" cy="-0.4661" r="0.0050"/><circle cx="-0.3062" cy="-0.4661" r="0.0050"/><circle cx="-0.3049" cy="-0.4661" r="0.0050"/><circle cx="-0.3035" cy="-0.4661" r="0.0050"/><circle cx="-0.3022" cy="-0.4661" r="0.0050"/><circle cx="-0.3009" cy="-0.4661" r="0.0050"/><circle cx="-0.2996" cy="-0.4661" r="0.0050"/><circle cx="-0.2982" cy="-0.4661" r="0.0050"/><circle cx="-0.2969" cy="-0.4661" r="0.0050"/><circle cx="-0.2956" cy="-0.4661" r="0.0050"/><circle cx="-0.2943" cy="-0.4661" r="0.0050"/><circle cx="-0.2929" cy="-0.4661" r="0.0050"/><circle cx="-0.2916" cy="-0.4661" r="0.0050"/><circle cx="-0.2903" cy="-0.4661" r="0.0050"/><circle cx="-0.2890" cy="-0.4661" r="0.0050"/><circle cx="-0.2876" cy="-0.4661" r="0.0050"/><circle cx="-0.2863" cy="-0.4661" r="0.0050"/><circle cx="-0.2850" cy="-0.4661" r="0.0050"/><circle cx="-0.2836" cy="-0.4661" r="0.0050"/><circle cx="-0.2823" cy="-0.4661" r="0.0050"/><circle cx="-0.2810" cy="-0.4661" r="0.0050"/><circle cx="-0.2797" cy="-0.4661" r="0.0050"/><circle cx="-0.2783" cy="-0.4661" r="0.0050"/><circle cx="-0.2770" cy="-0.4661" r="0.0050"/><circle cx="-0.2757" cy="-0.4661" r="0.0050"/><circle cx="-0.2744" cy="-0.4661" r="0.0050"/><circle cx="-0.2730" cy="-0.4661" r="0.0050"/><circle cx="-0.2717" cy="-0.4661" r="0.0050"/><circle cx="-0.2704" cy="-0.4661" r="0.0050"/><circle cx="-0.2691" cy="-0.4661" r="0.0050"/><circle cx="-0.2677" cy="-0.4661" r="0.0050"/><circle cx="-0.2664" cy="-0.4661" r="0.0050"/><circle cx="-0.2651" cy="-0.4661" r="0.0050"/><circle cx="-0.2638" cy="-0.4661" r="0.0050"/><circle cx="-0.2624" cy="-0.4661" r="0.0050"/><circle cx="-0.2611" cy="-0.4661" r="0.0050"/><circle cx="-0.2598" cy="-0.4661" r="0.0050"/><circle cx="-0.2585" cy="-0.2839" r="0.0050"/><circle cx="-0.2571" cy="-0.1017" r="0.0050"/><circle cx="-0.2558" cy="-0.2839" r="0.0050"/><circle cx="-0.2545" cy="-0.1017" r="0.0050"/><circle cx="-0.2532" cy="-0.1017" r="0.0050"/><circle cx="-0.2518" cy="-0.1017" r="0.0050"/><circle cx="-0.2505" cy="-0.4661" r="0.0050"/><circle cx="-0.2492" cy="-0.4661" r="0.0050"/><circle cx="-0.2479" cy="-0.4661" r="0.0050"/><circle cx="-0.2465" cy="-0.2839" r="0.0050"/><circle cx="-0.2452" cy="-0.4661" r="0.0050"/><circle cx="-0.2439" cy="-0.4661" r="0.0050"/><circle cx="-0.2426" cy="-0.2839" r="0.0050"/><circle cx="-0.2412" cy="-0.2839" r="0.0050"/><circle cx="-0.2399" cy="-0.2839" r="0.0050"/><circle cx="-0.2386" cy="-0.4661" r="0.0050"/><circle cx="-0.2373" cy="-0.4661" r="0.0050"/><circle cx="-0.2359" cy="-0.4661" r="0.0050"/><circle cx="-0.2346" cy="-0.4661" r="0.0050"/><circle cx="-0.2333" cy="-0.2839" r="0.0050"/><circle cx="-0.2320" cy="-0.1017" r="0.0050"/><circle cx="-0.2306" cy="-0.2839" r="0.0050"/><circle cx="-0.2293" cy="-0.2839" r="0.0050"/><circle cx="-0.2280" cy="-0.4661" r="0.0050"/><circle cx="-0.2267" cy="-0.2839" r="0.0050"/><circle cx="-0.2253" cy="-0.2839" r="0.0050"/><circle cx="-0.2240" cy="-0.4661" r="0.0050"/><circle cx="-0.2227" cy="-0.4661" r="0.0050"/><circle cx="-0.2214" cy="-0.4661" r="0.0050"/><circle cx="-0.2200" cy="-0.4661" r="0.0050"/><circle cx="-0.2187" cy="-0.4661" r="0.0050"/><circle cx="-0.2174" cy="-0.4661" r="0.0050"/><circle cx="-0.2161" cy="-0.4661" r="0.0050"/><circle cx="-0.2147" cy="0.0805" r="0.0050"/><circle cx="-0.2134" cy="-0.4661" r="0.0050"/><circle cx="-0.2121" cy="0.2627" r="0.0050"/><circle cx="-0.2108" cy="0.2627" r="0.0050"/><circle cx="-0.2094" cy="0.2627" r="0.0050"/><circle cx="-0.2081" cy="-0.4661" r="0.0050"/><circle cx="-0.2068" cy="-0.4661" r="0.0050"/><circle cx="-0.2055" cy="0.0805" r="0.0050"/><circle cx="-0.2041" cy="-0.4661" r="0.0050"/><circle cx="-0.2028" cy="-0.4661" r="0.0050"/><circle cx="-0.2015" cy="-0.2839" r="0.0050"/><circle cx="-0.2002" cy="-0.4661" r="0.0050"/><circle cx="-0.1988" cy="-0.4661" r="0.0050"/><circle cx="-0.1975" cy="-0.4661" r="0.0050"/><circle cx="-0.1962" cy="-0.4661" r="0.0050"/><circle cx="-0.1949" cy="-0.4661" r="0.0050"/><circle cx="-0.1935" cy="-0.4661" r="0.0050"/><circle cx="-0.1922" cy="-0.4661" r="0.0050"/><circle cx="-0.1909" cy="-0.4661" r="0.0050"/><circle cx="-0.1896" cy="-0.4661" r="0.0050"/><circle cx="-0.1882" cy="-0.4661" r="0.0050"/><circle cx="-0.1869" cy="-0.4661" r="0.0050"/><circle cx="-0.1856" cy="-0.4661" r="0.0050"/><circle cx="-0.1843" cy="-0.4661" r="0.0050"/><circle cx="-0.1829" cy="-0.4661" r="0.0050"/><circle cx="-0.1816" cy="-0.4661" r="0.0050"/><circle cx="-0.1803" cy="-0.4661" r="0.0050"/><circle cx="-0.1790" cy="-0.4661" r="0.0050"/><circle cx="-0.1776" cy="-0.4661" r="0.0050"/><circle cx="-0.1763" cy="-0.4661" r="0.0050"/><circle cx="-0.1750" cy="-0.4661" r="0.0050"/><circle cx="-0.1737" cy="-0.4661" r="0.0050"/><circle cx="-0.1723" cy="-0.4661" r="0.0050"/><circle cx="-0.1710" cy="-0.4661" r="0.0050"/><circle cx="-0.1697" cy="-0.4661" r="0.0050"/><circle cx="-0.1684" cy="-0.4661" r="0.0050"/><circle cx="-0.1670" cy="-0.4661" r="0.0050"/><circle cx="-0.1657" cy="-0.4661" r="0.0050"/><circle cx="-0.1644" cy="-0.4661" r="0.0050"/><circle cx="-0.1631" cy="-0.4661" r="0.0050"/><circle cx="-0.1617" cy="-0.4661" r="0.0050"/><circle cx="-0.1604" cy="-0.4661" r="0.0050"/><circle cx="-0.1591" cy="-0.4661" r="0.0050"/><circle cx="-0.1578" cy="-0.4661" r="0.0050"/><circle cx="-0.1564" cy="-0.4661" r="0.0050"/><circle cx="-0.1551" cy="-0.4661" r="0.0050"/><circle cx="-0.1538" cy="-0.4661" r="0.0050"/><circle cx="-0.1525" cy="-0.4661" r="0.0050"/><circle cx="-0.1511" cy="-0.4661" r="0.0050"/><circle cx="-0.1498" cy="-0.4661" r="0.0050"/><circle cx="-0.1485" cy="-0.4661" r="0.0050"/><circle cx="-0.1471" cy="-0.4661" r="0.0050"/><circle cx="-0.1458" cy="-0.4661" r="0.0050"/><circle cx="-0.1445" cy="-0.4661" r="0.0050"/><circle cx="-0.1432" cy="-0.4661" r="0.0050"/><circle cx="-0.1418" cy="-0.4661" r="0.0050"/><circle cx="-0.1405" cy="-0.2839" r="0.0050"/><circle cx="-0.1392" cy="-0.2839" r="0.0050"/><circle cx="-0.1379" cy="-0.2839" r="0.0050"/><circle cx="-0.1365" cy="-0.2839" r="0.0050"/><circle cx="-0.1352" cy="-0.4661" r="0.0050"/><circle cx="-0.1339" cy="-0.4661" r="0.0050"/><circle cx="-0.1326" cy="-0.4661" r="0.0050"/><circle cx="-0.1312" cy="-0.4661" r="0.0050"/><circle cx="-0.1299" cy="-0.4661" r="0.0050"/><circle cx="-0.1286" cy="-0.4661" r="0.0050"/><circle cx="-0.1273" cy="-0.4661" r="0.0050"/><circle cx="-0.1259" cy="-0.4661" r="0.0050"/><circle cx="-0.1246" cy="-0.4661" r="0.0050"/><circle cx="-0.1233" cy="-0.4661" r="0.0050"/><circle cx="-0.1220" cy="-0.2839" r="0.0050"/><circle cx="-0.1206" cy="-0.4661" r="0.0050"/><circle cx="-0.1193" cy="-0.2839" r="0.0050"/><circle cx="-0.1180" cy="-0.2839" r="0.0050"/><circle cx="-0.1167" cy="-0.4661" r="0.0050"/><circle cx="-0.1153" cy="-0.4661" r="0.0050"/><circle cx="-0.1140" cy="-0.4661" r="0.0050"/><circle cx="-0.1127" cy="-0.4661" r="0.0050"/><circle cx="-0.1114" cy="-0.4661" r="0.0050"/><circle cx="-0.1100" cy="-0.4661" r="0.0050"/><circle cx="-0.1087" cy="-0.4661" r="0.0050"/><circle cx="-0.1074" cy="-0.4661" r="0.0050"/><circle cx="-0.1061" cy="-0.4661" r="0.0050"/><circle cx="-0.1047" cy="-0.4661" r="0.0050"/><circle cx="-0.1034" cy="-0.4661" r="0.0050"/><circle cx="-0.1021" cy="-0.4661" r="0.0050"/><circle cx="-0.1008" cy="-0.4661" r="0.0050"/><circle cx="-0.0994" cy="-0.2839" r="0.0050"/><circle cx="-0.0981" cy="-0.4661" r="0.0050"/><circle cx="-0.0968" cy="-0.4661" r="0.0050"/><circle cx="-0.0955" cy="-0.4661" r="0.0050"/><circle cx="-0.0941" cy="-0.4661" r="0.0050"/><circle cx="-0.0928" cy="-0.4661" r="0.0050"/><circle cx="-0.0915" cy="-0.4661" r="0.0050"/><circle cx="-0.0902" cy="-0.4661" r="0.0050"/><circle cx="-0.0888" cy="-0.2839" r="0.0050"/><circle cx="-0.0875" cy="-0.4661" r="0.0050"/><circle cx="-0.0862" cy="-0.4661" r="0.0050"/><circle cx="-0.0849" cy="-0.4661" r="0.0050"/><circle cx="-0.0835" cy="-0.4661" r="0.0050"/><circle cx="-0.0822" cy="-0.4661" r="0.0050"/><circle cx="-0.0809" cy="-0.4661" r="0.0050"/><circle cx="-0.0796" cy="-0.4661" r="0.0050"/><circle cx="-0.0782" cy="-0.4661" r="0.0050"/><circle cx="-0.0769" cy="-0.4661" r="0.0050"/><circle cx="-0.0756" cy="-0.2839" r="0.0050"/><circle cx="-0.0743" cy="-0.2839" r="0.0050"/><circle cx="-0.0729" cy="-0.2839" r="0.0050"/><circle cx="-0.0716" cy="-0.2839" r="0.0050"/><circle cx="-0.0703" cy="-0.4661" r="0.0050"/><circle cx="-0.0690" cy="-0.2839" r="0.0050"/><circle cx="-0.0676" cy="-0.2839" r="0.0050"/><circle cx="-0.0663" cy="-0.2839" r="0.0050"/><circle cx="-0.0650" cy="-0.4661" r="0.0050"/><circle cx="-0.0637" cy="-0.4661" r="0.0050"/><circle cx="-0.0623" cy="-0.2839" r="0.0050"/><circle cx="-0.0610" cy="-0.4661" r="0.0050"/><circle cx="-0.0597" cy="-0.4661" r="0.0050"/><circle cx="-0.0584" cy="-0.2839" r="0.0050"/><circle cx="-0.0570" cy="-0.2839" r="0.0050"/><circle cx="-0.0557" cy="-0.2839" r="0.0050"/><circle cx="-0.0544" cy="-0.1017" r="0.0050"/><circle cx="-0.0531" cy="-0.1017" r="0.0050"/><circle cx="-0.0517" cy="-0.1017" r="0.0050"/><circle cx="-0.0504" cy="-0.1017" r="0.0050"/><circle cx="-0.0491" cy="-0.1017" r="0.0050"/><circle cx="-0.0478" cy="-0.2839" r="0.0050"/><circle cx="-0.0464" cy="-0.2839" r="0.0050"/><circle cx="-0.0451" cy="-0.2839" r="0.0050"/><circle cx="-0.0438" cy="-0.2839" r="0.0050"/><circle cx="-0.0425" cy="-0.2839" r="0.0050"/><circle cx="-0.0411" cy="-0.2839" r="0.0050"/><circle cx="-0.0398" cy="-0.2839" r="0.0050"/><circle cx="-0.0385" cy="-0.2839" r="0.0050"/><circle cx="-0.0372" cy="-0.1017" r="0.0050"/><circle cx="-0.0358" cy="-0.1017" r="0.0050"/><circle cx="-0.0345" cy="-0.1017" r="0.0050"/><circle cx="-0.0332" cy="-0.1017" r="0.0050"/><circle cx="-0.0319" cy="-0.1017" r="0.0050"/><circle cx="-0.0305" cy="-0.1017" r="0.0050"/><circle cx="-0.0292" cy="-0.1017" r="0.0050"/><circle cx="-0.0279" cy="-0.1017" r="0.0050"/><circle cx="-0.0266" cy="-0.1017" r="0.0050"/><circle cx="-0.0252" cy="-0.1017" r="0.0050"/><circle cx="-0.0239" cy="-0.1017" r="0.0050"/><circle cx="-0.0226" cy="-0.1017" r="0.0050"/><circle cx="-0.0213" cy="-0.1017" r="0.0050"/><circle cx="-0.0199" cy="-0.2839" r="0.0050"/><circle cx="-0.0186" cy="-0.2839" r="0.0050"/><circle cx="-0.0173" cy="-0.1017" r="0.0050"/><circle cx="-0.0159" cy="-0.1017" r="0.0050"/><circle cx="-0.0146" cy="-0.1017" r="0.0050"/><circle cx="-0.0133" cy="-0.1017" r="0.0050"/><circle cx="-0.0120" cy="-0.1017" r="0.0050"/><circle cx="-0.0106" cy="-0.2839" r="0.0050"/><circle cx="-0.0093" cy="-0.1017" r="0.0050"/><circle cx="-0.0080" cy="-0.1017" r="0.0050"/><circle cx="-0.0067" cy="-0.1017" r="0.0050"/><circle cx="-0.0053" cy="0.2627" r="0.0050"/><circle cx="-0.0040" cy="0.2627" r="0.0050"/><circle cx="-0.0027" cy="0.0805" r="0.0050"/><circle cx="-0.0014" cy="0.2627" r="0.0050"/><circle cx="-0.0000" cy="0.0805" r="0.0050"/><circle cx="0.0013" cy="0.2627" r="0.0050"/><circle cx="0.0026" cy="0.2627" r="0.0050"/><circle cx="0.0039" cy="0.0805" r="0.0050"/><circle cx="0.0053" cy="-0.1017" r="0.0050"/><circle cx="0.0066" cy="-0.1017" r="0.0050"/><circle cx="0.0079" cy="-0.2839" r="0.0050"/><circle cx="0.0092" cy="-0.2839" r="0.0050"/><circle cx="0.0106" cy="0.0805" r="0.0050"/><circle cx="0.0119" cy="-0.1017" r="0.0050"/><circle cx="0.0132" cy="-0.1017" r="0.0050"/><circle cx="0.0145" cy="-0.1017" r="0.0050"/><circle cx="0.0159" cy="0.0805" r="0.0050"/><circle cx="0.0172" cy="0.0805" r="0.0050"/><circle cx="0.0185" cy="0.0805" r="0.0050"/><circle cx="0.0198" cy="0.0805" r="0.0050"/><circle cx="0.0212" cy="0.0805" r="0.0050"/><circle cx="0.0225" cy="0.0805" r="0.0050"/><circle cx="0.0238" cy="0.0805" r="0.0050"/><circle cx="0.0251" cy="0.0805" r="0.0050"/><circle cx="0.0265" cy="0.0805" r="0.0050"/><circle cx="0.0278" cy="0.0805" r="0.0050"/><circle cx="0.0291" cy="0.0805" r="0.0050"/><circle cx="0.0304" cy="0.0805" r="0.0050"/><circle cx="0.0318" cy="0.0805" r="0.0050"/><circle cx="0.0331" cy="0.0805" r="0.0050"/><circle cx="0.0344" cy="0.0805" r="0.0050"/><circle cx="0.0357" cy="0.0805" r="0.0050"/><circle cx="0.0371" cy="0.2627" r="0.0050"/><circle cx="0.0384" cy="0.2627" r="0.0050"/><circle cx="0.0397" cy="0.2627" r="0.0050"/><circle cx="0.0410" cy="0.0805" r="0.0050"/><circle cx="0.0424" cy="0.0805" r="0.0050"/><circle cx="0.0437" cy="0.0805" r="0.0050"/><circle cx="0.0450" cy="0.0805" r="0.0050"/><circle cx="0.0463" cy="0.0805" r="0.0050"/><circle cx="0.0477" cy="0.0805" r="0.0050"/><circle cx="0.0490" cy="0.0805" r="0.0050"/><circle cx="0.0503" cy="0.2627" r="0.0050"/><circle cx="0.0516" cy="0.2627" r="0.0050"/><circle cx="0.0530" cy="0.2627" r="0.0050"/><circle cx="0.0543" cy="0.2627" r="0.0050"/><circle cx="0.0556" cy="0.2627" r="0.0050"/><circle cx="0.0569" cy="0.2627" r="0.0050"/><circle cx="0.0583" cy="0.2627" r="0.0050"/><circle cx="0.0596" cy="0.2627" r="0.0050"/><circle cx="0.0609" cy="0.2627" r="0.0050"/><circle cx="0.0622" cy="0.2627" r="0.0050"/><circle cx="0.0636" cy="0.2627" r="0.0050"/><circle cx="0.0649" cy="0.2627" r="0.0050"/><circle cx="0.0662" cy="0.2627" r="0.0050"/><circle cx="0.0675" cy="0.2627" r="0.0050"/><circle cx="0.0689" cy="0.2627" r="0.0050"/><circle cx="0.0702" cy="0.2627" r="0.0050"/><circle cx="0.0715" cy="0.2627" r="0.0050"/><circle cx="0.0728" cy="0.2627" r="0.0050"/><circle cx="0.0742" cy="0.2627" r="0.0050"/><circle cx="0.0755" cy="0.2627" r="0.0050"/><circle cx="0.0768" cy="-0.1017" r="0.0050"/><circle cx="0.0781" cy="-0.1017" r="0.0050"/><circle cx="0.0795" cy="0.0805" r="0.0050"/><circle cx="0.0808" cy="0.0805" r="0.0050"/><circle cx="0.0821" cy="-0.1017" r="0.0050"/><circle cx="0.0834" cy="0.2627" r="0.0050"/><circle cx="0.0848" cy="0.2627" r="0.0050"/><circle cx="0.0861" cy="0.2627" r="0.0050"/><circle cx="0.0874" cy="0.2627" r="0.0050"/><circle cx="0.0887" cy="0.0805" r="0.0050"/><circle cx="0.0901" cy="0.0805" r="0.0050"/><circle cx="0.0914" cy="0.2627" r="0.0050"/><circle cx="0.0927" cy="0.2627" r="0.0050"/><circle cx="0.0940" cy="0.0805" r="0.0050"/><circle cx="0.0954" cy="-0.1017" r="0.0050"/><circle cx="0.0967" cy="-0.2839" r="0.0050"/><circle cx="0.0980" cy="-0.2839" r="0.0050"/><circle cx="0.0993" cy="-0.1017" r="0.0050"/><circle cx="0.1007" cy="-0.2839" r="0.0050"/><circle cx="0.1020" cy="0.2627" r="0.0050"/><circle cx="0.1033" cy="0.2627" r="0.0050"/><circle cx="0.1046" cy="0.2627" r="0.0050"/><circle cx="0.1060" cy="0.2627" r="0.0050"/><circle cx="0.1073" cy="0.2627" r="0.0050"/><circle cx="0.1086" cy="0.0805" r="0.0050"/><circle cx="0.1099" cy="0.2627" r="0.0050"/><circle cx="0.1113" cy="0.2627" r="0.0050"/><circle cx="0.1126" cy="0.2627" r="0.0050"/><circle cx="0.1139" cy="0.2627" r="0.0050"/><circle cx="0.1152" cy="0.2627" r="0.0050"/><circle cx="0.1166" cy="0.2627" r="0.0050"/><circle cx="0.1179" cy="0.2627" r="0.0050"/><circle cx="0.1192" cy="0.2627" r="0.0050"/><circle cx="0.1206" cy="0.0805" r="0.0050"/><circle cx="0.1219" cy="-0.1017" r="0.0050"/><circle cx="0.1232" cy="-0.1017" r="0.0050"/><circle cx="0.1245" cy="-0.1017" r="0.0050"/><circle cx="0.1259" cy="-0.1017" r="0.0050"/><circle cx="0.1272" cy="-0.1017" r="0.0050"/><circle cx="0.1285" cy="-0.1017" r="0.0050"/><circle cx="0.1298" cy="-0.1017" r="0.0050"/><circle cx="0.1312" cy="-0.1017" r="0.0050"/><circle cx="0.1325" cy="-0.1017" r="0.0050"/><circle cx="0.1338" cy="-0.1017" r="0.0050"/><circle cx="0.1351" cy="-0.1017" r="0.0050"/><circle cx="0.1365" cy="0.0805" r="0.0050"/><circle cx="0.1378" cy="0.2627" r="0.0050"/><circle cx="0.1391" cy="0.0805" r="0.0050"/><circle cx="0.1404" cy="0.0805" r="0.0050"/><circle cx="0.1418" cy="0.0805" r="0.0050"/><circle cx="0.1431" cy="0.0805" r="0.0050"/><circle cx="0.1444" cy="0.0805" r="0.0050"/><circle cx="0.1457" cy="0.0805" r="0.0050"/><circle cx="0.1471" cy="0.0805" r="0.0050"/><circle cx="0.1484" cy="0.0805" r="0.0050"/><circle cx="0.1497" cy="0.0805" r="0.0050"/><circle cx="0.1510" cy="0.0805" r="0.0050"/><circle cx="0.1524" cy="0.0805" r="0.0050"/><circle cx="0.1537" cy="-0.1017" r="0.0050"/><circle cx="0.1550" cy="0.0805" r="0.0050"/><circle cx="0.1563" cy="0.0805" r="0.0050"/><circle cx="0.1577" cy="0.0805" r="0.0050"/><circle cx="0.1590" cy="-0.1017" r="0.0050"/><circle cx="0.1603" cy="-0.1017" r="0.0050"/><circle cx="0.1616" cy="-0.1017" r="0.0050"/><circle cx="0.1630" cy="0.0805" r="0.0050"/><circle cx="0.1643" cy="-0.1017" r="0.0050"/><circle cx="0.1656" cy="-0.1017" r="0.0050"/><circle cx="0.1669" cy="-0.1017" r="0.0050"/><circle cx="0.1683" cy="-0.1017" r="0.0050"/><circle cx="0.1696" cy="-0.1017" r="0.0050"/><circle cx="0.1709" cy="-0.1017" r="0.0050"/><circle cx="0.1722" cy="-0.1017" r="0.0050"/><circle cx="0.1736" cy="-0.1017" r="0.0050"/><circle cx="0.1749" cy="0.2627" r="0.0050"/><circle cx="0.1762" cy="0.2627" r="0.0050"/><circle cx="0.1775" cy="-0.1017" r="0.0050"/><circle cx="0.1789" cy="0.0805" r="0.0050"/><circle cx="0.1802" cy="-0.1017" r="0.0050"/><circle cx="0.1815" cy="-0.1017" r="0.0050"/><circle cx="0.1828" cy="-0.1017" r="0.0050"/><circle cx="0.1842" cy="-0.1017" r="0.0050"/><circle cx="0.1855" cy="-0.1017" r="0.0050"/><circle cx="0.1868" cy="0.0805" r="0.0050"/><circle cx="0.1881" cy="-0.1017" r="0.0050"/><circle cx="0.1895" cy="-0.1017" r="0.0050"/><circle cx="0.1908" cy="-0.1017" r="0.0050"/><circle cx="0.1921" cy="-0.1017" r="0.0050"/><circle cx="0.1934" cy="-0.1017" r="0.0050"/><circle cx="0.1948" cy="0.0805" r="0.0050"/><circle cx="0.1961" cy="-0.1017" r="0.0050"/><circle cx="0.1974" cy="-0.1017" r="0.0050"/><circle cx="0.1987" cy="-0.1017" r="0.0050"/><circle cx="0.2001" cy="-0.1017" r="0.0050"/><circle cx="0.2014" cy="-0.1017" r="0.0050"/><circle cx="0.2027" cy="-0.1017" r="0.0050"/><circle cx="0.2040" cy="-0.1017" r="0.0050"/><circle cx="0.2054" cy="-0.1017" r="0.0050"/><circle cx="0.2067" cy="-0.1017" r="0.0050"/><circle cx="0.2080" cy="-0.1017" r="0.0050"/><circle cx="0.2093" cy="-0.1017" r="0.0050"/><circle cx="0.2107" cy="-0.2839" r="0.0050"/><circle cx="0.2120" cy="-0.2839" r="0.0050"/><circle cx="0.2133" cy="-0.2839" r="0.0050"/><circle cx="0.2146" cy="-0.2839" r="0.0050"/><circle cx="0.2160" cy="-0.2839" r="0.0050"/><circle cx="0.2173" cy="-0.2839" r="0.0050"/><circle cx="0.2186" cy="-0.2839" r="0.0050"/><circle cx="0.2199" cy="-0.2839" r="0.0050"/><circle cx="0.2213" cy="-0.2839" r="0.0050"/><circle cx="0.2226" cy="-0.2839" r="0.0050"/><circle cx="0.2239" cy="-0.2839" r="0.0050"/><circle cx="0.2252" cy="-0.2839" r="0.0050"/><circle cx="0.2266" cy="-0.2839" r="0.0050"/><circle cx="0.2279" cy="-0.2839" r="0.0050"/><circle cx="0.2292" cy="-0.2839" r="0.0050"/><circle cx="0.2305" cy="-0.2839" r="0.0050"/><circle cx="0.2319" cy="-0.2839" r="0.0050"/><circle cx="0.2332" cy="-0.2839" r="0.0050"/><circle cx="0.2345" cy="-0.2839" r="0.0050"/><circle cx="0.2358" cy="-0.2839" r="0.0050"/><circle cx="0.2372" cy="-0.2839" r="0.0050"/><circle cx="0.2385" cy="-0.2839" r="0.0050"/><circle cx="0.2398" cy="-0.2839" r="0.0050"/><circle cx="0.2411" cy="-0.2839" r="0.0050"/><circle cx="0.2425" cy="-0.2839" r="0.0050"/><circle cx="0.2438" cy="-0.2839" r="0.0050"/><circle cx="0.2451" cy="-0.2839" r="0.0050"/><circle cx="0.2464" cy="-0.1017" r="0.0050"/><circle cx="0.2478" cy="-0.2839" r="0.0050"/><circle cx="0.2491" cy="-0.1017" r="0.0050"/><circle cx="0.2504" cy="-0.1017" r="0.0050"/><circle cx="0.2517" cy="-0.1017" r="0.0050"/><circle cx="0.2531" cy="-0.2839" r="0.0050"/><circle cx="0.2544" cy="-0.2839" r="0.0050"/><circle cx="0.2557" cy="-0.1017" r="0.0050"/><circle cx="0.2571" cy="-0.1017" r="0.0050"/><circle cx="0.2584" cy="-0.1017" r="0.0050"/><circle cx="0.2597" cy="-0.1017" r="0.0050"/><circle cx="0.2610" cy="-0.2839" r="0.0050"/><circle cx="0.2624" cy="-0.1017" r="0.0050"/><circle cx="0.2637" cy="-0.1017" r="0.0050"/><circle cx="0.2650" cy="-0.1017" r="0.0050"/><circle cx="0.2663" cy="-0.1017" r="0.0050"/><circle cx="0.2677" cy="-0.2839" r="0.0050"/><circle cx="0.2690" cy="-0.1017" r="0.0050"/><circle cx="0.2703" cy="-0.1017" r="0.0050"/><circle cx="0.2716" cy="-0.2839" r="0.0050"/><circle cx="0.2730" cy="-0.2839" r="0.0050"/><circle cx="0.2743" cy="-0.2839" r="0.0050"/><circle cx="0.2756" cy="-0.2839" r="0.0050"/><circle cx="0.2769" cy="-0.2839" r="0.0050"/><circle cx="0.2783" cy="-0.2839" r="0.0050"/><circle cx="0.2796" cy="-0.2839" r="0.0050"/><circle cx="0.2809" cy="-0.2839" r="0.0050"/><circle cx="0.2822" cy="-0.2839" r="0.0050"/><circle cx="0.2836" cy="-0.2839" r="0.0050"/><circle cx="0.2849" cy="-0.2839" r="0.0050"/><circle cx="0.2862" cy="-0.2839" r="0.0050"/><circle cx="0.2875" cy="-0.2839" r="0.0050"/><circle cx="0.2889" cy="-0.2839" r="0.0050"/><circle cx="0.2902" cy="-0.2839" r="0.0050"/><circle cx="0.2915" cy="-0.2839" r="0.0050"/><circle cx="0.2928" cy="-0.2839" r="0.0050"/><circle cx="0.2942" cy="-0.2839" r="0.0050"/><circle cx="0.2955" cy="-0.2839" r="0.0050"/><circle cx="0.2968" cy="-0.2839" r="0.0050"/><circle cx="0.2981" cy="-0.2839" r="0.0050"/><circle cx="0.2995" cy="-0.2839" r="0.0050"/><circle cx="0.3008" cy="-0.2839" r="0.0050"/><circle cx="0.3021" cy="-0.2839" r="0.0050"/><circle cx="0.3034" cy="-0.2839" r="0.0050"/><circle cx="0.3048" cy="-0.2839" r="0.0050"/><circle cx="0.3061" cy="-0.2839" r="0.0050"/><circle cx="0.3074" cy="-0.1017" r="0.0050"/><circle cx="0.3087" cy="-0.1017" r="0.0050"/><circle cx="0.3101" cy="-0.2839" r="0.0050"/><circle cx="0.3114" cy="-0.2839" r="0.0050"/><circle cx="0.3127" cy="-0.2839" r="0.0050"/><circle cx="0.3140" cy="-0.2839" r="0.0050"/><circle cx="0.3154" cy="-0.2839" r="0.0050"/><circle cx="0.3167" cy="-0.2839" r="0.0050"/><circle cx="0.3180" cy="-0.2839" r="0.0050"/><circle cx="0.3193" cy="-0.4661" r="0.0050"/><circle cx="0.3207" cy="-0.4661" r="0.0050"/><circle cx="0.3220" cy="-0.4661" r="0.0050"/><circle cx="0.3233" cy="-0.4661" r="0.0050"/><circle cx="0.3246" cy="-0.4661" r="0.0050"/><circle cx="0.3260" cy="-0.4661" r="0.0050"/><circle cx="0.3273" cy="-0.2839" r="0.0050"/><circle cx="0.3286" cy="-0.4661" r="0.0050"/><circle cx="0.3299" cy="-0.4661" r="0.0050"/><circle cx="0.3313" cy="-0.4661" r="0.0050"/><circle cx="0.3326" cy="-0.2839" r="0.0050"/><circle cx="0.3339" cy="-0.2839" r="0.0050"/><circle cx="0.3352" cy="-0.2839" r="0.0050"/><circle cx="0.3366" cy="-0.4661" r="0.0050"/><circle cx="0.3379" cy="-0.4661" r="0.0050"/><circle cx="0.3392" cy="-0.4661" r="0.0050"/><circle cx="0.3405" cy="-0.4661" r="0.0050"/><circle cx="0.3419" cy="-0.2839" r="0.0050"/><circle cx="0.3432" cy="-0.2839" r="0.0050"/><circle cx="0.3445" cy="-0.2839" r="0.0050"/><circle cx="0.3458" cy="-0.2839" r="0.0050"/><circle cx="0.3472" cy="-0.4661" r="0.0050"/><circle cx="0.3485" cy="-0.4661" r="0.0050"/><circle cx="0.3498" cy="-0.2839" r="0.0050"/><circle cx="0.3511" cy="-0.2839" r="0.0050"/><circle cx="0.3525" cy="-0.2839" r="0.0050"/><circle cx="0.3538" cy="-0.2839" r="0.0050"/><circle cx="0.3551" cy="-0.2839" r="0.0050"/><circle cx="0.3564" cy="-0.2839" r="0.0050"/><circle cx="0.3578" cy="-0.2839" r="0.0050"/><circle cx="0.3591" cy="-0.2839" r="0.0050"/><circle cx="0.3604" cy="-0.2839" r="0.0050"/><circle cx="0.3617" cy="-0.2839" r="0.0050"/><circle cx="0.3631" cy="-0.2839" r="0.0050"/><circle cx="0.3644" cy="-0.1017" r="0.0050"/><circle cx="0.3657" cy="-0.2839" r="0.0050"/><circle cx="0.3670" cy="-0.1017" r="0.0050"/><circle cx="0.3684" cy="-0.1017" r="0.0050"/><circle cx="0.3697" cy="0.0805" r="0.0050"/><circle cx="0.3710" cy="0.0805" r="0.0050"/><circle cx="0.3723" cy="0.2627" r="0.0050"/><circle cx="0.3737" cy="0.2627" r="0.0050"/><circle cx="0.3750" cy="0.2627" r="0.0050"/><circle cx="0.3763" cy="0.0805" r="0.0050"/><circle cx="0.3776" cy="-0.1017" r="0.0050"/><circle cx="0.3790" cy="-0.2839" r="0.0050"/><circle cx="0.3803" cy="-0.1017" r="0.0050"/><circle cx="0.3816" cy="-0.2839" r="0.0050"/><circle cx="0.3829" cy="-0.1017" r="0.0050"/><circle cx="0.3843" cy="-0.1017" r="0.0050"/><circle cx="0.3856" cy="-0.1017" r="0.0050"/><circle cx="0.3869" cy="0.0805" r="0.0050"/><circle cx="0.3882" cy="-0.1017" r="0.0050"/><circle cx="0.3896" cy="-0.1017" r="0.0050"/><circle cx="0.3909" cy="-0.1017" r="0.0050"/><circle cx="0.3922" cy="-0.1017" r="0.0050"/><circle cx="0.3936" cy="-0.1017" r="0.0050"/><circle cx="0.3949" cy="-0.2839" r="0.0050"/><circle cx="0.3962" cy="-0.2839" r="0.0050"/><circle cx="0.3975" cy="-0.4661" r="0.0050"/><circle cx="0.3989" cy="-0.4661" r="0.0050"/><circle cx="0.4002" cy="-0.4661" r="0.0050"/><circle cx="0.4015" cy="-0.4661" r="0.0050"/><circle cx="0.4028" cy="-0.4661" r="0.0050"/><circle cx="0.4042" cy="0.2627" r="0.0050"/><circle cx="0.4055" cy="0.2627" r="0.0050"/><circle cx="0.4068" cy="0.2627" r="0.0050"/><circle cx="0.4081" cy="0.2627" r="0.0050"/><circle cx="0.4095" cy="0.2627" r="0.0050"/><circle cx="0.4108" cy="0.2627" r="0.0050"/><circle cx="0.4121" cy="0.2627" r="0.0050"/><circle cx="0.4134" cy="0.2627" r="0.0050"/><circle cx="0.4148" cy="0.2627" r="0.0050"/><circle cx="0.4161" cy="0.2627" r="0.0050"/><circle cx="0.4174" cy="0.2627" r="0.0050"/><circle cx="0.4187" cy="0.2627" r="0.0050"/><circle cx="0.4201" cy="0.2627" r="0.0050"/><circle cx="0.4214" cy="0.2627" r="0.0050"/><circle cx="0.4227" cy="0.2627" r="0.0050"/><circle cx="0.4240" cy="0.0805" r="0.0050"/><circle cx="0.4254" cy="0.0805" r="0.0050"/><circle cx="0.4267" cy="-0.1017" r="0.0050"/><circle cx="0.4280" cy="-0.1017" r="0.0050"/><circle cx="0.4293" cy="0.0805" r="0.0050"/><circle cx="0.4307" cy="0.2627" r="0.0050"/><circle cx="0.4320" cy="0.0805" r="0.0050"/><circle cx="0.4333" cy="-0.1017" r="0.0050"/><circle cx="0.4346" cy="-0.1017" r="0.0050"/><circle cx="0.4360" cy="0.0805" r="0.0050"/><circle cx="0.4373" cy="-0.2839" r="0.0050"/><circle cx="0.4386" cy="0.0805" r="0.0050"/><circle cx="0.4399" cy="0.0805" r="0.0050"/><circle cx="0.4413" cy="-0.4661" r="0.0050"/><circle cx="0.4426" cy="-0.4661" r="0.0050"/><circle cx="0.4439" cy="-0.4661" r="0.0050"/><circle cx="0.4452" cy="0.2627" r="0.0050"/><circle cx="0.4466" cy="0.2627" r="0.0050"/><circle cx="0.4479" cy="0.2627" r="0.0050"/><circle cx="0.4492" cy="0.2627" r="0.0050"/><circle cx="0.4505" cy="0.0805" r="0.0050"/><circle cx="0.4519" cy="0.2627" r="0.0050"/><circle cx="0.4532" cy="0.2627" r="0.0050"/><circle cx="0.4545" cy="0.0805" r="0.0050"/><circle cx="0.4558" cy="-0.4661" r="0.0050"/><circle cx="0.4572" cy="-0.4661" r="0.0050"/><circle cx="0.4585" cy="0.2627" r="0.0050"/><circle cx="0.4598" cy="-0.4661" r="0.0050"/><circle cx="0.4611" cy="-0.4661" r="0.0050"/><circle cx="0.4625" cy="-0.1017" r="0.0050"/><circle cx="0.4638" cy="0.2627" r="0.0050"/><circle cx="0.4651" cy="-0.1017" r="0.0050"/><circle cx="0.4664" cy="-0.1017" r="0.0050"/><circle cx="0.4678" cy="0.0805" r="0.0050"/><circle cx="0.4691" cy="0.2627" r="0.0050"/><circle cx="0.4704" cy="0.0805" r="0.0050"/><circle cx="0.4717" cy="0.2627" r="0.0050"/><circle cx="0.4731" cy="0.2627" r="0.0050"/><circle cx="0.4744" cy="0.0805" r="0.0050"/><circle cx="0.4757" cy="0.0805" r="0.0050"/><circle cx="0.4770" cy="-0.1017" r="0.0050"/><circle cx="0.4784" cy="0.2627" r="0.0050"/><circle cx="0.4797" cy="0.0805" r="0.0050"/><circle cx="0.4810" cy="0.0805" r="0.0050"/><circle cx="0.4823" cy="0.0805" r="0.0050"/><circle cx="0.4837" cy="0.0805" r="0.0050"/><circle cx="0.4850" cy="0.2627" r="0.0050"/><circle cx="0.4863" cy="0.0805" r="0.0050"/><circle cx="0.4876" cy="0.2627" r="0.0050"/><circle cx="0.4890" cy="0.2627" r="0.0050"/><circle cx="0.4903" cy="0.2627" r="0.0050"/><circle cx="0.4916" cy="0.2627" r="0.0050"/><circle cx="0.4929" cy="0.2627" r="0.0050"/><circle cx="0.4943" cy="0.2627" r="0.0050"/><circle cx="0.4956" cy="0.2627" r="0.0050"/><circle cx="0.4969" cy="0.2627" r="0.0050"/><circle cx="0.4982" cy="0.2627" r="0.0050"/><circle cx="0.4996" cy="0.2627" r="0.0050"/><circle cx="0.5009" cy="0.2627" r="0.0050"/><circle cx="0.5022" cy="0.2627" r="0.0050"/><circle cx="0.5035" cy="0.2627" r="0.0050"/><circle cx="0.5049" cy="0.2627" r="0.0050"/><circle cx="0.5062" cy="0.2627" r="0.0050"/><circle cx="0.5075" cy="0.2627" r="0.0050"/><circle cx="0.5088" cy="0.2627" r="0.0050"/><circle cx="0.5102" cy="0.2627" r="0.0050"/><circle cx="0.5115" cy="0.2627" r="0.0050"/><circle cx="0.5128" cy="0.2627" r="0.0050"/><circle cx="0.5141" cy="0.2627" r="0.0050"/><circle cx="0.5155" cy="0.2627" r="0.0050"/><circle cx="0.5168" cy="0.2627" r="0.0050"/><circle cx="0.5181" cy="0.2627" r="0.0050"/><circle cx="0.5194" cy="0.2627" r="0.0050"/><circle cx="0.5208" cy="0.2627" r="0.0050"/><circle cx="0.5221" cy="0.2627" r="0.0050"/><circle cx="0.5234" cy="0.2627" r="0.0050"/><circle cx="0.5247" cy="0.2627" r="0.0050"/><circle cx="0.5261" cy="0.2627" r="0.0050"/><circle cx="0.5274" cy="0.2627" r="0.0050"/><circle cx="0.5287" cy="0.2627" r="0.0050"/><circle cx="0.5301" cy="0.2627" r="0.0050"/><circle cx="0.5314" cy="0.2627" r="0.0050"/><circle cx="0.5327" cy="0.2627" r="0.0050"/><circle cx="0.5340" cy="0.2627" r="0.0050"/><circle cx="0.5354" cy="0.2627" r="0.0050"/><circle cx="0.5367" cy="0.2627" r="0.0050"/><circle cx="0.5380" cy="0.2627" r="0.0050"/><circle cx="0.5393" cy="0.2627" r="0.0050"/><circle cx="0.5407" cy="-0.1017" r="0.0050"/><circle cx="0.5420" cy="0.0805" r="0.0050"/><circle cx="0.5433" cy="0.0805" r="0.0050"/><circle cx="0.5446" cy="0.0805" r="0.0050"/><circle cx="0.5460" cy="0.0805" r="0.0050"/><circle cx="0.5473" cy="-0.4661" r="0.0050"/><circle cx="0.5486" cy="-0.4661" r="0.0050"/><circle cx="0.5499" cy="-0.4661" r="0.0050"/><circle cx="0.5513" cy="-0.4661" r="0.0050"/><circle cx="0.5526" cy="0.0805" r="0.0050"/><circle cx="0.5539" cy="0.2627" r="0.0050"/><circle cx="0.5552" cy="0.0805" r="0.0050"/><circle cx="0.5566" cy="0.0805" r="0.0050"/><circle cx="0.5579" cy="0.0805" r="0.0050"/><circle cx="0.5592" cy="0.0805" r="0.0050"/><circle cx="0.5605" cy="-0.1017" r="0.0050"/><circle cx="0.5619" cy="0.2627" r="0.0050"/><circle cx="0.5632" cy="0.2627" r="0.0050"/><circle cx="0.5645" cy="0.0805" r="0.0050"/><circle cx="0.5658" cy="0.2627" r="0.0050"/><circle cx="0.5672" cy="0.0805" r="0.0050"/><circle cx="0.5685" cy="0.0805" r="0.0050"/><circle cx="0.5698" cy="0.2627" r="0.0050"/><circle cx="0.5711" cy="0.0805" r="0.0050"/><circle cx="0.5725" cy="0.0805" r="0.0050"/><circle cx="0.5738" cy="0.2627" r="0.0050"/><circle cx="0.5751" cy="0.2627" r="0.0050"/><circle cx="0.5764" cy="0.2627" r="0.0050"/><circle cx="0.5778" cy="0.2627" r="0.0050"/><circle cx="0.5791" cy="0.2627" r="0.0050"/><circle cx="0.5804" cy="0.2627" r="0.0050"/><circle cx="0.5817" cy="0.2627" r="0.0050"/><circle cx="0.5831" cy="0.2627" r="0.0050"/><circle cx="0.5844" cy="0.2627" r="0.0050"/><circle cx="0.5857" cy="0.2627" r="0.0050"/><circle cx="0.5870" cy="0.2627" r="0.0050"/><circle cx="0.5884" cy="0.2627" r="0.0050"/><circle cx="0.5897" cy="0.2627" r="0.0050"/><circle cx="0.5910" cy="0.2627" r="0.0050"/><circle cx="0.5923" cy="0.2627" r="0.0050"/><circle cx="0.5937" cy="0.2627" r="0.0050"/><circle cx="0.5950" cy="0.2627" r="0.0050"/><circle cx="0.5963" cy="0.2627" r="0.0050"/><circle cx="0.5976" cy="0.2627" r="0.0050"/><circle cx="0.5990" cy="0.2627" r="0.0050"/><circle cx="0.6003" cy="0.2627" r="0.0050"/><circle cx="0.6016" cy="0.2627" r="0.0050"/><circle cx="0.6029" cy="0.2627" r="0.0050"/><circle cx="0.6043" cy="0.2627" r="0.0050"/><circle cx="0.6056" cy="0.2627" r="0.0050"/><circle cx="0.6069" cy="0.2627" r="0.0050"/><circle cx="0.6082" cy="0.2627" r="0.0050"/><circle cx="0.6096" cy="0.2627" r="0.0050"/><circle cx="0.6109" cy="0.2627" r="0.0050"/><circle cx="0.6122" cy="0.2627" r="0.0050"/><circle cx="0.6135" cy="0.2627" r="0.0050"/><circle cx="0.6149" cy="0.2627" r="0.0050"/><circle cx="0.6162" cy="0.2627" r="0.0050"/><circle cx="0.6175" cy="0.2627" r="0.0050"/><circle cx="0.6188" cy="0.2627" r="0.0050"/><circle cx="0.6202" cy="0.2627" r="0.0050"/><circle cx="0.6215" cy="0.2627" r="0.0050"/><circle cx="0.6228" cy="0.2627" r="0.0050"/><circle cx="0.6241" cy="0.2627" r="0.0050"/><circle cx="0.6255" cy="0.2627" r="0.0050"/><circle cx="0.6268" cy="0.2627" r="0.0050"/><circle cx="0.6281" cy="0.2627" r="0.0050"/><circle cx="0.6294" cy="0.0805" r="0.0050"/><circle cx="0.6308" cy="0.2627" r="0.0050"/><circle cx="0.6321" cy="0.2627" r="0.0050"/><circle cx="0.6334" cy="0.2627" r="0.0050"/><circle cx="0.6347" cy="0.2627" r="0.0050"/><circle cx="0.6361" cy="0.2627" r="0.0050"/><circle cx="0.6374" cy="0.2627" r="0.0050"/><circle cx="0.6387" cy="0.2627" r="0.0050"/><circle cx="0.6400" cy="0.2627" r="0.0050"/><circle cx="0.6414" cy="0.2627" r="0.0050"/><circle cx="0.6427" cy="0.2627" r="0.0050"/><circle cx="0.6440" cy="0.0805" r="0.0050"/><circle cx="0.6453" cy="0.2627" r="0.0050"/><circle cx="0.6467" cy="0.2627" r="0.0050"/><circle cx="0.6480" cy="0.2627" r="0.0050"/><circle cx="0.6493" cy="0.2627" r="0.0050"/><circle cx="0.6506" cy="0.2627" r="0.0050"/><circle cx="0.6520" cy="0.2627" r="0.0050"/><circle cx="0.6533" cy="0.2627" r="0.0050"/><circle cx="0.6546" cy="0.0805" r="0.0050"/><circle cx="0.6559" cy="0.0805" r="0.0050"/><circle cx="0.6573" cy="0.2627" r="0.0050"/><circle cx="0.6586" cy="0.2627" r="0.0050"/><circle cx="0.6599" cy="0.2627" r="0.0050"/><circle cx="0.6612" cy="0.2627" r="0.0050"/><circle cx="0.6626" cy="0.2627" r="0.0050"/><circle cx="0.6639" cy="0.2627" r="0.0050"/><circle cx="0.6652" cy="0.2627" r="0.0050"/><circle cx="0.6666" cy="0.2627" r="0.0050"/><circle cx="0.6679" cy="0.2627" r="0.0050"/><circle cx="0.6692" cy="0.2627" r="0.0050"/><circle cx="0.6705" cy="0.2627" r="0.0050"/><circle cx="0.6719" cy="0.2627" r="0.0050"/><circle cx="0.6732" cy="0.2627" r="0.0050"/><circle cx="0.6745" cy="0.2627" r="0.0050"/><circle cx="0.6758" cy="0.2627" r="0.0050"/><circle cx="0.6772" cy="0.2627" r="0.0050"/><circle cx="0.6785" cy="0.2627" r="0.0050"/><circle cx="0.6798" cy="0.2627" r="0.0050"/><circle cx="0.6811" cy="0.0805" r="0.0050"/><circle cx="0.6825" cy="0.0805" r="0.0050"/><circle cx="0.6838" cy="0.2627" r="0.0050"/><circle cx="0.6851" cy="0.0805" r="0.0050"/><circle cx="0.6864" cy="0.2627" r="0.0050"/><circle cx="0.6878" cy="0.0805" r="0.0050"/><circle cx="0.6891" cy="0.2627" r="0.0050"/><circle cx="0.6904" cy="0.2627" r="0.0050"/><circle cx="0.6917" cy="0.2627" r="0.0050"/><circle cx="0.6931" cy="0.2627" r="0.0050"/><circle cx="0.6944" cy="0.2627" r="0.0050"/><circle cx="0.6957" cy="0.2627" r="0.0050"/><circle cx="0.6970" cy="0.2627" r="0.0050"/><circle cx="0.6984" cy="0.2627" r="0.0050"/><circle cx="0.6997" cy="0.2627" r="0.0050"/><circle cx="0.7010" cy="0.2627" r="0.0050"/><circle cx="0.7023" cy="0.0805" r="0.0050"/><circle cx="0.7037" cy="0.0805" r="0.0050"/><circle cx="0.7050" cy="0.0805" r="0.0050"/><circle cx="0.7063" cy="0.2627" r="0.0050"/><circle cx="0.7076" cy="0.0805" r="0.0050"/><circle cx="0.7090" cy="0.2627" r="0.0050"/></g></g><g class="hud"><g class="frame"><g fill="rgb(100%, 100%, 100%)" fill-opacity="0.02" stroke="rgb(0%, 0%, 0%)" stroke-opacity="0" stroke-width="0"><rect height="0.7383" width="1.3354" x="-0.6207" y="-0.4708"/></g></g><g class="axis"><g class="ticks"><g class="tickglyph"><g fill="rgb(5%, 5%, 5%)" fill-opacity="0.4" stroke="rgb(5%, 5%, 5%)" stroke-opacity="0.4" stroke-width="0.0040"><g transform="rotate(-90.0, -0.6472, 0.1716)"><polyline points="-0.6472,0.1866
-0.6472,0.1566"/></g><g transform="rotate(-90.0, -0.6472, -0.0106)"><polyline points="-0.6472,0.0044
-0.6472,-0.0256"/></g><g transform="rotate(-90.0, -0.6472, -0.1928)"><polyline points="-0.6472,-0.1778
-0.6472,-0.2078"/></g><g transform="rotate(-90.0, -0.6472, -0.3750)"><polyline points="-0.6472,-0.3600
-0.6472,-0.3900"/></g></g></g><g class="ticktext"><g fill="rgb(5%, 5%, 5%)" fill-opacity="1.0" font-size="0.0265" stroke="none" stroke-width="0.0" text-anchor="end"><text x="-0.6789" y="0.1776">20%</text><text x="-0.6789" y="-0.0046">40%</text><text x="-0.6789" y="-0.1868">60%</text><text x="-0.6789" y="-0.3690">80%</text></g></g></g><g class="axisbar"><g fill="rgb(5%, 5%, 5%)" fill-opacity="0.4" stroke="rgb(0%, 0%, 0%)" stroke-opacity="0" stroke-width="0"><rect height="0.7317" width="0.0035" x="-0.6331" y="-0.4676"/></g></g></g><g class="axis"><g class="ticks"><g class="tickglyph"><g fill="rgb(5%, 5%, 5%)" fill-opacity="0.4" stroke="rgb(5%, 5%, 5%)" stroke-opacity="0.4" stroke-width="0.0040"><polyline points="-0.5299,0.3043
-0.5299,0.2743"/><polyline points="-0.3616,0.3043
-0.3616,0.2743"/><polyline points="-0.1952,0.3043
-0.1952,0.2743"/><polyline points="-0.0269,0.3043
-0.0269,0.2743"/><polyline points="0.1387,0.3043
0.1387,0.2743"/><polyline points="0.3069,0.3043
0.3069,0.2743"/><polyline points="0.4725,0.3043
0.4725,0.2743"/><polyline points="0.6408,0.3043
0.6408,0.2743"/></g></g><g class="ticktext"><g fill="rgb(5%, 5%, 5%)" fill-opacity="1.0" font-size="0.0441" stroke="none" stroke-width="0.0" text-anchor="end"><text transform="rotate(-45.0, -0.5299, 0.3356)" x="-0.5299" y="0.3356">30 Jun 2019</text><text transform="rotate(-45.0, -0.3616, 0.3356)" x="-0.3616" y="0.3356">31 Dec 2019</text><text transform="rotate(-45.0, -0.1952, 0.3356)" x="-0.1952" y="0.3356">30 Jun 2020</text><text transform="rotate(-45.0, -0.0269, 0.3356)" x="-0.0269" y="0.3356">31 Dec 2020</text><text transform="rotate(-45.0, 0.1387, 0.3356)" x="0.1387" y="0.3356">30 Jun 2021</text><text transform="rotate(-45.0, 0.3069, 0.3356)" x="0.3069" y="0.3356">31 Dec 2021</text><text transform="rotate(-45.0, 0.4725, 0.3356)" x="0.4725" y="0.3356">30 Jun 2022</text><text transform="rotate(-45.0, 0.6408, 0.3356)" x="0.6408" y="0.3356">31 Dec 2022</text></g></g><g class="ticklines"><g fill="none" stroke="rgb(5%, 5%, 5%)" stroke-opacity="0.05" stroke-width="0.0050"><polyline points="-0.5299,0.2627 -0.5299,-0.4661"/><polyline points="-0.3616,0.2627 -0.3616,-0.4661"/><polyline points="-0.1952,0.2627 -0.1952,-0.4661"/><polyline points="-0.0269,0.2627 -0.0269,-0.4661"/><polyline points="0.1387,0.2627 0.1387,-0.4661"/><polyline points="0.3069,0.2627 0.3069,-0.4661"/><polyline points="0.4725,0.2627 0.4725,-0.4661"/><polyline points="0.6408,0.2627 0.6408,-0.4661"/></g></g></g><g class="axisbar"><g fill="rgb(5%, 5%, 5%)" fill-opacity="0.4" stroke="rgb(0%, 0%, 0%)" stroke-opacity="0" stroke-width="0"><rect height="0.0029" width="1.3274" x="-0.6167" y="0.2747"/></g></g></g><g class="frame"><g fill="rgb(100%, 100%, 100%)" fill-opacity="0.02" stroke="rgb(0%, 0%, 0%)" stroke-opacity="0" stroke-width="0"><rect height="1.0" width="1.5" x="-0.75" y="-0.5"/></g></g></g></svg>