<svg xmlns="http://www.w3.org/2000/svg" xmlns:xlink="http://www.w3.org/1999/xlink" width="450" height="300" viewBox="-0.75 -0.5 1.5 1.0"><style>svg {color-scheme: light dark;} {.canvas g, .title g, .axisbar g, .ticktext g, .tickglyph g, .ticklines g, .legendContent g text {fill: rgb(5%, 5%, 5%);} .ticklines g, .tickglyph g, .legendBorder g {stroke: rgb(5%, 5%, 5%);} .legendBorder g {fill: rgb(94%, 94%, 94%);}} @media (prefers-color-scheme:dark) {.canvas g, .title g, .axisbar g, .ticktext g, .tickglyph g, .ticklines g, .legendContent g text {fill: rgb(94%, 94%, 94%);} .ticklines g, .tickglyph g, .legendBorder g {stroke: rgb(94%, 94%, 94%);} .legendBorder g {fill: rgb(5%, 5%, 5%);}}
svg { font-family: system-ui,-apple-system,"Segoe UI",Roboto,"Helvetica Neue",Arial,"Noto Sans","Liberation Sans",sans-serif,"Apple Color Emoji","Segoe UI Emoji","Segoe UI Symbol","Noto Color Emoji";
}

ticktext { font-family: SFMono-Regular,Menlo,Monaco,Consolas,"Liberation Mono","Courier New",monospace;}</style><g class="chart"><g class="histogram"><g stroke-width="0.0100" stroke="rgb(2%, 29%, 48%)" stroke-opacity="1.0" fill="rgb(2%, 73%, 80%)" fill-opacity="0.1"><rect width="0.0273" height="0.0004" x="-0.6969" y="0.3660"/><rect width="0.0273" height="0.0011" x="-0.6696" y="0.3652"/><rect width="0.0273" height="0.0008" x="-0.6422" y="0.3656"/><rect width="0.0273" height="0.0027" x="-0.6149" y="0.3637"/><rect width="0.0273" height="0.0238" x="-0.5876" y="0.3426"/><rect width="0.0273" height="0.4269" x="-0.5602" y="-0.0605"/><rect width="0.0273" height="0.8201" x="-0.5329" y="-0.4538"/><rect width="0.0273" height="0.4117" x="-0.5056" y="-0.0453"/><rect width="0.0273" height="0.1803" x="-0.4783" y="0.1860"/><rect width="0.0273" height="0.0807" x="-0.4509" y="0.2857"/><rect width="0.0273" height="0.0424" x="-0.4236" y="0.3239"/><rect width="0.0273" height="0.0196" x="-0.3963" y="0.3468"/><rect width="0.0273" height="0.0099" x="-0.3689" y="0.3565"/><rect width="0.0273" height="0.0059" x="-0.3416" y="0.3605"/><rect width="0.0273" height="0.0027" x="-0.3143" y="0.3637"/><rect width="0.0273" height="0.0021" x="-0.2870" y="0.3643"/><rect width="0.0273" height="0.0013" x="-0.2596" y="0.3650"/><rect width="0.0273" height="0.0011" x="-0.2323" y="0.3652"/><rect width="0.0273" height="0.0006" x="-0.2050" y="0.3658"/><rect width="0.0273" height="0.0010" x="-0.1776" y="0.3654"/><rect width="0.0273" height="0.0002" x="-0.1503" y="0.3662"/><rect width="0.0273" height="0.0006" x="-0.1230" y="0.3658"/><rect width="0.0273" height="0.0010" x="-0.0683" y="0.3654"/><rect width="0.0273" height="0.0002" x="-0.0410" y="0.3662"/><rect width="0.0273" height="0.0002" x="0.0137" y="0.3662"/><rect width="0.0273" height="0.0002" x="0.6696" y="0.3662"/></g></g></g><g class="hud"><g class="axis"><g class="axisbar"><g stroke-width="0" stroke="rgb(0%, 0%, 0%)" stroke-opacity="0" fill="rgb(5%, 5%, 5%)" fill-opacity="0.4"><rect width="1.3976" height="0.0034" x="-0.6988" y="0.3748"/></g></g><g class="ticks"><g class="tickglyph"><g stroke-width="0.0034" stroke="rgb(5%, 5%, 5%)" stroke-opacity="0.4" fill="rgb(5%, 5%, 5%)" fill-opacity="0.4"><polyline points="-0.5056,0.4017
-0.5056,0.3764"/><polyline points="-0.2323,0.4017
-0.2323,0.3764"/><polyline points="0.0410,0.4017
0.0410,0.3764"/><polyline points="0.3143,0.4017
0.3143,0.3764"/><polyline points="0.5876,0.4017
0.5876,0.3764"/></g></g><g class="ticktext"><g stroke-width="0.0" stroke="none" fill="rgb(5%, 5%, 5%)" fill-opacity="1.0" font-size="0.0400" text-anchor="middle"><text x="-0.5056" y="0.4479">0.00</text><text x="-0.2323" y="0.4479">0.05</text><text x="0.0410" y="0.4479">0.10</text><text x="0.3143" y="0.4479">0.15</text><text x="0.5876" y="0.4479">0.20</text></g></g></g></g><g class="frame"><g stroke-width="0" stroke="rgb(0%, 0%, 0%)" stroke-opacity="0" fill="rgb(100%, 100%, 100%)" fill-opacity="0.02"><rect width="1.5" height="1.0" x="-0.75" y="-0.5"/></g></g></g></svg>