<svg xmlns="http://www.w3.org/2000/svg" xmlns:xlink="http://www.w3.org/1999/xlink" width="450" height="300" viewBox="-0.75 -0.5 1.5 1.0"><style>svg {color-scheme: light dark;} {.canvas g, .title g, .axisbar g, .ticktext g, .tickglyph g, .ticklines g, .legendContent g text {fill: rgb(5%, 5%, 5%);} .ticklines g, .tickglyph g, .legendBorder g {stroke: rgb(5%, 5%, 5%);} .legendBorder g {fill: rgb(94%, 94%, 94%);}} @media (prefers-color-scheme:dark) {.canvas g, .title g, .axisbar g, .ticktext g, .tickglyph g, .ticklines g, .legendContent g text {fill: rgb(94%, 94%, 94%);} .ticklines g, .tickglyph g, .legendBorder g {stroke: rgb(94%, 94%, 94%);} .legendBorder g {fill: rgb(5%, 5%, 5%);}}
svg { font-family: system-ui,-apple-system,"Segoe UI",Roboto,"Helvetica Neue",Arial,"Noto Sans","Liberation Sans",sans-serif,"Apple Color Emoji","Segoe UI Emoji","Segoe UI Symbol","Noto Color Emoji";
}

ticktext { font-family: SFMono-Regular,Menlo,Monaco,Consolas,"Liberation Mono","Courier New",monospace;}</style><g class="chart"><g class="histogram"><g stroke-width="0.0100" stroke="rgb(2%, 29%, 48%)" stroke-opacity="1.0" fill="rgb(2%, 73%, 80%)" fill-opacity="0.1"><rect width="0.0499" height="0.0149" x="-0.6987" y="0.3444"/><rect width="0.0499" height="0.0149" x="-0.6488" y="0.3444"/><rect width="0.0499" height="0.0149" x="-0.5989" y="0.3444"/><rect width="0.0499" height="0.0149" x="-0.5490" y="0.3444"/><rect width="0.0499" height="0.0669" x="-0.4991" y="0.2924"/><rect width="0.0499" height="0.0372" x="-0.4491" y="0.3221"/><rect width="0.0499" height="0.0967" x="-0.3992" y="0.2626"/><rect width="0.0499" height="0.1190" x="-0.3493" y="0.2403"/><rect width="0.0499" height="0.1859" x="-0.2994" y="0.1734"/><rect width="0.0499" height="0.4016" x="-0.2495" y="-0.0423"/><rect width="0.0499" height="0.5131" x="-0.1996" y="-0.1539"/><rect width="0.0499" height="0.6098" x="-0.1497" y="-0.2505"/><rect width="0.0499" height="0.6098" x="-0.0998" y="-0.2505"/><rect width="0.0499" height="0.6247" x="-0.0499" y="-0.2654"/><rect width="0.0499" height="0.8106" x="0" y="-0.4513"/><rect width="0.0499" height="0.7511" x="0.0499" y="-0.3918"/><rect width="0.0499" height="0.5949" x="0.0998" y="-0.2357"/><rect width="0.0499" height="0.5578" x="0.1497" y="-0.1985"/><rect width="0.0499" height="0.4834" x="0.1996" y="-0.1241"/><rect width="0.0499" height="0.3495" x="0.2495" y="0.0098"/><rect width="0.0499" height="0.2231" x="0.2994" y="0.1362"/><rect width="0.0499" height="0.1413" x="0.3493" y="0.2180"/><rect width="0.0499" height="0.0967" x="0.3992" y="0.2626"/><rect width="0.0499" height="0.0446" x="0.4491" y="0.3147"/><rect width="0.0499" height="0.0372" x="0.4991" y="0.3221"/><rect width="0.0499" height="0.0149" x="0.5490" y="0.3444"/><rect width="0.0499" height="0.0074" x="0.6488" y="0.3519"/></g></g></g><g class="hud"><g class="axis"><g class="axisbar"><g stroke-width="0" stroke="rgb(0%, 0%, 0%)" stroke-opacity="0" fill="rgb(5%, 5%, 5%)" fill-opacity="0.4"><rect width="1.4011" height="0.0035" x="-0.7005" y="0.3681"/></g></g><g class="ticks"><g class="tickglyph"><g stroke-width="0.0035" stroke="rgb(5%, 5%, 5%)" stroke-opacity="0.4" fill="rgb(5%, 5%, 5%)" fill-opacity="0.4"><polyline points="-0.6488,0.3965
-0.6488,0.3699"/><polyline points="-0.3992,0.3965
-0.3992,0.3699"/><polyline points="-0.1497,0.3965
-0.1497,0.3699"/><polyline points="0.0998,0.3965
0.0998,0.3699"/><polyline points="0.3493,0.3965
0.3493,0.3699"/><polyline points="0.5989,0.3965
0.5989,0.3699"/></g></g><g class="ticktext"><g stroke-width="0.0" stroke="none" fill="rgb(5%, 5%, 5%)" fill-opacity="1.0" font-size="0.0400" text-anchor="middle"><text x="-0.6488" y="0.4451">0</text><text x="-0.3992" y="0.4451">1</text><text x="-0.1497" y="0.4451">2</text><text x="0.0998" y="0.4451">3</text><text x="0.3493" y="0.4451">4</text><text x="0.5989" y="0.4451">5</text></g></g></g></g><g class="frame"><g stroke-width="0" stroke="rgb(0%, 0%, 0%)" stroke-opacity="0" fill="rgb(100%, 100%, 100%)" fill-opacity="0.02"><rect width="1.5" height="1.0" x="-0.75" y="-0.5"/></g></g></g></svg>