<svg xmlns="http://www.w3.org/2000/svg" xmlns:xlink="http://www.w3.org/1999/xlink" width="449" height="300" viewBox="-0.75 -0.5 1.5000 1.0"><style>svg {color-scheme: light dark;} {.canvas g, .title g, .axisbar g, .ticktext g, .tickglyph g, .ticklines g, .legendContent g text {fill: rgb(5%, 5%, 5%);} .ticklines g, .tickglyph g, .legendBorder g {stroke: rgb(5%, 5%, 5%);} .legendBorder g {fill: rgb(94%, 94%, 94%);}} @media (prefers-color-scheme:dark) {.canvas g, .title g, .axisbar g, .ticktext g, .tickglyph g, .ticklines g, .legendContent g text {fill: rgb(94%, 94%, 94%);} .ticklines g, .tickglyph g, .legendBorder g {stroke: rgb(94%, 94%, 94%);} .legendBorder g {fill: rgb(5%, 5%, 5%);}}
svg { font-family: system-ui,-apple-system,"Segoe UI",Roboto,"Helvetica Neue",Arial,"Noto Sans","Liberation Sans",sans-serif,"Apple Color Emoji","Segoe UI Emoji","Segoe UI Symbol","Noto Color Emoji";
}

ticktext { font-family: SFMono-Regular,Menlo,Monaco,Consolas,"Liberation Mono","Courier New",monospace;}</style><g class="chart"><g class="histogram"><g stroke-width="0.0100" stroke="rgb(2%, 29%, 48%)" stroke-opacity="1.0" fill="rgb(2%, 73%, 80%)" fill-opacity="0.1"><rect width="0.0357" height="0.0220" x="-0.6924" y="0.3326"/><rect width="0.0357" height="0.0110" x="-0.6567" y="0.3436"/><rect width="0.0357" height="0.0110" x="-0.6211" y="0.3436"/><rect width="0.0357" height="0.0220" x="-0.5854" y="0.3326"/><rect width="0.0357" height="0.0331" x="-0.5497" y="0.3215"/><rect width="0.0357" height="0.0771" x="-0.5140" y="0.2775"/><rect width="0.0357" height="0.0551" x="-0.4784" y="0.2995"/><rect width="0.0357" height="0.0992" x="-0.4427" y="0.2554"/><rect width="0.0357" height="0.1542" x="-0.4070" y="0.2003"/><rect width="0.0357" height="0.2424" x="-0.3713" y="0.1122"/><rect width="0.0357" height="0.3085" x="-0.3357" y="0.0461"/><rect width="0.0357" height="0.3636" x="-0.3000" y="-0.0090"/><rect width="0.0357" height="0.3636" x="-0.2643" y="-0.0090"/><rect width="0.0357" height="0.4517" x="-0.2286" y="-0.0971"/><rect width="0.0357" height="0.6060" x="-0.1930" y="-0.2514"/><rect width="0.0357" height="0.7823" x="-0.1573" y="-0.4277"/><rect width="0.0357" height="0.6170" x="-0.1216" y="-0.2624"/><rect width="0.0357" height="0.6170" x="-0.0859" y="-0.2624"/><rect width="0.0357" height="0.7051" x="-0.0503" y="-0.3505"/><rect width="0.0357" height="0.8043" x="-0.0146" y="-0.4497"/><rect width="0.0357" height="0.7051" x="0.0211" y="-0.3505"/><rect width="0.0357" height="0.7051" x="0.0568" y="-0.3505"/><rect width="0.0357" height="0.5509" x="0.0924" y="-0.1963"/><rect width="0.0357" height="0.5068" x="0.1281" y="-0.1522"/><rect width="0.0357" height="0.4187" x="0.1638" y="-0.0641"/><rect width="0.0357" height="0.3856" x="0.1995" y="-0.0310"/><rect width="0.0357" height="0.3856" x="0.2351" y="-0.0310"/><rect width="0.0357" height="0.1983" x="0.2708" y="0.1563"/><rect width="0.0357" height="0.2534" x="0.3065" y="0.1012"/><rect width="0.0357" height="0.1542" x="0.3422" y="0.2003"/><rect width="0.0357" height="0.1212" x="0.3778" y="0.2334"/><rect width="0.0357" height="0.1102" x="0.4135" y="0.2444"/><rect width="0.0357" height="0.0551" x="0.4492" y="0.2995"/><rect width="0.0357" height="0.0661" x="0.4849" y="0.2885"/><rect width="0.0357" height="0.0220" x="0.5205" y="0.3326"/><rect width="0.0357" height="0.0110" x="0.5919" y="0.3436"/><rect width="0.0357" height="0.0220" x="0.6632" y="0.3326"/></g></g></g><g class="hud"><g class="axis"><g class="axisbar"><g stroke-width="0" stroke="rgb(0%, 0%, 0%)" stroke-opacity="0" fill="rgb(5%, 5%, 5%)" fill-opacity="0.4"><rect width="1.3951" height="0.0037" x="-0.6943" y="0.3637"/></g></g><g class="ticks"><g class="tickglyph"><g stroke-width="0.0037" stroke="rgb(5%, 5%, 5%)" stroke-opacity="0.4" fill="rgb(5%, 5%, 5%)" fill-opacity="0.4"><polyline points="-0.6924,0.3930
-0.6924,0.3656"/><polyline points="-0.3357,0.3930
-0.3357,0.3656"/><polyline points="0.0211,0.3930
0.0211,0.3656"/><polyline points="0.3778,0.3930
0.3778,0.3656"/></g></g><g class="ticktext"><g stroke-width="0.0" stroke="none" fill="rgb(5%, 5%, 5%)" fill-opacity="1.0" font-size="0.0400" text-anchor="middle"><text x="-0.6924" y="0.4433">0</text><text x="-0.3357" y="0.4433">2</text><text x="0.0211" y="0.4433">4</text><text x="0.3778" y="0.4433">6</text></g></g></g></g><g class="frame"><g stroke-width="0" stroke="rgb(0%, 0%, 0%)" stroke-opacity="0" fill="rgb(100%, 100%, 100%)" fill-opacity="0.02"><rect width="1.5000" height="1.0" x="-0.75" y="-0.5"/></g></g></g></svg>