<svg xmlns="http://www.w3.org/2000/svg" xmlns:xlink="http://www.w3.org/1999/xlink" width="450" height="300" viewBox="-0.75 -0.5 1.5 1.0"><style>svg {color-scheme: light dark;} {.canvas g, .title g, .axisbar g, .ticktext g, .tickglyph g, .ticklines g, .legendContent g text {fill: rgb(5%, 5%, 5%);} .ticklines g, .tickglyph g, .legendBorder g {stroke: rgb(5%, 5%, 5%);} .legendBorder g {fill: rgb(94%, 94%, 94%);}} @media (prefers-color-scheme:dark) {.canvas g, .title g, .axisbar g, .ticktext g, .tickglyph g, .ticklines g, .legendContent g text {fill: rgb(94%, 94%, 94%);} .ticklines g, .tickglyph g, .legendBorder g {stroke: rgb(94%, 94%, 94%);} .legendBorder g {fill: rgb(5%, 5%, 5%);}}
svg { font-family: system-ui,-apple-system,"Segoe UI",Roboto,"Helvetica Neue",Arial,"Noto Sans","Liberation Sans",sans-serif,"Apple Color Emoji","Segoe UI Emoji","Segoe UI Symbol","Noto Color Emoji";
}

ticktext { font-family: SFMono-Regular,Menlo,Monaco,Consolas,"Liberation Mono","Courier New",monospace;}</style><g class="chart"><g class="histogram"><g stroke-width="0.0100" stroke="rgb(2%, 29%, 48%)" stroke-opacity="1.0" fill="rgb(2%, 73%, 80%)" fill-opacity="0.1"><rect width="0.0284" height="0.0145" x="-0.6989" y="0.3355"/><rect width="0.0284" height="0.0580" x="-0.6705" y="0.2920"/><rect width="0.0284" height="0.0145" x="-0.6137" y="0.3355"/><rect width="0.0284" height="0.0435" x="-0.5853" y="0.3065"/><rect width="0.0284" height="0.0580" x="-0.5569" y="0.2920"/><rect width="0.0284" height="0.0580" x="-0.5285" y="0.2920"/><rect width="0.0284" height="0.1451" x="-0.5001" y="0.2049"/><rect width="0.0284" height="0.0871" x="-0.4717" y="0.2630"/><rect width="0.0284" height="0.1306" x="-0.4433" y="0.2194"/><rect width="0.0284" height="0.1596" x="-0.4150" y="0.1904"/><rect width="0.0284" height="0.1306" x="-0.3866" y="0.2194"/><rect width="0.0284" height="0.2902" x="-0.3582" y="0.0598"/><rect width="0.0284" height="0.2612" x="-0.3298" y="0.0888"/><rect width="0.0284" height="0.3483" x="-0.3014" y="0.0017"/><rect width="0.0284" height="0.3918" x="-0.2730" y="-0.0418"/><rect width="0.0284" height="0.5660" x="-0.2446" y="-0.2159"/><rect width="0.0284" height="0.5950" x="-0.2162" y="-0.2450"/><rect width="0.0284" height="0.5950" x="-0.1878" y="-0.2450"/><rect width="0.0284" height="0.5224" x="-0.1594" y="-0.1724"/><rect width="0.0284" height="0.4644" x="-0.1310" y="-0.1144"/><rect width="0.0284" height="0.5950" x="-0.1026" y="-0.2450"/><rect width="0.0284" height="0.7836" x="-0.0742" y="-0.4336"/><rect width="0.0284" height="0.7981" x="-0.0458" y="-0.4481"/><rect width="0.0284" height="0.6530" x="-0.0174" y="-0.3030"/><rect width="0.0284" height="0.6385" x="0.0109" y="-0.2885"/><rect width="0.0284" height="0.6530" x="0.0393" y="-0.3030"/><rect width="0.0284" height="0.6095" x="0.0677" y="-0.2595"/><rect width="0.0284" height="0.6095" x="0.0961" y="-0.2595"/><rect width="0.0284" height="0.4208" x="0.1245" y="-0.0708"/><rect width="0.0284" height="0.4934" x="0.1529" y="-0.1434"/><rect width="0.0284" height="0.4208" x="0.1813" y="-0.0708"/><rect width="0.0284" height="0.2902" x="0.2097" y="0.0598"/><rect width="0.0284" height="0.4354" x="0.2381" y="-0.0853"/><rect width="0.0284" height="0.4789" x="0.2665" y="-0.1289"/><rect width="0.0284" height="0.3483" x="0.2949" y="0.0017"/><rect width="0.0284" height="0.1887" x="0.3233" y="0.1614"/><rect width="0.0284" height="0.2322" x="0.3517" y="0.1178"/><rect width="0.0284" height="0.1741" x="0.3801" y="0.1759"/><rect width="0.0284" height="0.1887" x="0.4084" y="0.1614"/><rect width="0.0284" height="0.1306" x="0.4368" y="0.2194"/><rect width="0.0284" height="0.1161" x="0.4652" y="0.2339"/><rect width="0.0284" height="0.0871" x="0.4936" y="0.2630"/><rect width="0.0284" height="0.0580" x="0.5220" y="0.2920"/><rect width="0.0284" height="0.0435" x="0.5504" y="0.3065"/><rect width="0.0284" height="0.0726" x="0.5788" y="0.2775"/><rect width="0.0284" height="0.0145" x="0.6356" y="0.3355"/><rect width="0.0284" height="0.0435" x="0.6640" y="0.3065"/></g></g></g><g class="hud"><g class="axis"><g class="axisbar"><g stroke-width="0" stroke="rgb(0%, 0%, 0%)" stroke-opacity="0" fill="rgb(5%, 5%, 5%)" fill-opacity="0.4"><rect width="1.3950" height="0.0038" x="-0.7007" y="0.3595"/></g></g><g class="ticks"><g class="tickglyph"><g stroke-width="0.0038" stroke="rgb(5%, 5%, 5%)" stroke-opacity="0.4" fill="rgb(5%, 5%, 5%)" fill-opacity="0.4"><polyline points="-0.4433,0.3896
-0.4433,0.3613"/><polyline points="-0.1594,0.3896
-0.1594,0.3613"/><polyline points="0.1245,0.3896
0.1245,0.3613"/><polyline points="0.4084,0.3896
0.4084,0.3613"/><polyline points="0.6924,0.3896
0.6924,0.3613"/></g></g><g class="ticktext"><g stroke-width="0.0" stroke="none" fill="rgb(5%, 5%, 5%)" fill-opacity="1.0" font-size="0.0400" text-anchor="middle"><text x="-0.4433" y="0.4415">1</text><text x="-0.1594" y="0.4415">2</text><text x="0.1245" y="0.4415">3</text><text x="0.4084" y="0.4415">4</text><text x="0.6924" y="0.4415">5</text></g></g></g></g><g class="frame"><g stroke-width="0" stroke="rgb(0%, 0%, 0%)" stroke-opacity="0" fill="rgb(100%, 100%, 100%)" fill-opacity="0.02"><rect width="1.5" height="1.0" x="-0.75" y="-0.5"/></g></g></g></svg>