<svg xmlns="http://www.w3.org/2000/svg" xmlns:xlink="http://www.w3.org/1999/xlink" width="450" height="300" viewBox="-0.75 -0.5 1.5 1.0"><style>svg {color-scheme: light dark;} {.canvas g, .title g, .axisbar g, .ticktext g, .tickglyph g, .ticklines g, .legendContent g text {fill: rgb(5%, 5%, 5%);} .ticklines g, .tickglyph g, .legendBorder g {stroke: rgb(5%, 5%, 5%);} .legendBorder g {fill: rgb(94%, 94%, 94%);}} @media (prefers-color-scheme:dark) {.canvas g, .title g, .axisbar g, .ticktext g, .tickglyph g, .ticklines g, .legendContent g text {fill: rgb(94%, 94%, 94%);} .ticklines g, .tickglyph g, .legendBorder g {stroke: rgb(94%, 94%, 94%);} .legendBorder g {fill: rgb(5%, 5%, 5%);}}
svg { font-family: system-ui,-apple-system,"Segoe UI",Roboto,"Helvetica Neue",Arial,"Noto Sans","Liberation Sans",sans-serif,"Apple Color Emoji","Segoe UI Emoji","Segoe UI Symbol","Noto Color Emoji";
}

ticktext { font-family: SFMono-Regular,Menlo,Monaco,Consolas,"Liberation Mono","Courier New",monospace;}</style><g class="chart"><g class="histogram"><g stroke-width="0.0100" stroke="rgb(2%, 29%, 48%)" stroke-opacity="1.0" fill="rgb(2%, 73%, 80%)" fill-opacity="0.1"><rect width="0.0341" height="0.0095" x="-0.6987" y="0.3471"/><rect width="0.0341" height="0.0095" x="-0.6646" y="0.3471"/><rect width="0.0341" height="0.0190" x="-0.5965" y="0.3376"/><rect width="0.0341" height="0.0190" x="-0.5624" y="0.3376"/><rect width="0.0341" height="0.0380" x="-0.4942" y="0.3186"/><rect width="0.0341" height="0.0475" x="-0.4601" y="0.3091"/><rect width="0.0341" height="0.0475" x="-0.4260" y="0.3091"/><rect width="0.0341" height="0.1044" x="-0.3920" y="0.2522"/><rect width="0.0341" height="0.1424" x="-0.3579" y="0.2142"/><rect width="0.0341" height="0.1424" x="-0.3238" y="0.2142"/><rect width="0.0341" height="0.1614" x="-0.2897" y="0.1952"/><rect width="0.0341" height="0.2373" x="-0.2556" y="0.1192"/><rect width="0.0341" height="0.2184" x="-0.2215" y="0.1382"/><rect width="0.0341" height="0.2563" x="-0.1875" y="0.1003"/><rect width="0.0341" height="0.4462" x="-0.1534" y="-0.0896"/><rect width="0.0341" height="0.5412" x="-0.1193" y="-0.1846"/><rect width="0.0341" height="0.5791" x="-0.0852" y="-0.2225"/><rect width="0.0341" height="0.7310" x="-0.0511" y="-0.3744"/><rect width="0.0341" height="0.5317" x="-0.0170" y="-0.1751"/><rect width="0.0341" height="0.6076" x="0.0170" y="-0.2510"/><rect width="0.0341" height="0.5981" x="0.0511" y="-0.2415"/><rect width="0.0341" height="0.8070" x="0.0852" y="-0.4504"/><rect width="0.0341" height="0.5601" x="0.1193" y="-0.2036"/><rect width="0.0341" height="0.4272" x="0.1534" y="-0.0706"/><rect width="0.0341" height="0.4842" x="0.1875" y="-0.1276"/><rect width="0.0341" height="0.4937" x="0.2215" y="-0.1371"/><rect width="0.0341" height="0.3323" x="0.2556" y="0.0243"/><rect width="0.0341" height="0.2658" x="0.2897" y="0.0908"/><rect width="0.0341" height="0.1424" x="0.3238" y="0.2142"/><rect width="0.0341" height="0.1424" x="0.3579" y="0.2142"/><rect width="0.0341" height="0.1044" x="0.3920" y="0.2522"/><rect width="0.0341" height="0.0570" x="0.4260" y="0.2996"/><rect width="0.0341" height="0.0475" x="0.4601" y="0.3091"/><rect width="0.0341" height="0.0570" x="0.4942" y="0.2996"/><rect width="0.0341" height="0.0475" x="0.5283" y="0.3091"/><rect width="0.0341" height="0.0095" x="0.5965" y="0.3471"/><rect width="0.0341" height="0.0095" x="0.6305" y="0.3471"/><rect width="0.0341" height="0.0190" x="0.6646" y="0.3376"/></g></g></g><g class="hud"><g class="axis"><g class="axisbar"><g stroke-width="0" stroke="rgb(0%, 0%, 0%)" stroke-opacity="0" fill="rgb(5%, 5%, 5%)" fill-opacity="0.4"><rect width="1.4011" height="0.0036" x="-0.7006" y="0.3656"/></g></g><g class="ticks"><g class="tickglyph"><g stroke-width="0.0036" stroke="rgb(5%, 5%, 5%)" stroke-opacity="0.4" fill="rgb(5%, 5%, 5%)" fill-opacity="0.4"><polyline points="-0.6305,0.3945
-0.6305,0.3674"/><polyline points="-0.2897,0.3945
-0.2897,0.3674"/><polyline points="0.0511,0.3945
0.0511,0.3674"/><polyline points="0.3920,0.3945
0.3920,0.3674"/></g></g><g class="ticktext"><g stroke-width="0.0" stroke="none" fill="rgb(5%, 5%, 5%)" fill-opacity="1.0" font-size="0.0400" text-anchor="middle"><text x="-0.6305" y="0.4441">0</text><text x="-0.2897" y="0.4441">2</text><text x="0.0511" y="0.4441">4</text><text x="0.3920" y="0.4441">6</text></g></g></g></g><g class="frame"><g stroke-width="0" stroke="rgb(0%, 0%, 0%)" stroke-opacity="0" fill="rgb(100%, 100%, 100%)" fill-opacity="0.02"><rect width="1.5" height="1.0" x="-0.75" y="-0.5"/></g></g></g></svg>