<svg xmlns="http://www.w3.org/2000/svg" xmlns:xlink="http://www.w3.org/1999/xlink" width="450" height="300" viewBox="-0.75 -0.5 1.5 1.0"><style>svg {color-scheme: light dark;} {.canvas g, .title g, .axisbar g, .ticktext g, .tickglyph g, .ticklines g, .legendContent g text {fill: rgb(5%, 5%, 5%);} .ticklines g, .tickglyph g, .legendBorder g {stroke: rgb(5%, 5%, 5%);} .legendBorder g {fill: rgb(94%, 94%, 94%);}} @media (prefers-color-scheme:dark) {.canvas g, .title g, .axisbar g, .ticktext g, .tickglyph g, .ticklines g, .legendContent g text {fill: rgb(94%, 94%, 94%);} .ticklines g, .tickglyph g, .legendBorder g {stroke: rgb(94%, 94%, 94%);} .legendBorder g {fill: rgb(5%, 5%, 5%);}}
svg { font-family: system-ui,-apple-system,"Segoe UI",Roboto,"Helvetica Neue",Arial,"Noto Sans","Liberation Sans",sans-serif,"Apple Color Emoji","Segoe UI Emoji","Segoe UI Symbol","Noto Color Emoji";
}

ticktext { font-family: SFMono-Regular,Menlo,Monaco,Consolas,"Liberation Mono","Courier New",monospace;}</style><g class="chart"><g class="histogram"><g stroke-width="0.0100" stroke="rgb(2%, 29%, 48%)" stroke-opacity="1.0" fill="rgb(2%, 73%, 80%)" fill-opacity="0.1"><rect width="0.0222" height="0.0005" x="-0.6987" y="0.3650"/><rect width="0.0222" height="0.0008" x="-0.6766" y="0.3647"/><rect width="0.0222" height="0.0008" x="-0.6544" y="0.3647"/><rect width="0.0222" height="0.0010" x="-0.6322" y="0.3645"/><rect width="0.0222" height="0.0020" x="-0.6100" y="0.3635"/><rect width="0.0222" height="0.0116" x="-0.5878" y="0.3539"/><rect width="0.0222" height="0.0878" x="-0.5656" y="0.2777"/><rect width="0.0222" height="0.7629" x="-0.5435" y="-0.3974"/><rect width="0.0222" height="0.8190" x="-0.5213" y="-0.4535"/><rect width="0.0222" height="0.4685" x="-0.4991" y="-0.1030"/><rect width="0.0222" height="0.2394" x="-0.4769" y="0.1261"/><rect width="0.0222" height="0.1335" x="-0.4547" y="0.2320"/><rect width="0.0222" height="0.0689" x="-0.4326" y="0.2966"/><rect width="0.0222" height="0.0365" x="-0.4104" y="0.3290"/><rect width="0.0222" height="0.0216" x="-0.3882" y="0.3439"/><rect width="0.0222" height="0.0133" x="-0.3660" y="0.3522"/><rect width="0.0222" height="0.0080" x="-0.3438" y="0.3575"/><rect width="0.0222" height="0.0028" x="-0.3216" y="0.3627"/><rect width="0.0222" height="0.0035" x="-0.2995" y="0.3620"/><rect width="0.0222" height="0.0023" x="-0.2773" y="0.3632"/><rect width="0.0222" height="0.0013" x="-0.2551" y="0.3642"/><rect width="0.0222" height="0.0005" x="-0.2329" y="0.3650"/><rect width="0.0222" height="0.0018" x="-0.2107" y="0.3637"/><rect width="0.0222" height="0.0005" x="-0.1885" y="0.3650"/><rect width="0.0222" height="0.0013" x="-0.1664" y="0.3642"/><rect width="0.0222" height="0.0010" x="-0.1220" y="0.3645"/><rect width="0.0222" height="0.0005" x="-0.0776" y="0.3650"/><rect width="0.0222" height="0.0008" x="-0.0555" y="0.3647"/><rect width="0.0222" height="0.0003" x="-0.0333" y="0.3652"/><rect width="0.0222" height="0.0003" x="0.0111" y="0.3652"/><rect width="0.0222" height="0.0003" x="0.6766" y="0.3652"/></g></g></g><g class="hud"><g class="axis"><g class="axisbar"><g stroke-width="0" stroke="rgb(0%, 0%, 0%)" stroke-opacity="0" fill="rgb(5%, 5%, 5%)" fill-opacity="0.4"><rect width="1.4012" height="0.0034" x="-0.7006" y="0.3740"/></g></g><g class="ticks"><g class="tickglyph"><g stroke-width="0.0034" stroke="rgb(5%, 5%, 5%)" stroke-opacity="0.4" fill="rgb(5%, 5%, 5%)" fill-opacity="0.4"><polyline points="-0.4991,0.4010
-0.4991,0.3757"/><polyline points="-0.2773,0.4010
-0.2773,0.3757"/><polyline points="-0.0555,0.4010
-0.0555,0.3757"/><polyline points="0.1664,0.4010
0.1664,0.3757"/><polyline points="0.3882,0.4010
0.3882,0.3757"/><polyline points="0.6100,0.4010
0.6100,0.3757"/></g></g><g class="ticktext"><g stroke-width="0.0" stroke="none" fill="rgb(5%, 5%, 5%)" fill-opacity="1.0" font-size="0.0400" text-anchor="middle"><text x="-0.4991" y="0.4476"> 0</text><text x="-0.2773" y="0.4476"> 5</text><text x="-0.0555" y="0.4476">10</text><text x="0.1664" y="0.4476">15</text><text x="0.3882" y="0.4476">20</text><text x="0.6100" y="0.4476">25</text></g></g></g></g><g class="frame"><g stroke-width="0" stroke="rgb(0%, 0%, 0%)" stroke-opacity="0" fill="rgb(100%, 100%, 100%)" fill-opacity="0.02"><rect width="1.5" height="1.0" x="-0.75" y="-0.5"/></g></g></g></svg>